<?xml version="1.0" encoding="UTF-8" standalone="no"?>
<svg
   height="345.6pt"
   version="1.1"
   viewBox="0 0 460.8 345.6"
   width="460.8pt"
   id="svg1344"
   sodipodi:docname="bif_pitch_subcritical.svg"
   inkscape:version="1.2.2 (732a01da63, 2022-12-09)"
   inkscape:export-filename="bif_pitch_subcritical.pdf"
   inkscape:export-xdpi="300"
   inkscape:export-ydpi="300"
   xmlns:inkscape="http://www.inkscape.org/namespaces/inkscape"
   xmlns:sodipodi="http://sodipodi.sourceforge.net/DTD/sodipodi-0.dtd"
   xmlns:xlink="http://www.w3.org/1999/xlink"
   xmlns="http://www.w3.org/2000/svg"
   xmlns:svg="http://www.w3.org/2000/svg"
   xmlns:rdf="http://www.w3.org/1999/02/22-rdf-syntax-ns#"
   xmlns:cc="http://creativecommons.org/ns#"
   xmlns:dc="http://purl.org/dc/elements/1.1/">
  <sodipodi:namedview
     id="namedview1346"
     pagecolor="#ffffff"
     bordercolor="#666666"
     borderopacity="1.0"
     inkscape:pageshadow="2"
     inkscape:pageopacity="0.0"
     inkscape:pagecheckerboard="0"
     inkscape:document-units="pt"
     showgrid="false"
     inkscape:zoom="2.3508844"
     inkscape:cx="306.90578"
     inkscape:cy="237.78285"
     inkscape:window-width="2560"
     inkscape:window-height="1334"
     inkscape:window-x="-11"
     inkscape:window-y="-11"
     inkscape:window-maximized="1"
     inkscape:current-layer="layer2"
     inkscape:showpageshadow="2"
     inkscape:deskcolor="#d1d1d1" />
  <metadata
     id="metadata1086">
    <rdf:RDF>
      <cc:Work>
        <dc:type
           rdf:resource="http://purl.org/dc/dcmitype/StillImage" />
        <dc:date />
        <dc:format />
        <dc:creator>
          <cc:Agent>
            <dc:title />
          </cc:Agent>
        </dc:creator>
      </cc:Work>
    </rdf:RDF>
  </metadata>
  <defs
     id="defs1090">
    <style
       type="text/css"
       id="style1088">*{stroke-linecap:butt;stroke-linejoin:round;}</style>
    <defs
       id="defs1099">
      <path
         d="M 0 0  L 0 3.5  "
         id="m5d5ae6eafd"
         style="stroke:#000000;stroke-width:0.8;" />
    </defs>
    <defs
       id="defs1110">
      <path
         d="M 678 2272  L 4684 2272  L 4684 1741  L 678 1741  L 678 2272  z "
         id="DejaVuSans-2212"
         transform="scale(0.015625)" />
      <path
         d="M 2034 4250  Q 1547 4250 1301 3770  Q 1056 3291 1056 2328  Q 1056 1369 1301 889  Q 1547 409 2034 409  Q 2525 409 2770 889  Q 3016 1369 3016 2328  Q 3016 3291 2770 3770  Q 2525 4250 2034 4250  z M 2034 4750  Q 2819 4750 3233 4129  Q 3647 3509 3647 2328  Q 3647 1150 3233 529  Q 2819 -91 2034 -91  Q 1250 -91 836 529  Q 422 1150 422 2328  Q 422 3509 836 4129  Q 1250 4750 2034 4750  z "
         id="DejaVuSans-30"
         transform="scale(0.015625)" />
      <path
         d="M 684 794  L 1344 794  L 1344 0  L 684 0  L 684 794  z "
         id="DejaVuSans-2e"
         transform="scale(0.015625)" />
      <path
         d="M 2419 4116  L 825 1625  L 2419 1625  L 2419 4116  z M 2253 4666  L 3047 4666  L 3047 1625  L 3713 1625  L 3713 1100  L 3047 1100  L 3047 0  L 2419 0  L 2419 1100  L 313 1100  L 313 1709  L 2253 4666  z "
         id="DejaVuSans-34"
         transform="scale(0.015625)" />
    </defs>
    <defs
       id="defs1130">
      <path
         d="M 2597 2516  Q 3050 2419 3304 2112  Q 3559 1806 3559 1356  Q 3559 666 3084 287  Q 2609 -91 1734 -91  Q 1441 -91 1130 -33  Q 819 25 488 141  L 488 750  Q 750 597 1062 519  Q 1375 441 1716 441  Q 2309 441 2620 675  Q 2931 909 2931 1356  Q 2931 1769 2642 2001  Q 2353 2234 1838 2234  L 1294 2234  L 1294 2753  L 1863 2753  Q 2328 2753 2575 2939  Q 2822 3125 2822 3475  Q 2822 3834 2567 4026  Q 2313 4219 1838 4219  Q 1578 4219 1281 4162  Q 984 4106 628 3988  L 628 4550  Q 988 4650 1302 4700  Q 1616 4750 1894 4750  Q 2613 4750 3031 4423  Q 3450 4097 3450 3541  Q 3450 3153 3228 2886  Q 3006 2619 2597 2516  z "
         id="DejaVuSans-33"
         transform="scale(0.015625)" />
    </defs>
    <defs
       id="defs1150">
      <path
         d="M 1228 531  L 3431 531  L 3431 0  L 469 0  L 469 531  Q 828 903 1448 1529  Q 2069 2156 2228 2338  Q 2531 2678 2651 2914  Q 2772 3150 2772 3378  Q 2772 3750 2511 3984  Q 2250 4219 1831 4219  Q 1534 4219 1204 4116  Q 875 4013 500 3803  L 500 4441  Q 881 4594 1212 4672  Q 1544 4750 1819 4750  Q 2544 4750 2975 4387  Q 3406 4025 3406 3419  Q 3406 3131 3298 2873  Q 3191 2616 2906 2266  Q 2828 2175 2409 1742  Q 1991 1309 1228 531  z "
         id="DejaVuSans-32"
         transform="scale(0.015625)" />
    </defs>
    <defs
       id="defs1170">
      <path
         d="M 794 531  L 1825 531  L 1825 4091  L 703 3866  L 703 4441  L 1819 4666  L 2450 4666  L 2450 531  L 3481 531  L 3481 0  L 794 0  L 794 531  z "
         id="DejaVuSans-31"
         transform="scale(0.015625)" />
    </defs>
    <defs
       id="defs1231">
      <path
         d="M 0 0  L -3.5 0  "
         id="me9bc75959e"
         style="stroke:#000000;stroke-width:0.8;" />
    </defs>
    <defs
       id="defs1256">
      <path
         d="M 691 4666  L 3169 4666  L 3169 4134  L 1269 4134  L 1269 2991  Q 1406 3038 1543 3061  Q 1681 3084 1819 3084  Q 2600 3084 3056 2656  Q 3513 2228 3513 1497  Q 3513 744 3044 326  Q 2575 -91 1722 -91  Q 1428 -91 1123 -41  Q 819 9 494 109  L 494 744  Q 775 591 1075 516  Q 1375 441 1709 441  Q 2250 441 2565 725  Q 2881 1009 2881 1497  Q 2881 1984 2565 2268  Q 2250 2553 1709 2553  Q 1456 2553 1204 2497  Q 953 2441 691 2322  L 691 4666  z "
         id="DejaVuSans-35"
         transform="scale(0.015625)" />
    </defs>
    <clipPath
       id="clipPath7896">
      <path
         clip-rule="nonzero"
         d="M 0,0 H 10 V 12.914063 H 0 Z m 0,0"
         id="path8911" />
    </clipPath>
    <clipPath
       id="clipPath4324">
      <path
         clip-rule="nonzero"
         d="M 0,0 H 11 V 8.894531 H 0 Z m 0,0"
         id="path4926" />
    </clipPath>
    <g
       id="g9261">
      <symbol
         overflow="visible"
         id="symbol1461">
        <path
           style="stroke:none;"
           d=""
           id="path890" />
      </symbol>
      <symbol
         overflow="visible"
         id="symbol5168">
        <path
           style="stroke:none;"
           d="M 4.859375 -2.765625 C 4.921875 -2.9375 4.9375 -3.078125 4.9375 -3.34375 C 4.9375 -3.984375 4.546875 -4.40625 3.796875 -4.40625 C 3.015625 -4.40625 2.5 -3.890625 2.25 -3.53125 C 2.203125 -4.109375 1.78125 -4.40625 1.328125 -4.40625 C 0.875 -4.40625 0.6875 -4.015625 0.59375 -3.84375 C 0.421875 -3.5 0.296875 -2.90625 0.296875 -2.875 C 0.296875 -2.765625 0.390625 -2.765625 0.40625 -2.765625 C 0.515625 -2.765625 0.515625 -2.78125 0.578125 -3 C 0.75 -3.703125 0.953125 -4.1875 1.3125 -4.1875 C 1.46875 -4.1875 1.609375 -4.109375 1.609375 -3.734375 C 1.609375 -3.515625 1.578125 -3.40625 1.453125 -2.890625 L 0.875 -0.59375 C 0.84375 -0.4375 0.78125 -0.203125 0.78125 -0.15625 C 0.78125 0.015625 0.921875 0.109375 1.078125 0.109375 C 1.203125 0.109375 1.375 0.03125 1.453125 -0.171875 C 1.453125 -0.1875 1.578125 -0.65625 1.640625 -0.90625 L 1.859375 -1.796875 C 1.90625 -2.03125 1.96875 -2.25 2.03125 -2.46875 C 2.046875 -2.53125 2.125 -2.859375 2.140625 -2.921875 C 2.15625 -3.015625 2.46875 -3.5625 2.8125 -3.84375 C 3.03125 -4 3.34375 -4.1875 3.765625 -4.1875 C 4.203125 -4.1875 4.3125 -3.84375 4.3125 -3.484375 C 4.3125 -3.4375 4.3125 -3.265625 4.203125 -2.859375 L 3.078125 1.71875 C 3.046875 1.84375 3.046875 1.859375 3.046875 1.890625 C 3.046875 2.03125 3.15625 2.15625 3.3125 2.15625 C 3.625 2.15625 3.703125 1.859375 3.734375 1.75 Z M 4.859375 -2.765625 "
           id="path2050" />
      </symbol>
      <symbol
         overflow="visible"
         id="symbol5509">
        <path
           style="stroke:none;"
           d=""
           id="path4292" />
      </symbol>
      <symbol
         overflow="visible"
         id="symbol1305">
        <path
           style="stroke:none;"
           d="M 3 -2.625 C 2.828125 -2.578125 2.703125 -2.4375 2.703125 -2.296875 C 2.703125 -2.125 2.84375 -2.0625 2.9375 -2.0625 C 3.015625 -2.0625 3.28125 -2.109375 3.28125 -2.46875 C 3.28125 -2.921875 2.78125 -3.078125 2.34375 -3.078125 C 1.265625 -3.078125 1.0625 -2.265625 1.0625 -2.0625 C 1.0625 -1.796875 1.21875 -1.625 1.3125 -1.546875 C 1.484375 -1.40625 1.609375 -1.375 2.09375 -1.296875 C 2.25 -1.265625 2.6875 -1.1875 2.6875 -0.84375 C 2.6875 -0.71875 2.609375 -0.453125 2.328125 -0.28125 C 2.046875 -0.125 1.703125 -0.125 1.625 -0.125 C 1.34375 -0.125 0.953125 -0.1875 0.78125 -0.421875 C 1.015625 -0.453125 1.171875 -0.625 1.171875 -0.8125 C 1.171875 -0.984375 1.046875 -1.078125 0.90625 -1.078125 C 0.703125 -1.078125 0.5 -0.90625 0.5 -0.609375 C 0.5 -0.1875 0.9375 0.0625 1.609375 0.0625 C 2.90625 0.0625 3.140625 -0.8125 3.140625 -1.078125 C 3.140625 -1.71875 2.4375 -1.84375 2.171875 -1.890625 C 2.109375 -1.90625 1.9375 -1.9375 1.890625 -1.953125 C 1.640625 -2 1.515625 -2.140625 1.515625 -2.296875 C 1.515625 -2.453125 1.640625 -2.640625 1.796875 -2.75 C 1.984375 -2.859375 2.21875 -2.875 2.34375 -2.875 C 2.484375 -2.875 2.84375 -2.859375 3 -2.625 Z M 3 -2.625 "
           id="path8728" />
      </symbol>
      <symbol
         overflow="visible"
         id="symbol2264">
        <path
           style="stroke:none;"
           d="M 0.84375 -0.4375 C 0.828125 -0.34375 0.78125 -0.171875 0.78125 -0.15625 C 0.78125 0 0.90625 0.0625 1.015625 0.0625 C 1.140625 0.0625 1.25 -0.015625 1.296875 -0.078125 C 1.328125 -0.140625 1.375 -0.375 1.421875 -0.515625 C 1.453125 -0.640625 1.53125 -0.96875 1.5625 -1.140625 C 1.609375 -1.296875 1.65625 -1.453125 1.6875 -1.609375 C 1.765625 -1.890625 1.78125 -1.953125 1.984375 -2.234375 C 2.171875 -2.515625 2.5 -2.875 3.03125 -2.875 C 3.421875 -2.875 3.4375 -2.515625 3.4375 -2.390625 C 3.4375 -1.96875 3.140625 -1.203125 3.03125 -0.90625 C 2.953125 -0.703125 2.921875 -0.640625 2.921875 -0.53125 C 2.921875 -0.15625 3.21875 0.0625 3.578125 0.0625 C 4.28125 0.0625 4.578125 -0.890625 4.578125 -1 C 4.578125 -1.09375 4.5 -1.09375 4.46875 -1.09375 C 4.375 -1.09375 4.375 -1.046875 4.34375 -0.96875 C 4.1875 -0.40625 3.875 -0.125 3.609375 -0.125 C 3.453125 -0.125 3.421875 -0.21875 3.421875 -0.375 C 3.421875 -0.53125 3.46875 -0.625 3.59375 -0.9375 C 3.671875 -1.15625 3.953125 -1.890625 3.953125 -2.28125 C 3.953125 -2.953125 3.421875 -3.078125 3.046875 -3.078125 C 2.46875 -3.078125 2.078125 -2.71875 1.875 -2.4375 C 1.828125 -2.921875 1.421875 -3.078125 1.125 -3.078125 C 0.828125 -3.078125 0.671875 -2.859375 0.578125 -2.703125 C 0.421875 -2.4375 0.328125 -2.046875 0.328125 -2 C 0.328125 -1.921875 0.421875 -1.921875 0.453125 -1.921875 C 0.546875 -1.921875 0.546875 -1.9375 0.59375 -2.125 C 0.703125 -2.53125 0.84375 -2.875 1.109375 -2.875 C 1.296875 -2.875 1.34375 -2.71875 1.34375 -2.53125 C 1.34375 -2.40625 1.28125 -2.140625 1.21875 -1.953125 C 1.171875 -1.765625 1.109375 -1.484375 1.078125 -1.328125 Z M 0.84375 -0.4375 "
           id="path1989" />
      </symbol>
    </g>
  </defs>
  <defs
     id="defs1342">
    <clipPath
       id="p7431ffdc2e">
      <rect
         height="266.112"
         width="357.12"
         x="57.6"
         y="41.472"
         id="rect1339" />
    </clipPath>
  </defs>
  <g
     inkscape:groupmode="layer"
     id="layer2"
     inkscape:label="bg">
    <rect
       style="opacity:1;fill:#ffffff;stroke:none;stroke-width:1.5;stroke-linecap:round"
       id="rect962"
       width="426.22256"
       height="320.30499"
       x="8.2947502"
       y="21.055906" />
    <path
       id="path1143"
       style="fill:#008000;stroke:#008000;stroke-width:1.05;stroke-linecap:butt;stroke-linejoin:miter;stroke-miterlimit:4;stroke-dasharray:1.05, 3.15;stroke-dashoffset:0;stroke-opacity:1"
       d="M 139.82959 41.507813 L 139.82959 306.90527 L 139.82959 41.507813 z " />
    <g
       inkscape:label=""
       transform="matrix(1.8025505,0,0,1.8025505,-37.693398,172.06381)"
       id="g1405"
       style="fill:#008000;stroke-width:1.00024937;stroke-miterlimit:4;stroke-dasharray:none;fill-opacity:1">
      <g
         id="g1445"
         style="fill:#008000;stroke-width:1.00024937;stroke-miterlimit:4;stroke-dasharray:none;fill-opacity:1">
        <g
           style="fill:#008000;fill-opacity:1;stroke-width:1.00024937;stroke-miterlimit:4;stroke-dasharray:none"
           id="g6538">
          <use
             xlink:href="#symbol5168"
             x="91.925003"
             y="81.962997"
             id="use3885"
             width="100%"
             height="100%"
             style="fill:#008000;stroke-width:1.00024937;stroke-miterlimit:4;stroke-dasharray:none;fill-opacity:1" />
        </g>
        <g
           style="fill:#008000;fill-opacity:1;stroke-width:1.00024937;stroke-miterlimit:4;stroke-dasharray:none"
           id="g3662">
          <use
             xlink:href="#symbol1305"
             x="96.872002"
             y="83.457001"
             id="use5487"
             width="100%"
             height="100%"
             style="fill:#008000;stroke-width:1.00024937;stroke-miterlimit:4;stroke-dasharray:none;fill-opacity:1" />
          <use
             xlink:href="#symbol2264"
             x="100.63227"
             y="83.457001"
             id="use9925"
             width="100%"
             height="100%"
             style="fill:#008000;stroke-width:1.00024937;stroke-miterlimit:4;stroke-dasharray:none;fill-opacity:1" />
        </g>
      </g>
    </g>
  </g>
  <g
     inkscape:groupmode="layer"
     id="layer1"
     inkscape:label="plot">
    <path
       d="M 0 0  L 0 3.5  "
       style="stroke-linecap:butt;stroke-linejoin:round;opacity:1;stroke:#000000;stroke-width:0.8"
       id="use1101"
       unlinked_clone="True"
       transform="translate(57.6,307.584)" />
    <path
       d="M 0 0  L 0 3.5  "
       style="stroke-linecap:butt;stroke-linejoin:round;opacity:1;stroke:#000000;stroke-width:0.8"
       id="use1124"
       transform="translate(112.542,307.584)"
       unlinked_clone="True" />
    <path
       d="M 0 0  L 0 3.5  "
       style="stroke-linecap:butt;stroke-linejoin:round;opacity:1;stroke:#000000;stroke-width:0.8"
       id="use1144"
       transform="translate(167.483,307.584)"
       unlinked_clone="True" />
    <path
       d="M 0 0  L 0 3.5  "
       style="stroke-linecap:butt;stroke-linejoin:round;opacity:1;stroke:#000000;stroke-width:0.8"
       id="use1164"
       transform="translate(222.425,307.584)"
       unlinked_clone="True" />
    <path
       d="M 0 0  L 0 3.5  "
       style="stroke-linecap:butt;stroke-linejoin:round;opacity:1;stroke:#000000;stroke-width:0.8"
       id="use1184"
       transform="translate(277.366,307.584)"
       unlinked_clone="True" />
    <path
       d="M 0 0  L 0 3.5  "
       style="stroke-linecap:butt;stroke-linejoin:round;opacity:1;stroke:#000000;stroke-width:0.8"
       id="use1199"
       transform="translate(332.308,307.584)"
       unlinked_clone="True" />
    <path
       d="M 0 0  L 0 3.5  "
       style="stroke-linecap:butt;stroke-linejoin:round;opacity:1;stroke:#000000;stroke-width:0.8"
       id="use1214"
       transform="translate(387.249,307.584)"
       unlinked_clone="True" />
    <path
       d="M 0 0  L -3.5 0  "
       style="stroke-linecap:butt;stroke-linejoin:round;opacity:1;stroke:#000000;stroke-width:0.8"
       id="use1233"
       transform="translate(57.6,291.244)"
       unlinked_clone="True" />
    <path
       d="M 0 0  L -3.5 0  "
       style="stroke-linecap:butt;stroke-linejoin:round;opacity:1;stroke:#000000;stroke-width:0.8"
       id="use1250"
       transform="translate(57.6,232.886)"
       unlinked_clone="True" />
    <path
       d="M 0 0  L -3.5 0  "
       style="stroke-linecap:butt;stroke-linejoin:round;opacity:1;stroke:#000000;stroke-width:0.8"
       id="use1270"
       transform="translate(57.6,174.528)"
       unlinked_clone="True" />
    <path
       d="M 0 0  L -3.5 0  "
       style="stroke-linecap:butt;stroke-linejoin:round;opacity:1;stroke:#000000;stroke-width:0.8"
       id="use1285"
       transform="translate(57.6,116.17)"
       unlinked_clone="True" />
    <path
       d="M 0 0  L -3.5 0  "
       style="stroke-linecap:butt;stroke-linejoin:round;opacity:1;stroke:#000000;stroke-width:0.8"
       id="use1300"
       transform="translate(57.6,57.8122)"
       unlinked_clone="True" />
    <path
       style="opacity:1;fill:none;stroke:#000000;stroke-width:1.5;stroke-linecap:butt;stroke-linejoin:round;stroke-miterlimit:4;stroke-dasharray:none;stroke-dashoffset:0"
       d="m 140.02281,92.360084 0.0774,-1.400589 0.40594,-1.40059 0.7509,-1.400589 1.11257,-1.40059 1.49125,-1.400589 1.8872,-1.40059 2.30068,-1.400589 2.732,-1.40059 3.18139,-1.400589 3.64917,-1.40059 5.62543,-1.867452 6.53513,-1.867453 7.49061,-1.867452 8.49276,-1.867453 9.54243,-1.867453 10.64052,-1.867452 11.78784,-1.867453 12.98528,-1.867453 17.99328,-2.334315 20.04551,-2.334316 22.20131,-2.334316 24.46282,-2.334316 26.83215,-2.334316 29.31137,-2.334315 42.82939,-3.171767"
       id="path13644"
       sodipodi:nodetypes="cccccccccccccccccccccccccc" />
    <path
       style="opacity:1;fill:none;stroke:#000000;stroke-width:1.5;stroke-linecap:butt;stroke-linejoin:round;stroke-dasharray:5.55, 2.4;stroke-dashoffset:0"
       d="m 277.3573,174.06114 -0.21088,-1.86746 -0.49145,-1.86745 -0.77048,-1.86745 -1.04715,-1.86745 -1.32057,-1.86746 -1.58989,-1.86745 -1.85424,-1.86745 -2.68058,-2.33432 -3.07115,-2.33431 -3.44634,-2.33432 -3.804,-2.33432 -5.00914,-2.80117 -5.45791,-2.80118 -6.87808,-3.26805 -8.44172,-3.7349 -10.08801,-4.20177 -14.08913,-5.60236 -27.16054,-10.73785 -9.91579,-4.20177 -7.13918,-3.26804 -5.59298,-2.80118 -4.21255,-2.33431 -3.74011,-2.33432 -2.60962,-1.86745 -2.23365,-1.867455 -1.82356,-1.867453 -1.07752,-1.400589 -0.81209,-1.40059 -0.5313,-1.400589"
       id="path13642"
       sodipodi:nodetypes="cccccccccccccccccccccccccccccc" />
    <path
       style="opacity:1;fill:none;stroke:#000000;stroke-width:1.5;stroke-linecap:butt;stroke-linejoin:round;stroke-dasharray:5.55, 2.4;stroke-dashoffset:0"
       d="m 140.0672,256.22905 0.33544,-1.40059 0.62662,-1.40059 0.90226,-1.40059 1.16263,-1.40059 1.40802,-1.40059 2.23365,-1.86745 2.60962,-1.86745 2.9523,-1.86745 4.12301,-2.33432 4.5465,-2.33431 5.93148,-2.80118 7.45199,-3.26805 10.19515,-4.20176 16.5868,-6.53609 20.06305,-7.93667 11.17326,-4.66863 8.37017,-3.73491 6.80346,-3.26804 5.38593,-2.80118 4.93055,-2.80118 4.43798,-2.80118 3.29824,-2.33431 2.91666,-2.33432 2.5205,-2.33432 1.72274,-1.86745 1.4558,-1.86745 1.18432,-1.86745 0.90917,-1.86746 0.6312,-1.86745 0.3513,-1.86745 0.0703,-1.86745"
       id="path13640"
       sodipodi:nodetypes="cccccccccccccccccccccccccccccccc" />
    <path
       style="opacity:1;fill:none;stroke:#000000;stroke-width:1.5;stroke-linecap:butt;stroke-linejoin:round;stroke-miterlimit:4;stroke-dasharray:none;stroke-dashoffset:0"
       d="m 414.43235,302.64083 -30.43074,-2.05978 -30.33432,-2.33431 -27.81053,-2.33432 -25.39749,-2.33432 -23.09312,-2.33431 -20.89527,-2.33432 -18.80188,-2.33431 -16.81079,-2.33432 -14.91992,-2.33431 -10.64052,-1.86746 -9.54243,-1.86745 -8.49276,-1.86745 -7.49061,-1.86745 -6.53513,-1.86746 -5.62543,-1.86745 -4.76069,-1.86745 -3.02957,-1.40059 -2.58623,-1.40059 -2.16089,-1.40059 -1.75328,-1.40059 -1.36311,-1.40059 -0.99014,-1.40059 -0.63407,-1.40059 -0.29463,-1.40059"
       id="path1316"
       sodipodi:nodetypes="ccccccccccccccccccccccccc" />
    <path
       clip-path="url(#p7431ffdc2e)"
       d="M -1 174.528  L 277.366154 174.528  "
       style="stroke-linecap:square;stroke-linejoin:round;opacity:1;fill:none;stroke:#000000;stroke-width:1.5"
       id="path1319" />
    <path
       clip-path="url(#p7431ffdc2e)"
       d="M 277.366154 174.528  L 461.8 174.528  "
       style="stroke-linecap:butt;stroke-linejoin:round;opacity:1;fill:none;stroke:#000000;stroke-dasharray:5.55, 2.4;stroke-dashoffset:0;stroke-width:1.5"
       id="path1322" />
    <path
       d="M 57.6 307.584  L 57.6 41.472  "
       style="stroke-linecap:square;stroke-linejoin:miter;opacity:1;fill:none;stroke:#000000;stroke-width:0.8"
       id="path1325" />
    <path
       d="M 414.72 307.584  L 414.72 41.472  "
       style="stroke-linecap:square;stroke-linejoin:miter;opacity:1;fill:none;stroke:#000000;stroke-width:0.8"
       id="path1328" />
    <path
       d="M 57.6 307.584  L 414.72 307.584  "
       style="stroke-linecap:square;stroke-linejoin:miter;opacity:1;fill:none;stroke:#000000;stroke-width:0.8"
       id="path1331" />
    <path
       d="M 57.6 41.472  L 414.72 41.472  "
       style="stroke-linecap:square;stroke-linejoin:miter;opacity:1;fill:none;stroke:#000000;stroke-width:0.8"
       id="path1334" />
    <text
       xml:space="preserve"
       style="font-size:14px;line-height:1.25;font-family:'CMU Serif';-inkscape-font-specification:'CMU Serif';stroke-width:0.75"
       x="378.3862"
       y="325.41638"
       id="text2059"><tspan
         sodipodi:role="line"
         id="tspan2057"
         style="font-size:14px;stroke-width:0.75"
         x="378.3862"
         y="325.41638">0.2</tspan></text>
    <text
       xml:space="preserve"
       style="font-size:14px;line-height:1.25;font-family:'CMU Serif';-inkscape-font-specification:'CMU Serif';stroke-width:0.75"
       x="268.42801"
       y="325.41638"
       id="text4401"><tspan
         sodipodi:role="line"
         id="tspan4399"
         style="font-size:14px;stroke-width:0.75"
         x="268.42801"
         y="325.41638">0.0</tspan></text>
    <text
       xml:space="preserve"
       style="font-size:14px;line-height:1.25;font-family:'CMU Serif';-inkscape-font-specification:'CMU Serif';stroke-width:0.75"
       x="156.49765"
       y="325.41638"
       id="text6363"><tspan
         sodipodi:role="line"
         id="tspan6361"
         style="font-size:14px;stroke-width:0.75"
         x="156.49765"
         y="325.41638">-0.2</tspan></text>
    <text
       xml:space="preserve"
       style="font-size:14px;line-height:1.25;font-family:'CMU Serif';-inkscape-font-specification:'CMU Serif';stroke-width:0.75"
       x="46.460838"
       y="325.58856"
       id="text7401"><tspan
         sodipodi:role="line"
         id="tspan7399"
         style="font-size:14px;stroke-width:0.75"
         x="46.460838"
         y="325.58856">-0.4</tspan></text>
    <text
       xml:space="preserve"
       style="font-size:14px;line-height:1.25;font-family:'CMU Serif';-inkscape-font-specification:'CMU Serif';stroke-width:0.75"
       x="27.743174"
       y="295.75229"
       id="text7939"><tspan
         sodipodi:role="line"
         id="tspan7937"
         style="font-size:14px;stroke-width:0.75"
         x="27.743174"
         y="295.75229">-1.0</tspan></text>
    <text
       xml:space="preserve"
       style="font-size:14px;line-height:1.25;font-family:'CMU Serif';-inkscape-font-specification:'CMU Serif';stroke-width:0.75"
       x="33.063488"
       y="179.0363"
       id="text9433"><tspan
         sodipodi:role="line"
         id="tspan9431"
         style="font-size:14px;stroke-width:0.75"
         x="33.063488"
         y="179.0363">0.0</tspan></text>
    <text
       xml:space="preserve"
       style="font-size:14px;line-height:1.25;font-family:'CMU Serif';-inkscape-font-specification:'CMU Serif';stroke-width:0.75"
       x="33.063488"
       y="62.320499"
       id="text10955"><tspan
         sodipodi:role="line"
         id="tspan10953"
         style="font-size:14px;stroke-width:0.75"
         x="33.063488"
         y="62.320499">1.0</tspan></text>
    <g
       inkscape:label=""
       transform="translate(231.44906,323.52447)"
       id="g2569"
       style="display:inline;stroke-linecap:butt;stroke-linejoin:round">
      <g
         clip-path="url(#clipPath7896)"
         id="g2567"
         transform="translate(-0.5625,0.213375)">
        <g
           fill="#000000"
           fill-opacity="1"
           id="g2565">
          <g
             id="g2563"
             transform="translate(0,8.8959999)">
            <path
               d="M 9.8125,-5.71875 C 9.921875,-6.140625 9.984375,-6.375 9.984375,-6.9375 c 0,-1.25 -0.734375,-2.171875 -2.296875,-2.171875 -1.84375,0 -2.8125,1.296875 -3.1875,1.8125 -0.0625,-1.171875 -0.90625,-1.8125 -1.8125,-1.8125 -0.59375,0 -1.078125,0.296875 -1.46875,1.078125 -0.375,0.734375 -0.65625,2 -0.65625,2.078125 0,0.09375 0.078125,0.1875 0.21875,0.1875 0.171875,0 0.1875,-0.015625 0.3125,-0.5 0.3125,-1.21875 0.703125,-2.4375 1.53125,-2.4375 0.46875,0 0.640625,0.34375 0.640625,0.953125 0,0.453125 -0.203125,1.265625 -0.359375,1.90625 l -0.578125,2.234375 c -0.078125,0.390625 -0.296875,1.3125 -0.40625,1.6875 -0.140625,0.53125 -0.375,1.515625 -0.375,1.609375 0,0.296875 0.234375,0.515625 0.546875,0.515625 0.234375,0 0.53125,-0.125 0.6875,-0.4375 0.046875,-0.09375 0.234375,-0.8125 0.34375,-1.234375 L 3.578125,-3.328125 4.25,-6.046875 C 4.296875,-6.171875 4.8125,-7.203125 5.578125,-7.875 6.109375,-8.359375 6.8125,-8.703125 7.625,-8.703125 c 0.828125,0 1.109375,0.625 1.109375,1.453125 0,0.59375 -0.078125,0.921875 -0.1875,1.328125 l -2.390625,9.5 c -0.015625,0.09375 -0.0625,0.21875 -0.0625,0.34375 0,0.3125 0.25,0.515625 0.5625,0.515625 0.1875,0 0.609375,-0.078125 0.78125,-0.703125 z m 0,0"
               id="path2561" />
          </g>
        </g>
      </g>
    </g>
    <g
       inkscape:label=""
       transform="translate(-0.730866,169.86736)"
       id="g1698"
       style="display:inline;stroke-linecap:butt;stroke-linejoin:round">
      <g
         clip-path="url(#clipPath4324)"
         id="g17"
         transform="translate(11.266963,0.213375)"
         style="stroke-linecap:butt;stroke-linejoin:round">
        <g
           fill="#000000"
           fill-opacity="1"
           id="g15"
           style="stroke-linecap:butt;stroke-linejoin:round">
          <g
             id="use13"
             transform="translate(0,8.8959999)"
             style="stroke-linecap:butt;stroke-linejoin:round">
            <path
               d="m 7.046875,-1.203125 c 0.265625,1.15625 1.25,1.40625 1.75,1.40625 0.65625,0 1.15625,-0.4375 1.484375,-1.125 0.359375,-0.75 0.625,-1.96875 0.625,-2.03125 0,-0.109375 -0.07813,-0.1875 -0.203125,-0.1875 -0.1875,0 -0.203125,0.109375 -0.296875,0.40625 -0.375,1.4375 -0.734375,2.53125 -1.5625,2.53125 -0.625,0 -0.625,-0.6875 -0.625,-0.953125 0,-0.46875 0.0625,-0.6875 0.265625,-1.546875 0.15625,-0.5625 0.296875,-1.125 0.421875,-1.703125 L 9.75,-7.765625 c 0.140625,-0.515625 0.140625,-0.5625 0.140625,-0.625 0,-0.3125 -0.25,-0.515625 -0.546875,-0.515625 -0.609375,0 -0.75,0.515625 -0.875,1.03125 C 8.265625,-7.0625 7.140625,-2.625 7,-1.90625 c -0.015625,0 -0.828125,1.703125 -2.328125,1.703125 -1.078125,0 -1.28125,-0.9375 -1.28125,-1.703125 0,-1.171875 0.578125,-2.828125 1.109375,-4.203125 0.25,-0.671875 0.359375,-0.9375 0.359375,-1.34375 0,-0.890625 -0.640625,-1.65625 -1.640625,-1.65625 -1.890625,0 -2.65625,3 -2.65625,3.15625 0,0.09375 0.078125,0.1875 0.21875,0.1875 0.1875,0 0.203125,-0.078125 0.296875,-0.375 0.484375,-1.765625 1.296875,-2.5625 2.078125,-2.5625 0.203125,0 0.546875,0.03125 0.546875,0.6875 0,0.53125 -0.234375,1.140625 -0.546875,1.921875 -0.90625,2.453125 -1.015625,3.25 -1.015625,3.859375 0,2.109375 1.59375,2.4375 2.4375,2.4375 1.328125,0 2.046875,-0.90625 2.46875,-1.40625 z m 0,0"
               id="path23"
               style="stroke-linecap:butt;stroke-linejoin:round" />
          </g>
        </g>
      </g>
    </g>
  </g>
</svg>
