<?xml version="1.0" encoding="UTF-8" standalone="no"?>
<svg
   height="345.6pt"
   version="1.1"
   viewBox="0 0 460.8 345.6"
   width="460.8pt"
   id="svg2783"
   sodipodi:docname="bifdiag_pitchfork.svg"
   inkscape:version="1.1.2 (b8e25be833, 2022-02-05)"
   xmlns:inkscape="http://www.inkscape.org/namespaces/inkscape"
   xmlns:sodipodi="http://sodipodi.sourceforge.net/DTD/sodipodi-0.dtd"
   xmlns="http://www.w3.org/2000/svg"
   xmlns:svg="http://www.w3.org/2000/svg"
   xmlns:rdf="http://www.w3.org/1999/02/22-rdf-syntax-ns#"
   xmlns:cc="http://creativecommons.org/ns#"
   xmlns:dc="http://purl.org/dc/elements/1.1/">
  <sodipodi:namedview
     id="namedview2785"
     pagecolor="#ffffff"
     bordercolor="#666666"
     borderopacity="1.0"
     inkscape:pageshadow="2"
     inkscape:pageopacity="0.0"
     inkscape:pagecheckerboard="0"
     inkscape:document-units="pt"
     showgrid="false"
     inkscape:zoom="1.6623264"
     inkscape:cx="187.08721"
     inkscape:cy="128.13368"
     inkscape:window-width="1920"
     inkscape:window-height="1017"
     inkscape:window-x="-8"
     inkscape:window-y="-8"
     inkscape:window-maximized="1"
     inkscape:current-layer="svg2783" />
  <metadata
     id="metadata2257">
    <rdf:RDF>
      <cc:Work>
        <dc:type
           rdf:resource="http://purl.org/dc/dcmitype/StillImage" />
        <dc:date />
        <dc:format />
        <dc:creator>
          <cc:Agent>
            <dc:title />
          </cc:Agent>
        </dc:creator>
      </cc:Work>
    </rdf:RDF>
  </metadata>
  <defs
     id="defs2261">
    <style
       type="text/css"
       id="style2259">*{stroke-linecap:butt;stroke-linejoin:round;}</style>
    <defs
       id="defs2270">
      <path
         d="M 0 0  L 0 3.5  "
         id="m2dae0b8d9a"
         style="stroke:#000000;stroke-width:0.8;" />
    </defs>
    <defs
       id="defs2281">
      <path
         d="M 678 2272  L 4684 2272  L 4684 1741  L 678 1741  L 678 2272  z "
         id="DejaVuSans-2212"
         transform="scale(0.015625)" />
      <path
         d="M 794 531  L 1825 531  L 1825 4091  L 703 3866  L 703 4441  L 1819 4666  L 2450 4666  L 2450 531  L 3481 531  L 3481 0  L 794 0  L 794 531  z "
         id="DejaVuSans-31"
         transform="scale(0.015625)" />
      <path
         d="M 684 794  L 1344 794  L 1344 0  L 684 0  L 684 794  z "
         id="DejaVuSans-2e"
         transform="scale(0.015625)" />
      <path
         d="M 2034 4250  Q 1547 4250 1301 3770  Q 1056 3291 1056 2328  Q 1056 1369 1301 889  Q 1547 409 2034 409  Q 2525 409 2770 889  Q 3016 1369 3016 2328  Q 3016 3291 2770 3770  Q 2525 4250 2034 4250  z M 2034 4750  Q 2819 4750 3233 4129  Q 3647 3509 3647 2328  Q 3647 1150 3233 529  Q 2819 -91 2034 -91  Q 1250 -91 836 529  Q 422 1150 422 2328  Q 422 3509 836 4129  Q 1250 4750 2034 4750  z "
         id="DejaVuSans-30"
         transform="scale(0.015625)" />
    </defs>
    <defs
       id="defs2304">
      <path
         d="M 525 4666  L 3525 4666  L 3525 4397  L 1831 0  L 1172 0  L 2766 4134  L 525 4134  L 525 4666  z "
         id="DejaVuSans-37"
         transform="scale(0.015625)" />
      <path
         d="M 691 4666  L 3169 4666  L 3169 4134  L 1269 4134  L 1269 2991  Q 1406 3038 1543 3061  Q 1681 3084 1819 3084  Q 2600 3084 3056 2656  Q 3513 2228 3513 1497  Q 3513 744 3044 326  Q 2575 -91 1722 -91  Q 1428 -91 1123 -41  Q 819 9 494 109  L 494 744  Q 775 591 1075 516  Q 1375 441 1709 441  Q 2250 441 2565 725  Q 2881 1009 2881 1497  Q 2881 1984 2565 2268  Q 2250 2553 1709 2553  Q 1456 2553 1204 2497  Q 953 2441 691 2322  L 691 4666  z "
         id="DejaVuSans-35"
         transform="scale(0.015625)" />
    </defs>
    <defs
       id="defs2345">
      <path
         d="M 1228 531  L 3431 531  L 3431 0  L 469 0  L 469 531  Q 828 903 1448 1529  Q 2069 2156 2228 2338  Q 2531 2678 2651 2914  Q 2772 3150 2772 3378  Q 2772 3750 2511 3984  Q 2250 4219 1831 4219  Q 1534 4219 1204 4116  Q 875 4013 500 3803  L 500 4441  Q 881 4594 1212 4672  Q 1544 4750 1819 4750  Q 2544 4750 2975 4387  Q 3406 4025 3406 3419  Q 3406 3131 3298 2873  Q 3191 2616 2906 2266  Q 2828 2175 2409 1742  Q 1991 1309 1228 531  z "
         id="DejaVuSans-32"
         transform="scale(0.015625)" />
    </defs>
    <defs
       id="defs2448">
      <path
         d="M 0 0  L -3.5 0  "
         id="m888231e820"
         style="stroke:#000000;stroke-width:0.8;" />
    </defs>
    <defs
       id="defs2625">
      <path
         d="M 0 3  C 0.795609 3 1.55874 2.683901 2.12132 2.12132  C 2.683901 1.55874 3 0.795609 3 0  C 3 -0.795609 2.683901 -1.55874 2.12132 -2.12132  C 1.55874 -2.683901 0.795609 -3 0 -3  C -0.795609 -3 -1.55874 -2.683901 -2.12132 -2.12132  C -2.683901 -1.55874 -3 -0.795609 -3 0  C -3 0.795609 -2.683901 1.55874 -2.12132 2.12132  C -1.55874 2.683901 -0.795609 3 0 3  z "
         id="m8d2c35ef58"
         style="stroke:#000000;" />
    </defs>
    <defs
       id="defs2655">
      <path
         d="M 0 3  C 0.795609 3 1.55874 2.683901 2.12132 2.12132  C 2.683901 1.55874 3 0.795609 3 0  C 3 -0.795609 2.683901 -1.55874 2.12132 -2.12132  C 1.55874 -2.683901 0.795609 -3 0 -3  C -0.795609 -3 -1.55874 -2.683901 -2.12132 -2.12132  C -2.683901 -1.55874 -3 -0.795609 -3 0  C -3 0.795609 -2.683901 1.55874 -2.12132 2.12132  C -1.55874 2.683901 -0.795609 3 0 3  z "
         id="m3a7dee437f"
         style="stroke:#808080;" />
    </defs>
    <defs
       id="defs2684">
      <path
         d="M 3703 2113  L 3034 -1331  L 2459 -1331  L 3125 2094  Q 3222 2591 3075 2838  Q 2931 3084 2544 3084  Q 2078 3084 1750 2788  Q 1425 2491 1325 1978  L 941 0  L 363 0  L 1044 3500  L 1622 3500  L 1516 2956  Q 1781 3272 2094 3428  Q 2403 3584 2769 3584  Q 3372 3584 3609 3213  Q 3844 2838 3703 2113  z "
         id="DejaVuSans-Oblique-3b7"
         transform="scale(0.015625)" />
      <path
         d="M 678 2906  L 4684 2906  L 4684 2381  L 678 2381  L 678 2906  z M 678 1631  L 4684 1631  L 4684 1100  L 678 1100  L 678 1631  z "
         id="DejaVuSans-3d"
         transform="scale(0.015625)" />
      <path
         d="M 2597 2516  Q 3050 2419 3304 2112  Q 3559 1806 3559 1356  Q 3559 666 3084 287  Q 2609 -91 1734 -91  Q 1441 -91 1130 -33  Q 819 25 488 141  L 488 750  Q 750 597 1062 519  Q 1375 441 1716 441  Q 2309 441 2620 675  Q 2931 909 2931 1356  Q 2931 1769 2642 2001  Q 2353 2234 1838 2234  L 1294 2234  L 1294 2753  L 1863 2753  Q 2328 2753 2575 2939  Q 2822 3125 2822 3475  Q 2822 3834 2567 4026  Q 2313 4219 1838 4219  Q 1578 4219 1281 4162  Q 984 4106 628 3988  L 628 4550  Q 988 4650 1302 4700  Q 1616 4750 1894 4750  Q 2613 4750 3031 4423  Q 3450 4097 3450 3541  Q 3450 3153 3228 2886  Q 3006 2619 2597 2516  z "
         id="DejaVuSans-33"
         transform="scale(0.015625)" />
    </defs>
    <defs
       id="defs2740">
      <path
         d="M 2113 2584  Q 1688 2584 1439 2293  Q 1191 2003 1191 1497  Q 1191 994 1439 701  Q 1688 409 2113 409  Q 2538 409 2786 701  Q 3034 994 3034 1497  Q 3034 2003 2786 2293  Q 2538 2584 2113 2584  z M 3366 4563  L 3366 3988  Q 3128 4100 2886 4159  Q 2644 4219 2406 4219  Q 1781 4219 1451 3797  Q 1122 3375 1075 2522  Q 1259 2794 1537 2939  Q 1816 3084 2150 3084  Q 2853 3084 3261 2657  Q 3669 2231 3669 1497  Q 3669 778 3244 343  Q 2819 -91 2113 -91  Q 1303 -91 875 529  Q 447 1150 447 2328  Q 447 3434 972 4092  Q 1497 4750 2381 4750  Q 2619 4750 2861 4703  Q 3103 4656 3366 4563  z "
         id="DejaVuSans-36"
         transform="scale(0.015625)" />
    </defs>
    <defs
       id="defs2760">
      <path
         d="M 703 97  L 703 672  Q 941 559 1184 500  Q 1428 441 1663 441  Q 2288 441 2617 861  Q 2947 1281 2994 2138  Q 2813 1869 2534 1725  Q 2256 1581 1919 1581  Q 1219 1581 811 2004  Q 403 2428 403 3163  Q 403 3881 828 4315  Q 1253 4750 1959 4750  Q 2769 4750 3195 4129  Q 3622 3509 3622 2328  Q 3622 1225 3098 567  Q 2575 -91 1691 -91  Q 1453 -91 1209 -44  Q 966 3 703 97  z M 1959 2075  Q 2384 2075 2632 2365  Q 2881 2656 2881 3163  Q 2881 3666 2632 3958  Q 2384 4250 1959 4250  Q 1534 4250 1286 3958  Q 1038 3666 1038 3163  Q 1038 2656 1286 2365  Q 1534 2075 1959 2075  z "
         id="DejaVuSans-39"
         transform="scale(0.015625)" />
    </defs>
    <clipPath
       id="clipPath0">
      <rect
         height="266.112"
         width="357.12"
         x="57.6"
         y="41.472"
         id="rect0"
         transform="translate(-236.16, -174.528)" />
    </clipPath>
    <clipPath
       id="clipPath1">
      <rect
         height="266.112"
         width="357.12"
         x="57.6"
         y="41.472"
         id="rect1"
         transform="translate(-333.961, -174.528)" />
    </clipPath>
    <clipPath
       id="clipPath2">
      <rect
         height="266.112"
         width="357.12"
         x="57.6"
         y="41.472"
         id="rect2"
         transform="translate(-138.359, -174.528)" />
    </clipPath>
    <clipPath
       id="clipPath3">
      <rect
         height="266.112"
         width="357.12"
         x="57.6"
         y="41.472"
         id="rect3"
         transform="translate(-374.472, -174.528)" />
    </clipPath>
    <clipPath
       id="clipPath4">
      <rect
         height="266.112"
         width="357.12"
         x="57.6"
         y="41.472"
         id="rect4"
         transform="translate(-97.848, -174.528)" />
    </clipPath>
    <clipPath
       id="clipPath5">
      <rect
         height="266.112"
         width="357.12"
         x="57.6"
         y="41.472"
         id="rect5"
         transform="translate(-405.557, -174.528)" />
    </clipPath>
    <clipPath
       id="clipPath6">
      <rect
         height="266.112"
         width="357.12"
         x="57.6"
         y="41.472"
         id="rect6"
         transform="translate(-66.7631, -174.528)" />
    </clipPath>
    <clipPath
       id="clipPath4663">
      <path
         clip-rule="nonzero"
         d="M 0,3 H 9 V 14.445313 H 0 Z m 0,0"
         id="path9980" />
    </clipPath>
    <clipPath
       id="clipPath9767">
      <path
         clip-rule="nonzero"
         d="M 0,3 H 9 V 14.445313 H 0 Z m 0,0"
         id="path6145" />
    </clipPath>
    <clipPath
       id="clipPath7896">
      <path
         clip-rule="nonzero"
         d="M 0,0 H 10 V 12.914063 H 0 Z m 0,0"
         id="path8911" />
    </clipPath>
    <clipPath
       id="clipPath3802">
      <path
         clip-rule="nonzero"
         d="m 0,4 h 11 v 9.554688 H 0 Z m 0,0"
         id="path7363" />
    </clipPath>
    <clipPath
       id="clipPath2409">
      <path
         clip-rule="nonzero"
         d="M 0,3 H 9 V 14.445313 H 0 Z m 0,0"
         id="path2224" />
    </clipPath>
    <clipPath
       id="clipPath2532">
      <path
         clip-rule="nonzero"
         d="m 57,0 h 7.753906 V 12 H 57 Z m 0,0"
         id="path1722" />
    </clipPath>
    <clipPath
       id="clipPath2409-3">
      <path
         clip-rule="nonzero"
         d="M 0,3 H 9 V 14.445313 H 0 Z m 0,0"
         id="path2224-1" />
    </clipPath>
    <clipPath
       id="clipPath2532-6">
      <path
         clip-rule="nonzero"
         d="m 57,0 h 7.753906 V 12 H 57 Z m 0,0"
         id="path1722-1" />
    </clipPath>
    <clipPath
       id="clipPath7919">
      <path
         clip-rule="nonzero"
         d="M 0,3 H 9 V 14.445313 H 0 Z m 0,0"
         id="path5598" />
    </clipPath>
    <clipPath
       id="clipPath7733">
      <path
         clip-rule="nonzero"
         d="m 31,0 h 7.785156 V 12 H 31 Z m 0,0"
         id="path876" />
    </clipPath>
    <clipPath
       id="clipPath2722">
      <path
         clip-rule="nonzero"
         d="M 0,3 H 9 V 14.445313 H 0 Z m 0,0"
         id="path2601" />
    </clipPath>
    <clipPath
       id="clipPath9767-6">
      <path
         clip-rule="nonzero"
         d="M 0,3 H 9 V 14.445313 H 0 Z m 0,0"
         id="path6145-9" />
    </clipPath>
    <clipPath
       id="clipPath4663-7">
      <path
         clip-rule="nonzero"
         d="M 0,3 H 9 V 14.445313 H 0 Z m 0,0"
         id="path9980-1" />
    </clipPath>
    <clipPath
       id="clipPath7919-2">
      <path
         clip-rule="nonzero"
         d="M 0,3 H 9 V 14.445313 H 0 Z m 0,0"
         id="path5598-2" />
    </clipPath>
    <clipPath
       id="clipPath7733-3">
      <path
         clip-rule="nonzero"
         d="m 31,0 h 7.785156 V 12 H 31 Z m 0,0"
         id="path876-4" />
    </clipPath>
    <clipPath
       id="clipPath2722-3">
      <path
         clip-rule="nonzero"
         d="M 0,3 H 9 V 14.445313 H 0 Z m 0,0"
         id="path2601-9" />
    </clipPath>
    <clipPath
       id="clipPath9767-69">
      <path
         clip-rule="nonzero"
         d="M 0,3 H 9 V 14.445313 H 0 Z m 0,0"
         id="path6145-8" />
    </clipPath>
    <clipPath
       id="clipPath4663-77">
      <path
         clip-rule="nonzero"
         d="M 0,3 H 9 V 14.445313 H 0 Z m 0,0"
         id="path9980-6" />
    </clipPath>
    <clipPath
       id="clipPath2409-39">
      <path
         clip-rule="nonzero"
         d="M 0,3 H 9 V 14.445313 H 0 Z m 0,0"
         id="path2224-7" />
    </clipPath>
    <clipPath
       id="clipPath2532-4">
      <path
         clip-rule="nonzero"
         d="m 57,0 h 7.753906 V 12 H 57 Z m 0,0"
         id="path1722-11" />
    </clipPath>
  </defs>
  <defs
     id="defs2781">
    <clipPath
       id="p541ad31af7">
      <rect
         height="266.112"
         width="357.12"
         x="57.6"
         y="41.472"
         id="rect2778" />
    </clipPath>
  </defs>
  <g
     id="g43486">
    <path
       d="m 57.6,300.3652 v 3.5"
       style="opacity:1;stroke:#000000;stroke-width:0.8;stroke-linecap:butt;stroke-linejoin:round"
       id="use2272"
       unlinked_clone="True" />
    <path
       d="m 102.24,300.3652 v 3.5"
       style="opacity:1;stroke:#000000;stroke-width:0.8;stroke-linecap:butt;stroke-linejoin:round"
       id="use2297"
       unlinked_clone="True" />
    <path
       d="m 146.88,300.3652 v 3.5"
       style="opacity:1;stroke:#000000;stroke-width:0.8;stroke-linecap:butt;stroke-linejoin:round"
       id="use2320"
       unlinked_clone="True" />
    <path
       d="m 191.52,300.3652 v 3.5"
       style="opacity:1;stroke:#000000;stroke-width:0.8;stroke-linecap:butt;stroke-linejoin:round"
       id="use2339"
       unlinked_clone="True" />
    <path
       d="m 236.16,300.3652 v 3.5"
       style="opacity:1;stroke:#000000;stroke-width:0.8;stroke-linecap:butt;stroke-linejoin:round"
       id="use2361"
       unlinked_clone="True" />
    <path
       d="m 280.8,300.3652 v 3.5"
       style="opacity:1;stroke:#000000;stroke-width:0.8;stroke-linecap:butt;stroke-linejoin:round"
       id="use2378"
       unlinked_clone="True" />
    <path
       d="m 325.44,300.3652 v 3.5"
       style="opacity:1;stroke:#000000;stroke-width:0.8;stroke-linecap:butt;stroke-linejoin:round"
       id="use2395"
       unlinked_clone="True" />
    <path
       d="m 370.08,300.3652 v 3.5"
       style="opacity:1;stroke:#000000;stroke-width:0.8;stroke-linecap:butt;stroke-linejoin:round"
       id="use2412"
       unlinked_clone="True" />
    <path
       d="m 414.72,300.3652 v 3.5"
       style="opacity:1;stroke:#000000;stroke-width:0.8;stroke-linecap:butt;stroke-linejoin:round"
       id="use2429"
       unlinked_clone="True" />
    <path
       d="M 57.6,300.3652 H 54.1"
       style="opacity:1;stroke:#000000;stroke-width:0.8;stroke-linecap:butt;stroke-linejoin:round"
       id="use2450"
       unlinked_clone="True" />
    <path
       d="M 57.6,267.1012 H 54.1"
       style="opacity:1;stroke:#000000;stroke-width:0.8;stroke-linecap:butt;stroke-linejoin:round"
       id="use2469"
       unlinked_clone="True" />
    <path
       d="M 57.6,233.8372 H 54.1"
       style="opacity:1;stroke:#000000;stroke-width:0.8;stroke-linecap:butt;stroke-linejoin:round"
       id="use2488"
       unlinked_clone="True" />
    <path
       d="M 57.6,200.5732 H 54.1"
       style="opacity:1;stroke:#000000;stroke-width:0.8;stroke-linecap:butt;stroke-linejoin:round"
       id="use2507"
       unlinked_clone="True" />
    <path
       d="M 57.6,167.3092 H 54.1"
       style="opacity:1;stroke:#000000;stroke-width:0.8;stroke-linecap:butt;stroke-linejoin:round"
       id="use2526"
       unlinked_clone="True" />
    <path
       d="M 57.6,134.0452 H 54.1"
       style="opacity:1;stroke:#000000;stroke-width:0.8;stroke-linecap:butt;stroke-linejoin:round"
       id="use2543"
       unlinked_clone="True" />
    <path
       d="M 57.6,100.7812 H 54.1"
       style="opacity:1;stroke:#000000;stroke-width:0.8;stroke-linecap:butt;stroke-linejoin:round"
       id="use2560"
       unlinked_clone="True" />
    <path
       d="M 57.6,67.517201 H 54.1"
       style="opacity:1;stroke:#000000;stroke-width:0.8;stroke-linecap:butt;stroke-linejoin:round"
       id="use2577"
       unlinked_clone="True" />
    <path
       d="M 57.6,34.253201 H 54.1"
       style="opacity:1;stroke:#000000;stroke-width:0.8;stroke-linecap:butt;stroke-linejoin:round"
       id="use2594"
       unlinked_clone="True" />
    <path
       clip-path="url(#p541ad31af7)"
       d="M 39.744,174.528 H 432.576"
       style="opacity:1;fill:none;stroke:#000000;stroke-width:1.5;stroke-linecap:butt;stroke-linejoin:round;stroke-dasharray:5.55, 2.4;stroke-dashoffset:0"
       id="path2612"
       transform="translate(0,-7.2187991)" />
    <path
       clip-path="url(#p541ad31af7)"
       d="m 57.6,1.5552 3.5712,8.623093 3.5712,8.310146 3.5712,8.003584 3.5712,7.70341 3.5712,7.409623 3.5712,7.122222 3.5712,6.841207 3.5712,6.56658 3.5712,6.298338 3.5712,6.036485 3.5712,5.781017 3.5712,5.531936 3.5712,5.289242 3.5712,5.052935 3.5712,4.823012 3.5712,4.59948 3.5712,4.38233 3.5712,4.17158 3.5712,3.96719 3.5712,3.76921 3.5712,3.57761 3.5712,3.3924 3.5712,3.21357 3.5712,3.04113 3.5712,2.87507 3.5712,2.71541 3.5712,2.56212 3.5712,2.41524 3.5712,2.27472 3.5712,2.14061 3.5712,2.01287 3.5712,1.89152 3.5712,1.77656 3.5712,1.66799 3.5712,1.56581 3.5712,1.47 3.5712,1.38059 3.5712,1.29756 3.5712,1.22092 3.5712,1.15067 3.5712,1.0868 3.5712,1.02932 3.5712,0.97823 3.5712,0.93352 3.5712,0.8952 3.5712,0.86327 3.5712,0.83772 3.5712,0.81856 3.5712,0.80579 3.5712,0.7994 3.5712,0.7994 3.5712,0.80579 3.5712,0.81856 3.5712,0.83772 3.5712,0.86327 3.5712,0.8952 3.5712,0.93352 3.5712,0.97822 3.5712,1.02933 3.5712,1.0868 3.5712,1.15067 3.5712,1.22092 3.5712,1.29756 3.5712,1.38059 3.5712,1.47 3.5712,1.5658 3.5712,1.66799 3.5712,1.77657 3.5712,1.89152 3.5712,2.01287 3.5712,2.14061 3.5712,2.27472 3.5712,2.41524 3.5712,2.56212 3.5712,2.71541 3.5712,2.87507 3.5712,3.04113 3.5712,3.21357 3.5712,3.3924 3.5712,3.57761 3.5712,3.76921 3.5712,3.96719 3.5712,4.17158 3.5712,4.38233 3.5712,4.59948 3.5712,4.82301 3.5712,5.05294 3.5712,5.28924 3.5712,5.53193 3.5712,5.78102 3.5712,6.03649 3.5712,6.29833 3.5712,6.56658 3.5712,6.84121 3.5712,7.12222 3.5712,7.40963 3.5712,7.70341 3.5712,8.00358 3.5712,8.31015 3.19814,7.72229"
       style="opacity:1;fill:none;stroke:#221150;stroke-width:1.5;stroke-linecap:square;stroke-linejoin:round"
       id="path2615"
       transform="translate(0,-7.2187991)" />
    <path
       clip-path="url(#p541ad31af7)"
       d="m 57.6,41.472 3.5712,7.824757 3.5712,7.51181 3.5712,7.205248 3.5712,6.905074 3.5712,6.611287 3.5712,6.323886 3.5712,6.042871 3.5712,5.768244 3.5712,5.500003 3.5712,5.23815 3.5712,4.98268 3.5712,4.7336 3.5712,4.49091 3.5712,4.25459 3.5712,4.02468 3.5712,3.80115 3.5712,3.58399 3.5712,3.37324 3.5712,3.16886 3.5712,2.97087 3.5712,2.77928 3.5712,2.59406 3.5712,2.41523 3.5712,2.24279 3.5712,2.07674 3.5712,1.91707 3.5712,1.76379 3.5712,1.6169 3.5712,1.47639 3.5712,1.34227 3.5712,1.21453 3.5712,1.09319 3.5712,0.97823 3.5712,0.86965 3.5712,0.76747 3.5712,0.67166 3.5712,0.58226 3.5712,0.49922 3.5712,0.42259 3.5712,0.35233 3.5712,0.28847 3.5712,0.23098 3.5712,0.17989 3.5712,0.13519 3.5712,0.0969 3.5712,0.0649 3.5712,0.0394 3.5712,0.0202 3.5712,0.007 3.5712,0.001 3.5712,0.001 3.5712,0.007 3.5712,0.0202 3.5712,0.0394 3.5712,0.0649 3.5712,0.0969 3.5712,0.13519 3.5712,0.17989 3.5712,0.23098 3.5712,0.28847 3.5712,0.35233 3.5712,0.42259 3.5712,0.49922 3.5712,0.58225 3.5712,0.67167 3.5712,0.76747 3.5712,0.86965 3.5712,0.97823 3.5712,1.09319 3.5712,1.21453 3.5712,1.34227 3.5712,1.47639 3.5712,1.6169 3.5712,1.76379 3.5712,1.91707 3.5712,2.07674 3.5712,2.24279 3.5712,2.41523 3.5712,2.59406 3.5712,2.77928 3.5712,2.97087 3.5712,3.16886 3.5712,3.37324 3.5712,3.58399 3.5712,3.80115 3.5712,4.02468 3.5712,4.25459 3.5712,4.49091 3.5712,4.7336 3.5712,4.98268 3.5712,5.23815 3.5712,5.5 3.5712,5.76825 3.5712,6.04287 3.5712,6.32388 3.5712,6.61129 3.5712,6.90508 3.5712,7.20524 3.5712,7.51181 3.5712,7.82476"
       style="opacity:1;fill:none;stroke:#5f187f;stroke-width:1.5;stroke-linecap:square;stroke-linejoin:round"
       id="path2618"
       transform="translate(0,-7.2187991)" />
    <path
       clip-path="url(#p541ad31af7)"
       d="m 57.6,81.3888 3.5712,7.026421 3.5712,6.713474 3.5712,6.406915 3.5712,6.10674 3.5712,5.81295 3.5712,5.52555 3.5712,5.24453 3.5712,4.96991 3.5712,4.70166 3.5712,4.43982 3.5712,4.18434 3.5712,3.93527 3.5712,3.69257 3.5712,3.45626 3.5712,3.22634 3.5712,3.00281 3.5712,2.78566 3.5712,2.5749 3.5712,2.37053 3.5712,2.17253 3.5712,1.98094 3.5712,1.79573 3.5712,1.61689 3.5712,1.44446 3.5712,1.2784 3.5712,1.11874 3.5712,0.96545 3.5712,0.81856 3.5712,0.67805 3.5712,0.54394 3.5712,0.41619 3.5712,0.29486 3.5712,0.17989 3.5712,0.0713 3.5712,-0.0309 3.5712,-0.12667 3.5712,-0.21608 3.5712,-0.29911 3.5712,-0.37575 3.5712,-0.44601 3.5712,-0.50987 3.5712,-0.56735 3.5712,-0.61844 3.5712,-0.66316 3.5712,-0.70147 3.5712,-0.7334 3.5712,-0.75895 3.5712,-0.77811 3.5712,-0.79089 3.5712,-0.79727 3.5712,-0.79727 3.5712,-0.79089 3.5712,-0.77811 3.5712,-0.75895 3.5712,-0.7334 3.5712,-0.70148 3.5712,-0.66315 3.5712,-0.61844 3.5712,-0.56735 3.5712,-0.50987 3.5712,-0.44601 3.5712,-0.37575 3.5712,-0.29911 3.5712,-0.21608 3.5712,-0.12667 3.5712,-0.0309 3.5712,0.0713 3.5712,0.17989 3.5712,0.29485 3.5712,0.4162 3.5712,0.54394 3.5712,0.67805 3.5712,0.81856 3.5712,0.96545 3.5712,1.11874 3.5712,1.2784 3.5712,1.44446 3.5712,1.61689 3.5712,1.79573 3.5712,1.98094 3.5712,2.17253 3.5712,2.37053 3.5712,2.5749 3.5712,2.78566 3.5712,3.00281 3.5712,3.22634 3.5712,3.45626 3.5712,3.69257 3.5712,3.93527 3.5712,4.18434 3.5712,4.43981 3.5712,4.70167 3.5712,4.96991 3.5712,5.24453 3.5712,5.52555 3.5712,5.81295 3.5712,6.10674 3.5712,6.40691 3.5712,6.71348 3.5712,7.02642"
       style="opacity:1;fill:none;stroke:#982d80;stroke-width:1.5;stroke-linecap:square;stroke-linejoin:round"
       id="path2621"
       transform="translate(0,-7.2187991)" />
    <path
       clip-path="url(#p541ad31af7)"
       d="m 57.6,121.3056 3.5712,6.22809 3.5712,5.91513 3.5712,5.60858 3.5712,5.3084 3.5712,5.01462 3.5712,4.72721 3.5712,4.4462 3.5712,4.17157 3.5712,3.90333 3.5712,3.64148 3.5712,3.38601 3.5712,3.13692 3.5712,2.89424 3.5712,2.65793 3.5712,2.428 3.5712,2.20447 3.5712,1.98733 3.5712,1.77656 3.5712,1.57219 3.5712,1.3742 3.5712,1.18261 3.5712,0.99738 3.5712,0.81856 3.5712,0.64612 3.5712,0.48007 3.5712,0.3204 3.5712,0.16712 3.5712,0.0202 3.5712,-0.12028 3.5712,-0.2544 3.5712,-0.38214 3.5712,-0.50349 3.5712,-0.61844 3.5712,-0.72702 3.5712,-0.8292 3.5712,-0.92501 3.5712,-1.01442 3.5712,-1.09744 3.5712,-1.17409 3.5712,-1.24434 3.5712,-1.30821 3.5712,-1.36568 3.5712,-1.41678 3.5712,-1.46149 3.5712,-1.49981 3.5712,-1.53174 3.5712,-1.55728 3.5712,-1.57645 3.5712,-1.58922 3.5712,-1.59561 3.5712,-1.59561 3.5712,-1.58922 3.5712,-1.57645 3.5712,-1.55728 3.5712,-1.53174 3.5712,-1.49981 3.5712,-1.46149 3.5712,-1.41678 3.5712,-1.36569 3.5712,-1.3082 3.5712,-1.24434 3.5712,-1.17409 3.5712,-1.09744 3.5712,-1.01442 3.5712,-0.92501 3.5712,-0.8292 3.5712,-0.72702 3.5712,-0.61845 3.5712,-0.50348 3.5712,-0.38214 3.5712,-0.2544 3.5712,-0.12028 3.5712,0.0202 3.5712,0.16712 3.5712,0.3204 3.5712,0.48007 3.5712,0.64612 3.5712,0.81856 3.5712,0.99738 3.5712,1.18261 3.5712,1.3742 3.5712,1.57219 3.5712,1.77656 3.5712,1.98733 3.5712,2.20447 3.5712,2.428 3.5712,2.65793 3.5712,2.89423 3.5712,3.13693 3.5712,3.38601 3.5712,3.64148 3.5712,3.90333 3.5712,4.17157 3.5712,4.4462 3.5712,4.72721 3.5712,5.01462 3.5712,5.3084 3.5712,5.60858 3.5712,5.91513 3.5712,6.22809"
       style="opacity:1;fill:none;stroke:#d3436e;stroke-width:1.5;stroke-linecap:square;stroke-linejoin:round"
       id="path2634"
       transform="translate(0,-7.2187991)" />
    <path
       clip-path="url(#p541ad31af7)"
       d="m 57.6,161.2224 3.5712,5.42975 3.5712,5.1168 3.5712,4.81024 3.5712,4.51007 3.5712,4.21628 3.5712,3.92887 3.5712,3.64787 3.5712,3.37323 3.5712,3.105 3.5712,2.84314 3.5712,2.58767 3.5712,2.33859 3.5712,2.0959 3.5712,1.85959 3.5712,1.62967 3.5712,1.40614 3.5712,1.18899 3.5712,0.97822 3.5712,0.77386 3.5712,0.57586 3.5712,0.38427 3.5712,0.19905 3.5712,0.0202 3.5712,-0.15222 3.5712,-0.31827 3.5712,-0.47794 3.5712,-0.63122 3.5712,-0.77811 3.5712,-0.91862 3.5712,-1.05273 3.5712,-1.18048 3.5712,-1.30182 3.5712,-1.41678 3.5712,-1.52535 3.5712,-1.62754 3.5712,-1.72334 3.5712,-1.81276 3.5712,-1.89578 3.5712,-1.97242 3.5712,-2.04268 3.5712,-2.10654 3.5712,-2.16402 3.5712,-2.21512 3.5712,-2.25982 3.5712,-2.29815 3.5712,-2.33007 3.5712,-2.35563 3.5712,-2.37478 3.5712,-2.38756 3.5712,-2.39394 3.5712,-2.39394 3.5712,-2.38756 3.5712,-2.37478 3.5712,-2.35563 3.5712,-2.33007 3.5712,-2.29815 3.5712,-2.25982 3.5712,-2.21512 3.5712,-2.16402 3.5712,-2.10654 3.5712,-2.04268 3.5712,-1.97242 3.5712,-1.89578 3.5712,-1.81276 3.5712,-1.72334 3.5712,-1.62754 3.5712,-1.52535 3.5712,-1.41678 3.5712,-1.30182 3.5712,-1.18048 3.5712,-1.05274 3.5712,-0.91861 3.5712,-0.77812 3.5712,-0.63121 3.5712,-0.47794 3.5712,-0.31827 3.5712,-0.15222 3.5712,0.0202 3.5712,0.19905 3.5712,0.38427 3.5712,0.57586 3.5712,0.77386 3.5712,0.97822 3.5712,1.18899 3.5712,1.40614 3.5712,1.62967 3.5712,1.85959 3.5712,2.0959 3.5712,2.33859 3.5712,2.58767 3.5712,2.84314 3.5712,3.105 3.5712,3.37323 3.5712,3.64787 3.5712,3.92887 3.5712,4.21628 3.5712,4.51007 3.5712,4.81024 3.5712,5.1168 3.5712,5.42975"
       style="opacity:1;fill:none;stroke:#f8765c;stroke-width:1.5;stroke-linecap:square;stroke-linejoin:round"
       id="path2644"
       transform="translate(0,-7.2187991)" />
    <path
       d="M 57.6,300.3652 V 34.253201"
       style="opacity:1;fill:none;stroke:#000000;stroke-width:0.8;stroke-linecap:square;stroke-linejoin:miter"
       id="path2662" />
    <path
       d="M 414.72,300.3652 V 34.253201"
       style="opacity:1;fill:none;stroke:#000000;stroke-width:0.8;stroke-linecap:square;stroke-linejoin:miter"
       id="path2665" />
    <path
       d="M 57.6,300.3652 H 414.72"
       style="opacity:1;fill:none;stroke:#000000;stroke-width:0.8;stroke-linecap:square;stroke-linejoin:miter"
       id="path2668" />
    <path
       d="M 57.6,34.253201 H 414.72"
       style="opacity:1;fill:none;stroke:#000000;stroke-width:0.8;stroke-linecap:square;stroke-linejoin:miter"
       id="path2671" />
    <text
       xml:space="preserve"
       style="font-size:16px;line-height:1.25;font-family:'CMU Serif';-inkscape-font-specification:'CMU Serif';stroke-width:0.75"
       x="410.6575"
       y="318.32883"
       id="text30989"><tspan
         sodipodi:role="line"
         id="tspan30987"
         style="stroke-width:0.75"
         x="410.6575"
         y="318.32883">1</tspan></text>
    <text
       xml:space="preserve"
       style="font-size:16px;line-height:1.25;font-family:'CMU Serif';-inkscape-font-specification:'CMU Serif';stroke-width:0.75"
       x="232.16782"
       y="318.32883"
       id="text32287"><tspan
         sodipodi:role="line"
         id="tspan32285"
         style="stroke-width:0.75"
         x="232.16782"
         y="318.32883">0</tspan></text>
    <text
       xml:space="preserve"
       style="font-size:16px;line-height:1.25;font-family:'CMU Serif';-inkscape-font-specification:'CMU Serif';stroke-width:0.75"
       x="51.510155"
       y="318.32883"
       id="text33677"><tspan
         sodipodi:role="line"
         id="tspan33675"
         style="stroke-width:0.75"
         x="51.510155"
         y="318.32883">-1</tspan></text>
    <text
       xml:space="preserve"
       style="font-size:16px;line-height:1.25;font-family:'CMU Serif';-inkscape-font-specification:'CMU Serif';stroke-width:0.75"
       x="43.233013"
       y="39.581326"
       id="text34773"><tspan
         sodipodi:role="line"
         id="tspan34771"
         style="stroke-width:0.75"
         x="43.233013"
         y="39.581326">1</tspan></text>
    <text
       xml:space="preserve"
       style="font-size:16px;line-height:1.25;font-family:'CMU Serif';-inkscape-font-specification:'CMU Serif';stroke-width:0.75"
       x="42.576763"
       y="172.46155"
       id="text35745"><tspan
         sodipodi:role="line"
         id="tspan35743"
         style="stroke-width:0.75"
         x="42.576763"
         y="172.46155">0</tspan></text>
    <text
       xml:space="preserve"
       style="font-size:16px;line-height:1.25;font-family:'CMU Serif';-inkscape-font-specification:'CMU Serif';stroke-width:0.75"
       x="37.912701"
       y="305.69333"
       id="text37531"><tspan
         sodipodi:role="line"
         id="tspan37529"
         style="stroke-width:0.75"
         x="37.912701"
         y="305.69333">-1</tspan></text>
    <g
       inkscape:label=""
       transform="translate(231.44906,325.84553)"
       id="g2569"
       style="display:inline;stroke-linecap:butt;stroke-linejoin:round">
      <g
         clip-path="url(#clipPath7896)"
         id="g2567"
         transform="translate(-0.5625,0.213375)"
         style="stroke-linecap:butt;stroke-linejoin:round">
        <g
           fill="#000000"
           fill-opacity="1"
           id="g2565"
           style="stroke-linecap:butt;stroke-linejoin:round">
          <g
             id="g2563"
             transform="translate(0,8.8959999)"
             style="stroke-linecap:butt;stroke-linejoin:round">
            <path
               d="M 9.8125,-5.71875 C 9.921875,-6.140625 9.984375,-6.375 9.984375,-6.9375 c 0,-1.25 -0.734375,-2.171875 -2.296875,-2.171875 -1.84375,0 -2.8125,1.296875 -3.1875,1.8125 -0.0625,-1.171875 -0.90625,-1.8125 -1.8125,-1.8125 -0.59375,0 -1.078125,0.296875 -1.46875,1.078125 -0.375,0.734375 -0.65625,2 -0.65625,2.078125 0,0.09375 0.078125,0.1875 0.21875,0.1875 0.171875,0 0.1875,-0.015625 0.3125,-0.5 0.3125,-1.21875 0.703125,-2.4375 1.53125,-2.4375 0.46875,0 0.640625,0.34375 0.640625,0.953125 0,0.453125 -0.203125,1.265625 -0.359375,1.90625 l -0.578125,2.234375 c -0.078125,0.390625 -0.296875,1.3125 -0.40625,1.6875 -0.140625,0.53125 -0.375,1.515625 -0.375,1.609375 0,0.296875 0.234375,0.515625 0.546875,0.515625 0.234375,0 0.53125,-0.125 0.6875,-0.4375 0.046875,-0.09375 0.234375,-0.8125 0.34375,-1.234375 L 3.578125,-3.328125 4.25,-6.046875 C 4.296875,-6.171875 4.8125,-7.203125 5.578125,-7.875 6.109375,-8.359375 6.8125,-8.703125 7.625,-8.703125 c 0.828125,0 1.109375,0.625 1.109375,1.453125 0,0.59375 -0.078125,0.921875 -0.1875,1.328125 l -2.390625,9.5 c -0.015625,0.09375 -0.0625,0.21875 -0.0625,0.34375 0,0.3125 0.25,0.515625 0.5625,0.515625 0.1875,0 0.609375,-0.078125 0.78125,-0.703125 z m 0,0"
               id="path2561"
               style="stroke-linecap:butt;stroke-linejoin:round" />
          </g>
        </g>
      </g>
    </g>
    <g
       inkscape:label=""
       transform="translate(20.996271,160.52029)"
       id="g2192"
       style="stroke-linecap:butt;stroke-linejoin:round">
      <g
         fill="#000000"
         fill-opacity="1"
         id="g19"
         transform="translate(-0.5625,0.0231247)"
         style="stroke-linecap:butt;stroke-linejoin:round">
        <g
           id="g2185"
           transform="translate(3.74,13.555)"
           style="stroke-linecap:butt;stroke-linejoin:round">
          <path
             d="m 3.40625,-12.71875 c 0,-0.5 -0.390625,-0.859375 -0.828125,-0.859375 -0.484375,0 -0.84375,0.40625 -0.84375,0.859375 0,0.484375 0.390625,0.84375 0.828125,0.84375 0.5,0 0.84375,-0.390625 0.84375,-0.84375 z m 0,0"
             id="path31"
             style="stroke-linecap:butt;stroke-linejoin:round" />
        </g>
      </g>
      <g
         clip-path="url(#clipPath3802)"
         id="g25"
         transform="translate(-0.5625,0.0231247)"
         style="stroke-linecap:butt;stroke-linejoin:round">
        <g
           fill="#000000"
           fill-opacity="1"
           id="g23"
           style="stroke-linecap:butt;stroke-linejoin:round">
          <g
             id="use21"
             transform="translate(0,13.556)"
             style="stroke-linecap:butt;stroke-linejoin:round">
            <path
               d="m 7.046875,-1.203125 c 0.265625,1.15625 1.25,1.40625 1.75,1.40625 0.65625,0 1.15625,-0.4375 1.484375,-1.125 0.359375,-0.75 0.625,-1.96875 0.625,-2.03125 0,-0.109375 -0.07813,-0.1875 -0.203125,-0.1875 -0.1875,0 -0.203125,0.109375 -0.296875,0.40625 -0.375,1.4375 -0.734375,2.53125 -1.5625,2.53125 -0.625,0 -0.625,-0.6875 -0.625,-0.953125 0,-0.46875 0.0625,-0.6875 0.265625,-1.546875 0.15625,-0.5625 0.296875,-1.125 0.421875,-1.703125 L 9.75,-7.765625 c 0.140625,-0.515625 0.140625,-0.5625 0.140625,-0.625 0,-0.3125 -0.25,-0.515625 -0.546875,-0.515625 -0.609375,0 -0.75,0.515625 -0.875,1.03125 C 8.265625,-7.0625 7.140625,-2.625 7,-1.90625 c -0.015625,0 -0.828125,1.703125 -2.328125,1.703125 -1.078125,0 -1.28125,-0.9375 -1.28125,-1.703125 0,-1.171875 0.578125,-2.828125 1.109375,-4.203125 0.25,-0.671875 0.359375,-0.9375 0.359375,-1.34375 0,-0.890625 -0.640625,-1.65625 -1.640625,-1.65625 -1.890625,0 -2.65625,3 -2.65625,3.15625 0,0.09375 0.078125,0.1875 0.21875,0.1875 0.1875,0 0.203125,-0.078125 0.296875,-0.375 0.484375,-1.765625 1.296875,-2.5625 2.078125,-2.5625 0.203125,0 0.546875,0.03125 0.546875,0.6875 0,0.53125 -0.234375,1.140625 -0.546875,1.921875 -0.90625,2.453125 -1.015625,3.25 -1.015625,3.859375 0,2.109375 1.59375,2.4375 2.4375,2.4375 1.328125,0 2.046875,-0.90625 2.46875,-1.40625 z m 0,0"
               id="path35"
               style="stroke-linecap:butt;stroke-linejoin:round" />
          </g>
        </g>
      </g>
    </g>
    <circle
       style="fill:#000000;stroke-width:0.803781;stroke-linecap:round;stroke-linejoin:round"
       id="path17785-5"
       cx="66.7631"
       cy="167.3092"
       r="4" />
    <circle
       style="fill:#000000;stroke-width:0.803781;stroke-linecap:round;stroke-linejoin:round"
       id="path17785-5-4"
       cx="97.848"
       cy="167.3092"
       r="4" />
    <circle
       style="fill:#000000;stroke-width:0.803781;stroke-linecap:round;stroke-linejoin:round"
       id="path17785-5-9"
       cx="138.35899"
       cy="167.3092"
       r="4" />
    <circle
       style="fill:#000000;stroke-width:0.803781;stroke-linecap:round;stroke-linejoin:round"
       id="path17785-5-0"
       cx="333.961"
       cy="167.3092"
       r="4" />
    <circle
       style="fill:#000000;stroke-width:0.803781;stroke-linecap:round;stroke-linejoin:round"
       id="path17785-5-1"
       cx="374.47198"
       cy="167.3092"
       r="4" />
    <circle
       style="fill:#000000;stroke-width:0.803781;stroke-linecap:round;stroke-linejoin:round"
       id="path17785-5-09"
       cx="405.55701"
       cy="167.3092"
       r="4" />
    <circle
       style="fill:#cccccc;stroke-width:0.803781;stroke-linecap:round;stroke-linejoin:round;stroke:#000000"
       id="path17785-5-7"
       cx="236.16"
       cy="167.3092"
       r="4" />
    <rect
       style="opacity:0.8;fill:#ffffff;stroke:none;stroke-width:0.598436;stroke-linecap:round"
       id="rect40301"
       width="69.878227"
       height="18.112782"
       x="236.34743"
       y="254.35562" />
    <g
       id="g43084">
      <rect
         style="opacity:0.8;fill:#ffffff;stroke:none;stroke-width:0.335453;stroke-linecap:round;stroke-linejoin:round"
         id="rect40301-1-4"
         width="32.08223"
         height="12.396278"
         x="364.03943"
         y="230.89856" />
      <g
         inkscape:label=""
         transform="matrix(0.71553046,0,0,0.71553046,368.13835,233.08389)"
         id="g3245"
         style="fill:#5f187f;fill-opacity:1;stroke-linecap:butt;stroke-linejoin:round">
        <g
           id="g7636"
           transform="translate(0,-1.4974004)"
           style="stroke-linecap:butt;stroke-linejoin:round">
          <g
             clip-path="url(#clipPath7919-2)"
             id="g27"
             transform="translate(-0.46875,0.277)"
             style="fill:#5f187f;fill-opacity:1;stroke-linecap:butt;stroke-linejoin:round">
            <g
               fill="#000000"
               fill-opacity="1"
               id="g3232"
               style="fill:#5f187f;fill-opacity:1;stroke-linecap:butt;stroke-linejoin:round">
              <g
                 id="use23"
                 transform="translate(0,11.098)"
                 style="fill:#5f187f;fill-opacity:1;stroke-linecap:butt;stroke-linejoin:round">
                <path
                   d="m 8.171875,-4.765625 c 0.09375,-0.34375 0.140625,-0.5625 0.140625,-1.015625 0,-1.03125 -0.59375,-1.8125 -1.90625,-1.8125 C 4.875,-7.59375 4.0625,-6.515625 3.75,-6.078125 3.703125,-7.0625 3,-7.59375 2.234375,-7.59375 c -0.5,0 -0.890625,0.234375 -1.21875,0.890625 -0.3125,0.625 -0.546875,1.671875 -0.546875,1.75 0,0.0625 0.0625,0.15625 0.1875,0.15625 0.140625,0 0.15625,-0.03125 0.25,-0.421875 C 1.171875,-6.234375 1.5,-7.25 2.1875,-7.25 c 0.390625,0 0.53125,0.28125 0.53125,0.796875 0,0.375 -0.171875,1.046875 -0.296875,1.578125 l -0.46875,1.859375 C 1.875,-2.6875 1.6875,-1.90625 1.59375,-1.59375 c -0.109375,0.4375 -0.296875,1.25 -0.296875,1.328125 0,0.25 0.1875,0.4375 0.4375,0.4375 0.21875,0 0.453125,-0.109375 0.59375,-0.359375 0.03125,-0.09375 0.1875,-0.6875 0.265625,-1.03125 l 0.390625,-1.546875 0.5625,-2.28125 C 3.578125,-5.140625 4.015625,-6.015625 4.65625,-6.5625 5.09375,-6.96875 5.6875,-7.25 6.359375,-7.25 c 0.6875,0 0.921875,0.515625 0.921875,1.203125 0,0.5 -0.0625,0.78125 -0.15625,1.109375 l -2,7.921875 c -0.015625,0.078125 -0.046875,0.1875 -0.046875,0.28125 0,0.265625 0.203125,0.4375 0.46875,0.4375 0.15625,0 0.515625,-0.0625 0.65625,-0.59375 z m 0,0"
                   id="path43"
                   style="fill:#5f187f;fill-opacity:1;stroke-linecap:butt;stroke-linejoin:round" />
              </g>
            </g>
          </g>
          <g
             fill="#000000"
             fill-opacity="1"
             id="g31"
             transform="translate(-0.46875,0.277)"
             style="fill:#5f187f;fill-opacity:1;stroke-linecap:butt;stroke-linejoin:round">
            <g
               id="use29"
               transform="translate(13.716,11.098)"
               style="fill:#5f187f;fill-opacity:1;stroke-linecap:butt;stroke-linejoin:round">
              <path
                 d="m 11.078125,-5.53125 c 0.25,0 0.515625,0 0.515625,-0.28125 C 11.59375,-6.125 11.296875,-6.125 11,-6.125 H 1.375 c -0.296875,0 -0.578125,0 -0.578125,0.3125 0,0.28125 0.25,0.28125 0.515625,0.28125 z M 11,-2.46875 c 0.296875,0 0.59375,0 0.59375,-0.296875 0,-0.296875 -0.265625,-0.296875 -0.515625,-0.296875 H 1.3125 c -0.265625,0 -0.515625,0 -0.515625,0.296875 0,0.296875 0.28125,0.296875 0.578125,0.296875 z m 0,0"
                 id="path47"
                 style="fill:#5f187f;fill-opacity:1;stroke-linecap:butt;stroke-linejoin:round" />
            </g>
          </g>
          <g
             clip-path="url(#clipPath7733-3)"
             id="g3243"
             transform="translate(-0.46875,0.277)"
             style="fill:#5f187f;fill-opacity:1;stroke-linecap:butt;stroke-linejoin:round">
            <g
               fill="#000000"
               fill-opacity="1"
               id="g3241"
               style="fill:#5f187f;fill-opacity:1;stroke-linecap:butt;stroke-linejoin:round">
              <g
                 id="g3239"
                 transform="translate(30.893526,11.098)"
                 style="fill:#5f187f;fill-opacity:1;stroke-linecap:butt;stroke-linejoin:round">
                <path
                   d="m 7.234375,-5.53125 c 0,-1.046875 -0.015625,-2.84375 -0.75,-4.21875 -0.625,-1.203125 -1.640625,-1.625 -2.546875,-1.625 -0.828125,0 -1.875,0.375 -2.53125,1.609375 -0.6875,1.296875 -0.75,2.890625 -0.75,4.234375 0,0.984375 0.015625,2.484375 0.546875,3.796875 0.75,1.765625 2.0625,2.015625 2.734375,2.015625 0.796875,0 2,-0.328125 2.703125,-1.96875 0.515625,-1.1875 0.59375,-2.578125 0.59375,-3.84375 z M 3.9375,0 C 2.84375,0 2.1875,-0.953125 1.953125,-2.25 1.75,-3.265625 1.75,-4.75 1.75,-5.71875 c 0,-1.328125 0,-2.421875 0.234375,-3.46875 0.328125,-1.46875 1.28125,-1.921875 1.953125,-1.921875 0.71875,0 1.625,0.46875 1.953125,1.875 C 6.109375,-8.25 6.125,-7.09375 6.125,-5.71875 c 0,1.125 0,2.5 -0.203125,3.515625 C 5.5625,-0.328125 4.546875,0 3.9375,0 Z m 0,0"
                   id="path51"
                   style="fill:#5f187f;fill-opacity:1;stroke-linecap:butt;stroke-linejoin:round" />
              </g>
            </g>
          </g>
        </g>
      </g>
    </g>
    <g
       id="g43039"
       transform="translate(0,1.5)">
      <rect
         style="opacity:0.8;fill:#ffffff;stroke:none;stroke-width:0.378916;stroke-linecap:round;stroke-linejoin:round"
         id="rect40301-1-7"
         width="40.565266"
         height="12.509072"
         x="360.51932"
         y="196.72433" />
      <g
         inkscape:label=""
         transform="matrix(0.71553046,0,0,0.71553046,363.61169,197.93733)"
         id="g3615"
         style="fill:#982d80;fill-opacity:1;stroke-linecap:butt;stroke-linejoin:round">
        <g
           clip-path="url(#clipPath2722-3)"
           id="g30"
           transform="translate(-0.46875,0.277)"
           style="fill:#982d80;fill-opacity:1;stroke-linecap:butt;stroke-linejoin:round">
          <g
             fill="#000000"
             fill-opacity="1"
             id="g28"
             style="fill:#982d80;fill-opacity:1;stroke-linecap:butt;stroke-linejoin:round">
            <g
               id="use26"
               transform="translate(0,11.098)"
               style="fill:#982d80;fill-opacity:1;stroke-linecap:butt;stroke-linejoin:round">
              <path
                 d="m 8.171875,-4.765625 c 0.09375,-0.34375 0.140625,-0.5625 0.140625,-1.015625 0,-1.03125 -0.59375,-1.8125 -1.90625,-1.8125 C 4.875,-7.59375 4.0625,-6.515625 3.75,-6.078125 3.703125,-7.0625 3,-7.59375 2.234375,-7.59375 c -0.5,0 -0.890625,0.234375 -1.21875,0.890625 -0.3125,0.625 -0.546875,1.671875 -0.546875,1.75 0,0.0625 0.0625,0.15625 0.1875,0.15625 0.140625,0 0.15625,-0.03125 0.25,-0.421875 C 1.171875,-6.234375 1.5,-7.25 2.1875,-7.25 c 0.390625,0 0.53125,0.28125 0.53125,0.796875 0,0.375 -0.171875,1.046875 -0.296875,1.578125 l -0.46875,1.859375 C 1.875,-2.6875 1.6875,-1.90625 1.59375,-1.59375 c -0.109375,0.4375 -0.296875,1.25 -0.296875,1.328125 0,0.25 0.1875,0.4375 0.4375,0.4375 0.21875,0 0.453125,-0.109375 0.59375,-0.359375 0.03125,-0.09375 0.1875,-0.6875 0.265625,-1.03125 l 0.390625,-1.546875 0.5625,-2.28125 C 3.578125,-5.140625 4.015625,-6.015625 4.65625,-6.5625 5.09375,-6.96875 5.6875,-7.25 6.359375,-7.25 c 0.6875,0 0.921875,0.515625 0.921875,1.203125 0,0.5 -0.0625,0.78125 -0.15625,1.109375 l -2,7.921875 c -0.015625,0.078125 -0.046875,0.1875 -0.046875,0.28125 0,0.265625 0.203125,0.4375 0.46875,0.4375 0.15625,0 0.515625,-0.0625 0.65625,-0.59375 z m 0,0"
                 id="path52"
                 style="fill:#982d80;fill-opacity:1;stroke-linecap:butt;stroke-linejoin:round" />
            </g>
          </g>
        </g>
        <g
           fill="#000000"
           fill-opacity="1"
           id="g34"
           transform="translate(-0.46875,0.277)"
           style="fill:#982d80;fill-opacity:1;stroke-linecap:butt;stroke-linejoin:round">
          <g
             id="use32"
             transform="translate(13.716,11.098)"
             style="fill:#982d80;fill-opacity:1;stroke-linecap:butt;stroke-linejoin:round">
            <path
               d="m 11.078125,-5.53125 c 0.25,0 0.515625,0 0.515625,-0.28125 C 11.59375,-6.125 11.296875,-6.125 11,-6.125 H 1.375 c -0.296875,0 -0.578125,0 -0.578125,0.3125 0,0.28125 0.25,0.28125 0.515625,0.28125 z M 11,-2.46875 c 0.296875,0 0.59375,0 0.59375,-0.296875 0,-0.296875 -0.265625,-0.296875 -0.515625,-0.296875 H 1.3125 c -0.265625,0 -0.515625,0 -0.515625,0.296875 0,0.296875 0.28125,0.296875 0.578125,0.296875 z m 0,0"
               id="path56"
               style="fill:#982d80;fill-opacity:1;stroke-linecap:butt;stroke-linejoin:round" />
          </g>
        </g>
        <g
           fill="#000000"
           fill-opacity="1"
           id="g38"
           transform="translate(-0.46875,0.277)"
           style="fill:#982d80;fill-opacity:1;stroke-linecap:butt;stroke-linejoin:round">
          <g
             id="use36"
             transform="translate(30.893526,11.098)"
             style="fill:#982d80;fill-opacity:1;stroke-linecap:butt;stroke-linejoin:round">
            <path
               d="m 7.234375,-5.53125 c 0,-1.046875 -0.015625,-2.84375 -0.75,-4.21875 -0.625,-1.203125 -1.640625,-1.625 -2.546875,-1.625 -0.828125,0 -1.875,0.375 -2.53125,1.609375 -0.6875,1.296875 -0.75,2.890625 -0.75,4.234375 0,0.984375 0.015625,2.484375 0.546875,3.796875 0.75,1.765625 2.0625,2.015625 2.734375,2.015625 0.796875,0 2,-0.328125 2.703125,-1.96875 0.515625,-1.1875 0.59375,-2.578125 0.59375,-3.84375 z M 3.9375,0 C 2.84375,0 2.1875,-0.953125 1.953125,-2.25 1.75,-3.265625 1.75,-4.75 1.75,-5.71875 c 0,-1.328125 0,-2.421875 0.234375,-3.46875 0.328125,-1.46875 1.28125,-1.921875 1.953125,-1.921875 0.71875,0 1.625,0.46875 1.953125,1.875 C 6.109375,-8.25 6.125,-7.09375 6.125,-5.71875 c 0,1.125 0,2.5 -0.203125,3.515625 C 5.5625,-0.328125 4.546875,0 3.9375,0 Z m 0,0"
               id="path60"
               style="fill:#982d80;fill-opacity:1;stroke-linecap:butt;stroke-linejoin:round" />
          </g>
        </g>
        <g
           fill="#000000"
           fill-opacity="1"
           id="g42"
           transform="translate(-0.46875,0.277)"
           style="fill:#982d80;fill-opacity:1;stroke-linecap:butt;stroke-linejoin:round">
          <g
             id="use40"
             transform="translate(38.785999,11.098)"
             style="fill:#982d80;fill-opacity:1;stroke-linecap:butt;stroke-linejoin:round">
            <path
               d="m 3.171875,-0.828125 c 0,-0.5 -0.421875,-0.84375 -0.828125,-0.84375 C 1.84375,-1.671875 1.5,-1.25 1.5,-0.84375 1.5,-0.34375 1.90625,0 2.328125,0 c 0.5,0 0.84375,-0.40625 0.84375,-0.828125 z m 0,0"
               id="path64"
               style="fill:#982d80;fill-opacity:1;stroke-linecap:butt;stroke-linejoin:round" />
          </g>
        </g>
        <g
           fill="#000000"
           fill-opacity="1"
           id="g46"
           transform="translate(-0.46875,0.277)"
           style="fill:#982d80;fill-opacity:1;stroke-linecap:butt;stroke-linejoin:round">
          <g
             id="use44"
             transform="translate(43.467999,11.098)"
             style="fill:#982d80;fill-opacity:1;stroke-linecap:butt;stroke-linejoin:round">
            <path
               d="m 3.8125,-5.859375 c 1.53125,0 2.203125,1.328125 2.203125,2.859375 0,2.0625 -1.109375,2.859375 -2.109375,2.859375 C 3,-0.140625 1.515625,-0.578125 1.046875,-1.90625 1.140625,-1.875 1.21875,-1.875 1.3125,-1.875 c 0.40625,0 0.71875,-0.28125 0.71875,-0.71875 0,-0.5 -0.375,-0.734375 -0.71875,-0.734375 -0.296875,0 -0.75,0.140625 -0.75,0.78125 0,1.578125 1.5625,2.828125 3.375,2.828125 1.921875,0 3.375,-1.5 3.375,-3.265625 0,-1.671875 -1.375,-2.875 -3,-3.0625 1.296875,-0.265625 2.5625,-1.4375 2.5625,-3.015625 0,-1.34375 -1.359375,-2.3125 -2.921875,-2.3125 -1.5625,0 -2.9375,0.953125 -2.9375,2.328125 0,0.609375 0.453125,0.71875 0.671875,0.71875 0.359375,0 0.671875,-0.234375 0.671875,-0.671875 0,-0.453125 -0.3125,-0.671875 -0.671875,-0.671875 -0.0625,0 -0.15625,0 -0.21875,0.03125 0.5,-1.140625 1.859375,-1.34375 2.453125,-1.34375 0.609375,0 1.75,0.296875 1.75,1.9375 0,0.484375 -0.078125,1.34375 -0.65625,2.109375 C 4.5,-6.265625 3.90625,-6.234375 3.34375,-6.1875 c -0.09375,0 -0.484375,0.046875 -0.546875,0.046875 -0.125,0.015625 -0.203125,0.03125 -0.203125,0.15625 0,0.109375 0.03125,0.125 0.375,0.125 z m 0,0"
               id="path68"
               style="fill:#982d80;fill-opacity:1;stroke-linecap:butt;stroke-linejoin:round" />
          </g>
        </g>
      </g>
    </g>
    <g
       id="g42583"
       transform="matrix(0.71553046,0,0,0.71553046,-20.246313,129.74973)">
      <rect
         style="opacity:0.8;fill:#ffffff;stroke:none;stroke-width:0.598436;stroke-linecap:round;stroke-linejoin:round"
         id="rect40301-1-5"
         width="69.878227"
         height="18.112782"
         x="186.46692"
         y="72.934029" />
      <g
         inkscape:label=""
         transform="translate(196.28922,74.629263)"
         id="g4042"
         style="fill:#d3436e;fill-opacity:1;stroke-linecap:butt;stroke-linejoin:round">
        <g
           clip-path="url(#clipPath9767-69)"
           id="g4016"
           transform="translate(-0.46875,0.277)"
           style="fill:#d3436e;fill-opacity:1;stroke-linecap:butt;stroke-linejoin:round">
          <g
             fill="#000000"
             fill-opacity="1"
             id="g4014"
             style="fill:#d3436e;fill-opacity:1;stroke-linecap:butt;stroke-linejoin:round">
            <g
               id="g4012"
               transform="translate(0,11.098)"
               style="fill:#d3436e;fill-opacity:1;stroke-linecap:butt;stroke-linejoin:round">
              <path
                 d="m 8.171875,-4.765625 c 0.09375,-0.34375 0.140625,-0.5625 0.140625,-1.015625 0,-1.03125 -0.59375,-1.8125 -1.90625,-1.8125 C 4.875,-7.59375 4.0625,-6.515625 3.75,-6.078125 3.703125,-7.0625 3,-7.59375 2.234375,-7.59375 c -0.5,0 -0.890625,0.234375 -1.21875,0.890625 -0.3125,0.625 -0.546875,1.671875 -0.546875,1.75 0,0.0625 0.0625,0.15625 0.1875,0.15625 0.140625,0 0.15625,-0.03125 0.25,-0.421875 C 1.171875,-6.234375 1.5,-7.25 2.1875,-7.25 c 0.390625,0 0.53125,0.28125 0.53125,0.796875 0,0.375 -0.171875,1.046875 -0.296875,1.578125 l -0.46875,1.859375 C 1.875,-2.6875 1.6875,-1.90625 1.59375,-1.59375 c -0.109375,0.4375 -0.296875,1.25 -0.296875,1.328125 0,0.25 0.1875,0.4375 0.4375,0.4375 0.21875,0 0.453125,-0.109375 0.59375,-0.359375 0.03125,-0.09375 0.1875,-0.6875 0.265625,-1.03125 l 0.390625,-1.546875 0.5625,-2.28125 C 3.578125,-5.140625 4.015625,-6.015625 4.65625,-6.5625 5.09375,-6.96875 5.6875,-7.25 6.359375,-7.25 c 0.6875,0 0.921875,0.515625 0.921875,1.203125 0,0.5 -0.0625,0.78125 -0.15625,1.109375 l -2,7.921875 c -0.015625,0.078125 -0.046875,0.1875 -0.046875,0.28125 0,0.265625 0.203125,0.4375 0.46875,0.4375 0.15625,0 0.515625,-0.0625 0.65625,-0.59375 z m 0,0"
                 id="path4010"
                 style="fill:#d3436e;fill-opacity:1;stroke-linecap:butt;stroke-linejoin:round" />
            </g>
          </g>
        </g>
        <g
           fill="#000000"
           fill-opacity="1"
           id="g4022"
           transform="translate(-0.46875,0.277)"
           style="fill:#d3436e;fill-opacity:1;stroke-linecap:butt;stroke-linejoin:round">
          <g
             id="g4020"
             transform="translate(13.716,11.098)"
             style="fill:#d3436e;fill-opacity:1;stroke-linecap:butt;stroke-linejoin:round">
            <path
               d="m 11.078125,-5.53125 c 0.25,0 0.515625,0 0.515625,-0.28125 C 11.59375,-6.125 11.296875,-6.125 11,-6.125 H 1.375 c -0.296875,0 -0.578125,0 -0.578125,0.3125 0,0.28125 0.25,0.28125 0.515625,0.28125 z M 11,-2.46875 c 0.296875,0 0.59375,0 0.59375,-0.296875 0,-0.296875 -0.265625,-0.296875 -0.515625,-0.296875 H 1.3125 c -0.265625,0 -0.515625,0 -0.515625,0.296875 0,0.296875 0.28125,0.296875 0.578125,0.296875 z m 0,0"
               id="path4018"
               style="fill:#d3436e;fill-opacity:1;stroke-linecap:butt;stroke-linejoin:round" />
          </g>
        </g>
        <g
           fill="#000000"
           fill-opacity="1"
           id="g4028"
           transform="translate(-0.46875,0.277)"
           style="fill:#d3436e;fill-opacity:1;stroke-linecap:butt;stroke-linejoin:round">
          <g
             id="g4026"
             transform="translate(30.893526,11.098)"
             style="fill:#d3436e;fill-opacity:1;stroke-linecap:butt;stroke-linejoin:round">
            <path
               d="m 7.234375,-5.53125 c 0,-1.046875 -0.015625,-2.84375 -0.75,-4.21875 -0.625,-1.203125 -1.640625,-1.625 -2.546875,-1.625 -0.828125,0 -1.875,0.375 -2.53125,1.609375 -0.6875,1.296875 -0.75,2.890625 -0.75,4.234375 0,0.984375 0.015625,2.484375 0.546875,3.796875 0.75,1.765625 2.0625,2.015625 2.734375,2.015625 0.796875,0 2,-0.328125 2.703125,-1.96875 0.515625,-1.1875 0.59375,-2.578125 0.59375,-3.84375 z M 3.9375,0 C 2.84375,0 2.1875,-0.953125 1.953125,-2.25 1.75,-3.265625 1.75,-4.75 1.75,-5.71875 c 0,-1.328125 0,-2.421875 0.234375,-3.46875 0.328125,-1.46875 1.28125,-1.921875 1.953125,-1.921875 0.71875,0 1.625,0.46875 1.953125,1.875 C 6.109375,-8.25 6.125,-7.09375 6.125,-5.71875 c 0,1.125 0,2.5 -0.203125,3.515625 C 5.5625,-0.328125 4.546875,0 3.9375,0 Z m 0,0"
               id="path4024"
               style="fill:#d3436e;fill-opacity:1;stroke-linecap:butt;stroke-linejoin:round" />
          </g>
        </g>
        <g
           fill="#000000"
           fill-opacity="1"
           id="g4034"
           transform="translate(-0.46875,0.277)"
           style="fill:#d3436e;fill-opacity:1;stroke-linecap:butt;stroke-linejoin:round">
          <g
             id="g4032"
             transform="translate(38.785999,11.098)"
             style="fill:#d3436e;fill-opacity:1;stroke-linecap:butt;stroke-linejoin:round">
            <path
               d="m 3.171875,-0.828125 c 0,-0.5 -0.421875,-0.84375 -0.828125,-0.84375 C 1.84375,-1.671875 1.5,-1.25 1.5,-0.84375 1.5,-0.34375 1.90625,0 2.328125,0 c 0.5,0 0.84375,-0.40625 0.84375,-0.828125 z m 0,0"
               id="path4030"
               style="fill:#d3436e;fill-opacity:1;stroke-linecap:butt;stroke-linejoin:round" />
          </g>
        </g>
        <g
           fill="#000000"
           fill-opacity="1"
           id="g4040"
           transform="translate(-0.46875,0.277)"
           style="fill:#d3436e;fill-opacity:1;stroke-linecap:butt;stroke-linejoin:round">
          <g
             id="g4038"
             transform="translate(43.467999,11.098)"
             style="fill:#d3436e;fill-opacity:1;stroke-linecap:butt;stroke-linejoin:round">
            <path
               d="m 1.828125,-5.9375 c 0,-4.125 1.921875,-5.046875 3.046875,-5.046875 0.359375,0 1.234375,0.0625 1.578125,0.734375 -0.265625,0 -0.78125,0 -0.78125,0.609375 0,0.46875 0.375,0.625 0.609375,0.625 0.15625,0 0.625,-0.078125 0.625,-0.65625 0,-1.09375 -0.859375,-1.703125 -2.046875,-1.703125 -2.046875,0 -4.203125,2.125 -4.203125,5.9375 0,4.6875 1.9375,5.71875 3.328125,5.71875 1.65625,0 3.25,-1.5 3.25,-3.8125 0,-2.15625 -1.390625,-3.71875 -3.15625,-3.71875 -1.046875,0 -1.828125,0.6875 -2.25,1.890625 z m 2.15625,5.796875 c -2.125,0 -2.125,-3.171875 -2.125,-3.796875 0,-1.25 0.578125,-3.03125 2.1875,-3.03125 0.296875,0 1.140625,0 1.703125,1.1875 0.3125,0.671875 0.3125,1.375 0.3125,2.234375 0,0.921875 0,1.625 -0.359375,2.3125 -0.375,0.703125 -0.9375,1.09375 -1.71875,1.09375 z m 0,0"
               id="path4036"
               style="fill:#d3436e;fill-opacity:1;stroke-linecap:butt;stroke-linejoin:round" />
          </g>
        </g>
      </g>
    </g>
    <g
       id="g42603"
       transform="matrix(0.7140994,0,0,0.7140994,-26.509434,168.46413)">
      <rect
         style="opacity:0.8;fill:#ffffff;stroke:none;stroke-width:0.598436;stroke-linecap:round;stroke-linejoin:round"
         id="rect40301-1"
         width="69.878227"
         height="18.112782"
         x="191.89041"
         y="50.282986" />
      <g
         inkscape:label=""
         transform="translate(201.71271,51.97822)"
         id="g6398"
         style="fill:#f8765c;fill-opacity:1;stroke-linecap:butt;stroke-linejoin:round">
        <g
           clip-path="url(#clipPath4663-77)"
           id="g6372"
           transform="translate(-0.46875,0.277)"
           style="fill:#f8765c;fill-opacity:1;stroke-linecap:butt;stroke-linejoin:round">
          <g
             fill="#000000"
             fill-opacity="1"
             id="g6370"
             style="fill:#f8765c;fill-opacity:1;stroke-linecap:butt;stroke-linejoin:round">
            <g
               id="g6368"
               transform="translate(0,11.098)"
               style="fill:#f8765c;fill-opacity:1;stroke-linecap:butt;stroke-linejoin:round">
              <path
                 d="m 8.171875,-4.765625 c 0.09375,-0.34375 0.140625,-0.5625 0.140625,-1.015625 0,-1.03125 -0.59375,-1.8125 -1.90625,-1.8125 C 4.875,-7.59375 4.0625,-6.515625 3.75,-6.078125 3.703125,-7.0625 3,-7.59375 2.234375,-7.59375 c -0.5,0 -0.890625,0.234375 -1.21875,0.890625 -0.3125,0.625 -0.546875,1.671875 -0.546875,1.75 0,0.0625 0.0625,0.15625 0.1875,0.15625 0.140625,0 0.15625,-0.03125 0.25,-0.421875 C 1.171875,-6.234375 1.5,-7.25 2.1875,-7.25 c 0.390625,0 0.53125,0.28125 0.53125,0.796875 0,0.375 -0.171875,1.046875 -0.296875,1.578125 l -0.46875,1.859375 C 1.875,-2.6875 1.6875,-1.90625 1.59375,-1.59375 c -0.109375,0.4375 -0.296875,1.25 -0.296875,1.328125 0,0.25 0.1875,0.4375 0.4375,0.4375 0.21875,0 0.453125,-0.109375 0.59375,-0.359375 0.03125,-0.09375 0.1875,-0.6875 0.265625,-1.03125 l 0.390625,-1.546875 0.5625,-2.28125 C 3.578125,-5.140625 4.015625,-6.015625 4.65625,-6.5625 5.09375,-6.96875 5.6875,-7.25 6.359375,-7.25 c 0.6875,0 0.921875,0.515625 0.921875,1.203125 0,0.5 -0.0625,0.78125 -0.15625,1.109375 l -2,7.921875 c -0.015625,0.078125 -0.046875,0.1875 -0.046875,0.28125 0,0.265625 0.203125,0.4375 0.46875,0.4375 0.15625,0 0.515625,-0.0625 0.65625,-0.59375 z m 0,0"
                 id="path6366"
                 style="fill:#f8765c;fill-opacity:1;stroke-linecap:butt;stroke-linejoin:round" />
            </g>
          </g>
        </g>
        <g
           fill="#000000"
           fill-opacity="1"
           id="g6378"
           transform="translate(-0.46875,0.277)"
           style="fill:#f8765c;fill-opacity:1;stroke-linecap:butt;stroke-linejoin:round">
          <g
             id="g6376"
             transform="translate(13.716,11.098)"
             style="fill:#f8765c;fill-opacity:1;stroke-linecap:butt;stroke-linejoin:round">
            <path
               d="m 11.078125,-5.53125 c 0.25,0 0.515625,0 0.515625,-0.28125 C 11.59375,-6.125 11.296875,-6.125 11,-6.125 H 1.375 c -0.296875,0 -0.578125,0 -0.578125,0.3125 0,0.28125 0.25,0.28125 0.515625,0.28125 z M 11,-2.46875 c 0.296875,0 0.59375,0 0.59375,-0.296875 0,-0.296875 -0.265625,-0.296875 -0.515625,-0.296875 H 1.3125 c -0.265625,0 -0.515625,0 -0.515625,0.296875 0,0.296875 0.28125,0.296875 0.578125,0.296875 z m 0,0"
               id="path6374"
               style="fill:#f8765c;fill-opacity:1;stroke-linecap:butt;stroke-linejoin:round" />
          </g>
        </g>
        <g
           fill="#000000"
           fill-opacity="1"
           id="g6384"
           transform="translate(-0.46875,0.277)"
           style="fill:#f8765c;fill-opacity:1;stroke-linecap:butt;stroke-linejoin:round">
          <g
             id="g6382"
             transform="translate(30.893526,11.098)"
             style="fill:#f8765c;fill-opacity:1;stroke-linecap:butt;stroke-linejoin:round">
            <path
               d="m 7.234375,-5.53125 c 0,-1.046875 -0.015625,-2.84375 -0.75,-4.21875 -0.625,-1.203125 -1.640625,-1.625 -2.546875,-1.625 -0.828125,0 -1.875,0.375 -2.53125,1.609375 -0.6875,1.296875 -0.75,2.890625 -0.75,4.234375 0,0.984375 0.015625,2.484375 0.546875,3.796875 0.75,1.765625 2.0625,2.015625 2.734375,2.015625 0.796875,0 2,-0.328125 2.703125,-1.96875 0.515625,-1.1875 0.59375,-2.578125 0.59375,-3.84375 z M 3.9375,0 C 2.84375,0 2.1875,-0.953125 1.953125,-2.25 1.75,-3.265625 1.75,-4.75 1.75,-5.71875 c 0,-1.328125 0,-2.421875 0.234375,-3.46875 0.328125,-1.46875 1.28125,-1.921875 1.953125,-1.921875 0.71875,0 1.625,0.46875 1.953125,1.875 C 6.109375,-8.25 6.125,-7.09375 6.125,-5.71875 c 0,1.125 0,2.5 -0.203125,3.515625 C 5.5625,-0.328125 4.546875,0 3.9375,0 Z m 0,0"
               id="path6380"
               style="fill:#f8765c;fill-opacity:1;stroke-linecap:butt;stroke-linejoin:round" />
          </g>
        </g>
        <g
           fill="#000000"
           fill-opacity="1"
           id="g6390"
           transform="translate(-0.46875,0.277)"
           style="fill:#f8765c;fill-opacity:1;stroke-linecap:butt;stroke-linejoin:round">
          <g
             id="g6388"
             transform="translate(38.785999,11.098)"
             style="fill:#f8765c;fill-opacity:1;stroke-linecap:butt;stroke-linejoin:round">
            <path
               d="m 3.171875,-0.828125 c 0,-0.5 -0.421875,-0.84375 -0.828125,-0.84375 C 1.84375,-1.671875 1.5,-1.25 1.5,-0.84375 1.5,-0.34375 1.90625,0 2.328125,0 c 0.5,0 0.84375,-0.40625 0.84375,-0.828125 z m 0,0"
               id="path6386"
               style="fill:#f8765c;fill-opacity:1;stroke-linecap:butt;stroke-linejoin:round" />
          </g>
        </g>
        <g
           fill="#000000"
           fill-opacity="1"
           id="g6396"
           transform="translate(-0.46875,0.277)"
           style="fill:#f8765c;fill-opacity:1;stroke-linecap:butt;stroke-linejoin:round">
          <g
             id="g6394"
             transform="translate(43.467999,11.098)"
             style="fill:#f8765c;fill-opacity:1;stroke-linecap:butt;stroke-linejoin:round">
            <path
               d="m 6.0625,-5.09375 c 0,3.78125 -1.5625,4.953125 -2.859375,4.953125 -0.390625,0 -1.359375,-0.046875 -1.75,-0.71875 0.4375,0.0625 0.765625,-0.171875 0.765625,-0.609375 0,-0.453125 -0.375,-0.609375 -0.625,-0.609375 -0.140625,0 -0.609375,0.0625 -0.609375,0.65625 0,1.15625 1.015625,1.703125 2.25,1.703125 1.984375,0 4,-2.171875 4,-5.96875 0,-4.71875 -1.9375,-5.6875 -3.234375,-5.6875 -1.703125,0 -3.34375,1.484375 -3.34375,3.796875 0,2.140625 1.390625,3.71875 3.15625,3.71875 1.4375,0 2.078125,-1.34375 2.25,-1.90625 z M 3.84375,-4.125 C 3.375,-4.125 2.71875,-4.21875 2.1875,-5.25 1.828125,-5.921875 1.828125,-6.71875 1.828125,-7.5625 c 0,-1.015625 0,-1.71875 0.484375,-2.46875 C 2.546875,-10.40625 3,-10.984375 4,-10.984375 c 2.03125,0 2.03125,3.109375 2.03125,3.796875 0,1.234375 -0.5625,3.0625 -2.1875,3.0625 z m 0,0"
               id="path6392"
               style="fill:#f8765c;fill-opacity:1;stroke-linecap:butt;stroke-linejoin:round" />
          </g>
        </g>
      </g>
    </g>
    <g
       id="g42885"
       transform="matrix(0.71553046,0,0,0.71553046,245.94745,110.34758)">
      <rect
         style="opacity:0.8;fill:#ffffff;stroke:none;stroke-width:0.598436;stroke-linecap:round;stroke-linejoin:round"
         id="rect40301-1-7-9"
         width="69.878227"
         height="18.112782"
         x="154.88306"
         y="242.33835" />
      <g
         inkscape:label=""
         transform="translate(157.97129,244.03358)"
         id="g2897"
         style="fill:#221150;fill-opacity:1;stroke:none;stroke-linecap:butt;stroke-linejoin:round;stroke-opacity:1">
        <g
           clip-path="url(#clipPath2409-39)"
           id="g37"
           transform="translate(-0.46875,0.277)"
           style="fill:#221150;fill-opacity:1;stroke:none;stroke-linecap:butt;stroke-linejoin:round;stroke-opacity:1">
          <g
             fill="#000000"
             fill-opacity="1"
             id="g35"
             style="fill:#221150;fill-opacity:1;stroke:none;stroke-linecap:butt;stroke-linejoin:round;stroke-opacity:1">
            <g
               id="use33"
               transform="translate(0,11.098)"
               style="fill:#221150;fill-opacity:1;stroke:none;stroke-linecap:butt;stroke-linejoin:round;stroke-opacity:1">
              <path
                 d="m 8.171875,-4.765625 c 0.09375,-0.34375 0.140625,-0.5625 0.140625,-1.015625 0,-1.03125 -0.59375,-1.8125 -1.90625,-1.8125 C 4.875,-7.59375 4.0625,-6.515625 3.75,-6.078125 3.703125,-7.0625 3,-7.59375 2.234375,-7.59375 c -0.5,0 -0.890625,0.234375 -1.21875,0.890625 -0.3125,0.625 -0.546875,1.671875 -0.546875,1.75 0,0.0625 0.0625,0.15625 0.1875,0.15625 0.140625,0 0.15625,-0.03125 0.25,-0.421875 C 1.171875,-6.234375 1.5,-7.25 2.1875,-7.25 c 0.390625,0 0.53125,0.28125 0.53125,0.796875 0,0.375 -0.171875,1.046875 -0.296875,1.578125 l -0.46875,1.859375 C 1.875,-2.6875 1.6875,-1.90625 1.59375,-1.59375 c -0.109375,0.4375 -0.296875,1.25 -0.296875,1.328125 0,0.25 0.1875,0.4375 0.4375,0.4375 0.21875,0 0.453125,-0.109375 0.59375,-0.359375 0.03125,-0.09375 0.1875,-0.6875 0.265625,-1.03125 l 0.390625,-1.546875 0.5625,-2.28125 C 3.578125,-5.140625 4.015625,-6.015625 4.65625,-6.5625 5.09375,-6.96875 5.6875,-7.25 6.359375,-7.25 c 0.6875,0 0.921875,0.515625 0.921875,1.203125 0,0.5 -0.0625,0.78125 -0.15625,1.109375 l -2,7.921875 c -0.015625,0.078125 -0.046875,0.1875 -0.046875,0.28125 0,0.265625 0.203125,0.4375 0.46875,0.4375 0.15625,0 0.515625,-0.0625 0.65625,-0.59375 z m 0,0"
                 id="path65"
                 style="fill:#221150;fill-opacity:1;stroke:none;stroke-linecap:butt;stroke-linejoin:round;stroke-opacity:1" />
            </g>
          </g>
        </g>
        <g
           fill="#000000"
           fill-opacity="1"
           id="g41"
           transform="translate(-0.46875,0.277)"
           style="fill:#221150;fill-opacity:1;stroke:none;stroke-linecap:butt;stroke-linejoin:round;stroke-opacity:1">
          <g
             id="use39"
             transform="translate(13.716,11.098)"
             style="fill:#221150;fill-opacity:1;stroke:none;stroke-linecap:butt;stroke-linejoin:round;stroke-opacity:1">
            <path
               d="m 11.078125,-5.53125 c 0.25,0 0.515625,0 0.515625,-0.28125 C 11.59375,-6.125 11.296875,-6.125 11,-6.125 H 1.375 c -0.296875,0 -0.578125,0 -0.578125,0.3125 0,0.28125 0.25,0.28125 0.515625,0.28125 z M 11,-2.46875 c 0.296875,0 0.59375,0 0.59375,-0.296875 0,-0.296875 -0.265625,-0.296875 -0.515625,-0.296875 H 1.3125 c -0.265625,0 -0.515625,0 -0.515625,0.296875 0,0.296875 0.28125,0.296875 0.578125,0.296875 z m 0,0"
               id="path69"
               style="fill:#221150;fill-opacity:1;stroke:none;stroke-linecap:butt;stroke-linejoin:round;stroke-opacity:1" />
          </g>
        </g>
        <g
           fill="#000000"
           fill-opacity="1"
           id="g45"
           transform="translate(-0.46875,0.277)"
           style="fill:#221150;fill-opacity:1;stroke:none;stroke-linecap:butt;stroke-linejoin:round;stroke-opacity:1">
          <g
             id="use43"
             transform="translate(30.891001,11.098)"
             style="fill:#221150;fill-opacity:1;stroke:none;stroke-linecap:butt;stroke-linejoin:round;stroke-opacity:1">
            <path
               d="m 11.34375,-3.953125 c 0.296875,0 0.609375,0 0.609375,-0.359375 0,-0.34375 -0.3125,-0.34375 -0.609375,-0.34375 h -9.3125 c -0.296875,0 -0.609375,0 -0.609375,0.34375 0,0.359375 0.3125,0.359375 0.609375,0.359375 z m 0,0"
               id="path73"
               style="fill:#221150;fill-opacity:1;stroke:none;stroke-linecap:butt;stroke-linejoin:round;stroke-opacity:1" />
          </g>
        </g>
        <g
           fill="#000000"
           fill-opacity="1"
           id="g49"
           transform="translate(-0.46875,0.277)"
           style="fill:#221150;fill-opacity:1;stroke:none;stroke-linecap:butt;stroke-linejoin:round;stroke-opacity:1">
          <g
             id="use47"
             transform="translate(44.280998,11.098)"
             style="fill:#221150;fill-opacity:1;stroke:none;stroke-linecap:butt;stroke-linejoin:round;stroke-opacity:1">
            <path
               d="m 7.234375,-5.53125 c 0,-1.046875 -0.015625,-2.84375 -0.75,-4.21875 -0.625,-1.203125 -1.640625,-1.625 -2.546875,-1.625 -0.828125,0 -1.875,0.375 -2.53125,1.609375 -0.6875,1.296875 -0.75,2.890625 -0.75,4.234375 0,0.984375 0.015625,2.484375 0.546875,3.796875 0.75,1.765625 2.0625,2.015625 2.734375,2.015625 0.796875,0 2,-0.328125 2.703125,-1.96875 0.515625,-1.1875 0.59375,-2.578125 0.59375,-3.84375 z M 3.9375,0 C 2.84375,0 2.1875,-0.953125 1.953125,-2.25 1.75,-3.265625 1.75,-4.75 1.75,-5.71875 c 0,-1.328125 0,-2.421875 0.234375,-3.46875 0.328125,-1.46875 1.28125,-1.921875 1.953125,-1.921875 0.71875,0 1.625,0.46875 1.953125,1.875 C 6.109375,-8.25 6.125,-7.09375 6.125,-5.71875 c 0,1.125 0,2.5 -0.203125,3.515625 C 5.5625,-0.328125 4.546875,0 3.9375,0 Z m 0,0"
               id="path77"
               style="fill:#221150;fill-opacity:1;stroke:none;stroke-linecap:butt;stroke-linejoin:round;stroke-opacity:1" />
          </g>
        </g>
        <g
           fill="#000000"
           fill-opacity="1"
           id="g53"
           transform="translate(-0.46875,0.277)"
           style="fill:#221150;fill-opacity:1;stroke:none;stroke-linecap:butt;stroke-linejoin:round;stroke-opacity:1">
          <g
             id="use51"
             transform="translate(52.175999,11.098)"
             style="fill:#221150;fill-opacity:1;stroke:none;stroke-linecap:butt;stroke-linejoin:round;stroke-opacity:1">
            <path
               d="m 3.171875,-0.828125 c 0,-0.5 -0.421875,-0.84375 -0.828125,-0.84375 C 1.84375,-1.671875 1.5,-1.25 1.5,-0.84375 1.5,-0.34375 1.90625,0 2.328125,0 c 0.5,0 0.84375,-0.40625 0.84375,-0.828125 z m 0,0"
               id="path81"
               style="fill:#221150;fill-opacity:1;stroke:none;stroke-linecap:butt;stroke-linejoin:round;stroke-opacity:1" />
          </g>
        </g>
        <g
           clip-path="url(#clipPath2532-4)"
           id="g59"
           transform="translate(-0.46875,0.277)"
           style="fill:#221150;fill-opacity:1;stroke:none;stroke-linecap:butt;stroke-linejoin:round;stroke-opacity:1">
          <g
             fill="#000000"
             fill-opacity="1"
             id="g57"
             style="fill:#221150;fill-opacity:1;stroke:none;stroke-linecap:butt;stroke-linejoin:round;stroke-opacity:1">
            <g
               id="use55"
               transform="translate(56.858002,11.098)"
               style="fill:#221150;fill-opacity:1;stroke:none;stroke-linecap:butt;stroke-linejoin:round;stroke-opacity:1">
              <path
                 d="m 3.8125,-5.859375 c 1.53125,0 2.203125,1.328125 2.203125,2.859375 0,2.0625 -1.109375,2.859375 -2.109375,2.859375 C 3,-0.140625 1.515625,-0.578125 1.046875,-1.90625 1.140625,-1.875 1.21875,-1.875 1.3125,-1.875 c 0.40625,0 0.71875,-0.28125 0.71875,-0.71875 0,-0.5 -0.375,-0.734375 -0.71875,-0.734375 -0.296875,0 -0.75,0.140625 -0.75,0.78125 0,1.578125 1.5625,2.828125 3.375,2.828125 1.921875,0 3.375,-1.5 3.375,-3.265625 0,-1.671875 -1.375,-2.875 -3,-3.0625 1.296875,-0.265625 2.5625,-1.4375 2.5625,-3.015625 0,-1.34375 -1.359375,-2.3125 -2.921875,-2.3125 -1.5625,0 -2.9375,0.953125 -2.9375,2.328125 0,0.609375 0.453125,0.71875 0.671875,0.71875 0.359375,0 0.671875,-0.234375 0.671875,-0.671875 0,-0.453125 -0.3125,-0.671875 -0.671875,-0.671875 -0.0625,0 -0.15625,0 -0.21875,0.03125 0.5,-1.140625 1.859375,-1.34375 2.453125,-1.34375 0.609375,0 1.75,0.296875 1.75,1.9375 0,0.484375 -0.078125,1.34375 -0.65625,2.109375 C 4.5,-6.265625 3.90625,-6.234375 3.34375,-6.1875 c -0.09375,0 -0.484375,0.046875 -0.546875,0.046875 -0.125,0.015625 -0.203125,0.03125 -0.203125,0.15625 0,0.109375 0.03125,0.125 0.375,0.125 z m 0,0"
                 id="path85"
                 style="fill:#221150;fill-opacity:1;stroke:none;stroke-linecap:butt;stroke-linejoin:round;stroke-opacity:1" />
            </g>
          </g>
        </g>
      </g>
    </g>
  </g>
  <text
     xml:space="preserve"
     style="font-size:16px;line-height:1.25;font-family:'CMU Serif';-inkscape-font-specification:'CMU Serif';stroke-width:0.75"
     x="389.36398"
     y="51.885117"
     id="text44238"><tspan
       sodipodi:role="line"
       id="tspan44236"
       style="stroke-width:0.75"
       x="389.36398"
       y="51.885117">(a)</tspan></text>
</svg>
