<?xml version="1.0" encoding="UTF-8" standalone="no"?>
<svg
   width="460.8pt"
   height="345.6pt"
   viewBox="0 0 460.8 345.6"
   version="1.1"
   id="svg1619"
   sodipodi:docname="bifs_sn_2.svg"
   inkscape:version="1.2.2 (732a01da63, 2022-12-09)"
   xmlns:inkscape="http://www.inkscape.org/namespaces/inkscape"
   xmlns:sodipodi="http://sodipodi.sourceforge.net/DTD/sodipodi-0.dtd"
   xmlns="http://www.w3.org/2000/svg"
   xmlns:svg="http://www.w3.org/2000/svg"
   xmlns:rdf="http://www.w3.org/1999/02/22-rdf-syntax-ns#"
   xmlns:cc="http://creativecommons.org/ns#"
   xmlns:dc="http://purl.org/dc/elements/1.1/">
  <sodipodi:namedview
     id="namedview1621"
     pagecolor="#ffffff"
     bordercolor="#000000"
     borderopacity="0.25"
     inkscape:showpageshadow="2"
     inkscape:pageopacity="0.0"
     inkscape:pagecheckerboard="0"
     inkscape:deskcolor="#d1d1d1"
     inkscape:document-units="pt"
     showgrid="false"
     inkscape:zoom="1.770836"
     inkscape:cx="232.37613"
     inkscape:cy="238.30553"
     inkscape:window-width="2560"
     inkscape:window-height="1334"
     inkscape:window-x="-11"
     inkscape:window-y="-11"
     inkscape:window-maximized="1"
     inkscape:current-layer="layer6" />
  <metadata
     id="metadata1303">
    <rdf:RDF>
      <cc:Work>
        <dc:type
           rdf:resource="http://purl.org/dc/dcmitype/StillImage" />
        <dc:date />
        <dc:format />
        <dc:creator>
          <cc:Agent>
            <dc:title />
          </cc:Agent>
        </dc:creator>
      </cc:Work>
    </rdf:RDF>
  </metadata>
  <defs
     id="defs1307">
    <style
       type="text/css"
       id="style1305">*{stroke-linejoin: round; stroke-linecap: butt}</style>
    <defs
       id="defs1316">
      <path
         id="me081b57997"
         d="M 0 0  L 0 3.5  "
         style="stroke: #000000; stroke-width: 0.8" />
    </defs>
    <defs
       id="defs1327">
      <path
         id="DejaVuSans-2212"
         d="M 678 2272  L 4684 2272  L 4684 1741  L 678 1741  L 678 2272  z "
         transform="scale(0.015625)" />
      <path
         id="DejaVuSans-30"
         d="M 2034 4250  Q 1547 4250 1301 3770  Q 1056 3291 1056 2328  Q 1056 1369 1301 889  Q 1547 409 2034 409  Q 2525 409 2770 889  Q 3016 1369 3016 2328  Q 3016 3291 2770 3770  Q 2525 4250 2034 4250  z M 2034 4750  Q 2819 4750 3233 4129  Q 3647 3509 3647 2328  Q 3647 1150 3233 529  Q 2819 -91 2034 -91  Q 1250 -91 836 529  Q 422 1150 422 2328  Q 422 3509 836 4129  Q 1250 4750 2034 4750  z "
         transform="scale(0.015625)" />
      <path
         id="DejaVuSans-2e"
         d="M 684 794  L 1344 794  L 1344 0  L 684 0  L 684 794  z "
         transform="scale(0.015625)" />
      <path
         id="DejaVuSans-33"
         d="M 2597 2516  Q 3050 2419 3304 2112  Q 3559 1806 3559 1356  Q 3559 666 3084 287  Q 2609 -91 1734 -91  Q 1441 -91 1130 -33  Q 819 25 488 141  L 488 750  Q 750 597 1062 519  Q 1375 441 1716 441  Q 2309 441 2620 675  Q 2931 909 2931 1356  Q 2931 1769 2642 2001  Q 2353 2234 1838 2234  L 1294 2234  L 1294 2753  L 1863 2753  Q 2328 2753 2575 2939  Q 2822 3125 2822 3475  Q 2822 3834 2567 4026  Q 2313 4219 1838 4219  Q 1578 4219 1281 4162  Q 984 4106 628 3988  L 628 4550  Q 988 4650 1302 4700  Q 1616 4750 1894 4750  Q 2613 4750 3031 4423  Q 3450 4097 3450 3541  Q 3450 3153 3228 2886  Q 3006 2619 2597 2516  z "
         transform="scale(0.015625)" />
    </defs>
    <defs
       id="defs1377">
      <path
         id="DejaVuSans-36"
         d="M 2113 2584  Q 1688 2584 1439 2293  Q 1191 2003 1191 1497  Q 1191 994 1439 701  Q 1688 409 2113 409  Q 2538 409 2786 701  Q 3034 994 3034 1497  Q 3034 2003 2786 2293  Q 2538 2584 2113 2584  z M 3366 4563  L 3366 3988  Q 3128 4100 2886 4159  Q 2644 4219 2406 4219  Q 1781 4219 1451 3797  Q 1122 3375 1075 2522  Q 1259 2794 1537 2939  Q 1816 3084 2150 3084  Q 2853 3084 3261 2657  Q 3669 2231 3669 1497  Q 3669 778 3244 343  Q 2819 -91 2113 -91  Q 1303 -91 875 529  Q 447 1150 447 2328  Q 447 3434 972 4092  Q 1497 4750 2381 4750  Q 2619 4750 2861 4703  Q 3103 4656 3366 4563  z "
         transform="scale(0.015625)" />
    </defs>
    <defs
       id="defs1395">
      <path
         id="DejaVuSans-39"
         d="M 703 97  L 703 672  Q 941 559 1184 500  Q 1428 441 1663 441  Q 2288 441 2617 861  Q 2947 1281 2994 2138  Q 2813 1869 2534 1725  Q 2256 1581 1919 1581  Q 1219 1581 811 2004  Q 403 2428 403 3163  Q 403 3881 828 4315  Q 1253 4750 1959 4750  Q 2769 4750 3195 4129  Q 3622 3509 3622 2328  Q 3622 1225 3098 567  Q 2575 -91 1691 -91  Q 1453 -91 1209 -44  Q 966 3 703 97  z M 1959 2075  Q 2384 2075 2632 2365  Q 2881 2656 2881 3163  Q 2881 3666 2632 3958  Q 2384 4250 1959 4250  Q 1534 4250 1286 3958  Q 1038 3666 1038 3163  Q 1038 2656 1286 2365  Q 1534 2075 1959 2075  z "
         transform="scale(0.015625)" />
    </defs>
    <defs
       id="defs1409">
      <path
         id="m13277d03ed"
         d="M 0 0  L -3.5 0  "
         style="stroke: #000000; stroke-width: 0.8" />
    </defs>
    <defs
       id="defs1417">
      <path
         id="DejaVuSans-31"
         d="M 794 531  L 1825 531  L 1825 4091  L 703 3866  L 703 4441  L 1819 4666  L 2450 4666  L 2450 531  L 3481 531  L 3481 0  L 794 0  L 794 531  z "
         transform="scale(0.015625)" />
    </defs>
    <defs
       id="defs1440">
      <path
         id="DejaVuSans-37"
         d="M 525 4666  L 3525 4666  L 3525 4397  L 1831 0  L 1172 0  L 2766 4134  L 525 4134  L 525 4666  z "
         transform="scale(0.015625)" />
      <path
         id="DejaVuSans-35"
         d="M 691 4666  L 3169 4666  L 3169 4134  L 1269 4134  L 1269 2991  Q 1406 3038 1543 3061  Q 1681 3084 1819 3084  Q 2600 3084 3056 2656  Q 3513 2228 3513 1497  Q 3513 744 3044 326  Q 2575 -91 1722 -91  Q 1428 -91 1123 -41  Q 819 9 494 109  L 494 744  Q 775 591 1075 516  Q 1375 441 1709 441  Q 2250 441 2565 725  Q 2881 1009 2881 1497  Q 2881 1984 2565 2268  Q 2250 2553 1709 2553  Q 1456 2553 1204 2497  Q 953 2441 691 2322  L 691 4666  z "
         transform="scale(0.015625)" />
    </defs>
    <defs
       id="defs1481">
      <path
         id="DejaVuSans-32"
         d="M 1228 531  L 3431 531  L 3431 0  L 469 0  L 469 531  Q 828 903 1448 1529  Q 2069 2156 2228 2338  Q 2531 2678 2651 2914  Q 2772 3150 2772 3378  Q 2772 3750 2511 3984  Q 2250 4219 1831 4219  Q 1534 4219 1204 4116  Q 875 4013 500 3803  L 500 4441  Q 881 4594 1212 4672  Q 1544 4750 1819 4750  Q 2544 4750 2975 4387  Q 3406 4025 3406 3419  Q 3406 3131 3298 2873  Q 3191 2616 2906 2266  Q 2828 2175 2409 1742  Q 1991 1309 1228 531  z "
         transform="scale(0.015625)" />
    </defs>
    <clipPath
       id="clipPath4324">
      <path
         clip-rule="nonzero"
         d="M 0,0 H 11 V 8.894531 H 0 Z m 0,0"
         id="path4926" />
    </clipPath>
    <clipPath
       id="clipPath7896">
      <path
         clip-rule="nonzero"
         d="M 0,0 H 10 V 12.914063 H 0 Z m 0,0"
         id="path8911" />
    </clipPath>
    <clipPath
       clipPathUnits="userSpaceOnUse"
       id="clipPath7278">
      <rect
         style="fill:#ffffff;fill-opacity:1;stroke:none;stroke-width:1.5;stroke-linejoin:round;stroke-dasharray:6, 6;stroke-opacity:1"
         id="rect7280"
         width="10.817631"
         height="13.341157"
         x="283.62311"
         y="197.02911"
         transform="translate(-3.2140876,1.6970537)" />
    </clipPath>
    <clipPath
       id="clipPath9095">
      <path
         clip-rule="nonzero"
         d="M 54,0 H 69 V 17.902344 H 54 Z m 0,0"
         id="path6882" />
    </clipPath>
    <clipPath
       id="clipPath3833">
      <path
         clip-rule="nonzero"
         d="m 67,0 h 9.824219 V 2 H 67 Z m 0,0"
         id="path2576" />
    </clipPath>
    <clipPath
       id="clipPath3193">
      <path
         clip-rule="nonzero"
         d="m 68,4 h 8.824219 V 16 H 68 Z m 0,0"
         id="path247" />
    </clipPath>
    <clipPath
       id="clipPath5260">
      <path
         clip-rule="nonzero"
         d="M 54,0 H 68 V 17.902344 H 54 Z m 0,0"
         id="path3913" />
    </clipPath>
    <clipPath
       id="clipPath4059">
      <path
         clip-rule="nonzero"
         d="M 66,0 H 76.207031 V 2 H 66 Z m 0,0"
         id="path5248" />
    </clipPath>
    <clipPath
       id="clipPath2334">
      <path
         clip-rule="nonzero"
         d="M 55,0 H 69 V 17.902344 H 55 Z m 0,0"
         id="path1638" />
    </clipPath>
    <clipPath
       id="clipPath5718">
      <path
         clip-rule="nonzero"
         d="M 67,0 H 77.203125 V 2 H 67 Z m 0,0"
         id="path8035" />
    </clipPath>
  </defs>
  <defs
     id="defs1617">
    <clipPath
       id="pfc4b07853c">
      <rect
         x="57.6"
         y="41.472"
         width="357.12"
         height="266.112"
         id="rect1614" />
    </clipPath>
  </defs>
  <g
     inkscape:groupmode="layer"
     id="layer6"
     inkscape:label="Layer 3">
    <rect
       style="opacity:0.8;fill:#ffffff;stroke-width:1.32315;stroke-linejoin:round"
       id="rect4146"
       width="547.76392"
       height="425.2229"
       x="20.894087"
       y="33.882301"
       transform="matrix(0.77706186,0,0,0.73505976,3.2463263,6.8591414)" />
  </g>
  <g
     inkscape:groupmode="layer"
     id="layer4"
     inkscape:label="Layer 1"
     style="display:inline">
    <path
       d="M 0,0 V 3.5"
       style="opacity:1;stroke:#000000;stroke-width:0.8;stroke-linecap:butt;stroke-linejoin:round"
       id="use1318"
       transform="translate(105.216,307.584)"
       unlinked_clone="True" />
    <path
       d="M 0,0 V 3.5"
       style="opacity:1;stroke:#000000;stroke-width:0.8;stroke-linecap:butt;stroke-linejoin:round"
       id="use1341"
       transform="translate(176.64,307.584)"
       unlinked_clone="True" />
    <path
       d="M 0,0 V 3.5"
       style="opacity:1;stroke:#000000;stroke-width:0.8;stroke-linecap:butt;stroke-linejoin:round"
       id="use1356"
       transform="translate(248.064,307.584)"
       unlinked_clone="True" />
    <path
       d="M 0,0 V 3.5"
       style="opacity:1;stroke:#000000;stroke-width:0.8;stroke-linecap:butt;stroke-linejoin:round"
       id="use1371"
       transform="translate(319.488,307.584)"
       unlinked_clone="True" />
    <path
       d="M 0,0 V 3.5"
       style="opacity:1;stroke:#000000;stroke-width:0.8;stroke-linecap:butt;stroke-linejoin:round"
       id="use1389"
       transform="translate(390.912,307.584)"
       unlinked_clone="True" />
    <path
       d="M 0,0 H -3.5"
       style="opacity:1;stroke:#000000;stroke-width:0.8;stroke-linecap:butt;stroke-linejoin:round"
       id="use1411"
       transform="translate(57.6,307.584)"
       unlinked_clone="True" />
    <path
       d="M 0,0 H -3.5"
       style="opacity:1;stroke:#000000;stroke-width:0.8;stroke-linecap:butt;stroke-linejoin:round"
       id="use1433"
       transform="translate(57.6,274.32)"
       unlinked_clone="True" />
    <path
       d="M 0,0 H -3.5"
       style="opacity:1;stroke:#000000;stroke-width:0.8;stroke-linecap:butt;stroke-linejoin:round"
       id="use1456"
       transform="translate(57.6,241.056)"
       unlinked_clone="True" />
    <path
       d="M 0,0 H -3.5"
       style="opacity:1;stroke:#000000;stroke-width:0.8;stroke-linecap:butt;stroke-linejoin:round"
       id="use1475"
       transform="translate(57.6,207.792)"
       unlinked_clone="True" />
    <path
       d="M 0,0 H -3.5"
       style="opacity:1;stroke:#000000;stroke-width:0.8;stroke-linecap:butt;stroke-linejoin:round"
       id="use1497"
       transform="translate(57.6,174.528)"
       unlinked_clone="True" />
    <path
       d="M 0,0 H -3.5"
       style="opacity:1;stroke:#000000;stroke-width:0.8;stroke-linecap:butt;stroke-linejoin:round"
       id="use1514"
       transform="translate(57.6,141.264)"
       unlinked_clone="True" />
    <path
       d="M 0,0 H -3.5"
       style="opacity:1;stroke:#000000;stroke-width:0.8;stroke-linecap:butt;stroke-linejoin:round"
       id="use1531"
       transform="translate(57.6,108)"
       unlinked_clone="True" />
    <path
       d="M 0,0 H -3.5"
       style="opacity:1;stroke:#000000;stroke-width:0.8;stroke-linecap:butt;stroke-linejoin:round"
       id="use1548"
       transform="translate(57.6,74.736)"
       unlinked_clone="True" />
    <path
       d="M 0,0 H -3.5"
       style="opacity:1;stroke:#000000;stroke-width:0.8;stroke-linecap:butt;stroke-linejoin:round"
       id="use1565"
       transform="translate(57.6,41.472)"
       unlinked_clone="True" />
    <path
       d="m 176.64,174.528 0.16666,-3.52033 0.40473,-2.99806 0.61901,-2.89009 0.85709,-2.93063 1.09517,-2.94786 1.35705,-3.00521 1.61895,-3.03832 1.90464,-3.09533 2.19033,-3.13315 2.52365,-3.21696 2.85696,-3.27704 3.21408,-3.34499 3.59501,-3.41792 3.99974,-3.49396 4.4521,-3.59031 4.90445,-3.66655 5.40441,-3.75963 5.92819,-3.84993 6.47578,-3.93773 7.07098,-4.03645 7.68998,-4.13082 8.3328,-4.221416 9.02323,-4.319825 9.76128,-4.42411 10.52314,-4.522774 11.33261,-4.62606 12.16588,-4.72376 13.04679,-4.825207 13.97529,-4.929453 14.95143,-5.035725 15.97517,-5.143394 17.02272,-5.244768 18.11788,-5.347506 L 414.72,41.472 v 0"
       clip-path="url(#pfc4b07853c)"
       style="opacity:1;fill:none;stroke:#000000;stroke-width:1.5;stroke-linecap:square;stroke-linejoin:round"
       id="path1583" />
    <path
       d="m 176.64,174.528 0.16666,3.52033 0.40473,2.99806 0.61901,2.89009 0.85709,2.93063 1.09517,2.94786 1.35705,3.00521 1.61895,3.03832 1.90464,3.09533 2.19033,3.13315 2.52365,3.21696 2.85696,3.27704 3.21408,3.34499 3.59501,3.41792 3.99974,3.49396 4.4521,3.59031 4.90445,3.66655 5.40441,3.75963 5.92819,3.84993 6.47578,3.93773 7.07098,4.03645 7.68998,4.13082 8.3328,4.22142 9.02323,4.31982 9.76128,4.42411 10.52314,4.52277 11.33261,4.62606 12.16588,4.72377 13.04679,4.8252 13.97529,4.92946 14.95143,5.03572 15.97517,5.14339 17.02272,5.24477 18.11788,5.34751 15.52282,4.41073 v 0"
       clip-path="url(#pfc4b07853c)"
       style="opacity:1;fill:none;stroke:#000000;stroke-width:1.5;stroke-linecap:butt;stroke-linejoin:round;stroke-dasharray:5.55, 2.4;stroke-dashoffset:0"
       id="path1586" />
    <path
       d="M 105.216,307.584 V 41.472"
       clip-path="url(#pfc4b07853c)"
       style="opacity:1;fill:none;stroke:#221150;stroke-width:1.5;stroke-linecap:butt;stroke-linejoin:round;stroke-dasharray:1.5, 2.475;stroke-dashoffset:0"
       id="path1589" />
    <path
       d="M 176.64,307.584 V 41.472"
       clip-path="url(#pfc4b07853c)"
       style="opacity:1;fill:none;stroke:#5f187f;stroke-width:1.5;stroke-linecap:butt;stroke-linejoin:round;stroke-dasharray:1.5, 2.475;stroke-dashoffset:0"
       id="path1591" />
    <g
       id="g2665"
       style="stroke-linecap:butt;stroke-linejoin:round"
       transform="rotate(-90,205.27727,181.44697)">
      <circle
         style="fill:#ffffff;fill-opacity:1;stroke:#000000;stroke-width:1.33333;stroke-linecap:butt;stroke-linejoin:round;stroke-dasharray:none;stroke-opacity:1"
         id="path7042-1"
         cx="280.513"
         cy="205.44333"
         r="5.789948"
         transform="matrix(0.75,0,0,0.75,2.4292832,-1.2727903)" />
      <circle
         style="fill:#000000;fill-opacity:1;stroke:#000000;stroke-width:1.33333;stroke-linecap:butt;stroke-linejoin:round;stroke-dasharray:none;stroke-opacity:1"
         id="path7042"
         cx="280.513"
         cy="205.44333"
         r="5.789948"
         transform="matrix(0.75,0,0,0.75,2.4105657,-1.2727903)"
         clip-path="url(#clipPath7278)" />
    </g>
    <path
       d="M 248.064,307.584 V 41.472"
       clip-path="url(#pfc4b07853c)"
       style="opacity:1;fill:none;stroke:#982d80;stroke-width:1.5;stroke-linecap:butt;stroke-linejoin:round;stroke-dasharray:1.5, 2.475;stroke-dashoffset:0"
       id="path1593" />
    <circle
       style="fill:#ffffff;fill-opacity:1;stroke:#000000;stroke-width:1.33333;stroke-linecap:butt;stroke-linejoin:round;stroke-dasharray:none;stroke-opacity:1"
       id="path7042-1-11"
       cx="280.513"
       cy="205.44333"
       r="5.789948"
       transform="matrix(0.75,0,0,0.75,37.67925,93.437783)" />
    <circle
       style="fill:#000000;fill-opacity:1;stroke:#000000;stroke-width:1.33333;stroke-linecap:butt;stroke-linejoin:round;stroke-dasharray:none;stroke-opacity:1"
       id="path7042-1-6"
       cx="280.513"
       cy="205.44333"
       r="5.789948"
       transform="matrix(0.75,0,0,0.75,37.67925,-52.48853)" />
    <path
       d="M 319.488,307.584 V 41.472"
       clip-path="url(#pfc4b07853c)"
       style="opacity:1;fill:none;stroke:#d3436e;stroke-width:1.5;stroke-linecap:butt;stroke-linejoin:round;stroke-dasharray:1.5, 2.475;stroke-dashoffset:0"
       id="path1595" />
    <path
       d="M 390.912,307.584 V 41.472"
       clip-path="url(#pfc4b07853c)"
       style="opacity:1;fill:none;stroke:#f8765c;stroke-width:1.5;stroke-linecap:butt;stroke-linejoin:round;stroke-dasharray:1.5, 2.475;stroke-dashoffset:0"
       id="path1597" />
    <path
       d="M 57.6,307.584 V 41.472"
       style="opacity:1;fill:none;stroke:#000000;stroke-width:0.8;stroke-linecap:square;stroke-linejoin:miter"
       id="path1600" />
    <path
       d="M 414.72,307.584 V 41.472"
       style="opacity:1;fill:none;stroke:#000000;stroke-width:0.8;stroke-linecap:square;stroke-linejoin:miter"
       id="path1603" />
    <path
       d="M 57.6,307.584 H 414.72"
       style="opacity:1;fill:none;stroke:#000000;stroke-width:0.8;stroke-linecap:square;stroke-linejoin:miter"
       id="path1606" />
    <path
       d="M 57.6,41.472 H 414.72"
       style="opacity:1;fill:none;stroke:#000000;stroke-width:0.8;stroke-linecap:square;stroke-linejoin:miter"
       id="path1609" />
    <text
       xml:space="preserve"
       style="font-size:18.6667px;font-family:'CMU Serif';-inkscape-font-specification:'CMU Serif';fill:#000000;stroke-width:1.33333;stroke-linejoin:round"
       x="46.870518"
       y="64.941078"
       id="text2241"
       transform="matrix(0.75,0,0,0.75,10.161157,-2.5716908)"><tspan
         sodipodi:role="line"
         id="tspan2239"
         x="46.870518"
         y="64.941078">1</tspan></text>
    <text
       xml:space="preserve"
       style="font-size:18.6667px;font-family:'CMU Serif';-inkscape-font-specification:'CMU Serif';fill:#000000;stroke-width:1.33333;stroke-linejoin:round"
       x="52.51757"
       y="239.43494"
       id="text2297"
       transform="matrix(0.75,0,0,0.75,5.3516479,-0.53989347)"><tspan
         sodipodi:role="line"
         id="tspan2295"
         x="52.51757"
         y="239.43494">0</tspan></text>
    <text
       xml:space="preserve"
       style="font-size:18.6667px;font-family:'CMU Serif';-inkscape-font-specification:'CMU Serif';fill:#000000;stroke-width:1.33333;stroke-linejoin:round"
       x="54.211685"
       y="410.54056"
       id="text2301"
       transform="matrix(0.75,0,0,0.75,0,4.3406994)"><tspan
         sodipodi:role="line"
         id="tspan2299"
         x="54.211685"
         y="410.54056">-1</tspan></text>
    <g
       inkscape:label=""
       transform="translate(10.55083,169.86736)"
       id="g1698"
       style="stroke-linecap:butt;stroke-linejoin:round">
      <g
         clip-path="url(#clipPath4324)"
         id="g17"
         transform="translate(11.266963,0.213375)"
         style="stroke-linecap:butt;stroke-linejoin:round">
        <g
           fill="#000000"
           fill-opacity="1"
           id="g15"
           style="stroke-linecap:butt;stroke-linejoin:round">
          <g
             id="use13"
             transform="translate(0,8.8959999)"
             style="stroke-linecap:butt;stroke-linejoin:round">
            <path
               d="m 7.046875,-1.203125 c 0.265625,1.15625 1.25,1.40625 1.75,1.40625 0.65625,0 1.15625,-0.4375 1.484375,-1.125 0.359375,-0.75 0.625,-1.96875 0.625,-2.03125 0,-0.109375 -0.07813,-0.1875 -0.203125,-0.1875 -0.1875,0 -0.203125,0.109375 -0.296875,0.40625 -0.375,1.4375 -0.734375,2.53125 -1.5625,2.53125 -0.625,0 -0.625,-0.6875 -0.625,-0.953125 0,-0.46875 0.0625,-0.6875 0.265625,-1.546875 0.15625,-0.5625 0.296875,-1.125 0.421875,-1.703125 L 9.75,-7.765625 c 0.140625,-0.515625 0.140625,-0.5625 0.140625,-0.625 0,-0.3125 -0.25,-0.515625 -0.546875,-0.515625 -0.609375,0 -0.75,0.515625 -0.875,1.03125 C 8.265625,-7.0625 7.140625,-2.625 7,-1.90625 c -0.015625,0 -0.828125,1.703125 -2.328125,1.703125 -1.078125,0 -1.28125,-0.9375 -1.28125,-1.703125 0,-1.171875 0.578125,-2.828125 1.109375,-4.203125 0.25,-0.671875 0.359375,-0.9375 0.359375,-1.34375 0,-0.890625 -0.640625,-1.65625 -1.640625,-1.65625 -1.890625,0 -2.65625,3 -2.65625,3.15625 0,0.09375 0.078125,0.1875 0.21875,0.1875 0.1875,0 0.203125,-0.078125 0.296875,-0.375 0.484375,-1.765625 1.296875,-2.5625 2.078125,-2.5625 0.203125,0 0.546875,0.03125 0.546875,0.6875 0,0.53125 -0.234375,1.140625 -0.546875,1.921875 -0.90625,2.453125 -1.015625,3.25 -1.015625,3.859375 0,2.109375 1.59375,2.4375 2.4375,2.4375 1.328125,0 2.046875,-0.90625 2.46875,-1.40625 z m 0,0"
               id="path23"
               style="stroke-linecap:butt;stroke-linejoin:round" />
          </g>
        </g>
      </g>
    </g>
    <text
       xml:space="preserve"
       style="font-size:18.6667px;font-family:'CMU Serif';-inkscape-font-specification:'CMU Serif';fill:#000000;stroke-width:1.33333;stroke-linejoin:round"
       x="136.09392"
       y="450.06992"
       id="text2390"
       transform="matrix(0.75,0,0,0.75,-7.8944978,-14.300174)"><tspan
         sodipodi:role="line"
         id="tspan2388"
         x="136.09392"
         y="450.06992">-0.3</tspan></text>
    <text
       xml:space="preserve"
       style="font-size:18.6667px;font-family:'CMU Serif';-inkscape-font-specification:'CMU Serif';fill:#000000;stroke-width:1.33333;stroke-linejoin:round"
       x="231.52907"
       y="445.83463"
       id="text2394"
       transform="matrix(0.75,0,0,0.75,0,-11.123706)"><tspan
         sodipodi:role="line"
         id="tspan2392"
         x="231.52907"
         y="445.83463">0.0</tspan></text>
    <text
       xml:space="preserve"
       style="font-size:18.6667px;font-family:'CMU Serif';-inkscape-font-specification:'CMU Serif';fill:#000000;stroke-width:1.33333;stroke-linejoin:round"
       x="321.03482"
       y="443.85815"
       id="text2398"
       transform="matrix(0.75,0,0,0.75,0,-9.6413528)"><tspan
         sodipodi:role="line"
         id="tspan2396"
         x="321.03482"
         y="443.85815">0.3</tspan></text>
    <text
       xml:space="preserve"
       style="font-size:18.6667px;font-family:'CMU Serif';-inkscape-font-specification:'CMU Serif';fill:#000000;stroke-width:1.33333;stroke-linejoin:round"
       x="411.95233"
       y="448.37582"
       id="text2402"
       transform="matrix(0.75,0,0,0.75,0,-13.029605)"><tspan
         sodipodi:role="line"
         id="tspan2400"
         x="411.95233"
         y="448.37582">0.6</tspan></text>
    <text
       xml:space="preserve"
       style="font-size:18.6667px;font-family:'CMU Serif';-inkscape-font-specification:'CMU Serif';fill:#000000;stroke-width:1.33333;stroke-linejoin:round"
       x="513.59924"
       y="443.57581"
       id="text2406"
       transform="matrix(0.75,0,0,0.75,0,-9.4295918)"><tspan
         sodipodi:role="line"
         id="tspan2404"
         x="513.59924"
         y="443.57581">0.9</tspan></text>
    <g
       inkscape:label=""
       transform="translate(231.44906,329.92854)"
       id="g2569">
      <g
         clip-path="url(#clipPath7896)"
         id="g2567"
         transform="translate(-0.5625,0.213375)">
        <g
           fill="#000000"
           fill-opacity="1"
           id="g2565">
          <g
             id="g2563"
             transform="translate(0,8.8959999)">
            <path
               d="M 9.8125,-5.71875 C 9.921875,-6.140625 9.984375,-6.375 9.984375,-6.9375 c 0,-1.25 -0.734375,-2.171875 -2.296875,-2.171875 -1.84375,0 -2.8125,1.296875 -3.1875,1.8125 -0.0625,-1.171875 -0.90625,-1.8125 -1.8125,-1.8125 -0.59375,0 -1.078125,0.296875 -1.46875,1.078125 -0.375,0.734375 -0.65625,2 -0.65625,2.078125 0,0.09375 0.078125,0.1875 0.21875,0.1875 0.171875,0 0.1875,-0.015625 0.3125,-0.5 0.3125,-1.21875 0.703125,-2.4375 1.53125,-2.4375 0.46875,0 0.640625,0.34375 0.640625,0.953125 0,0.453125 -0.203125,1.265625 -0.359375,1.90625 l -0.578125,2.234375 c -0.078125,0.390625 -0.296875,1.3125 -0.40625,1.6875 -0.140625,0.53125 -0.375,1.515625 -0.375,1.609375 0,0.296875 0.234375,0.515625 0.546875,0.515625 0.234375,0 0.53125,-0.125 0.6875,-0.4375 0.046875,-0.09375 0.234375,-0.8125 0.34375,-1.234375 L 3.578125,-3.328125 4.25,-6.046875 C 4.296875,-6.171875 4.8125,-7.203125 5.578125,-7.875 6.109375,-8.359375 6.8125,-8.703125 7.625,-8.703125 c 0.828125,0 1.109375,0.625 1.109375,1.453125 0,0.59375 -0.078125,0.921875 -0.1875,1.328125 l -2.390625,9.5 c -0.015625,0.09375 -0.0625,0.21875 -0.0625,0.34375 0,0.3125 0.25,0.515625 0.5625,0.515625 0.1875,0 0.609375,-0.078125 0.78125,-0.703125 z m 0,0"
               id="path2561" />
          </g>
        </g>
      </g>
    </g>
    <circle
       style="fill:#000000;fill-opacity:1;stroke:#000000;stroke-width:1.33333;stroke-linecap:butt;stroke-linejoin:round;stroke-dasharray:none;stroke-opacity:1"
       id="path7042-1-3"
       cx="280.513"
       cy="205.44333"
       r="5.789948"
       transform="matrix(0.75,0,0,0.75,109.10325,-82.431893)" />
    <circle
       style="fill:#000000;fill-opacity:1;stroke:#000000;stroke-width:1.33333;stroke-linecap:butt;stroke-linejoin:round;stroke-dasharray:none;stroke-opacity:1"
       id="path7042-1-1"
       cx="280.513"
       cy="205.44333"
       r="5.789948"
       transform="matrix(0.75,0,0,0.75,180.52725,-105.80022)" />
    <circle
       style="fill:#ffffff;fill-opacity:1;stroke:#000000;stroke-width:1.33333;stroke-linecap:butt;stroke-linejoin:round;stroke-dasharray:none;stroke-opacity:1"
       id="path7042-1-11-5"
       cx="280.513"
       cy="205.44333"
       r="5.789948"
       transform="matrix(0.75,0,0,0.75,109.10325,123.68527)" />
    <circle
       style="fill:#ffffff;fill-opacity:1;stroke:#000000;stroke-width:1.33333;stroke-linecap:butt;stroke-linejoin:round;stroke-dasharray:none;stroke-opacity:1"
       id="path7042-1-11-6"
       cx="280.513"
       cy="205.44333"
       r="5.789948"
       transform="matrix(0.75,0,0,0.75,180.52725,146.83882)" />
  </g>
  <g
     inkscape:groupmode="layer"
     id="layer5"
     inkscape:label="Layer 2">
    <g
       id="g3624">
      <rect
         style="display:inline;fill:#ffffff;stroke-width:1.33333;stroke-linejoin:round;opacity:0.8"
         id="rect3476"
         width="109.41161"
         height="26.541138"
         x="405.45822"
         y="145.69391"
         transform="matrix(0.75,0,0,0.75,-2.7975479,-22.916534)" />
      <g
         inkscape:label=""
         transform="translate(304.45633,87.699027)"
         id="g3341"
         style="display:inline">
        <g
           fill="#000000"
           fill-opacity="1"
           id="g36"
           transform="translate(-0.46875,-0.68675)">
          <g
             id="use34"
             transform="translate(0,12.071)">
            <path
               d="m 5.875,-1 c 0.21875,0.96875 1.046875,1.171875 1.453125,1.171875 0.5625,0 0.96875,-0.359375 1.25,-0.953125 0.296875,-0.609375 0.515625,-1.625 0.515625,-1.6875 0,-0.078125 -0.078125,-0.15625 -0.171875,-0.15625 -0.15625,0 -0.171875,0.09375 -0.25,0.359375 -0.296875,1.1875 -0.609375,2.09375 -1.296875,2.09375 -0.515625,0 -0.515625,-0.5625 -0.515625,-0.796875 0,-0.390625 0.046875,-0.5625 0.21875,-1.28125 0.125,-0.46875 0.234375,-0.9375 0.34375,-1.421875 L 8.125,-6.46875 C 8.25,-6.90625 8.25,-6.9375 8.25,-6.984375 c 0,-0.265625 -0.203125,-0.4375 -0.46875,-0.4375 -0.5,0 -0.625,0.4375 -0.71875,0.859375 -0.171875,0.671875 -1.109375,4.375 -1.21875,4.984375 -0.03125,0 -0.703125,1.40625 -1.953125,1.40625 -0.890625,0 -1.0625,-0.78125 -1.0625,-1.40625 0,-0.984375 0.484375,-2.359375 0.921875,-3.515625 0.203125,-0.546875 0.296875,-0.78125 0.296875,-1.125 0,-0.734375 -0.53125,-1.375 -1.359375,-1.375 -1.578125,0 -2.21875,2.5 -2.21875,2.640625 0,0.0625 0.0625,0.15625 0.1875,0.15625 0.15625,0 0.171875,-0.078125 0.234375,-0.3125 C 1.3125,-6.59375 1.984375,-7.25 2.640625,-7.25 c 0.171875,0 0.4375,0.015625 0.4375,0.5625 0,0.453125 -0.1875,0.953125 -0.4375,1.609375 -0.765625,2.046875 -0.84375,2.703125 -0.84375,3.21875 0,1.75 1.3125,2.03125 2.03125,2.03125 1.09375,0 1.703125,-0.75 2.046875,-1.171875 z m 0,0"
               id="path68" />
          </g>
        </g>
        <g
           fill="#000000"
           fill-opacity="1"
           id="g40"
           transform="translate(-0.46875,-0.68675)">
          <g
             id="use38"
             transform="translate(9.5939999,14.654)">
            <path
               d="M 4.453125,-2.515625 H 7.5 c 0.15625,0 0.359375,0 0.359375,-0.203125 C 7.859375,-2.9375 7.65625,-2.9375 7.5,-2.9375 H 4.453125 V -6 c 0,-0.15625 0,-0.359375 -0.203125,-0.359375 -0.21875,0 -0.21875,0.203125 -0.21875,0.359375 v 3.0625 h -3.0625 c -0.15625,0 -0.359375,0 -0.359375,0.21875 0,0.203125 0.203125,0.203125 0.359375,0.203125 h 3.0625 v 3.0625 c 0,0.15625 0,0.359375 0.21875,0.359375 0.203125,0 0.203125,-0.203125 0.203125,-0.359375 z m 0,0"
               id="path72" />
          </g>
        </g>
        <g
           fill="#000000"
           fill-opacity="1"
           id="g44"
           transform="translate(-0.46875,-0.68675)">
          <g
             id="use42"
             transform="translate(23.358999,12.071)">
            <path
               d="m 11.078125,-5.53125 c 0.25,0 0.515625,0 0.515625,-0.28125 C 11.59375,-6.125 11.296875,-6.125 11,-6.125 H 1.375 c -0.296875,0 -0.578125,0 -0.578125,0.3125 0,0.28125 0.25,0.28125 0.515625,0.28125 z M 11,-2.46875 c 0.296875,0 0.59375,0 0.59375,-0.296875 0,-0.296875 -0.265625,-0.296875 -0.515625,-0.296875 H 1.3125 c -0.265625,0 -0.515625,0 -0.515625,0.296875 0,0.296875 0.28125,0.296875 0.578125,0.296875 z m 0,0"
               id="path76" />
          </g>
        </g>
        <g
           fill="#000000"
           fill-opacity="1"
           id="g48"
           transform="translate(-0.46875,-0.68675)">
          <g
             id="use46"
             transform="translate(40.536526,12.071)">
            <path
               d="m 6.484375,-4 h 4.5625 c 0.25,0 0.546875,0 0.546875,-0.28125 0,-0.3125 -0.28125,-0.3125 -0.546875,-0.3125 h -4.5625 v -4.5625 c 0,-0.25 0,-0.53125 -0.28125,-0.53125 -0.3125,0 -0.3125,0.265625 -0.3125,0.53125 v 4.5625 h -4.5625 c -0.25,0 -0.53125,0 -0.53125,0.28125 C 0.796875,-4 1.0625,-4 1.328125,-4 h 4.5625 v 4.5625 c 0,0.25 0,0.546875 0.296875,0.546875 0.296875,0 0.296875,-0.28125 0.296875,-0.546875 z m 0,0"
               id="path80" />
          </g>
        </g>
        <g
           clip-path="url(#clipPath5260)"
           id="g54"
           transform="translate(-0.46875,-0.68675)">
          <g
             fill="#000000"
             fill-opacity="1"
             id="g52">
            <g
               id="use50"
               transform="translate(52.925999,1.377)">
              <path
                 d="M 6.703125,14.71875 3.671875,8.03125 C 3.546875,7.75 3.46875,7.75 3.40625,7.75 3.390625,7.75 3.3125,7.75 3.109375,7.890625 L 1.484375,9.125 C 1.25,9.296875 1.25,9.34375 1.25,9.40625 c 0,0.078125 0.0625,0.1875 0.171875,0.1875 0.109375,0 0.40625,-0.25 0.59375,-0.375 C 2.125,9.125 2.375,8.9375 2.5625,8.796875 L 5.953125,16.25 c 0.125,0.28125 0.21875,0.28125 0.359375,0.28125 0.265625,0 0.3125,-0.109375 0.4375,-0.34375 L 14.5625,0 c 0.125,-0.234375 0.125,-0.3125 0.125,-0.34375 0,-0.171875 -0.140625,-0.34375 -0.34375,-0.34375 -0.140625,0 -0.265625,0.078125 -0.390625,0.359375 z m 0,0"
                 id="path84" />
            </g>
          </g>
        </g>
        <g
           clip-path="url(#clipPath4059)"
           id="g58"
           transform="translate(-0.46875,-0.68675)">
          <path
             fill="none"
             stroke-width="0.689"
             stroke-linecap="butt"
             stroke-linejoin="miter"
             stroke="#000000"
             stroke-opacity="1"
             stroke-miterlimit="10"
             d="M 0.0014375,0.00175 H 8.935031"
             transform="matrix(1,0,0,-1,67.272,1.033)"
             id="path56" />
        </g>
        <g
           fill="#000000"
           fill-opacity="1"
           id="g62"
           transform="translate(-0.46875,-0.68675)">
          <g
             id="use60"
             transform="translate(67.272003,12.071)">
            <path
               d="m 8.171875,-4.765625 c 0.09375,-0.34375 0.140625,-0.5625 0.140625,-1.015625 0,-1.03125 -0.59375,-1.8125 -1.90625,-1.8125 C 4.875,-7.59375 4.0625,-6.515625 3.75,-6.078125 3.703125,-7.0625 3,-7.59375 2.234375,-7.59375 c -0.5,0 -0.890625,0.234375 -1.21875,0.890625 -0.3125,0.625 -0.546875,1.671875 -0.546875,1.75 0,0.0625 0.0625,0.15625 0.1875,0.15625 0.140625,0 0.15625,-0.03125 0.25,-0.421875 C 1.171875,-6.234375 1.5,-7.25 2.1875,-7.25 c 0.390625,0 0.53125,0.28125 0.53125,0.796875 0,0.375 -0.171875,1.046875 -0.296875,1.578125 l -0.46875,1.859375 C 1.875,-2.6875 1.6875,-1.90625 1.59375,-1.59375 c -0.109375,0.4375 -0.296875,1.25 -0.296875,1.328125 0,0.25 0.1875,0.4375 0.4375,0.4375 0.21875,0 0.453125,-0.109375 0.59375,-0.359375 0.03125,-0.09375 0.1875,-0.6875 0.265625,-1.03125 l 0.390625,-1.546875 0.5625,-2.28125 C 3.578125,-5.140625 4.015625,-6.015625 4.65625,-6.5625 5.09375,-6.96875 5.6875,-7.25 6.359375,-7.25 c 0.6875,0 0.921875,0.515625 0.921875,1.203125 0,0.5 -0.0625,0.78125 -0.15625,1.109375 l -2,7.921875 c -0.015625,0.078125 -0.046875,0.1875 -0.046875,0.28125 0,0.265625 0.203125,0.4375 0.46875,0.4375 0.15625,0 0.515625,-0.0625 0.65625,-0.59375 z m 0,0"
               id="path88" />
          </g>
        </g>
      </g>
    </g>
    <g
       id="g3985"
       transform="translate(30.396524,125.99981)">
      <rect
         style="display:inline;opacity:0.8;fill:#ffffff;stroke-width:1.33333;stroke-linecap:butt;stroke-linejoin:round"
         id="rect3476-1"
         width="109.41161"
         height="26.541138"
         x="405.45822"
         y="145.69391"
         transform="matrix(0.75,0,0,0.75,-33.194072,15.247031)" />
      <g
         inkscape:label=""
         transform="translate(273.56176,125.86259)"
         id="g3932">
        <g
           fill="#000000"
           fill-opacity="1"
           id="g3894"
           transform="translate(-0.46875,-0.68675)">
          <g
             id="g3892"
             transform="translate(0,12.071)">
            <path
               d="m 5.875,-1 c 0.21875,0.96875 1.046875,1.171875 1.453125,1.171875 0.5625,0 0.96875,-0.359375 1.25,-0.953125 0.296875,-0.609375 0.515625,-1.625 0.515625,-1.6875 0,-0.078125 -0.078125,-0.15625 -0.171875,-0.15625 -0.15625,0 -0.171875,0.09375 -0.25,0.359375 -0.296875,1.1875 -0.609375,2.09375 -1.296875,2.09375 -0.515625,0 -0.515625,-0.5625 -0.515625,-0.796875 0,-0.390625 0.046875,-0.5625 0.21875,-1.28125 0.125,-0.46875 0.234375,-0.9375 0.34375,-1.421875 L 8.125,-6.46875 C 8.25,-6.90625 8.25,-6.9375 8.25,-6.984375 c 0,-0.265625 -0.203125,-0.4375 -0.46875,-0.4375 -0.5,0 -0.625,0.4375 -0.71875,0.859375 -0.171875,0.671875 -1.109375,4.375 -1.21875,4.984375 -0.03125,0 -0.703125,1.40625 -1.953125,1.40625 -0.890625,0 -1.0625,-0.78125 -1.0625,-1.40625 0,-0.984375 0.484375,-2.359375 0.921875,-3.515625 0.203125,-0.546875 0.296875,-0.78125 0.296875,-1.125 0,-0.734375 -0.53125,-1.375 -1.359375,-1.375 -1.578125,0 -2.21875,2.5 -2.21875,2.640625 0,0.0625 0.0625,0.15625 0.1875,0.15625 0.15625,0 0.171875,-0.078125 0.234375,-0.3125 C 1.3125,-6.59375 1.984375,-7.25 2.640625,-7.25 c 0.171875,0 0.4375,0.015625 0.4375,0.5625 0,0.453125 -0.1875,0.953125 -0.4375,1.609375 -0.765625,2.046875 -0.84375,2.703125 -0.84375,3.21875 0,1.75 1.3125,2.03125 2.03125,2.03125 1.09375,0 1.703125,-0.75 2.046875,-1.171875 z m 0,0"
               id="path3890" />
          </g>
        </g>
        <g
           fill="#000000"
           fill-opacity="1"
           id="g3900"
           transform="translate(-0.46875,-0.68675)">
          <g
             id="g3898"
             transform="translate(9.5939999,14.654)">
            <path
               d="m 7.1875,-2.515625 c 0.1875,0 0.375,0 0.375,-0.203125 0,-0.21875 -0.1875,-0.21875 -0.375,-0.21875 H 1.28125 c -0.1875,0 -0.375,0 -0.375,0.21875 0,0.203125 0.1875,0.203125 0.375,0.203125 z m 0,0"
               id="path3896" />
          </g>
        </g>
        <g
           fill="#000000"
           fill-opacity="1"
           id="g3906"
           transform="translate(-0.46875,-0.68675)">
          <g
             id="g3904"
             transform="translate(23.358999,12.071)">
            <path
               d="m 11.078125,-5.53125 c 0.25,0 0.515625,0 0.515625,-0.28125 C 11.59375,-6.125 11.296875,-6.125 11,-6.125 H 1.375 c -0.296875,0 -0.578125,0 -0.578125,0.3125 0,0.28125 0.25,0.28125 0.515625,0.28125 z M 11,-2.46875 c 0.296875,0 0.59375,0 0.59375,-0.296875 0,-0.296875 -0.265625,-0.296875 -0.515625,-0.296875 H 1.3125 c -0.265625,0 -0.515625,0 -0.515625,0.296875 0,0.296875 0.28125,0.296875 0.578125,0.296875 z m 0,0"
               id="path3902" />
          </g>
        </g>
        <g
           fill="#000000"
           fill-opacity="1"
           id="g3912"
           transform="translate(-0.46875,-0.68675)">
          <g
             id="g3910"
             transform="translate(40.533001,12.071)">
            <path
               d="m 11.34375,-3.953125 c 0.296875,0 0.609375,0 0.609375,-0.359375 0,-0.34375 -0.3125,-0.34375 -0.609375,-0.34375 h -9.3125 c -0.296875,0 -0.609375,0 -0.609375,0.34375 0,0.359375 0.3125,0.359375 0.609375,0.359375 z m 0,0"
               id="path3908" />
          </g>
        </g>
        <g
           clip-path="url(#clipPath2334)"
           id="g3920"
           transform="translate(-0.46875,-0.68675)">
          <g
             fill="#000000"
             fill-opacity="1"
             id="g3918">
            <g
               id="g3916"
               transform="translate(53.923,1.377)">
              <path
                 d="M 6.703125,14.71875 3.671875,8.03125 C 3.546875,7.75 3.46875,7.75 3.40625,7.75 3.390625,7.75 3.3125,7.75 3.109375,7.890625 L 1.484375,9.125 C 1.25,9.296875 1.25,9.34375 1.25,9.40625 c 0,0.078125 0.0625,0.1875 0.171875,0.1875 0.109375,0 0.40625,-0.25 0.59375,-0.375 C 2.125,9.125 2.375,8.9375 2.5625,8.796875 L 5.953125,16.25 c 0.125,0.28125 0.21875,0.28125 0.359375,0.28125 0.265625,0 0.3125,-0.109375 0.4375,-0.34375 L 14.5625,0 c 0.125,-0.234375 0.125,-0.3125 0.125,-0.34375 0,-0.171875 -0.140625,-0.34375 -0.34375,-0.34375 -0.140625,0 -0.265625,0.078125 -0.390625,0.359375 z m 0,0"
                 id="path3914" />
            </g>
          </g>
        </g>
        <g
           clip-path="url(#clipPath5718)"
           id="g3924"
           transform="translate(-0.46875,-0.68675)">
          <path
             fill="none"
             stroke-width="0.689"
             stroke-linecap="butt"
             stroke-linejoin="miter"
             stroke="#000000"
             stroke-opacity="1"
             stroke-miterlimit="10"
             d="M 5.3125e-4,0.00175 H 8.934125"
             transform="matrix(1,0,0,-1,68.269,1.033)"
             id="path3922" />
        </g>
        <g
           fill="#000000"
           fill-opacity="1"
           id="g3930"
           transform="translate(-0.46875,-0.68675)">
          <g
             id="g3928"
             transform="translate(68.268997,12.071)">
            <path
               d="m 8.171875,-4.765625 c 0.09375,-0.34375 0.140625,-0.5625 0.140625,-1.015625 0,-1.03125 -0.59375,-1.8125 -1.90625,-1.8125 C 4.875,-7.59375 4.0625,-6.515625 3.75,-6.078125 3.703125,-7.0625 3,-7.59375 2.234375,-7.59375 c -0.5,0 -0.890625,0.234375 -1.21875,0.890625 -0.3125,0.625 -0.546875,1.671875 -0.546875,1.75 0,0.0625 0.0625,0.15625 0.1875,0.15625 0.140625,0 0.15625,-0.03125 0.25,-0.421875 C 1.171875,-6.234375 1.5,-7.25 2.1875,-7.25 c 0.390625,0 0.53125,0.28125 0.53125,0.796875 0,0.375 -0.171875,1.046875 -0.296875,1.578125 l -0.46875,1.859375 C 1.875,-2.6875 1.6875,-1.90625 1.59375,-1.59375 c -0.109375,0.4375 -0.296875,1.25 -0.296875,1.328125 0,0.25 0.1875,0.4375 0.4375,0.4375 0.21875,0 0.453125,-0.109375 0.59375,-0.359375 0.03125,-0.09375 0.1875,-0.6875 0.265625,-1.03125 l 0.390625,-1.546875 0.5625,-2.28125 C 3.578125,-5.140625 4.015625,-6.015625 4.65625,-6.5625 5.09375,-6.96875 5.6875,-7.25 6.359375,-7.25 c 0.6875,0 0.921875,0.515625 0.921875,1.203125 0,0.5 -0.0625,0.78125 -0.15625,1.109375 l -2,7.921875 c -0.015625,0.078125 -0.046875,0.1875 -0.046875,0.28125 0,0.265625 0.203125,0.4375 0.46875,0.4375 0.15625,0 0.515625,-0.0625 0.65625,-0.59375 z m 0,0"
               id="path3926" />
          </g>
        </g>
      </g>
    </g>
  </g>
</svg>
