<?xml version="1.0" encoding="UTF-8" standalone="no"?>
<svg
   width="460.8pt"
   height="345.6pt"
   viewBox="0 0 460.8 345.6"
   version="1.1"
   id="svg409"
   sodipodi:docname="bifs_sn.svg"
   inkscape:version="1.2.2 (732a01da63, 2022-12-09)"
   inkscape:export-filename="bifs_sn.png"
   inkscape:export-xdpi="300"
   inkscape:export-ydpi="300"
   xmlns:inkscape="http://www.inkscape.org/namespaces/inkscape"
   xmlns:sodipodi="http://sodipodi.sourceforge.net/DTD/sodipodi-0.dtd"
   xmlns="http://www.w3.org/2000/svg"
   xmlns:svg="http://www.w3.org/2000/svg"
   xmlns:rdf="http://www.w3.org/1999/02/22-rdf-syntax-ns#"
   xmlns:cc="http://creativecommons.org/ns#"
   xmlns:dc="http://purl.org/dc/elements/1.1/">
  <sodipodi:namedview
     id="namedview411"
     pagecolor="#ffffff"
     bordercolor="#000000"
     borderopacity="0.25"
     inkscape:showpageshadow="2"
     inkscape:pageopacity="0.0"
     inkscape:pagecheckerboard="0"
     inkscape:deskcolor="#d1d1d1"
     inkscape:document-units="pt"
     showgrid="false"
     inkscape:zoom="1.7708359"
     inkscape:cx="189.45854"
     inkscape:cy="185.22326"
     inkscape:window-width="2560"
     inkscape:window-height="1334"
     inkscape:window-x="-11"
     inkscape:window-y="-11"
     inkscape:window-maximized="1"
     inkscape:current-layer="layer1" />
  <metadata
     id="metadata2">
    <rdf:RDF>
      <cc:Work>
        <dc:type
           rdf:resource="http://purl.org/dc/dcmitype/StillImage" />
        <dc:date />
        <dc:format />
        <dc:creator>
          <cc:Agent>
            <dc:title />
          </cc:Agent>
        </dc:creator>
      </cc:Work>
    </rdf:RDF>
  </metadata>
  <defs
     id="defs6">
    <style
       type="text/css"
       id="style4">*{stroke-linejoin: round; stroke-linecap: butt}</style>
    <defs
       id="defs15">
      <path
         id="m1835a81600"
         d="M 0 0  L 0 3.5  "
         style="stroke: #000000; stroke-width: 0.8" />
    </defs>
    <defs
       id="defs26">
      <path
         id="DejaVuSans-2212"
         d="M 678 2272  L 4684 2272  L 4684 1741  L 678 1741  L 678 2272  z "
         transform="scale(0.015625)" />
      <path
         id="DejaVuSans-31"
         d="M 794 531  L 1825 531  L 1825 4091  L 703 3866  L 703 4441  L 1819 4666  L 2450 4666  L 2450 531  L 3481 531  L 3481 0  L 794 0  L 794 531  z "
         transform="scale(0.015625)" />
      <path
         id="DejaVuSans-2e"
         d="M 684 794  L 1344 794  L 1344 0  L 684 0  L 684 794  z "
         transform="scale(0.015625)" />
      <path
         id="DejaVuSans-30"
         d="M 2034 4250  Q 1547 4250 1301 3770  Q 1056 3291 1056 2328  Q 1056 1369 1301 889  Q 1547 409 2034 409  Q 2525 409 2770 889  Q 3016 1369 3016 2328  Q 3016 3291 2770 3770  Q 2525 4250 2034 4250  z M 2034 4750  Q 2819 4750 3233 4129  Q 3647 3509 3647 2328  Q 3647 1150 3233 529  Q 2819 -91 2034 -91  Q 1250 -91 836 529  Q 422 1150 422 2328  Q 422 3509 836 4129  Q 1250 4750 2034 4750  z "
         transform="scale(0.015625)" />
    </defs>
    <defs
       id="defs49">
      <path
         id="DejaVuSans-37"
         d="M 525 4666  L 3525 4666  L 3525 4397  L 1831 0  L 1172 0  L 2766 4134  L 525 4134  L 525 4666  z "
         transform="scale(0.015625)" />
      <path
         id="DejaVuSans-35"
         d="M 691 4666  L 3169 4666  L 3169 4134  L 1269 4134  L 1269 2991  Q 1406 3038 1543 3061  Q 1681 3084 1819 3084  Q 2600 3084 3056 2656  Q 3513 2228 3513 1497  Q 3513 744 3044 326  Q 2575 -91 1722 -91  Q 1428 -91 1123 -41  Q 819 9 494 109  L 494 744  Q 775 591 1075 516  Q 1375 441 1709 441  Q 2250 441 2565 725  Q 2881 1009 2881 1497  Q 2881 1984 2565 2268  Q 2250 2553 1709 2553  Q 1456 2553 1204 2497  Q 953 2441 691 2322  L 691 4666  z "
         transform="scale(0.015625)" />
    </defs>
    <defs
       id="defs90">
      <path
         id="DejaVuSans-32"
         d="M 1228 531  L 3431 531  L 3431 0  L 469 0  L 469 531  Q 828 903 1448 1529  Q 2069 2156 2228 2338  Q 2531 2678 2651 2914  Q 2772 3150 2772 3378  Q 2772 3750 2511 3984  Q 2250 4219 1831 4219  Q 1534 4219 1204 4116  Q 875 4013 500 3803  L 500 4441  Q 881 4594 1212 4672  Q 1544 4750 1819 4750  Q 2544 4750 2975 4387  Q 3406 4025 3406 3419  Q 3406 3131 3298 2873  Q 3191 2616 2906 2266  Q 2828 2175 2409 1742  Q 1991 1309 1228 531  z "
         transform="scale(0.015625)" />
    </defs>
    <defs
       id="defs193">
      <path
         id="m6e3a23abd9"
         d="M 0 0  L -3.5 0  "
         style="stroke: #000000; stroke-width: 0.8" />
    </defs>
    <defs
       id="defs314">
      <path
         id="DejaVuSans-Oblique-3b7"
         d="M 3703 2113  L 3034 -1331  L 2459 -1331  L 3125 2094  Q 3222 2591 3075 2838  Q 2931 3084 2544 3084  Q 2078 3084 1750 2788  Q 1425 2491 1325 1978  L 941 0  L 363 0  L 1044 3500  L 1622 3500  L 1516 2956  Q 1781 3272 2094 3428  Q 2403 3584 2769 3584  Q 3372 3584 3609 3213  Q 3844 2838 3703 2113  z "
         transform="scale(0.015625)" />
      <path
         id="DejaVuSans-3d"
         d="M 678 2906  L 4684 2906  L 4684 2381  L 678 2381  L 678 2906  z M 678 1631  L 4684 1631  L 4684 1100  L 678 1100  L 678 1631  z "
         transform="scale(0.015625)" />
      <path
         id="DejaVuSans-33"
         d="M 2597 2516  Q 3050 2419 3304 2112  Q 3559 1806 3559 1356  Q 3559 666 3084 287  Q 2609 -91 1734 -91  Q 1441 -91 1130 -33  Q 819 25 488 141  L 488 750  Q 750 597 1062 519  Q 1375 441 1716 441  Q 2309 441 2620 675  Q 2931 909 2931 1356  Q 2931 1769 2642 2001  Q 2353 2234 1838 2234  L 1294 2234  L 1294 2753  L 1863 2753  Q 2328 2753 2575 2939  Q 2822 3125 2822 3475  Q 2822 3834 2567 4026  Q 2313 4219 1838 4219  Q 1578 4219 1281 4162  Q 984 4106 628 3988  L 628 4550  Q 988 4650 1302 4700  Q 1616 4750 1894 4750  Q 2613 4750 3031 4423  Q 3450 4097 3450 3541  Q 3450 3153 3228 2886  Q 3006 2619 2597 2516  z "
         transform="scale(0.015625)" />
    </defs>
    <defs
       id="defs367">
      <path
         id="DejaVuSans-36"
         d="M 2113 2584  Q 1688 2584 1439 2293  Q 1191 2003 1191 1497  Q 1191 994 1439 701  Q 1688 409 2113 409  Q 2538 409 2786 701  Q 3034 994 3034 1497  Q 3034 2003 2786 2293  Q 2538 2584 2113 2584  z M 3366 4563  L 3366 3988  Q 3128 4100 2886 4159  Q 2644 4219 2406 4219  Q 1781 4219 1451 3797  Q 1122 3375 1075 2522  Q 1259 2794 1537 2939  Q 1816 3084 2150 3084  Q 2853 3084 3261 2657  Q 3669 2231 3669 1497  Q 3669 778 3244 343  Q 2819 -91 2113 -91  Q 1303 -91 875 529  Q 447 1150 447 2328  Q 447 3434 972 4092  Q 1497 4750 2381 4750  Q 2619 4750 2861 4703  Q 3103 4656 3366 4563  z "
         transform="scale(0.015625)" />
    </defs>
    <defs
       id="defs386">
      <path
         id="DejaVuSans-39"
         d="M 703 97  L 703 672  Q 941 559 1184 500  Q 1428 441 1663 441  Q 2288 441 2617 861  Q 2947 1281 2994 2138  Q 2813 1869 2534 1725  Q 2256 1581 1919 1581  Q 1219 1581 811 2004  Q 403 2428 403 3163  Q 403 3881 828 4315  Q 1253 4750 1959 4750  Q 2769 4750 3195 4129  Q 3622 3509 3622 2328  Q 3622 1225 3098 567  Q 2575 -91 1691 -91  Q 1453 -91 1209 -44  Q 966 3 703 97  z M 1959 2075  Q 2384 2075 2632 2365  Q 2881 2656 2881 3163  Q 2881 3666 2632 3958  Q 2384 4250 1959 4250  Q 1534 4250 1286 3958  Q 1038 3666 1038 3163  Q 1038 2656 1286 2365  Q 1534 2075 1959 2075  z "
         transform="scale(0.015625)" />
    </defs>
    <clipPath
       id="clipPath4324">
      <path
         clip-rule="nonzero"
         d="M 0,0 H 11 V 8.894531 H 0 Z m 0,0"
         id="path4926" />
    </clipPath>
    <clipPath
       id="clipPath5065">
      <path
         clip-rule="nonzero"
         d="M 4,28 H 21 V 42.5 H 4 Z m 0,0"
         id="path3089" />
    </clipPath>
    <clipPath
       id="clipPath3802">
      <path
         clip-rule="nonzero"
         d="m 0,4 h 11 v 9.554688 H 0 Z m 0,0"
         id="path7363" />
    </clipPath>
    <clipPath
       id="clipPath9510">
      <path
         clip-rule="nonzero"
         d="M 0,3 H 9 V 14.445313 H 0 Z m 0,0"
         id="path3917" />
    </clipPath>
    <clipPath
       id="clipPath3439">
      <path
         clip-rule="nonzero"
         d="m 57,0 h 7.753906 V 12 H 57 Z m 0,0"
         id="path3678" />
    </clipPath>
    <clipPath
       id="clipPath2409">
      <path
         clip-rule="nonzero"
         d="M 0,3 H 9 V 14.445313 H 0 Z m 0,0"
         id="path2224" />
    </clipPath>
    <clipPath
       id="clipPath2532">
      <path
         clip-rule="nonzero"
         d="m 57,0 h 7.753906 V 12 H 57 Z m 0,0"
         id="path1722" />
    </clipPath>
    <clipPath
       id="clipPath7919">
      <path
         clip-rule="nonzero"
         d="M 0,3 H 9 V 14.445313 H 0 Z m 0,0"
         id="path5598" />
    </clipPath>
    <clipPath
       id="clipPath7733">
      <path
         clip-rule="nonzero"
         d="m 31,0 h 7.785156 V 12 H 31 Z m 0,0"
         id="path876" />
    </clipPath>
    <clipPath
       id="clipPath2722">
      <path
         clip-rule="nonzero"
         d="M 0,3 H 9 V 14.445313 H 0 Z m 0,0"
         id="path2601" />
    </clipPath>
    <clipPath
       id="clipPath9767">
      <path
         clip-rule="nonzero"
         d="M 0,3 H 9 V 14.445313 H 0 Z m 0,0"
         id="path6145" />
    </clipPath>
    <clipPath
       id="clipPath4663">
      <path
         clip-rule="nonzero"
         d="M 0,3 H 9 V 14.445313 H 0 Z m 0,0"
         id="path9980" />
    </clipPath>
    <clipPath
       clipPathUnits="userSpaceOnUse"
       id="clipPath7278">
      <rect
         style="fill:#ffffff;fill-opacity:1;stroke:none;stroke-width:1.5;stroke-linejoin:round;stroke-dasharray:6, 6;stroke-opacity:1"
         id="rect7280"
         width="10.817631"
         height="13.341157"
         x="283.62311"
         y="197.02911"
         transform="translate(-3.2140876,1.6970537)" />
    </clipPath>
    <clipPath
       clipPathUnits="userSpaceOnUse"
       id="clipPath7278-1">
      <rect
         style="fill:#ffffff;fill-opacity:1;stroke:none;stroke-width:1.5;stroke-linejoin:round;stroke-dasharray:6, 6;stroke-opacity:1"
         id="rect7280-3"
         width="10.817631"
         height="13.341157"
         x="283.62311"
         y="197.02911"
         transform="translate(-3.2140876,1.6970537)" />
    </clipPath>
    <clipPath
       clipPathUnits="userSpaceOnUse"
       id="clipPath7278-0">
      <rect
         style="fill:#ffffff;fill-opacity:1;stroke:none;stroke-width:1.5;stroke-linejoin:round;stroke-dasharray:6, 6;stroke-opacity:1"
         id="rect7280-6"
         width="10.817631"
         height="13.341157"
         x="283.62311"
         y="197.02911"
         transform="translate(-3.2140876,1.6970537)" />
    </clipPath>
    <clipPath
       clipPathUnits="userSpaceOnUse"
       id="clipPath7278-4">
      <rect
         style="fill:#ffffff;fill-opacity:1;stroke:none;stroke-width:1.5;stroke-linejoin:round;stroke-dasharray:6, 6;stroke-opacity:1"
         id="rect7280-35"
         width="10.817631"
         height="13.341157"
         x="283.62311"
         y="197.02911"
         transform="translate(-3.2140876,1.6970537)" />
    </clipPath>
    <clipPath
       clipPathUnits="userSpaceOnUse"
       id="clipPath7278-49">
      <rect
         style="fill:#ffffff;fill-opacity:1;stroke:none;stroke-width:1.5;stroke-linejoin:round;stroke-dasharray:6, 6;stroke-opacity:1"
         id="rect7280-67"
         width="10.817631"
         height="13.341157"
         x="283.62311"
         y="197.02911"
         transform="translate(-3.2140876,1.6970537)" />
    </clipPath>
    <clipPath
       clipPathUnits="userSpaceOnUse"
       id="clipPath7278-7">
      <rect
         style="fill:#ffffff;fill-opacity:1;stroke:none;stroke-width:1.5;stroke-linejoin:round;stroke-dasharray:6, 6;stroke-opacity:1"
         id="rect7280-63"
         width="10.817631"
         height="13.341157"
         x="283.62311"
         y="197.02911"
         transform="translate(-3.2140876,1.6970537)" />
    </clipPath>
    <clipPath
       clipPathUnits="userSpaceOnUse"
       id="clipPath7278-16">
      <rect
         style="fill:#ffffff;fill-opacity:1;stroke:none;stroke-width:1.5;stroke-linejoin:round;stroke-dasharray:6, 6;stroke-opacity:1"
         id="rect7280-8"
         width="10.817631"
         height="13.341157"
         x="283.62311"
         y="197.02911"
         transform="translate(-3.2140876,1.6970537)" />
    </clipPath>
  </defs>
  <defs
     id="defs407">
    <clipPath
       id="p5a735b6535">
      <rect
         x="57.6"
         y="41.472"
         width="357.12"
         height="266.112"
         id="rect404" />
    </clipPath>
  </defs>
  <g
     inkscape:groupmode="layer"
     id="layer3"
     inkscape:label="bg"
     style="display:none">
    <rect
       style="fill:#ffffff;stroke:none;stroke-width:1.27491;stroke-linejoin:round"
       id="rect767"
       width="542.68158"
       height="420.14056"
       x="9.5999861"
       y="37.270535"
       transform="matrix(0.78042941,0,0,0.78831627,-5.3723964,-17.524224)" />
  </g>
  <g
     inkscape:groupmode="layer"
     id="layer1"
     inkscape:label="Layer 1">
    <path
       d="M 0,0 V 3.5"
       style="opacity:1;stroke:#000000;stroke-width:0.8;stroke-linecap:butt;stroke-linejoin:round"
       id="use17"
       transform="translate(34.23532,307.584)"
       unlinked_clone="True" />
    <path
       d="M 0,0 V 3.5"
       style="opacity:1;stroke:#000000;stroke-width:0.8;stroke-linecap:butt;stroke-linejoin:round"
       id="use42"
       transform="translate(78.875318,307.584)"
       unlinked_clone="True" />
    <path
       d="M 0,0 V 3.5"
       style="opacity:1;stroke:#000000;stroke-width:0.8;stroke-linecap:butt;stroke-linejoin:round"
       id="use65"
       transform="translate(123.51532,307.584)"
       unlinked_clone="True" />
    <path
       d="M 0,0 V 3.5"
       style="opacity:1;stroke:#000000;stroke-width:0.8;stroke-linecap:butt;stroke-linejoin:round"
       id="use84"
       transform="translate(168.15532,307.584)"
       unlinked_clone="True" />
    <path
       d="M 0,0 V 3.5"
       style="opacity:1;stroke:#000000;stroke-width:0.8;stroke-linecap:butt;stroke-linejoin:round"
       id="use106"
       transform="translate(212.79532,307.584)"
       unlinked_clone="True" />
    <path
       d="M 0,0 V 3.5"
       style="opacity:1;stroke:#000000;stroke-width:0.8;stroke-linecap:butt;stroke-linejoin:round"
       id="use123"
       transform="translate(257.43532,307.584)"
       unlinked_clone="True" />
    <path
       d="M 0,0 V 3.5"
       style="opacity:1;stroke:#000000;stroke-width:0.8;stroke-linecap:butt;stroke-linejoin:round"
       id="use140"
       transform="translate(302.07532,307.584)"
       unlinked_clone="True" />
    <path
       d="M 0,0 V 3.5"
       style="opacity:1;stroke:#000000;stroke-width:0.8;stroke-linecap:butt;stroke-linejoin:round"
       id="use157"
       transform="translate(346.71532,307.584)"
       unlinked_clone="True" />
    <path
       d="M 0,0 V 3.5"
       style="opacity:1;stroke:#000000;stroke-width:0.8;stroke-linecap:butt;stroke-linejoin:round"
       id="use174"
       transform="translate(391.35532,307.584)"
       unlinked_clone="True" />
    <path
       d="M 0,0 H -3.5"
       style="opacity:1;stroke:#000000;stroke-width:0.8;stroke-linecap:butt;stroke-linejoin:round"
       id="use195"
       transform="translate(34.23532,262.499)"
       unlinked_clone="True" />
    <path
       d="M 0,0 H -3.5"
       style="opacity:1;stroke:#000000;stroke-width:0.8;stroke-linecap:butt;stroke-linejoin:round"
       id="use212"
       transform="translate(34.23532,207.517)"
       unlinked_clone="True" />
    <path
       d="M 0,0 H -3.5"
       style="opacity:1;stroke:#000000;stroke-width:0.8;stroke-linecap:butt;stroke-linejoin:round"
       id="use229"
       transform="translate(34.23532,152.535)"
       unlinked_clone="True" />
    <path
       d="M 0,0 H -3.5"
       style="opacity:1;stroke:#000000;stroke-width:0.8;stroke-linecap:butt;stroke-linejoin:round"
       id="use244"
       transform="translate(34.23532,97.553498)"
       unlinked_clone="True" />
    <path
       d="M 0,0 H -3.5"
       style="opacity:1;stroke:#000000;stroke-width:0.8;stroke-linecap:butt;stroke-linejoin:round"
       id="use259"
       transform="translate(34.23532,42.5716)"
       unlinked_clone="True" />
    <path
       d="m 57.6,295.488 3.5712,-4.35456 3.5712,-4.26659 3.5712,-4.17862 3.5712,-4.09065 3.5712,-4.00267 3.5712,-3.91471 3.5712,-3.82673 3.5712,-3.73876 3.5712,-3.6508 3.5712,-3.56282 3.5712,-3.47485 3.5712,-3.38688 3.5712,-3.29891 3.5712,-3.21094 3.5712,-3.12297 3.5712,-3.03499 3.5712,-2.94703 3.5712,-2.85905 3.5712,-2.77109 3.5712,-2.68311 3.5712,-2.59514 3.5712,-2.50717 3.5712,-2.4192 3.5712,-2.33123 3.5712,-2.24326 3.5712,-2.15529 3.5712,-2.06731 3.5712,-1.97935 3.5712,-1.89137 3.5712,-1.80341 3.5712,-1.71543 3.5712,-1.62746 3.5712,-1.53949 3.5712,-1.45152 3.5712,-1.36355 3.5712,-1.27558 3.5712,-1.18761 3.5712,-1.09963 3.5712,-1.01167 3.5712,-0.92369 3.5712,-0.83573 3.5712,-0.74775 3.5712,-0.65978 3.5712,-0.57181 3.5712,-0.48384 3.5712,-0.39587 3.5712,-0.3079 3.5712,-0.21993 3.5712,-0.13195 3.5712,-0.044 3.5712,0.044 3.5712,0.13195 3.5712,0.21993 3.5712,0.3079 3.5712,0.39587 3.5712,0.48384 3.5712,0.57181 3.5712,0.65978 3.5712,0.74775 3.5712,0.83573 3.5712,0.92369 3.5712,1.01167 3.5712,1.09963 3.5712,1.18761 3.5712,1.27558 3.5712,1.36355 3.5712,1.45152 3.5712,1.53949 3.5712,1.62746 3.5712,1.71543 3.5712,1.80341 3.5712,1.89137 3.5712,1.97935 3.5712,2.06731 3.5712,2.15529 3.5712,2.24326 3.5712,2.33123 3.5712,2.4192 3.5712,2.50717 3.5712,2.59514 3.5712,2.68311 3.5712,2.77109 3.5712,2.85905 3.5712,2.94703 3.5712,3.03499 3.5712,3.12297 3.5712,3.21094 3.5712,3.29891 3.5712,3.38688 3.5712,3.47485 3.5712,3.56282 3.5712,3.6508 3.5712,3.73876 3.5712,3.82673 3.5712,3.91471 3.5712,4.00267 3.5712,4.09065 3.5712,4.17862 3.5712,4.26659 3.5712,4.35456"
       clip-path="url(#p5a735b6535)"
       style="opacity:1;fill:none;stroke:#221150;stroke-width:1.5;stroke-linecap:square;stroke-linejoin:round"
       id="path275"
       transform="translate(-23.36468)" />
    <path
       d="m 57.6,262.49891 3.5712,-4.35456 3.5712,-4.26659 3.5712,-4.17862 3.5712,-4.09065 3.5712,-4.00267 3.5712,-3.91471 3.5712,-3.82673 3.5712,-3.73877 3.5712,-3.65079 3.5712,-3.56282 3.5712,-3.47485 3.5712,-3.38688 3.5712,-3.29891 3.5712,-3.21094 3.5712,-3.12297 3.5712,-3.03499 3.5712,-2.94703 3.5712,-2.85905 3.5712,-2.77109 3.5712,-2.68311 3.5712,-2.59514 3.5712,-2.50717 3.5712,-2.4192 3.5712,-2.33123 3.5712,-2.24326 3.5712,-2.15529 3.5712,-2.06731 3.5712,-1.97935 3.5712,-1.89137 3.5712,-1.80341 3.5712,-1.71543 3.5712,-1.62746 3.5712,-1.53949 3.5712,-1.45152 3.5712,-1.36355 3.5712,-1.27558 3.5712,-1.18761 3.5712,-1.09963 3.5712,-1.01167 3.5712,-0.92369 3.5712,-0.83573 3.5712,-0.74775 3.5712,-0.65978 3.5712,-0.57181 3.5712,-0.48384 3.5712,-0.39587 3.5712,-0.3079 3.5712,-0.21993 3.5712,-0.13195 3.5712,-0.044 3.5712,0.044 3.5712,0.13195 3.5712,0.21993 3.5712,0.3079 3.5712,0.39587 3.5712,0.48384 3.5712,0.57181 3.5712,0.65978 3.5712,0.74775 3.5712,0.83573 3.5712,0.92369 3.5712,1.01167 3.5712,1.09963 3.5712,1.18761 3.5712,1.27558 3.5712,1.36355 3.5712,1.45152 3.5712,1.53949 3.5712,1.62746 3.5712,1.71543 3.5712,1.80341 3.5712,1.89137 3.5712,1.97935 3.5712,2.06731 3.5712,2.15529 3.5712,2.24326 3.5712,2.33123 3.5712,2.4192 3.5712,2.50717 3.5712,2.59514 3.5712,2.68311 3.5712,2.77109 3.5712,2.85905 3.5712,2.94703 3.5712,3.03499 3.5712,3.12297 3.5712,3.21094 3.5712,3.29891 3.5712,3.38688 3.5712,3.47485 3.5712,3.56282 3.5712,3.65079 3.5712,3.73877 3.5712,3.82673 3.5712,3.91471 3.5712,4.00267 3.5712,4.09065 3.5712,4.17862 3.5712,4.26659 3.5712,4.35456"
       clip-path="url(#p5a735b6535)"
       style="opacity:1;fill:none;stroke:#5f187f;stroke-width:1.5;stroke-linecap:square;stroke-linejoin:round"
       id="path278"
       transform="translate(-23.36468)" />
    <path
       d="m 57.6,229.50982 3.5712,-4.35456 3.5712,-4.26659 3.5712,-4.17862 3.5712,-4.09065 3.5712,-4.00267 3.5712,-3.91471 3.5712,-3.82673 3.5712,-3.73877 3.5712,-3.65079 3.5712,-3.56282 3.5712,-3.47485 3.5712,-3.38688 3.5712,-3.29891 3.5712,-3.21094 3.5712,-3.12297 3.5712,-3.03499 3.5712,-2.94703 3.5712,-2.85905 3.5712,-2.77109 3.5712,-2.68311 3.5712,-2.59514 3.5712,-2.50717 3.5712,-2.4192 3.5712,-2.33123 3.5712,-2.24326 3.5712,-2.15529 3.5712,-2.06731 3.5712,-1.97935 3.5712,-1.89137 3.5712,-1.80341 3.5712,-1.71543 3.5712,-1.62746 3.5712,-1.53949 3.5712,-1.45152 3.5712,-1.36355 3.5712,-1.27558 3.5712,-1.18761 3.5712,-1.09963 3.5712,-1.01167 3.5712,-0.92369 3.5712,-0.83573 3.5712,-0.74775 3.5712,-0.65978 3.5712,-0.57181 3.5712,-0.48384 3.5712,-0.39587 3.5712,-0.3079 3.5712,-0.21993 3.5712,-0.13195 3.5712,-0.044 3.5712,0.044 3.5712,0.13195 3.5712,0.21993 3.5712,0.3079 3.5712,0.39587 3.5712,0.48384 3.5712,0.57181 3.5712,0.65978 3.5712,0.74775 3.5712,0.83573 3.5712,0.92369 3.5712,1.01167 3.5712,1.09963 3.5712,1.18761 3.5712,1.27558 3.5712,1.36355 3.5712,1.45152 3.5712,1.53949 3.5712,1.62746 3.5712,1.71543 3.5712,1.80341 3.5712,1.89137 3.5712,1.97935 3.5712,2.06731 3.5712,2.15529 3.5712,2.24326 3.5712,2.33123 3.5712,2.4192 3.5712,2.50717 3.5712,2.59514 3.5712,2.68311 3.5712,2.77109 3.5712,2.85905 3.5712,2.94703 3.5712,3.03499 3.5712,3.12297 3.5712,3.21094 3.5712,3.29891 3.5712,3.38688 3.5712,3.47485 3.5712,3.56282 3.5712,3.65079 3.5712,3.73877 3.5712,3.82673 3.5712,3.91471 3.5712,4.00267 3.5712,4.09065 3.5712,4.17862 3.5712,4.26659 3.5712,4.35456"
       clip-path="url(#p5a735b6535)"
       style="opacity:1;fill:none;stroke:#982d80;stroke-width:1.5;stroke-linecap:square;stroke-linejoin:round"
       id="path281"
       transform="translate(-23.36468)" />
    <path
       d="m 57.6,196.52073 3.5712,-4.35456 3.5712,-4.26659 3.5712,-4.17862 3.5712,-4.09065 3.5712,-4.00267 3.5712,-3.91471 3.5712,-3.82673 3.5712,-3.73877 3.5712,-3.65079 3.5712,-3.56282 3.5712,-3.47485 3.5712,-3.38688 3.5712,-3.29891 3.5712,-3.21094 3.5712,-3.12297 3.5712,-3.03499 3.5712,-2.94703 3.5712,-2.85905 3.5712,-2.77109 3.5712,-2.68311 3.5712,-2.59514 3.5712,-2.50717 3.5712,-2.4192 3.5712,-2.33123 3.5712,-2.24326 3.5712,-2.15529 3.5712,-2.06731 3.5712,-1.97935 3.5712,-1.89137 3.5712,-1.80341 3.5712,-1.71543 3.5712,-1.62746 3.5712,-1.539493 3.5712,-1.45152 3.5712,-1.363549 3.5712,-1.275578 3.5712,-1.187607 3.5712,-1.099637 3.5712,-1.011665 3.5712,-0.923695 3.5712,-0.835723 3.5712,-0.747753 3.5712,-0.659782 3.5712,-0.571811 3.5712,-0.48384 3.5712,-0.395869 3.5712,-0.307898 3.5712,-0.219927 3.5712,-0.131957 3.5712,-0.04399 3.5712,0.04399 3.5712,0.131957 3.5712,0.219927 3.5712,0.307898 3.5712,0.395869 3.5712,0.48384 3.5712,0.571811 3.5712,0.659782 3.5712,0.747753 3.5712,0.835723 3.5712,0.923695 3.5712,1.011665 3.5712,1.099637 3.5712,1.187607 3.5712,1.275578 3.5712,1.363549 3.5712,1.45152 3.5712,1.539493 3.5712,1.62746 3.5712,1.71543 3.5712,1.80341 3.5712,1.89137 3.5712,1.97935 3.5712,2.06731 3.5712,2.15529 3.5712,2.24326 3.5712,2.33123 3.5712,2.4192 3.5712,2.50717 3.5712,2.59514 3.5712,2.68311 3.5712,2.77109 3.5712,2.85905 3.5712,2.94703 3.5712,3.03499 3.5712,3.12297 3.5712,3.21094 3.5712,3.29891 3.5712,3.38688 3.5712,3.47485 3.5712,3.56282 3.5712,3.65079 3.5712,3.73877 3.5712,3.82673 3.5712,3.91471 3.5712,4.00267 3.5712,4.09065 3.5712,4.17862 3.5712,4.26659 3.5712,4.35456"
       clip-path="url(#p5a735b6535)"
       style="opacity:1;fill:none;stroke:#d3436e;stroke-width:1.5;stroke-linecap:square;stroke-linejoin:round"
       id="path284"
       transform="translate(-23.36468)" />
    <path
       d="m 57.6,163.53164 3.5712,-4.35456 3.5712,-4.26659 3.5712,-4.17862 3.5712,-4.09065 3.5712,-4.00268 3.5712,-3.9147 3.5712,-3.82674 3.5712,-3.73876 3.5712,-3.65079 3.5712,-3.56282 3.5712,-3.47485 3.5712,-3.38688 3.5712,-3.29891 3.5712,-3.21094 3.5712,-3.12297 3.5712,-3.035 3.5712,-2.94702 3.5712,-2.859055 3.5712,-2.771083 3.5712,-2.683113 3.5712,-2.595142 3.5712,-2.507171 3.5712,-2.4192 3.5712,-2.331229 3.5712,-2.243258 3.5712,-2.155287 3.5712,-2.067317 3.5712,-1.979345 3.5712,-1.891375 3.5712,-1.803403 3.5712,-1.715433 3.5712,-1.627462 3.5712,-1.539491 3.5712,-1.45152 3.5712,-1.363549 3.5712,-1.275578 3.5712,-1.187607 3.5712,-1.099637 3.5712,-1.011665 3.5712,-0.923695 3.5712,-0.835723 3.5712,-0.747753 3.5712,-0.659782 3.5712,-0.571811 3.5712,-0.48384 3.5712,-0.395869 3.5712,-0.307898 3.5712,-0.219927 3.5712,-0.131957 3.5712,-0.04398 3.5712,0.04398 3.5712,0.131957 3.5712,0.219927 3.5712,0.307898 3.5712,0.395869 3.5712,0.48384 3.5712,0.571811 3.5712,0.659782 3.5712,0.747753 3.5712,0.835723 3.5712,0.923695 3.5712,1.011665 3.5712,1.099637 3.5712,1.187607 3.5712,1.275578 3.5712,1.363549 3.5712,1.45152 3.5712,1.539491 3.5712,1.627462 3.5712,1.715433 3.5712,1.803403 3.5712,1.891375 3.5712,1.979345 3.5712,2.067317 3.5712,2.155287 3.5712,2.243258 3.5712,2.331229 3.5712,2.4192 3.5712,2.507171 3.5712,2.595142 3.5712,2.683113 3.5712,2.771083 3.5712,2.859055 3.5712,2.94702 3.5712,3.035 3.5712,3.12297 3.5712,3.21094 3.5712,3.29891 3.5712,3.38688 3.5712,3.47485 3.5712,3.56282 3.5712,3.65079 3.5712,3.73876 3.5712,3.82674 3.5712,3.9147 3.5712,4.00268 3.5712,4.09065 3.5712,4.17862 3.5712,4.26659 3.5712,4.35456"
       clip-path="url(#p5a735b6535)"
       style="opacity:1;fill:none;stroke:#f8765c;stroke-width:1.5;stroke-linecap:square;stroke-linejoin:round"
       id="path287"
       transform="translate(-23.36468)" />
    <path
       d="M 39.744,152.53527 H 432.576"
       clip-path="url(#p5a735b6535)"
       style="opacity:1;fill:none;stroke:#000000;stroke-width:1.5;stroke-linecap:butt;stroke-linejoin:round;stroke-dasharray:5.55, 2.4;stroke-dashoffset:0"
       id="path290"
       transform="translate(-23.36468)" />
    <path
       d="M 57.6,307.584 V 41.472"
       style="opacity:1;fill:none;stroke:#000000;stroke-width:0.8;stroke-linecap:square;stroke-linejoin:miter"
       id="path293"
       transform="translate(-23.36468)" />
    <path
       d="M 414.72,307.584 V 41.472"
       style="opacity:1;fill:none;stroke:#000000;stroke-width:0.8;stroke-linecap:square;stroke-linejoin:miter"
       id="path296"
       transform="translate(-23.36468)" />
    <path
       d="M 57.6,307.584 H 414.72"
       style="opacity:1;fill:none;stroke:#000000;stroke-width:0.8;stroke-linecap:square;stroke-linejoin:miter"
       id="path299"
       transform="translate(-23.36468)" />
    <path
       d="M 57.6,41.472 H 414.72"
       style="opacity:1;fill:none;stroke:#000000;stroke-width:0.8;stroke-linecap:square;stroke-linejoin:miter"
       id="path302"
       transform="translate(-23.36468)" />
    <text
       xml:space="preserve"
       style="font-size:18.6667px;font-family:'CMU Serif';-inkscape-font-specification:'CMU Serif';fill:#000000;stroke-width:2;stroke-linejoin:round;stroke-dasharray:8, 8"
       x="309.46274"
       y="438.03952"
       id="text1312"
       transform="matrix(0.75,0,0,0.75,-22.794904,-3.893241)"><tspan
         sodipodi:role="line"
         id="tspan1310"
         x="309.46274"
         y="438.03952">0</tspan></text>
    <text
       xml:space="preserve"
       style="font-size:18.6667px;font-family:'CMU Serif';-inkscape-font-specification:'CMU Serif';fill:#000000;stroke-width:2;stroke-linejoin:round;stroke-dasharray:8, 8"
       x="548.64752"
       y="434.84506"
       id="text1366"
       transform="matrix(0.75,0,0,0.75,-23.685015,-1.3435886)"><tspan
         sodipodi:role="line"
         id="tspan1364"
         x="548.64752"
         y="434.84506">1</tspan></text>
    <text
       xml:space="preserve"
       style="font-size:18.6667px;font-family:'CMU Serif';-inkscape-font-specification:'CMU Serif';fill:#000000;stroke-width:2;stroke-linejoin:round;stroke-dasharray:8, 8"
       x="74.670364"
       y="434.04645"
       id="text1370"
       transform="matrix(0.75,0,0,0.75,-27.096076,-0.74462775)"><tspan
         sodipodi:role="line"
         id="tspan1368"
         x="74.670364"
         y="434.04645">-1</tspan></text>
    <text
       xml:space="preserve"
       style="font-size:18.6667px;font-family:'CMU Serif';-inkscape-font-specification:'CMU Serif';fill:#000000;stroke-width:2;stroke-linejoin:round;stroke-dasharray:8, 8"
       x="45.920277"
       y="356.18164"
       id="text1374"
       transform="matrix(0.75,0,0,0.75,-17.962026,0.02488732)"><tspan
         sodipodi:role="line"
         id="tspan1372"
         x="45.920277"
         y="356.18164">-1</tspan></text>
    <text
       xml:space="preserve"
       style="font-size:18.6667px;font-family:'CMU Serif';-inkscape-font-specification:'CMU Serif';fill:#000000;stroke-width:2;stroke-linejoin:round;stroke-dasharray:8, 8"
       x="53.906414"
       y="209.23676"
       id="text1378"
       transform="matrix(0.75,0,0,0.75,-19.870568,0.11574239)"><tspan
         sodipodi:role="line"
         id="tspan1376"
         x="53.906414"
         y="209.23676">0</tspan></text>
    <text
       xml:space="preserve"
       style="font-size:18.6667px;font-family:'CMU Serif';-inkscape-font-specification:'CMU Serif';fill:#000000;stroke-width:2;stroke-linejoin:round;stroke-dasharray:8, 8"
       x="57.100868"
       y="61.093933"
       id="text1382"
       transform="matrix(0.75,0,0,0.75,-22.327932,1.413268)"><tspan
         sodipodi:role="line"
         id="tspan1380"
         x="57.100868"
         y="61.093933">1</tspan></text>
    <g
       inkscape:label=""
       transform="translate(207.62344,331.22538)"
       id="g1698">
      <g
         clip-path="url(#clipPath4324)"
         id="g17"
         transform="translate(-0.5625,0.213375)">
        <g
           fill="#000000"
           fill-opacity="1"
           id="g15">
          <g
             id="use13"
             transform="translate(0,8.8959999)">
            <path
               d="m 7.046875,-1.203125 c 0.265625,1.15625 1.25,1.40625 1.75,1.40625 0.65625,0 1.15625,-0.4375 1.484375,-1.125 0.359375,-0.75 0.625,-1.96875 0.625,-2.03125 0,-0.109375 -0.07813,-0.1875 -0.203125,-0.1875 -0.1875,0 -0.203125,0.109375 -0.296875,0.40625 -0.375,1.4375 -0.734375,2.53125 -1.5625,2.53125 -0.625,0 -0.625,-0.6875 -0.625,-0.953125 0,-0.46875 0.0625,-0.6875 0.265625,-1.546875 0.15625,-0.5625 0.296875,-1.125 0.421875,-1.703125 L 9.75,-7.765625 c 0.140625,-0.515625 0.140625,-0.5625 0.140625,-0.625 0,-0.3125 -0.25,-0.515625 -0.546875,-0.515625 -0.609375,0 -0.75,0.515625 -0.875,1.03125 C 8.265625,-7.0625 7.140625,-2.625 7,-1.90625 c -0.015625,0 -0.828125,1.703125 -2.328125,1.703125 -1.078125,0 -1.28125,-0.9375 -1.28125,-1.703125 0,-1.171875 0.578125,-2.828125 1.109375,-4.203125 0.25,-0.671875 0.359375,-0.9375 0.359375,-1.34375 0,-0.890625 -0.640625,-1.65625 -1.640625,-1.65625 -1.890625,0 -2.65625,3 -2.65625,3.15625 0,0.09375 0.078125,0.1875 0.21875,0.1875 0.1875,0 0.203125,-0.078125 0.296875,-0.375 0.484375,-1.765625 1.296875,-2.5625 2.078125,-2.5625 0.203125,0 0.546875,0.03125 0.546875,0.6875 0,0.53125 -0.234375,1.140625 -0.546875,1.921875 -0.90625,2.453125 -1.015625,3.25 -1.015625,3.859375 0,2.109375 1.59375,2.4375 2.4375,2.4375 1.328125,0 2.046875,-0.90625 2.46875,-1.40625 z m 0,0"
               id="path23" />
          </g>
        </g>
      </g>
    </g>
    <g
       inkscape:label=""
       transform="translate(4.164743,167.73909)"
       id="g2192">
      <g
         fill="#000000"
         fill-opacity="1"
         id="g19"
         transform="translate(-0.5625,0.0231247)">
        <g
           id="g2185"
           transform="translate(3.74,13.555)">
          <path
             d="m 3.40625,-12.71875 c 0,-0.5 -0.390625,-0.859375 -0.828125,-0.859375 -0.484375,0 -0.84375,0.40625 -0.84375,0.859375 0,0.484375 0.390625,0.84375 0.828125,0.84375 0.5,0 0.84375,-0.390625 0.84375,-0.84375 z m 0,0"
             id="path31" />
        </g>
      </g>
      <g
         clip-path="url(#clipPath3802)"
         id="g25"
         transform="translate(-0.5625,0.0231247)">
        <g
           fill="#000000"
           fill-opacity="1"
           id="g23">
          <g
             id="use21"
             transform="translate(0,13.556)">
            <path
               d="m 7.046875,-1.203125 c 0.265625,1.15625 1.25,1.40625 1.75,1.40625 0.65625,0 1.15625,-0.4375 1.484375,-1.125 0.359375,-0.75 0.625,-1.96875 0.625,-2.03125 0,-0.109375 -0.07813,-0.1875 -0.203125,-0.1875 -0.1875,0 -0.203125,0.109375 -0.296875,0.40625 -0.375,1.4375 -0.734375,2.53125 -1.5625,2.53125 -0.625,0 -0.625,-0.6875 -0.625,-0.953125 0,-0.46875 0.0625,-0.6875 0.265625,-1.546875 0.15625,-0.5625 0.296875,-1.125 0.421875,-1.703125 L 9.75,-7.765625 c 0.140625,-0.515625 0.140625,-0.5625 0.140625,-0.625 0,-0.3125 -0.25,-0.515625 -0.546875,-0.515625 -0.609375,0 -0.75,0.515625 -0.875,1.03125 C 8.265625,-7.0625 7.140625,-2.625 7,-1.90625 c -0.015625,0 -0.828125,1.703125 -2.328125,1.703125 -1.078125,0 -1.28125,-0.9375 -1.28125,-1.703125 0,-1.171875 0.578125,-2.828125 1.109375,-4.203125 0.25,-0.671875 0.359375,-0.9375 0.359375,-1.34375 0,-0.890625 -0.640625,-1.65625 -1.640625,-1.65625 -1.890625,0 -2.65625,3 -2.65625,3.15625 0,0.09375 0.078125,0.1875 0.21875,0.1875 0.1875,0 0.203125,-0.078125 0.296875,-0.375 0.484375,-1.765625 1.296875,-2.5625 2.078125,-2.5625 0.203125,0 0.546875,0.03125 0.546875,0.6875 0,0.53125 -0.234375,1.140625 -0.546875,1.921875 -0.90625,2.453125 -1.015625,3.25 -1.015625,3.859375 0,2.109375 1.59375,2.4375 2.4375,2.4375 1.328125,0 2.046875,-0.90625 2.46875,-1.40625 z m 0,0"
               id="path35" />
          </g>
        </g>
      </g>
    </g>
    <g
       inkscape:label=""
       transform="translate(183.32668,193.71881)"
       id="g2897"
       style="fill:#221150;fill-opacity:1;stroke:none;stroke-opacity:1">
      <g
         clip-path="url(#clipPath2409)"
         id="g37"
         transform="translate(-0.46875,0.277)"
         style="fill:#221150;fill-opacity:1;stroke:none;stroke-opacity:1">
        <g
           fill="#000000"
           fill-opacity="1"
           id="g35"
           style="fill:#221150;fill-opacity:1;stroke:none;stroke-opacity:1">
          <g
             id="use33"
             transform="translate(0,11.098)"
             style="fill:#221150;fill-opacity:1;stroke:none;stroke-opacity:1">
            <path
               d="m 8.171875,-4.765625 c 0.09375,-0.34375 0.140625,-0.5625 0.140625,-1.015625 0,-1.03125 -0.59375,-1.8125 -1.90625,-1.8125 C 4.875,-7.59375 4.0625,-6.515625 3.75,-6.078125 3.703125,-7.0625 3,-7.59375 2.234375,-7.59375 c -0.5,0 -0.890625,0.234375 -1.21875,0.890625 -0.3125,0.625 -0.546875,1.671875 -0.546875,1.75 0,0.0625 0.0625,0.15625 0.1875,0.15625 0.140625,0 0.15625,-0.03125 0.25,-0.421875 C 1.171875,-6.234375 1.5,-7.25 2.1875,-7.25 c 0.390625,0 0.53125,0.28125 0.53125,0.796875 0,0.375 -0.171875,1.046875 -0.296875,1.578125 l -0.46875,1.859375 C 1.875,-2.6875 1.6875,-1.90625 1.59375,-1.59375 c -0.109375,0.4375 -0.296875,1.25 -0.296875,1.328125 0,0.25 0.1875,0.4375 0.4375,0.4375 0.21875,0 0.453125,-0.109375 0.59375,-0.359375 0.03125,-0.09375 0.1875,-0.6875 0.265625,-1.03125 l 0.390625,-1.546875 0.5625,-2.28125 C 3.578125,-5.140625 4.015625,-6.015625 4.65625,-6.5625 5.09375,-6.96875 5.6875,-7.25 6.359375,-7.25 c 0.6875,0 0.921875,0.515625 0.921875,1.203125 0,0.5 -0.0625,0.78125 -0.15625,1.109375 l -2,7.921875 c -0.015625,0.078125 -0.046875,0.1875 -0.046875,0.28125 0,0.265625 0.203125,0.4375 0.46875,0.4375 0.15625,0 0.515625,-0.0625 0.65625,-0.59375 z m 0,0"
               id="path65"
               style="fill:#221150;fill-opacity:1;stroke:none;stroke-opacity:1" />
          </g>
        </g>
      </g>
      <g
         fill="#000000"
         fill-opacity="1"
         id="g41"
         transform="translate(-0.46875,0.277)"
         style="fill:#221150;fill-opacity:1;stroke:none;stroke-opacity:1">
        <g
           id="use39"
           transform="translate(13.716,11.098)"
           style="fill:#221150;fill-opacity:1;stroke:none;stroke-opacity:1">
          <path
             d="m 11.078125,-5.53125 c 0.25,0 0.515625,0 0.515625,-0.28125 C 11.59375,-6.125 11.296875,-6.125 11,-6.125 H 1.375 c -0.296875,0 -0.578125,0 -0.578125,0.3125 0,0.28125 0.25,0.28125 0.515625,0.28125 z M 11,-2.46875 c 0.296875,0 0.59375,0 0.59375,-0.296875 0,-0.296875 -0.265625,-0.296875 -0.515625,-0.296875 H 1.3125 c -0.265625,0 -0.515625,0 -0.515625,0.296875 0,0.296875 0.28125,0.296875 0.578125,0.296875 z m 0,0"
             id="path69"
             style="fill:#221150;fill-opacity:1;stroke:none;stroke-opacity:1" />
        </g>
      </g>
      <g
         fill="#000000"
         fill-opacity="1"
         id="g45"
         transform="translate(-0.46875,0.277)"
         style="fill:#221150;fill-opacity:1;stroke:none;stroke-opacity:1">
        <g
           id="use43"
           transform="translate(30.891001,11.098)"
           style="fill:#221150;fill-opacity:1;stroke:none;stroke-opacity:1">
          <path
             d="m 11.34375,-3.953125 c 0.296875,0 0.609375,0 0.609375,-0.359375 0,-0.34375 -0.3125,-0.34375 -0.609375,-0.34375 h -9.3125 c -0.296875,0 -0.609375,0 -0.609375,0.34375 0,0.359375 0.3125,0.359375 0.609375,0.359375 z m 0,0"
             id="path73"
             style="fill:#221150;fill-opacity:1;stroke:none;stroke-opacity:1" />
        </g>
      </g>
      <g
         fill="#000000"
         fill-opacity="1"
         id="g49"
         transform="translate(-0.46875,0.277)"
         style="fill:#221150;fill-opacity:1;stroke:none;stroke-opacity:1">
        <g
           id="use47"
           transform="translate(44.280998,11.098)"
           style="fill:#221150;fill-opacity:1;stroke:none;stroke-opacity:1">
          <path
             d="m 7.234375,-5.53125 c 0,-1.046875 -0.015625,-2.84375 -0.75,-4.21875 -0.625,-1.203125 -1.640625,-1.625 -2.546875,-1.625 -0.828125,0 -1.875,0.375 -2.53125,1.609375 -0.6875,1.296875 -0.75,2.890625 -0.75,4.234375 0,0.984375 0.015625,2.484375 0.546875,3.796875 0.75,1.765625 2.0625,2.015625 2.734375,2.015625 0.796875,0 2,-0.328125 2.703125,-1.96875 0.515625,-1.1875 0.59375,-2.578125 0.59375,-3.84375 z M 3.9375,0 C 2.84375,0 2.1875,-0.953125 1.953125,-2.25 1.75,-3.265625 1.75,-4.75 1.75,-5.71875 c 0,-1.328125 0,-2.421875 0.234375,-3.46875 0.328125,-1.46875 1.28125,-1.921875 1.953125,-1.921875 0.71875,0 1.625,0.46875 1.953125,1.875 C 6.109375,-8.25 6.125,-7.09375 6.125,-5.71875 c 0,1.125 0,2.5 -0.203125,3.515625 C 5.5625,-0.328125 4.546875,0 3.9375,0 Z m 0,0"
             id="path77"
             style="fill:#221150;fill-opacity:1;stroke:none;stroke-opacity:1" />
        </g>
      </g>
      <g
         fill="#000000"
         fill-opacity="1"
         id="g53"
         transform="translate(-0.46875,0.277)"
         style="fill:#221150;fill-opacity:1;stroke:none;stroke-opacity:1">
        <g
           id="use51"
           transform="translate(52.175999,11.098)"
           style="fill:#221150;fill-opacity:1;stroke:none;stroke-opacity:1">
          <path
             d="m 3.171875,-0.828125 c 0,-0.5 -0.421875,-0.84375 -0.828125,-0.84375 C 1.84375,-1.671875 1.5,-1.25 1.5,-0.84375 1.5,-0.34375 1.90625,0 2.328125,0 c 0.5,0 0.84375,-0.40625 0.84375,-0.828125 z m 0,0"
             id="path81"
             style="fill:#221150;fill-opacity:1;stroke:none;stroke-opacity:1" />
        </g>
      </g>
      <g
         clip-path="url(#clipPath2532)"
         id="g59"
         transform="translate(-0.46875,0.277)"
         style="fill:#221150;fill-opacity:1;stroke:none;stroke-opacity:1">
        <g
           fill="#000000"
           fill-opacity="1"
           id="g57"
           style="fill:#221150;fill-opacity:1;stroke:none;stroke-opacity:1">
          <g
             id="use55"
             transform="translate(56.858002,11.098)"
             style="fill:#221150;fill-opacity:1;stroke:none;stroke-opacity:1">
            <path
               d="m 3.8125,-5.859375 c 1.53125,0 2.203125,1.328125 2.203125,2.859375 0,2.0625 -1.109375,2.859375 -2.109375,2.859375 C 3,-0.140625 1.515625,-0.578125 1.046875,-1.90625 1.140625,-1.875 1.21875,-1.875 1.3125,-1.875 c 0.40625,0 0.71875,-0.28125 0.71875,-0.71875 0,-0.5 -0.375,-0.734375 -0.71875,-0.734375 -0.296875,0 -0.75,0.140625 -0.75,0.78125 0,1.578125 1.5625,2.828125 3.375,2.828125 1.921875,0 3.375,-1.5 3.375,-3.265625 0,-1.671875 -1.375,-2.875 -3,-3.0625 1.296875,-0.265625 2.5625,-1.4375 2.5625,-3.015625 0,-1.34375 -1.359375,-2.3125 -2.921875,-2.3125 -1.5625,0 -2.9375,0.953125 -2.9375,2.328125 0,0.609375 0.453125,0.71875 0.671875,0.71875 0.359375,0 0.671875,-0.234375 0.671875,-0.671875 0,-0.453125 -0.3125,-0.671875 -0.671875,-0.671875 -0.0625,0 -0.15625,0 -0.21875,0.03125 0.5,-1.140625 1.859375,-1.34375 2.453125,-1.34375 0.609375,0 1.75,0.296875 1.75,1.9375 0,0.484375 -0.078125,1.34375 -0.65625,2.109375 C 4.5,-6.265625 3.90625,-6.234375 3.34375,-6.1875 c -0.09375,0 -0.484375,0.046875 -0.546875,0.046875 -0.125,0.015625 -0.203125,0.03125 -0.203125,0.15625 0,0.109375 0.03125,0.125 0.375,0.125 z m 0,0"
               id="path85"
               style="fill:#221150;fill-opacity:1;stroke:none;stroke-opacity:1" />
          </g>
        </g>
      </g>
    </g>
    <g
       inkscape:label=""
       transform="translate(196.34798,162.21106)"
       id="g3245"
       style="fill:#5f187f;fill-opacity:1">
      <g
         id="g7636"
         transform="translate(0,-1.4974004)">
        <g
           clip-path="url(#clipPath7919)"
           id="g27"
           transform="translate(-0.46875,0.277)"
           style="fill:#5f187f;fill-opacity:1">
          <g
             fill="#000000"
             fill-opacity="1"
             id="g3232"
             style="fill:#5f187f;fill-opacity:1">
            <g
               id="use23"
               transform="translate(0,11.098)"
               style="fill:#5f187f;fill-opacity:1">
              <path
                 d="m 8.171875,-4.765625 c 0.09375,-0.34375 0.140625,-0.5625 0.140625,-1.015625 0,-1.03125 -0.59375,-1.8125 -1.90625,-1.8125 C 4.875,-7.59375 4.0625,-6.515625 3.75,-6.078125 3.703125,-7.0625 3,-7.59375 2.234375,-7.59375 c -0.5,0 -0.890625,0.234375 -1.21875,0.890625 -0.3125,0.625 -0.546875,1.671875 -0.546875,1.75 0,0.0625 0.0625,0.15625 0.1875,0.15625 0.140625,0 0.15625,-0.03125 0.25,-0.421875 C 1.171875,-6.234375 1.5,-7.25 2.1875,-7.25 c 0.390625,0 0.53125,0.28125 0.53125,0.796875 0,0.375 -0.171875,1.046875 -0.296875,1.578125 l -0.46875,1.859375 C 1.875,-2.6875 1.6875,-1.90625 1.59375,-1.59375 c -0.109375,0.4375 -0.296875,1.25 -0.296875,1.328125 0,0.25 0.1875,0.4375 0.4375,0.4375 0.21875,0 0.453125,-0.109375 0.59375,-0.359375 0.03125,-0.09375 0.1875,-0.6875 0.265625,-1.03125 l 0.390625,-1.546875 0.5625,-2.28125 C 3.578125,-5.140625 4.015625,-6.015625 4.65625,-6.5625 5.09375,-6.96875 5.6875,-7.25 6.359375,-7.25 c 0.6875,0 0.921875,0.515625 0.921875,1.203125 0,0.5 -0.0625,0.78125 -0.15625,1.109375 l -2,7.921875 c -0.015625,0.078125 -0.046875,0.1875 -0.046875,0.28125 0,0.265625 0.203125,0.4375 0.46875,0.4375 0.15625,0 0.515625,-0.0625 0.65625,-0.59375 z m 0,0"
                 id="path43"
                 style="fill:#5f187f;fill-opacity:1" />
            </g>
          </g>
        </g>
        <g
           fill="#000000"
           fill-opacity="1"
           id="g31"
           transform="translate(-0.46875,0.277)"
           style="fill:#5f187f;fill-opacity:1">
          <g
             id="use29"
             transform="translate(13.716,11.098)"
             style="fill:#5f187f;fill-opacity:1">
            <path
               d="m 11.078125,-5.53125 c 0.25,0 0.515625,0 0.515625,-0.28125 C 11.59375,-6.125 11.296875,-6.125 11,-6.125 H 1.375 c -0.296875,0 -0.578125,0 -0.578125,0.3125 0,0.28125 0.25,0.28125 0.515625,0.28125 z M 11,-2.46875 c 0.296875,0 0.59375,0 0.59375,-0.296875 0,-0.296875 -0.265625,-0.296875 -0.515625,-0.296875 H 1.3125 c -0.265625,0 -0.515625,0 -0.515625,0.296875 0,0.296875 0.28125,0.296875 0.578125,0.296875 z m 0,0"
               id="path47"
               style="fill:#5f187f;fill-opacity:1" />
          </g>
        </g>
        <g
           clip-path="url(#clipPath7733)"
           id="g3243"
           transform="translate(-0.46875,0.277)"
           style="fill:#5f187f;fill-opacity:1">
          <g
             fill="#000000"
             fill-opacity="1"
             id="g3241"
             style="fill:#5f187f;fill-opacity:1">
            <g
               id="g3239"
               transform="translate(30.893526,11.098)"
               style="fill:#5f187f;fill-opacity:1">
              <path
                 d="m 7.234375,-5.53125 c 0,-1.046875 -0.015625,-2.84375 -0.75,-4.21875 -0.625,-1.203125 -1.640625,-1.625 -2.546875,-1.625 -0.828125,0 -1.875,0.375 -2.53125,1.609375 -0.6875,1.296875 -0.75,2.890625 -0.75,4.234375 0,0.984375 0.015625,2.484375 0.546875,3.796875 0.75,1.765625 2.0625,2.015625 2.734375,2.015625 0.796875,0 2,-0.328125 2.703125,-1.96875 0.515625,-1.1875 0.59375,-2.578125 0.59375,-3.84375 z M 3.9375,0 C 2.84375,0 2.1875,-0.953125 1.953125,-2.25 1.75,-3.265625 1.75,-4.75 1.75,-5.71875 c 0,-1.328125 0,-2.421875 0.234375,-3.46875 0.328125,-1.46875 1.28125,-1.921875 1.953125,-1.921875 0.71875,0 1.625,0.46875 1.953125,1.875 C 6.109375,-8.25 6.125,-7.09375 6.125,-5.71875 c 0,1.125 0,2.5 -0.203125,3.515625 C 5.5625,-0.328125 4.546875,0 3.9375,0 Z m 0,0"
                 id="path51"
                 style="fill:#5f187f;fill-opacity:1" />
            </g>
          </g>
        </g>
      </g>
    </g>
    <g
       inkscape:label=""
       transform="translate(190.02168,126.18101)"
       id="g3615"
       style="fill:#982d80;fill-opacity:1">
      <g
         clip-path="url(#clipPath2722)"
         id="g30"
         transform="translate(-0.46875,0.277)"
         style="fill:#982d80;fill-opacity:1">
        <g
           fill="#000000"
           fill-opacity="1"
           id="g28"
           style="fill:#982d80;fill-opacity:1">
          <g
             id="use26"
             transform="translate(0,11.098)"
             style="fill:#982d80;fill-opacity:1">
            <path
               d="m 8.171875,-4.765625 c 0.09375,-0.34375 0.140625,-0.5625 0.140625,-1.015625 0,-1.03125 -0.59375,-1.8125 -1.90625,-1.8125 C 4.875,-7.59375 4.0625,-6.515625 3.75,-6.078125 3.703125,-7.0625 3,-7.59375 2.234375,-7.59375 c -0.5,0 -0.890625,0.234375 -1.21875,0.890625 -0.3125,0.625 -0.546875,1.671875 -0.546875,1.75 0,0.0625 0.0625,0.15625 0.1875,0.15625 0.140625,0 0.15625,-0.03125 0.25,-0.421875 C 1.171875,-6.234375 1.5,-7.25 2.1875,-7.25 c 0.390625,0 0.53125,0.28125 0.53125,0.796875 0,0.375 -0.171875,1.046875 -0.296875,1.578125 l -0.46875,1.859375 C 1.875,-2.6875 1.6875,-1.90625 1.59375,-1.59375 c -0.109375,0.4375 -0.296875,1.25 -0.296875,1.328125 0,0.25 0.1875,0.4375 0.4375,0.4375 0.21875,0 0.453125,-0.109375 0.59375,-0.359375 0.03125,-0.09375 0.1875,-0.6875 0.265625,-1.03125 l 0.390625,-1.546875 0.5625,-2.28125 C 3.578125,-5.140625 4.015625,-6.015625 4.65625,-6.5625 5.09375,-6.96875 5.6875,-7.25 6.359375,-7.25 c 0.6875,0 0.921875,0.515625 0.921875,1.203125 0,0.5 -0.0625,0.78125 -0.15625,1.109375 l -2,7.921875 c -0.015625,0.078125 -0.046875,0.1875 -0.046875,0.28125 0,0.265625 0.203125,0.4375 0.46875,0.4375 0.15625,0 0.515625,-0.0625 0.65625,-0.59375 z m 0,0"
               id="path52"
               style="fill:#982d80;fill-opacity:1" />
          </g>
        </g>
      </g>
      <g
         fill="#000000"
         fill-opacity="1"
         id="g34"
         transform="translate(-0.46875,0.277)"
         style="fill:#982d80;fill-opacity:1">
        <g
           id="use32"
           transform="translate(13.716,11.098)"
           style="fill:#982d80;fill-opacity:1">
          <path
             d="m 11.078125,-5.53125 c 0.25,0 0.515625,0 0.515625,-0.28125 C 11.59375,-6.125 11.296875,-6.125 11,-6.125 H 1.375 c -0.296875,0 -0.578125,0 -0.578125,0.3125 0,0.28125 0.25,0.28125 0.515625,0.28125 z M 11,-2.46875 c 0.296875,0 0.59375,0 0.59375,-0.296875 0,-0.296875 -0.265625,-0.296875 -0.515625,-0.296875 H 1.3125 c -0.265625,0 -0.515625,0 -0.515625,0.296875 0,0.296875 0.28125,0.296875 0.578125,0.296875 z m 0,0"
             id="path56"
             style="fill:#982d80;fill-opacity:1" />
        </g>
      </g>
      <g
         fill="#000000"
         fill-opacity="1"
         id="g38"
         transform="translate(-0.46875,0.277)"
         style="fill:#982d80;fill-opacity:1">
        <g
           id="use36"
           transform="translate(30.893526,11.098)"
           style="fill:#982d80;fill-opacity:1">
          <path
             d="m 7.234375,-5.53125 c 0,-1.046875 -0.015625,-2.84375 -0.75,-4.21875 -0.625,-1.203125 -1.640625,-1.625 -2.546875,-1.625 -0.828125,0 -1.875,0.375 -2.53125,1.609375 -0.6875,1.296875 -0.75,2.890625 -0.75,4.234375 0,0.984375 0.015625,2.484375 0.546875,3.796875 0.75,1.765625 2.0625,2.015625 2.734375,2.015625 0.796875,0 2,-0.328125 2.703125,-1.96875 0.515625,-1.1875 0.59375,-2.578125 0.59375,-3.84375 z M 3.9375,0 C 2.84375,0 2.1875,-0.953125 1.953125,-2.25 1.75,-3.265625 1.75,-4.75 1.75,-5.71875 c 0,-1.328125 0,-2.421875 0.234375,-3.46875 0.328125,-1.46875 1.28125,-1.921875 1.953125,-1.921875 0.71875,0 1.625,0.46875 1.953125,1.875 C 6.109375,-8.25 6.125,-7.09375 6.125,-5.71875 c 0,1.125 0,2.5 -0.203125,3.515625 C 5.5625,-0.328125 4.546875,0 3.9375,0 Z m 0,0"
             id="path60"
             style="fill:#982d80;fill-opacity:1" />
        </g>
      </g>
      <g
         fill="#000000"
         fill-opacity="1"
         id="g42"
         transform="translate(-0.46875,0.277)"
         style="fill:#982d80;fill-opacity:1">
        <g
           id="use40"
           transform="translate(38.785999,11.098)"
           style="fill:#982d80;fill-opacity:1">
          <path
             d="m 3.171875,-0.828125 c 0,-0.5 -0.421875,-0.84375 -0.828125,-0.84375 C 1.84375,-1.671875 1.5,-1.25 1.5,-0.84375 1.5,-0.34375 1.90625,0 2.328125,0 c 0.5,0 0.84375,-0.40625 0.84375,-0.828125 z m 0,0"
             id="path64"
             style="fill:#982d80;fill-opacity:1" />
        </g>
      </g>
      <g
         fill="#000000"
         fill-opacity="1"
         id="g46"
         transform="translate(-0.46875,0.277)"
         style="fill:#982d80;fill-opacity:1">
        <g
           id="use44"
           transform="translate(43.467999,11.098)"
           style="fill:#982d80;fill-opacity:1">
          <path
             d="m 3.8125,-5.859375 c 1.53125,0 2.203125,1.328125 2.203125,2.859375 0,2.0625 -1.109375,2.859375 -2.109375,2.859375 C 3,-0.140625 1.515625,-0.578125 1.046875,-1.90625 1.140625,-1.875 1.21875,-1.875 1.3125,-1.875 c 0.40625,0 0.71875,-0.28125 0.71875,-0.71875 0,-0.5 -0.375,-0.734375 -0.71875,-0.734375 -0.296875,0 -0.75,0.140625 -0.75,0.78125 0,1.578125 1.5625,2.828125 3.375,2.828125 1.921875,0 3.375,-1.5 3.375,-3.265625 0,-1.671875 -1.375,-2.875 -3,-3.0625 1.296875,-0.265625 2.5625,-1.4375 2.5625,-3.015625 0,-1.34375 -1.359375,-2.3125 -2.921875,-2.3125 -1.5625,0 -2.9375,0.953125 -2.9375,2.328125 0,0.609375 0.453125,0.71875 0.671875,0.71875 0.359375,0 0.671875,-0.234375 0.671875,-0.671875 0,-0.453125 -0.3125,-0.671875 -0.671875,-0.671875 -0.0625,0 -0.15625,0 -0.21875,0.03125 0.5,-1.140625 1.859375,-1.34375 2.453125,-1.34375 0.609375,0 1.75,0.296875 1.75,1.9375 0,0.484375 -0.078125,1.34375 -0.65625,2.109375 C 4.5,-6.265625 3.90625,-6.234375 3.34375,-6.1875 c -0.09375,0 -0.484375,0.046875 -0.546875,0.046875 -0.125,0.015625 -0.203125,0.03125 -0.203125,0.15625 0,0.109375 0.03125,0.125 0.375,0.125 z m 0,0"
             id="path68"
             style="fill:#982d80;fill-opacity:1" />
        </g>
      </g>
    </g>
    <g
       inkscape:label=""
       transform="translate(190.06074,92.050617)"
       id="g4042"
       style="fill:#d3436e;fill-opacity:1">
      <g
         clip-path="url(#clipPath9767)"
         id="g4016"
         transform="translate(-0.46875,0.277)"
         style="fill:#d3436e;fill-opacity:1">
        <g
           fill="#000000"
           fill-opacity="1"
           id="g4014"
           style="fill:#d3436e;fill-opacity:1">
          <g
             id="g4012"
             transform="translate(0,11.098)"
             style="fill:#d3436e;fill-opacity:1">
            <path
               d="m 8.171875,-4.765625 c 0.09375,-0.34375 0.140625,-0.5625 0.140625,-1.015625 0,-1.03125 -0.59375,-1.8125 -1.90625,-1.8125 C 4.875,-7.59375 4.0625,-6.515625 3.75,-6.078125 3.703125,-7.0625 3,-7.59375 2.234375,-7.59375 c -0.5,0 -0.890625,0.234375 -1.21875,0.890625 -0.3125,0.625 -0.546875,1.671875 -0.546875,1.75 0,0.0625 0.0625,0.15625 0.1875,0.15625 0.140625,0 0.15625,-0.03125 0.25,-0.421875 C 1.171875,-6.234375 1.5,-7.25 2.1875,-7.25 c 0.390625,0 0.53125,0.28125 0.53125,0.796875 0,0.375 -0.171875,1.046875 -0.296875,1.578125 l -0.46875,1.859375 C 1.875,-2.6875 1.6875,-1.90625 1.59375,-1.59375 c -0.109375,0.4375 -0.296875,1.25 -0.296875,1.328125 0,0.25 0.1875,0.4375 0.4375,0.4375 0.21875,0 0.453125,-0.109375 0.59375,-0.359375 0.03125,-0.09375 0.1875,-0.6875 0.265625,-1.03125 l 0.390625,-1.546875 0.5625,-2.28125 C 3.578125,-5.140625 4.015625,-6.015625 4.65625,-6.5625 5.09375,-6.96875 5.6875,-7.25 6.359375,-7.25 c 0.6875,0 0.921875,0.515625 0.921875,1.203125 0,0.5 -0.0625,0.78125 -0.15625,1.109375 l -2,7.921875 c -0.015625,0.078125 -0.046875,0.1875 -0.046875,0.28125 0,0.265625 0.203125,0.4375 0.46875,0.4375 0.15625,0 0.515625,-0.0625 0.65625,-0.59375 z m 0,0"
               id="path4010"
               style="fill:#d3436e;fill-opacity:1" />
          </g>
        </g>
      </g>
      <g
         fill="#000000"
         fill-opacity="1"
         id="g4022"
         transform="translate(-0.46875,0.277)"
         style="fill:#d3436e;fill-opacity:1">
        <g
           id="g4020"
           transform="translate(13.716,11.098)"
           style="fill:#d3436e;fill-opacity:1">
          <path
             d="m 11.078125,-5.53125 c 0.25,0 0.515625,0 0.515625,-0.28125 C 11.59375,-6.125 11.296875,-6.125 11,-6.125 H 1.375 c -0.296875,0 -0.578125,0 -0.578125,0.3125 0,0.28125 0.25,0.28125 0.515625,0.28125 z M 11,-2.46875 c 0.296875,0 0.59375,0 0.59375,-0.296875 0,-0.296875 -0.265625,-0.296875 -0.515625,-0.296875 H 1.3125 c -0.265625,0 -0.515625,0 -0.515625,0.296875 0,0.296875 0.28125,0.296875 0.578125,0.296875 z m 0,0"
             id="path4018"
             style="fill:#d3436e;fill-opacity:1" />
        </g>
      </g>
      <g
         fill="#000000"
         fill-opacity="1"
         id="g4028"
         transform="translate(-0.46875,0.277)"
         style="fill:#d3436e;fill-opacity:1">
        <g
           id="g4026"
           transform="translate(30.893526,11.098)"
           style="fill:#d3436e;fill-opacity:1">
          <path
             d="m 7.234375,-5.53125 c 0,-1.046875 -0.015625,-2.84375 -0.75,-4.21875 -0.625,-1.203125 -1.640625,-1.625 -2.546875,-1.625 -0.828125,0 -1.875,0.375 -2.53125,1.609375 -0.6875,1.296875 -0.75,2.890625 -0.75,4.234375 0,0.984375 0.015625,2.484375 0.546875,3.796875 0.75,1.765625 2.0625,2.015625 2.734375,2.015625 0.796875,0 2,-0.328125 2.703125,-1.96875 0.515625,-1.1875 0.59375,-2.578125 0.59375,-3.84375 z M 3.9375,0 C 2.84375,0 2.1875,-0.953125 1.953125,-2.25 1.75,-3.265625 1.75,-4.75 1.75,-5.71875 c 0,-1.328125 0,-2.421875 0.234375,-3.46875 0.328125,-1.46875 1.28125,-1.921875 1.953125,-1.921875 0.71875,0 1.625,0.46875 1.953125,1.875 C 6.109375,-8.25 6.125,-7.09375 6.125,-5.71875 c 0,1.125 0,2.5 -0.203125,3.515625 C 5.5625,-0.328125 4.546875,0 3.9375,0 Z m 0,0"
             id="path4024"
             style="fill:#d3436e;fill-opacity:1" />
        </g>
      </g>
      <g
         fill="#000000"
         fill-opacity="1"
         id="g4034"
         transform="translate(-0.46875,0.277)"
         style="fill:#d3436e;fill-opacity:1">
        <g
           id="g4032"
           transform="translate(38.785999,11.098)"
           style="fill:#d3436e;fill-opacity:1">
          <path
             d="m 3.171875,-0.828125 c 0,-0.5 -0.421875,-0.84375 -0.828125,-0.84375 C 1.84375,-1.671875 1.5,-1.25 1.5,-0.84375 1.5,-0.34375 1.90625,0 2.328125,0 c 0.5,0 0.84375,-0.40625 0.84375,-0.828125 z m 0,0"
             id="path4030"
             style="fill:#d3436e;fill-opacity:1" />
        </g>
      </g>
      <g
         fill="#000000"
         fill-opacity="1"
         id="g4040"
         transform="translate(-0.46875,0.277)"
         style="fill:#d3436e;fill-opacity:1">
        <g
           id="g4038"
           transform="translate(43.467999,11.098)"
           style="fill:#d3436e;fill-opacity:1">
          <path
             d="m 1.828125,-5.9375 c 0,-4.125 1.921875,-5.046875 3.046875,-5.046875 0.359375,0 1.234375,0.0625 1.578125,0.734375 -0.265625,0 -0.78125,0 -0.78125,0.609375 0,0.46875 0.375,0.625 0.609375,0.625 0.15625,0 0.625,-0.078125 0.625,-0.65625 0,-1.09375 -0.859375,-1.703125 -2.046875,-1.703125 -2.046875,0 -4.203125,2.125 -4.203125,5.9375 0,4.6875 1.9375,5.71875 3.328125,5.71875 1.65625,0 3.25,-1.5 3.25,-3.8125 0,-2.15625 -1.390625,-3.71875 -3.15625,-3.71875 -1.046875,0 -1.828125,0.6875 -2.25,1.890625 z m 2.15625,5.796875 c -2.125,0 -2.125,-3.171875 -2.125,-3.796875 0,-1.25 0.578125,-3.03125 2.1875,-3.03125 0.296875,0 1.140625,0 1.703125,1.1875 0.3125,0.671875 0.3125,1.375 0.3125,2.234375 0,0.921875 0,1.625 -0.359375,2.3125 -0.375,0.703125 -0.9375,1.09375 -1.71875,1.09375 z m 0,0"
             id="path4036"
             style="fill:#d3436e;fill-opacity:1" />
        </g>
      </g>
    </g>
    <g
       inkscape:label=""
       transform="translate(190.06074,59.895949)"
       id="g6398"
       style="fill:#f8765c;fill-opacity:1">
      <g
         clip-path="url(#clipPath4663)"
         id="g6372"
         transform="translate(-0.46875,0.277)"
         style="fill:#f8765c;fill-opacity:1">
        <g
           fill="#000000"
           fill-opacity="1"
           id="g6370"
           style="fill:#f8765c;fill-opacity:1">
          <g
             id="g6368"
             transform="translate(0,11.098)"
             style="fill:#f8765c;fill-opacity:1">
            <path
               d="m 8.171875,-4.765625 c 0.09375,-0.34375 0.140625,-0.5625 0.140625,-1.015625 0,-1.03125 -0.59375,-1.8125 -1.90625,-1.8125 C 4.875,-7.59375 4.0625,-6.515625 3.75,-6.078125 3.703125,-7.0625 3,-7.59375 2.234375,-7.59375 c -0.5,0 -0.890625,0.234375 -1.21875,0.890625 -0.3125,0.625 -0.546875,1.671875 -0.546875,1.75 0,0.0625 0.0625,0.15625 0.1875,0.15625 0.140625,0 0.15625,-0.03125 0.25,-0.421875 C 1.171875,-6.234375 1.5,-7.25 2.1875,-7.25 c 0.390625,0 0.53125,0.28125 0.53125,0.796875 0,0.375 -0.171875,1.046875 -0.296875,1.578125 l -0.46875,1.859375 C 1.875,-2.6875 1.6875,-1.90625 1.59375,-1.59375 c -0.109375,0.4375 -0.296875,1.25 -0.296875,1.328125 0,0.25 0.1875,0.4375 0.4375,0.4375 0.21875,0 0.453125,-0.109375 0.59375,-0.359375 0.03125,-0.09375 0.1875,-0.6875 0.265625,-1.03125 l 0.390625,-1.546875 0.5625,-2.28125 C 3.578125,-5.140625 4.015625,-6.015625 4.65625,-6.5625 5.09375,-6.96875 5.6875,-7.25 6.359375,-7.25 c 0.6875,0 0.921875,0.515625 0.921875,1.203125 0,0.5 -0.0625,0.78125 -0.15625,1.109375 l -2,7.921875 c -0.015625,0.078125 -0.046875,0.1875 -0.046875,0.28125 0,0.265625 0.203125,0.4375 0.46875,0.4375 0.15625,0 0.515625,-0.0625 0.65625,-0.59375 z m 0,0"
               id="path6366"
               style="fill:#f8765c;fill-opacity:1" />
          </g>
        </g>
      </g>
      <g
         fill="#000000"
         fill-opacity="1"
         id="g6378"
         transform="translate(-0.46875,0.277)"
         style="fill:#f8765c;fill-opacity:1">
        <g
           id="g6376"
           transform="translate(13.716,11.098)"
           style="fill:#f8765c;fill-opacity:1">
          <path
             d="m 11.078125,-5.53125 c 0.25,0 0.515625,0 0.515625,-0.28125 C 11.59375,-6.125 11.296875,-6.125 11,-6.125 H 1.375 c -0.296875,0 -0.578125,0 -0.578125,0.3125 0,0.28125 0.25,0.28125 0.515625,0.28125 z M 11,-2.46875 c 0.296875,0 0.59375,0 0.59375,-0.296875 0,-0.296875 -0.265625,-0.296875 -0.515625,-0.296875 H 1.3125 c -0.265625,0 -0.515625,0 -0.515625,0.296875 0,0.296875 0.28125,0.296875 0.578125,0.296875 z m 0,0"
             id="path6374"
             style="fill:#f8765c;fill-opacity:1" />
        </g>
      </g>
      <g
         fill="#000000"
         fill-opacity="1"
         id="g6384"
         transform="translate(-0.46875,0.277)"
         style="fill:#f8765c;fill-opacity:1">
        <g
           id="g6382"
           transform="translate(30.893526,11.098)"
           style="fill:#f8765c;fill-opacity:1">
          <path
             d="m 7.234375,-5.53125 c 0,-1.046875 -0.015625,-2.84375 -0.75,-4.21875 -0.625,-1.203125 -1.640625,-1.625 -2.546875,-1.625 -0.828125,0 -1.875,0.375 -2.53125,1.609375 -0.6875,1.296875 -0.75,2.890625 -0.75,4.234375 0,0.984375 0.015625,2.484375 0.546875,3.796875 0.75,1.765625 2.0625,2.015625 2.734375,2.015625 0.796875,0 2,-0.328125 2.703125,-1.96875 0.515625,-1.1875 0.59375,-2.578125 0.59375,-3.84375 z M 3.9375,0 C 2.84375,0 2.1875,-0.953125 1.953125,-2.25 1.75,-3.265625 1.75,-4.75 1.75,-5.71875 c 0,-1.328125 0,-2.421875 0.234375,-3.46875 0.328125,-1.46875 1.28125,-1.921875 1.953125,-1.921875 0.71875,0 1.625,0.46875 1.953125,1.875 C 6.109375,-8.25 6.125,-7.09375 6.125,-5.71875 c 0,1.125 0,2.5 -0.203125,3.515625 C 5.5625,-0.328125 4.546875,0 3.9375,0 Z m 0,0"
             id="path6380"
             style="fill:#f8765c;fill-opacity:1" />
        </g>
      </g>
      <g
         fill="#000000"
         fill-opacity="1"
         id="g6390"
         transform="translate(-0.46875,0.277)"
         style="fill:#f8765c;fill-opacity:1">
        <g
           id="g6388"
           transform="translate(38.785999,11.098)"
           style="fill:#f8765c;fill-opacity:1">
          <path
             d="m 3.171875,-0.828125 c 0,-0.5 -0.421875,-0.84375 -0.828125,-0.84375 C 1.84375,-1.671875 1.5,-1.25 1.5,-0.84375 1.5,-0.34375 1.90625,0 2.328125,0 c 0.5,0 0.84375,-0.40625 0.84375,-0.828125 z m 0,0"
             id="path6386"
             style="fill:#f8765c;fill-opacity:1" />
        </g>
      </g>
      <g
         fill="#000000"
         fill-opacity="1"
         id="g6396"
         transform="translate(-0.46875,0.277)"
         style="fill:#f8765c;fill-opacity:1">
        <g
           id="g6394"
           transform="translate(43.467999,11.098)"
           style="fill:#f8765c;fill-opacity:1">
          <path
             d="m 6.0625,-5.09375 c 0,3.78125 -1.5625,4.953125 -2.859375,4.953125 -0.390625,0 -1.359375,-0.046875 -1.75,-0.71875 0.4375,0.0625 0.765625,-0.171875 0.765625,-0.609375 0,-0.453125 -0.375,-0.609375 -0.625,-0.609375 -0.140625,0 -0.609375,0.0625 -0.609375,0.65625 0,1.15625 1.015625,1.703125 2.25,1.703125 1.984375,0 4,-2.171875 4,-5.96875 0,-4.71875 -1.9375,-5.6875 -3.234375,-5.6875 -1.703125,0 -3.34375,1.484375 -3.34375,3.796875 0,2.140625 1.390625,3.71875 3.15625,3.71875 1.4375,0 2.078125,-1.34375 2.25,-1.90625 z M 3.84375,-4.125 C 3.375,-4.125 2.71875,-4.21875 2.1875,-5.25 1.828125,-5.921875 1.828125,-6.71875 1.828125,-7.5625 c 0,-1.015625 0,-1.71875 0.484375,-2.46875 C 2.546875,-10.40625 3,-10.984375 4,-10.984375 c 2.03125,0 2.03125,3.109375 2.03125,3.796875 0,1.234375 -0.5625,3.0625 -2.1875,3.0625 z m 0,0"
             id="path6392"
             style="fill:#f8765c;fill-opacity:1" />
        </g>
      </g>
    </g>
    <circle
       style="fill:#000000;fill-opacity:1;stroke:#000000;stroke-width:1.33333;stroke-linecap:butt;stroke-linejoin:round;stroke-dasharray:none;stroke-opacity:1"
       id="path7042-1-6"
       cx="280.513"
       cy="205.44333"
       r="5.789948"
       transform="matrix(0.75,0,0,0.75,99.426558,-1.294488)" />
    <circle
       style="fill:#000000;fill-opacity:1;stroke:#000000;stroke-width:1.33333;stroke-linecap:butt;stroke-linejoin:round;stroke-dasharray:none;stroke-opacity:1"
       id="path7042-1-3"
       cx="280.513"
       cy="205.44333"
       r="5.789948"
       transform="matrix(0.75,0,0,0.75,140.08531,-1.294488)" />
    <circle
       style="fill:#000000;fill-opacity:1;stroke:#000000;stroke-width:1.33333;stroke-linecap:butt;stroke-linejoin:round;stroke-dasharray:none;stroke-opacity:1"
       id="path7042-1-1"
       cx="280.513"
       cy="205.44333"
       r="5.789948"
       transform="matrix(0.75,0,0,0.75,171.42644,-1.4003702)" />
    <circle
       style="fill:#ffffff;fill-opacity:1;stroke:#000000;stroke-width:1.33333;stroke-linecap:butt;stroke-linejoin:round;stroke-dasharray:none;stroke-opacity:1"
       id="path7042-1-11"
       cx="280.513"
       cy="205.44333"
       r="5.789948"
       transform="matrix(0.75,0,0,0.75,-95.290808,-1.1886058)" />
    <circle
       style="fill:#ffffff;fill-opacity:1;stroke:#000000;stroke-width:1.33333;stroke-linecap:butt;stroke-linejoin:round;stroke-dasharray:none;stroke-opacity:1"
       id="path7042-1-9"
       cx="280.513"
       cy="205.44333"
       r="5.789948"
       transform="matrix(0.75,0,0,0.75,-135.52604,-1.4003702)" />
    <circle
       style="fill:#ffffff;fill-opacity:1;stroke:#000000;stroke-width:1.33333;stroke-linecap:butt;stroke-linejoin:round;stroke-dasharray:none;stroke-opacity:1"
       id="path7042-1-8"
       cx="280.513"
       cy="205.44333"
       r="5.789948"
       transform="matrix(0.75,0,0,0.75,-167.07894,-1.5062524)" />
    <text
       xml:space="preserve"
       style="font-size:21.3333px;font-family:'CMU Serif';-inkscape-font-specification:'CMU Serif';opacity:0.8;fill:#000000;stroke-width:1.33333;stroke-linecap:butt;stroke-linejoin:round"
       x="98.828423"
       y="86.050606"
       id="text4525"
       transform="matrix(0.75,0,0,0.75,-32.205695,-1.9838146)"><tspan
         sodipodi:role="line"
         id="tspan4523"
         x="98.828423"
         y="86.050606"
         style="font-size:21.3333px">(a)</tspan></text>
  </g>
  <g
     inkscape:groupmode="layer"
     id="layer2"
     inkscape:label="Layer 2">
    <g
       id="g2665">
      <circle
         style="fill:#ffffff;fill-opacity:1;stroke:#000000;stroke-width:1.33333;stroke-linecap:butt;stroke-linejoin:round;stroke-dasharray:none;stroke-opacity:1"
         id="path7042-1"
         cx="280.513"
         cy="205.44333"
         r="5.789948"
         transform="matrix(0.75,0,0,0.75,2.4292832,-1.2727903)" />
      <circle
         style="fill:#000000;fill-opacity:1;stroke:#000000;stroke-width:1.33333;stroke-linejoin:round;stroke-dasharray:none;stroke-opacity:1"
         id="path7042"
         cx="280.513"
         cy="205.44333"
         r="5.789948"
         transform="matrix(0.75,0,0,0.75,2.4105657,-1.2727903)"
         clip-path="url(#clipPath7278)" />
    </g>
  </g>
</svg>
