<?xml version="1.0" encoding="UTF-8" standalone="no"?>
<svg
   width="460.8pt"
   height="345.6pt"
   viewBox="0 0 460.8 345.6"
   version="1.1"
   id="svg487"
   sodipodi:docname="natural_continuation_she.svg"
   inkscape:version="1.2.2 (732a01da63, 2022-12-09)"
   inkscape:export-filename="natural_continuation_she.png"
   inkscape:export-xdpi="300"
   inkscape:export-ydpi="300"
   xmlns:inkscape="http://www.inkscape.org/namespaces/inkscape"
   xmlns:sodipodi="http://sodipodi.sourceforge.net/DTD/sodipodi-0.dtd"
   xmlns="http://www.w3.org/2000/svg"
   xmlns:svg="http://www.w3.org/2000/svg"
   xmlns:rdf="http://www.w3.org/1999/02/22-rdf-syntax-ns#"
   xmlns:cc="http://creativecommons.org/ns#"
   xmlns:dc="http://purl.org/dc/elements/1.1/">
  <sodipodi:namedview
     id="namedview489"
     pagecolor="#ffffff"
     bordercolor="#000000"
     borderopacity="0.25"
     inkscape:showpageshadow="2"
     inkscape:pageopacity="0.0"
     inkscape:pagecheckerboard="0"
     inkscape:deskcolor="#d1d1d1"
     inkscape:document-units="pt"
     showgrid="false"
     inkscape:zoom="1.7708359"
     inkscape:cx="317.08189"
     inkscape:cy="146.25861"
     inkscape:window-width="2560"
     inkscape:window-height="1334"
     inkscape:window-x="-11"
     inkscape:window-y="-11"
     inkscape:window-maximized="1"
     inkscape:current-layer="layer4" />
  <metadata
     id="metadata2">
    <rdf:RDF>
      <cc:Work>
        <dc:type
           rdf:resource="http://purl.org/dc/dcmitype/StillImage" />
        <dc:date />
        <dc:format />
        <dc:creator>
          <cc:Agent>
            <dc:title />
          </cc:Agent>
        </dc:creator>
      </cc:Work>
    </rdf:RDF>
  </metadata>
  <defs
     id="defs6">
    <inkscape:path-effect
       effect="bspline"
       id="path-effect1892"
       is_visible="true"
       lpeversion="1"
       weight="33.333333"
       steps="2"
       helper_size="0"
       apply_no_weight="true"
       apply_with_weight="true"
       only_selected="false" />
    <style
       type="text/css"
       id="style4">*{stroke-linejoin: round; stroke-linecap: butt}</style>
    <defs
       id="defs15">
      <path
         id="m524a34e3cf"
         d="M 0 0  L 0 3.5  "
         style="stroke: #000000; stroke-width: 0.8" />
    </defs>
    <defs
       id="defs26">
      <path
         id="DejaVuSans-2212"
         d="M 678 2272  L 4684 2272  L 4684 1741  L 678 1741  L 678 2272  z "
         transform="scale(0.015625)" />
      <path
         id="DejaVuSans-30"
         d="M 2034 4250  Q 1547 4250 1301 3770  Q 1056 3291 1056 2328  Q 1056 1369 1301 889  Q 1547 409 2034 409  Q 2525 409 2770 889  Q 3016 1369 3016 2328  Q 3016 3291 2770 3770  Q 2525 4250 2034 4250  z M 2034 4750  Q 2819 4750 3233 4129  Q 3647 3509 3647 2328  Q 3647 1150 3233 529  Q 2819 -91 2034 -91  Q 1250 -91 836 529  Q 422 1150 422 2328  Q 422 3509 836 4129  Q 1250 4750 2034 4750  z "
         transform="scale(0.015625)" />
      <path
         id="DejaVuSans-2e"
         d="M 684 794  L 1344 794  L 1344 0  L 684 0  L 684 794  z "
         transform="scale(0.015625)" />
      <path
         id="DejaVuSans-32"
         d="M 1228 531  L 3431 531  L 3431 0  L 469 0  L 469 531  Q 828 903 1448 1529  Q 2069 2156 2228 2338  Q 2531 2678 2651 2914  Q 2772 3150 2772 3378  Q 2772 3750 2511 3984  Q 2250 4219 1831 4219  Q 1534 4219 1204 4116  Q 875 4013 500 3803  L 500 4441  Q 881 4594 1212 4672  Q 1544 4750 1819 4750  Q 2544 4750 2975 4387  Q 3406 4025 3406 3419  Q 3406 3131 3298 2873  Q 3191 2616 2906 2266  Q 2828 2175 2409 1742  Q 1991 1309 1228 531  z "
         transform="scale(0.015625)" />
    </defs>
    <defs
       id="defs48">
      <path
         id="DejaVuSans-31"
         d="M 794 531  L 1825 531  L 1825 4091  L 703 3866  L 703 4441  L 1819 4666  L 2450 4666  L 2450 531  L 3481 531  L 3481 0  L 794 0  L 794 531  z "
         transform="scale(0.015625)" />
    </defs>
    <defs
       id="defs117">
      <path
         id="m1d0c13dbaf"
         d="M 0 0  L -3.5 0  "
         style="stroke: #000000; stroke-width: 0.8" />
    </defs>
    <defs
       id="defs125">
      <path
         id="DejaVuSans-34"
         d="M 2419 4116  L 825 1625  L 2419 1625  L 2419 4116  z M 2253 4666  L 3047 4666  L 3047 1625  L 3713 1625  L 3713 1100  L 3047 1100  L 3047 0  L 2419 0  L 2419 1100  L 313 1100  L 313 1709  L 2253 4666  z "
         transform="scale(0.015625)" />
    </defs>
    <defs
       id="defs145">
      <path
         id="DejaVuSans-33"
         d="M 2597 2516  Q 3050 2419 3304 2112  Q 3559 1806 3559 1356  Q 3559 666 3084 287  Q 2609 -91 1734 -91  Q 1441 -91 1130 -33  Q 819 25 488 141  L 488 750  Q 750 597 1062 519  Q 1375 441 1716 441  Q 2309 441 2620 675  Q 2931 909 2931 1356  Q 2931 1769 2642 2001  Q 2353 2234 1838 2234  L 1294 2234  L 1294 2753  L 1863 2753  Q 2328 2753 2575 2939  Q 2822 3125 2822 3475  Q 2822 3834 2567 4026  Q 2313 4219 1838 4219  Q 1578 4219 1281 4162  Q 984 4106 628 3988  L 628 4550  Q 988 4650 1302 4700  Q 1616 4750 1894 4750  Q 2613 4750 3031 4423  Q 3450 4097 3450 3541  Q 3450 3153 3228 2886  Q 3006 2619 2597 2516  z "
         transform="scale(0.015625)" />
    </defs>
    <defs
       id="defs273">
      <path
         id="m6fd6e78d7c"
         d="M 3 0  L -3 -3  L -3 3  z "
         style="stroke: #ff7f0e; stroke-linejoin: miter" />
    </defs>
    <defs
       id="defs301">
      <path
         id="m37f614975e"
         d="M -3 -0  L 3 3  L 3 -3  z "
         style="stroke: #2ca02c; stroke-linejoin: miter" />
    </defs>
    <defs
       id="defs351">
      <path
         id="DejaVuSans-65"
         d="M 3597 1894  L 3597 1613  L 953 1613  Q 991 1019 1311 708  Q 1631 397 2203 397  Q 2534 397 2845 478  Q 3156 559 3463 722  L 3463 178  Q 3153 47 2828 -22  Q 2503 -91 2169 -91  Q 1331 -91 842 396  Q 353 884 353 1716  Q 353 2575 817 3079  Q 1281 3584 2069 3584  Q 2775 3584 3186 3129  Q 3597 2675 3597 1894  z M 3022 2063  Q 3016 2534 2758 2815  Q 2500 3097 2075 3097  Q 1594 3097 1305 2825  Q 1016 2553 972 2059  L 3022 2063  z "
         transform="scale(0.015625)" />
      <path
         id="DejaVuSans-78"
         d="M 3513 3500  L 2247 1797  L 3578 0  L 2900 0  L 1881 1375  L 863 0  L 184 0  L 1544 1831  L 300 3500  L 978 3500  L 1906 2253  L 2834 3500  L 3513 3500  z "
         transform="scale(0.015625)" />
      <path
         id="DejaVuSans-61"
         d="M 2194 1759  Q 1497 1759 1228 1600  Q 959 1441 959 1056  Q 959 750 1161 570  Q 1363 391 1709 391  Q 2188 391 2477 730  Q 2766 1069 2766 1631  L 2766 1759  L 2194 1759  z M 3341 1997  L 3341 0  L 2766 0  L 2766 531  Q 2569 213 2275 61  Q 1981 -91 1556 -91  Q 1019 -91 701 211  Q 384 513 384 1019  Q 384 1609 779 1909  Q 1175 2209 1959 2209  L 2766 2209  L 2766 2266  Q 2766 2663 2505 2880  Q 2244 3097 1772 3097  Q 1472 3097 1187 3025  Q 903 2953 641 2809  L 641 3341  Q 956 3463 1253 3523  Q 1550 3584 1831 3584  Q 2591 3584 2966 3190  Q 3341 2797 3341 1997  z "
         transform="scale(0.015625)" />
      <path
         id="DejaVuSans-63"
         d="M 3122 3366  L 3122 2828  Q 2878 2963 2633 3030  Q 2388 3097 2138 3097  Q 1578 3097 1268 2742  Q 959 2388 959 1747  Q 959 1106 1268 751  Q 1578 397 2138 397  Q 2388 397 2633 464  Q 2878 531 3122 666  L 3122 134  Q 2881 22 2623 -34  Q 2366 -91 2075 -91  Q 1284 -91 818 406  Q 353 903 353 1747  Q 353 2603 823 3093  Q 1294 3584 2113 3584  Q 2378 3584 2631 3529  Q 2884 3475 3122 3366  z "
         transform="scale(0.015625)" />
      <path
         id="DejaVuSans-74"
         d="M 1172 4494  L 1172 3500  L 2356 3500  L 2356 3053  L 1172 3053  L 1172 1153  Q 1172 725 1289 603  Q 1406 481 1766 481  L 2356 481  L 2356 0  L 1766 0  Q 1100 0 847 248  Q 594 497 594 1153  L 594 3053  L 172 3053  L 172 3500  L 594 3500  L 594 4494  L 1172 4494  z "
         transform="scale(0.015625)" />
    </defs>
    <defs
       id="defs380">
      <path
         id="DejaVuSans-6f"
         d="M 1959 3097  Q 1497 3097 1228 2736  Q 959 2375 959 1747  Q 959 1119 1226 758  Q 1494 397 1959 397  Q 2419 397 2687 759  Q 2956 1122 2956 1747  Q 2956 2369 2687 2733  Q 2419 3097 1959 3097  z M 1959 3584  Q 2709 3584 3137 3096  Q 3566 2609 3566 1747  Q 3566 888 3137 398  Q 2709 -91 1959 -91  Q 1206 -91 779 398  Q 353 888 353 1747  Q 353 2609 779 3096  Q 1206 3584 1959 3584  z "
         transform="scale(0.015625)" />
      <path
         id="DejaVuSans-6e"
         d="M 3513 2113  L 3513 0  L 2938 0  L 2938 2094  Q 2938 2591 2744 2837  Q 2550 3084 2163 3084  Q 1697 3084 1428 2787  Q 1159 2491 1159 1978  L 1159 0  L 581 0  L 581 3500  L 1159 3500  L 1159 2956  Q 1366 3272 1645 3428  Q 1925 3584 2291 3584  Q 2894 3584 3203 3211  Q 3513 2838 3513 2113  z "
         transform="scale(0.015625)" />
      <path
         id="DejaVuSans-69"
         d="M 603 3500  L 1178 3500  L 1178 0  L 603 0  L 603 3500  z M 603 4863  L 1178 4863  L 1178 4134  L 603 4134  L 603 4863  z "
         transform="scale(0.015625)" />
      <path
         id="DejaVuSans-75"
         d="M 544 1381  L 544 3500  L 1119 3500  L 1119 1403  Q 1119 906 1312 657  Q 1506 409 1894 409  Q 2359 409 2629 706  Q 2900 1003 2900 1516  L 2900 3500  L 3475 3500  L 3475 0  L 2900 0  L 2900 538  Q 2691 219 2414 64  Q 2138 -91 1772 -91  Q 1169 -91 856 284  Q 544 659 544 1381  z M 1991 3584  L 1991 3584  z "
         transform="scale(0.015625)" />
      <path
         id="DejaVuSans-20"
         transform="scale(0.015625)" />
      <path
         id="DejaVuSans-66"
         d="M 2375 4863  L 2375 4384  L 1825 4384  Q 1516 4384 1395 4259  Q 1275 4134 1275 3809  L 1275 3500  L 2222 3500  L 2222 3053  L 1275 3053  L 1275 0  L 697 0  L 697 3053  L 147 3053  L 147 3500  L 697 3500  L 697 3744  Q 697 4328 969 4595  Q 1241 4863 1831 4863  L 2375 4863  z "
         transform="scale(0.015625)" />
      <path
         id="DejaVuSans-72"
         d="M 2631 2963  Q 2534 3019 2420 3045  Q 2306 3072 2169 3072  Q 1681 3072 1420 2755  Q 1159 2438 1159 1844  L 1159 0  L 581 0  L 581 3500  L 1159 3500  L 1159 2956  Q 1341 3275 1631 3429  Q 1922 3584 2338 3584  Q 2397 3584 2469 3576  Q 2541 3569 2628 3553  L 2631 2963  z "
         transform="scale(0.015625)" />
      <path
         id="DejaVuSans-77"
         d="M 269 3500  L 844 3500  L 1563 769  L 2278 3500  L 2956 3500  L 3675 769  L 4391 3500  L 4966 3500  L 4050 0  L 3372 0  L 2619 2869  L 1863 0  L 1184 0  L 269 3500  z "
         transform="scale(0.015625)" />
      <path
         id="DejaVuSans-64"
         d="M 2906 2969  L 2906 4863  L 3481 4863  L 3481 0  L 2906 0  L 2906 525  Q 2725 213 2448 61  Q 2172 -91 1784 -91  Q 1150 -91 751 415  Q 353 922 353 1747  Q 353 2572 751 3078  Q 1150 3584 1784 3584  Q 2172 3584 2448 3432  Q 2725 3281 2906 2969  z M 947 1747  Q 947 1113 1208 752  Q 1469 391 1925 391  Q 2381 391 2643 752  Q 2906 1113 2906 1747  Q 2906 2381 2643 2742  Q 2381 3103 1925 3103  Q 1469 3103 1208 2742  Q 947 2381 947 1747  z "
         transform="scale(0.015625)" />
    </defs>
    <defs
       id="defs432">
      <path
         id="DejaVuSans-62"
         d="M 3116 1747  Q 3116 2381 2855 2742  Q 2594 3103 2138 3103  Q 1681 3103 1420 2742  Q 1159 2381 1159 1747  Q 1159 1113 1420 752  Q 1681 391 2138 391  Q 2594 391 2855 752  Q 3116 1113 3116 1747  z M 1159 2969  Q 1341 3281 1617 3432  Q 1894 3584 2278 3584  Q 2916 3584 3314 3078  Q 3713 2572 3713 1747  Q 3713 922 3314 415  Q 2916 -91 2278 -91  Q 1894 -91 1617 61  Q 1341 213 1159 525  L 1159 0  L 581 0  L 581 4863  L 1159 4863  L 1159 2969  z "
         transform="scale(0.015625)" />
      <path
         id="DejaVuSans-6b"
         d="M 581 4863  L 1159 4863  L 1159 1991  L 2875 3500  L 3609 3500  L 1753 1863  L 3688 0  L 2938 0  L 1159 1709  L 1159 0  L 581 0  L 581 4863  z "
         transform="scale(0.015625)" />
    </defs>
    <clipPath
       id="clipPath2091">
      <rect
         x="57.6"
         y="41.472"
         width="357.12"
         height="266.112"
         id="rect6056"
         transform="translate(-100.887, -292.192)" />
    </clipPath>
    <clipPath
       id="clipPath8170">
      <rect
         x="57.6"
         y="41.472"
         width="357.12"
         height="266.112"
         id="rect209"
         transform="translate(-127.942, -288.641)" />
    </clipPath>
    <clipPath
       id="clipPath179">
      <rect
         x="57.6"
         y="41.472"
         width="357.12"
         height="266.112"
         id="rect1465"
         transform="translate(-154.996, -114.048)" />
    </clipPath>
    <clipPath
       id="clipPath7188">
      <rect
         x="57.6"
         y="41.472"
         width="357.12"
         height="266.112"
         id="rect1603"
         transform="translate(-182.051, -94.6937)" />
    </clipPath>
    <clipPath
       id="clipPath7046">
      <rect
         x="57.6"
         y="41.472"
         width="357.12"
         height="266.112"
         id="rect6782"
         transform="translate(-209.105, -85.6455)" />
    </clipPath>
    <clipPath
       id="clipPath5447">
      <rect
         x="57.6"
         y="41.472"
         width="357.12"
         height="266.112"
         id="rect2206"
         transform="translate(-236.16, -78.9007)" />
    </clipPath>
    <clipPath
       id="clipPath9755">
      <rect
         x="57.6"
         y="41.472"
         width="357.12"
         height="266.112"
         id="rect7978"
         transform="translate(-263.215, -73.3461)" />
    </clipPath>
    <clipPath
       id="clipPath5166">
      <rect
         x="57.6"
         y="41.472"
         width="357.12"
         height="266.112"
         id="rect2232"
         transform="translate(-290.269, -68.5469)" />
    </clipPath>
    <clipPath
       id="clipPath6485">
      <rect
         x="57.6"
         y="41.472"
         width="357.12"
         height="266.112"
         id="rect3949"
         transform="translate(-317.324, -64.2805)" />
    </clipPath>
    <clipPath
       id="clipPath5758">
      <rect
         x="57.6"
         y="41.472"
         width="357.12"
         height="266.112"
         id="rect3213"
         transform="translate(-344.378, -60.4146)" />
    </clipPath>
    <clipPath
       id="clipPath6309">
      <rect
         x="57.6"
         y="41.472"
         width="357.12"
         height="266.112"
         id="rect588"
         transform="translate(-371.433, -56.8635)" />
    </clipPath>
    <clipPath
       id="clipPath2986">
      <rect
         x="57.6"
         y="41.472"
         width="357.12"
         height="266.112"
         id="rect9679"
         transform="translate(-371.433, -56.8635)" />
    </clipPath>
    <clipPath
       id="clipPath8755">
      <rect
         x="57.6"
         y="41.472"
         width="357.12"
         height="266.112"
         id="rect3064"
         transform="translate(-344.378, -60.4146)" />
    </clipPath>
    <clipPath
       id="clipPath8585">
      <rect
         x="57.6"
         y="41.472"
         width="357.12"
         height="266.112"
         id="rect3104"
         transform="translate(-317.324, -235.008)" />
    </clipPath>
    <clipPath
       id="clipPath9392">
      <rect
         x="57.6"
         y="41.472"
         width="357.12"
         height="266.112"
         id="rect7438"
         transform="translate(-290.269, -254.362)" />
    </clipPath>
    <clipPath
       id="clipPath4162">
      <rect
         x="57.6"
         y="41.472"
         width="357.12"
         height="266.112"
         id="rect2524"
         transform="translate(-263.215, -263.41)" />
    </clipPath>
    <clipPath
       id="clipPath85">
      <rect
         x="57.6"
         y="41.472"
         width="357.12"
         height="266.112"
         id="rect8787"
         transform="translate(-236.16, -270.155)" />
    </clipPath>
    <clipPath
       id="clipPath380">
      <rect
         x="57.6"
         y="41.472"
         width="357.12"
         height="266.112"
         id="rect8194"
         transform="translate(-209.105, -275.71)" />
    </clipPath>
    <clipPath
       id="clipPath9622">
      <rect
         x="57.6"
         y="41.472"
         width="357.12"
         height="266.112"
         id="rect5703"
         transform="translate(-182.051, -280.509)" />
    </clipPath>
    <clipPath
       id="clipPath1715">
      <rect
         x="57.6"
         y="41.472"
         width="357.12"
         height="266.112"
         id="rect8677"
         transform="translate(-154.996, -284.776)" />
    </clipPath>
    <clipPath
       id="clipPath9737">
      <rect
         x="57.6"
         y="41.472"
         width="357.12"
         height="266.112"
         id="rect7040"
         transform="translate(-127.942, -288.641)" />
    </clipPath>
    <clipPath
       id="clipPath5089">
      <rect
         x="57.6"
         y="41.472"
         width="357.12"
         height="266.112"
         id="rect3780"
         transform="translate(-100.887, -292.192)" />
    </clipPath>
    <clipPath
       id="clipPath3551">
      <path
         clip-rule="nonzero"
         d="M 0,0 H 8.933594 V 10.761719 H 0 Z m 0,0"
         id="path8118" />
    </clipPath>
    <clipPath
       id="clipPath2098">
      <path
         clip-rule="nonzero"
         d="M 0,0 H 9 V 7.410156 H 0 Z m 0,0"
         id="path5189" />
    </clipPath>
    <clipPath
       id="clipPath9002">
      <path
         clip-rule="nonzero"
         d="M 0,0 H 11 V 8.894531 H 0 Z m 0,0"
         id="path6008" />
    </clipPath>
    <clipPath
       id="clipPath2506">
      <path
         clip-rule="nonzero"
         d="M 0,0 H 10 V 12.914063 H 0 Z m 0,0"
         id="path2513" />
    </clipPath>
    <clipPath
       id="clipPath6249">
      <path
         clip-rule="nonzero"
         d="M 0,0 H 7.996094 V 6.175781 H 0 Z m 0,0"
         id="path752" />
    </clipPath>
  </defs>
  <defs
     id="defs485">
    <clipPath
       id="p57a524f819">
      <rect
         x="57.6"
         y="41.472"
         width="357.12"
         height="266.112"
         id="rect482" />
    </clipPath>
  </defs>
  <g
     inkscape:groupmode="layer"
     id="layer4"
     inkscape:label="bg">
    <rect
       style="opacity:1;fill:#ffffff;fill-opacity:1;stroke:none;stroke-width:1.45733;stroke-dasharray:8, 8;stroke-dashoffset:0"
       id="rect6174"
       width="569.22272"
       height="428.61111"
       x="19.764677"
       y="15.247037"
       transform="matrix(0.75967261,0,0,0.75494071,4.0441116,-4.310619)" />
  </g>
  <g
     inkscape:groupmode="layer"
     id="layer5"
     inkscape:label="plot">
    <path
       d="M 0,0 V 3.5"
       style="opacity:1;stroke:#000000;stroke-width:0.8;stroke-linecap:butt;stroke-linejoin:round"
       id="use17"
       transform="translate(112.56672,287.81832)"
       unlinked_clone="True" />
    <path
       d="M 0,0 V 3.5"
       style="opacity:1;stroke:#000000;stroke-width:0.8;stroke-linecap:butt;stroke-linejoin:round"
       id="use42"
       transform="translate(180.20372,287.81832)"
       unlinked_clone="True" />
    <path
       d="M 0,0 V 3.5"
       style="opacity:1;stroke:#000000;stroke-width:0.8;stroke-linecap:butt;stroke-linejoin:round"
       id="use64"
       transform="translate(247.83972,287.81832)"
       unlinked_clone="True" />
    <path
       d="M 0,0 V 3.5"
       style="opacity:1;stroke:#000000;stroke-width:0.8;stroke-linecap:butt;stroke-linejoin:round"
       id="use81"
       transform="translate(315.47572,287.81832)"
       unlinked_clone="True" />
    <path
       d="M 0,0 V 3.5"
       style="opacity:1;stroke:#000000;stroke-width:0.8;stroke-linecap:butt;stroke-linejoin:round"
       id="use98"
       transform="translate(383.11272,287.81832)"
       unlinked_clone="True" />
    <path
       d="M 0,0 H -3.5"
       style="opacity:1;stroke:#000000;stroke-width:0.8;stroke-linecap:butt;stroke-linejoin:round"
       id="use119"
       transform="translate(69.279723,275.72232)"
       unlinked_clone="True" />
    <path
       d="M 0,0 H -3.5"
       style="opacity:1;stroke:#000000;stroke-width:0.8;stroke-linecap:butt;stroke-linejoin:round"
       id="use139"
       transform="translate(69.279723,245.48232)"
       unlinked_clone="True" />
    <path
       d="M 0,0 H -3.5"
       style="opacity:1;stroke:#000000;stroke-width:0.8;stroke-linecap:butt;stroke-linejoin:round"
       id="use159"
       transform="translate(69.279723,215.24232)"
       unlinked_clone="True" />
    <path
       d="M 0,0 H -3.5"
       style="opacity:1;stroke:#000000;stroke-width:0.8;stroke-linecap:butt;stroke-linejoin:round"
       id="use176"
       transform="translate(69.279723,185.00232)"
       unlinked_clone="True" />
    <path
       d="M 0,0 H -3.5"
       style="opacity:1;stroke:#000000;stroke-width:0.8;stroke-linecap:butt;stroke-linejoin:round"
       id="use193"
       transform="translate(69.279723,154.76232)"
       unlinked_clone="True" />
    <path
       d="M 0,0 H -3.5"
       style="opacity:1;stroke:#000000;stroke-width:0.8;stroke-linecap:butt;stroke-linejoin:round"
       id="use208"
       transform="translate(69.279723,124.52232)"
       unlinked_clone="True" />
    <path
       d="M 0,0 H -3.5"
       style="opacity:1;stroke:#000000;stroke-width:0.8;stroke-linecap:butt;stroke-linejoin:round"
       id="use223"
       transform="translate(69.279723,94.282313)"
       unlinked_clone="True" />
    <path
       d="M 0,0 H -3.5"
       style="opacity:1;stroke:#000000;stroke-width:0.8;stroke-linecap:butt;stroke-linejoin:round"
       id="use238"
       transform="translate(69.279723,64.042315)"
       unlinked_clone="True" />
    <path
       d="M 0,0 H -3.5"
       style="opacity:1;stroke:#000000;stroke-width:0.8;stroke-linecap:butt;stroke-linejoin:round"
       id="use253"
       transform="translate(69.279723,33.802315)"
       unlinked_clone="True" />
    <path
       d="m 73.832727,295.488 27.777423,-3.38688 24.0199,-3.14496 22.35897,-3.14496 20.7437,-3.14496 17.75384,-2.90304 16.4523,-2.90304 15.18669,-2.90304 13.95697,-2.90304 11.74427,-2.66112 10.7688,-2.66112 9.82097,-2.66112 8.12894,-2.4192 7.38924,-2.4192 6.67032,-2.4192 5.4058,-2.17728 4.85545,-2.17728 4.32025,-2.17728 3.8002,-2.17728 2.95362,-1.93536 2.56532,-1.93536 2.18767,-1.93536 1.82064,-1.93536 1.30035,-1.69344 1.03463,-1.69344 0.77602,-1.69344 0.52455,-1.69344 0.2802,-1.69344 0.043,-1.69344 -0.18712,-1.69344 -0.41008,-1.69344 -0.62593,-1.69344 -0.97049,-1.93536 -1.23246,-1.93536 -1.48379,-1.93536 -1.95644,-2.17728 -2.24591,-2.17728 -2.81655,-2.4192 -3.46458,-2.66112 -4.18574,-2.90304 -4.57471,-2.90304 -5.78087,-3.38688 -6.66227,-3.6288 -8.04981,-4.11264 -9.50373,-4.59648 -12.55508,-5.80608 -22.63375,-10.16064 -17.52654,-7.98336 -11.1522,-5.32224 -8.62586,-4.35456 -7.18516,-3.87072 -5.84486,-3.38688 -5.00559,-3.14496 -4.21954,-2.90304 -3.49817,-2.66112 -2.84927,-2.4192 -2.51267,-2.4192 -1.95644,-2.17728 -1.65181,-2.17728 -1.2003,-1.93536 -0.937,-1.93536 -0.59552,-1.69344 -0.37867,-1.69344 -0.15468,-1.69344 0.0764,-1.69344 0.31467,-1.69344 0.56004,-1.69344 0.81253,-1.69344 1.07215,-1.69344 1.33889,-1.69344 1.61277,-1.69344 1.89377,-1.69344 2.51754,-1.93536 2.90449,-1.93536 3.30211,-1.93536 3.71035,-1.93536 4.67537,-2.17728 5.22066,-2.17728 5.78111,-2.17728 7.09918,-2.4192 7.83056,-2.4192 8.58273,-2.4192 9.35566,-2.4192 11.20877,-2.66112 12.19681,-2.66112 13.21253,-2.66112 15.60457,-2.90304 16.88216,-2.90304 18.19566,-2.90304 19.54505,-2.90304 22.73822,-3.14496 24.40966,-3.14496 21.99368,-2.66112 v 0"
       clip-path="url(#p57a524f819)"
       style="opacity:1;fill:none;stroke:#1f77b4;stroke-width:1.5;stroke-linecap:square;stroke-linejoin:round;stroke-dasharray:6, 6;stroke-dashoffset:0"
       id="path269"
       sodipodi:nodetypes="cccccccccccccccccccccccccccccccccccccccccccccccccccccccccccccccccccccccccccccccccccccccccccccc"
       transform="translate(11.679723,-19.765685)" />
    <path
       d="m 73.832727,295.488 27.777423,-3.38688 24.0199,-3.14496 22.35897,-3.14496 20.7437,-3.14496 17.75384,-2.90304 16.4523,-2.90304 15.18669,-2.90304 13.95697,-2.90304 11.74427,-2.66112 10.7688,-2.66112 9.82097,-2.66112 8.12894,-2.4192 7.38924,-2.4192 6.67032,-2.4192 5.4058,-2.17728 4.85545,-2.17728 4.32025,-2.17728 3.8002,-2.17728 2.95362,-1.93536 2.56532,-1.93536 2.18767,-1.93536 1.82064,-1.93536 1.30035,-1.69344 1.03463,-1.69344 0.77602,-1.69344 0.52455,-1.69344 0.2802,-1.69344 m -164.59059,-111.2832 0.0764,-1.69344 0.31467,-1.69344 0.56004,-1.69344 0.81253,-1.69344 1.07215,-1.69344 1.33889,-1.69344 1.61277,-1.69344 1.89377,-1.69344 2.51754,-1.93536 2.90449,-1.93536 3.30211,-1.93536 3.71035,-1.93536 4.67537,-2.17728 5.22066,-2.17728 5.78111,-2.17728 7.09918,-2.4192 7.83056,-2.4192 8.58273,-2.4192 9.35566,-2.4192 11.20877,-2.66112 12.19681,-2.66112 13.21253,-2.66112 15.60457,-2.90304 16.88216,-2.90304 18.19566,-2.90304 19.54505,-2.90304 22.73822,-3.14496 24.40966,-3.14496 21.99368,-2.66112 v 0"
       clip-path="url(#p57a524f819)"
       style="opacity:1;fill:none;stroke:#1f77b4;stroke-width:1.5;stroke-linecap:square;stroke-linejoin:round"
       id="path1894"
       sodipodi:nodetypes="ccccccccccccccccccccccccccccccccccccccccccccccccccccccccccc"
       transform="translate(11.679723,-19.765685)" />
    <path
       d="M 3,0 -3,-3 V 3 Z"
       style="opacity:1;fill:#ff7f0e;stroke:#ff7f0e;stroke-linecap:butt;stroke-linejoin:miter"
       id="use275"
       transform="translate(112.56672,272.42632)"
       unlinked_clone="True"
       clip-path="url(#clipPath5089)" />
    <path
       d="M 3,0 -3,-3 V 3 Z"
       style="opacity:1;fill:#ff7f0e;stroke:#ff7f0e;stroke-linecap:butt;stroke-linejoin:miter"
       id="use277"
       transform="translate(139.62172,268.87532)"
       unlinked_clone="True"
       clip-path="url(#clipPath9737)" />
    <path
       d="M 3,0 -3,-3 V 3 Z"
       style="opacity:1;fill:#ff7f0e;stroke:#ff7f0e;stroke-linecap:butt;stroke-linejoin:miter"
       id="use279"
       transform="translate(166.67572,265.01032)"
       unlinked_clone="True"
       clip-path="url(#clipPath1715)" />
    <path
       d="M 3,0 -3,-3 V 3 Z"
       style="opacity:1;fill:#ff7f0e;stroke:#ff7f0e;stroke-linecap:butt;stroke-linejoin:miter"
       id="use281"
       transform="translate(193.73072,260.74332)"
       unlinked_clone="True"
       clip-path="url(#clipPath9622)" />
    <path
       d="M 3,0 -3,-3 V 3 Z"
       style="opacity:1;fill:#ff7f0e;stroke:#ff7f0e;stroke-linecap:butt;stroke-linejoin:miter"
       id="use283"
       transform="translate(220.78472,255.94432)"
       unlinked_clone="True"
       clip-path="url(#clipPath380)" />
    <path
       d="M 3,0 -3,-3 V 3 Z"
       style="opacity:1;fill:#ff7f0e;stroke:#ff7f0e;stroke-linecap:butt;stroke-linejoin:miter"
       id="use285"
       transform="translate(247.83972,250.38932)"
       unlinked_clone="True"
       clip-path="url(#clipPath85)" />
    <path
       d="M 3,0 -3,-3 V 3 Z"
       style="opacity:1;fill:#ff7f0e;stroke:#ff7f0e;stroke-linecap:butt;stroke-linejoin:miter"
       id="use287"
       transform="translate(274.89472,243.64432)"
       unlinked_clone="True"
       clip-path="url(#clipPath4162)" />
    <path
       d="M 3,0 -3,-3 V 3 Z"
       style="opacity:1;fill:#ff7f0e;stroke:#ff7f0e;stroke-linecap:butt;stroke-linejoin:miter"
       id="use289"
       transform="translate(301.94872,234.59632)"
       unlinked_clone="True"
       clip-path="url(#clipPath9392)" />
    <path
       d="M 3,0 -3,-3 V 3 Z"
       style="opacity:1;fill:#ff7f0e;stroke:#ff7f0e;stroke-linecap:butt;stroke-linejoin:miter"
       id="use291"
       transform="translate(329.00372,215.24232)"
       unlinked_clone="True"
       clip-path="url(#clipPath8585)" />
    <path
       d="M 3,0 -3,-3 V 3 Z"
       style="opacity:1;fill:#ff7f0e;stroke:#ff7f0e;stroke-linecap:butt;stroke-linejoin:miter"
       id="use293"
       transform="translate(356.05772,40.648915)"
       unlinked_clone="True"
       clip-path="url(#clipPath8755)" />
    <path
       d="M 3,0 -3,-3 V 3 Z"
       style="opacity:1;fill:#ff7f0e;stroke:#ff7f0e;stroke-linecap:butt;stroke-linejoin:miter"
       id="use295"
       transform="translate(383.11272,37.097815)"
       unlinked_clone="True"
       clip-path="url(#clipPath2986)" />
    <path
       d="M -3,0 3,3 V -3 Z"
       style="opacity:1;fill:#2ca02c;stroke:#2ca02c;stroke-linecap:butt;stroke-linejoin:miter"
       id="use303"
       transform="translate(383.11272,37.097815)"
       unlinked_clone="True"
       clip-path="url(#clipPath6309)" />
    <path
       d="M -3,0 3,3 V -3 Z"
       style="opacity:1;fill:#2ca02c;stroke:#2ca02c;stroke-linecap:butt;stroke-linejoin:miter"
       id="use305"
       transform="translate(356.05772,40.648915)"
       unlinked_clone="True"
       clip-path="url(#clipPath5758)" />
    <path
       d="M -3,0 3,3 V -3 Z"
       style="opacity:1;fill:#2ca02c;stroke:#2ca02c;stroke-linecap:butt;stroke-linejoin:miter"
       id="use307"
       transform="translate(329.00372,44.514815)"
       unlinked_clone="True"
       clip-path="url(#clipPath6485)" />
    <path
       d="M -3,0 3,3 V -3 Z"
       style="opacity:1;fill:#2ca02c;stroke:#2ca02c;stroke-linecap:butt;stroke-linejoin:miter"
       id="use309"
       transform="translate(301.94872,48.781215)"
       unlinked_clone="True"
       clip-path="url(#clipPath5166)" />
    <path
       d="M -3,0 3,3 V -3 Z"
       style="opacity:1;fill:#2ca02c;stroke:#2ca02c;stroke-linecap:butt;stroke-linejoin:miter"
       id="use311"
       transform="translate(274.89472,53.580415)"
       unlinked_clone="True"
       clip-path="url(#clipPath9755)" />
    <path
       d="M -3,0 3,3 V -3 Z"
       style="opacity:1;fill:#2ca02c;stroke:#2ca02c;stroke-linecap:butt;stroke-linejoin:miter"
       id="use313"
       transform="translate(247.83972,59.135015)"
       unlinked_clone="True"
       clip-path="url(#clipPath5447)" />
    <path
       d="M -3,0 3,3 V -3 Z"
       style="opacity:1;fill:#2ca02c;stroke:#2ca02c;stroke-linecap:butt;stroke-linejoin:miter"
       id="use315"
       transform="translate(220.78472,65.879815)"
       unlinked_clone="True"
       clip-path="url(#clipPath7046)" />
    <path
       d="M -3,0 3,3 V -3 Z"
       style="opacity:1;fill:#2ca02c;stroke:#2ca02c;stroke-linecap:butt;stroke-linejoin:miter"
       id="use317"
       transform="translate(193.73072,74.928015)"
       unlinked_clone="True"
       clip-path="url(#clipPath7188)" />
    <path
       d="M -3,0 3,3 V -3 Z"
       style="opacity:1;fill:#2ca02c;stroke:#2ca02c;stroke-linecap:butt;stroke-linejoin:miter"
       id="use319"
       transform="translate(166.67572,94.282313)"
       unlinked_clone="True"
       clip-path="url(#clipPath179)" />
    <path
       d="M -3,0 3,3 V -3 Z"
       style="opacity:1;fill:#2ca02c;stroke:#2ca02c;stroke-linecap:butt;stroke-linejoin:miter"
       id="use321"
       transform="translate(139.62172,268.87532)"
       unlinked_clone="True"
       clip-path="url(#clipPath8170)" />
    <path
       d="M -3,0 3,3 V -3 Z"
       style="opacity:1;fill:#2ca02c;stroke:#2ca02c;stroke-linecap:butt;stroke-linejoin:miter"
       id="use323"
       transform="translate(112.56672,272.42632)"
       unlinked_clone="True"
       clip-path="url(#clipPath2091)" />
    <path
       d="M 57.6,307.584 V 41.472"
       style="opacity:1;fill:none;stroke:#000000;stroke-width:0.8;stroke-linecap:square;stroke-linejoin:miter"
       id="path328"
       transform="translate(11.679723,-19.765685)" />
    <path
       d="M 414.72,307.584 V 41.472"
       style="opacity:1;fill:none;stroke:#000000;stroke-width:0.8;stroke-linecap:square;stroke-linejoin:miter"
       id="path331"
       transform="translate(11.679723,-19.765685)" />
    <path
       d="M 57.6,307.584 H 414.72"
       style="opacity:1;fill:none;stroke:#000000;stroke-width:0.8;stroke-linecap:square;stroke-linejoin:miter"
       id="path334"
       transform="translate(11.679723,-19.765685)" />
    <path
       d="M 57.6,41.472 H 414.72"
       style="opacity:1;fill:none;stroke:#000000;stroke-width:0.8;stroke-linecap:square;stroke-linejoin:miter"
       id="path337"
       transform="translate(11.679723,-19.765685)" />
    <path
       style="opacity:0.4;fill:#ff0000;stroke-width:1.45733"
       d="m 205.11889,159.64784 c 0.1083,0.77477 0.21645,1.54843 0.32444,2.32097"
       id="path1890"
       transform="matrix(0.75,0,0,0.75,11.679723,-19.765685)"
       inkscape:original-d="m 205.11889,159.64784 c 0.10915,0.77465 0.2173,1.54831 0.32444,2.32097"
       inkscape:path-effect="#path-effect1892" />
    <path
       d="m 64.6,93.506375 h 146.14531 q 2,0 2,-2 V 48.472 q 0,-2 -2,-2 H 64.6 q -2,0 -2,2 v 43.034375 q 0,2 2,2 z"
       style="opacity:0.8;fill:#ffffff;stroke:#cccccc;stroke-linecap:butt;stroke-linejoin:miter"
       id="path340"
       transform="matrix(1.14887,0,0,1.14887,2.4349009,-26.609533)" />
    <path
       d="m 66.6,54.570438 h 10 10"
       style="fill:none;stroke:#1f77b4;stroke-width:1.5;stroke-linecap:square;stroke-linejoin:round"
       id="path343"
       transform="translate(11.679723,-16.321664)" />
    <path
       d="M 3,0 -3,-3 V 3 Z"
       style="fill:#ff7f0e;stroke:#ff7f0e;stroke-linecap:butt;stroke-linejoin:miter"
       id="use366"
       transform="translate(88.279725,52.926936)"
       unlinked_clone="True" />
    <path
       d="M -3,0 3,3 V -3 Z"
       style="fill:#2ca02c;stroke:#2ca02c;stroke-linecap:butt;stroke-linejoin:miter"
       id="use425"
       transform="translate(88.279725,67.605036)"
       unlinked_clone="True" />
    <text
       xml:space="preserve"
       style="font-weight:500;font-size:18.6667px;font-family:'CMU Serif';-inkscape-font-specification:'CMU Serif Medium';fill:#000000;fill-opacity:1;stroke:none;stroke-width:1.45733;stroke-linecap:butt;stroke-linejoin:round;stroke-dasharray:8, 8;stroke-dashoffset:0"
       x="176.32915"
       y="74.964592"
       id="text2758-2-3"
       transform="matrix(0.75,0,0,0.75,-28.496877,16.010409)"><tspan
         sodipodi:role="line"
         id="tspan2756-4-0"
         x="176.32915"
         y="74.964592"
         style="font-size:18.6667px">continuation backward</tspan></text>
    <text
       xml:space="preserve"
       style="font-weight:500;font-size:18.6667px;font-family:'CMU Serif';-inkscape-font-specification:'CMU Serif Medium';fill:#000000;fill-opacity:1;stroke:none;stroke-width:1.45733;stroke-dasharray:8, 8;stroke-dashoffset:0"
       x="176.32915"
       y="74.964592"
       id="text2758"
       transform="matrix(0.75,0,0,0.75,-25.805224,-13.686517)"><tspan
         sodipodi:role="line"
         id="tspan2756"
         x="176.32915"
         y="74.964592"
         style="font-size:18.6667px">exact solution</tspan></text>
    <text
       xml:space="preserve"
       style="font-weight:500;font-size:18.6667px;font-family:'CMU Serif';-inkscape-font-specification:'CMU Serif Medium';fill:#000000;fill-opacity:1;stroke:none;stroke-width:1.45733;stroke-linecap:butt;stroke-linejoin:round;stroke-dasharray:8, 8;stroke-dashoffset:0"
       x="176.32915"
       y="74.964592"
       id="text2758-2"
       transform="matrix(0.75,0,0,0.75,-28.496877,1.3323086)"><tspan
         sodipodi:role="line"
         id="tspan2756-4"
         x="176.32915"
         y="74.964592"
         style="font-size:18.6667px">continuation forward</tspan></text>
    <text
       xml:space="preserve"
       style="font-weight:500;font-size:18.6667px;font-family:'CMU Serif';-inkscape-font-specification:'CMU Serif Medium';opacity:1;fill:#000000;fill-opacity:1;stroke:none;stroke-width:1.45733;stroke-dasharray:8, 8;stroke-dashoffset:0"
       x="309.46274"
       y="455.20972"
       id="text3189"
       transform="matrix(0.75,0,0,0.75,3.3025651,-37.088612)"><tspan
         sodipodi:role="line"
         id="tspan3187"
         x="309.46274"
         y="455.20972">0.00</tspan></text>
    <text
       xml:space="preserve"
       style="font-weight:500;font-size:18.6667px;font-family:'CMU Serif';-inkscape-font-specification:'CMU Serif Medium';opacity:1;fill:#000000;fill-opacity:1;stroke:none;stroke-width:1.45733;stroke-dasharray:8, 8;stroke-dashoffset:0"
       x="476.77228"
       y="451.21664"
       id="text3193"
       transform="matrix(0.75,0,0,0.75,13.170699,-34.093808)"><tspan
         sodipodi:role="line"
         id="tspan3191"
         x="476.77228"
         y="451.21664">0.02</tspan></text>
    <text
       xml:space="preserve"
       style="font-weight:500;font-size:18.6667px;font-family:'CMU Serif';-inkscape-font-specification:'CMU Serif Medium';opacity:1;fill:#000000;fill-opacity:1;stroke:none;stroke-width:1.45733;stroke-dasharray:8, 8;stroke-dashoffset:0"
       x="110.60797"
       y="448.8208"
       id="text3197"
       transform="matrix(0.75,0,0,0.75,15.125367,-32.296925)"><tspan
         sodipodi:role="line"
         id="tspan3195"
         x="110.60797"
         y="448.8208">-0.02</tspan></text>
    <text
       xml:space="preserve"
       style="font-weight:500;font-size:18.6667px;font-family:'CMU Serif';-inkscape-font-specification:'CMU Serif Medium';opacity:1;fill:#000000;fill-opacity:1;stroke:none;stroke-width:1.45733;stroke-dasharray:8, 8;stroke-dashoffset:0"
       x="5.1909881"
       y="400.10538"
       id="text3201"
       transform="matrix(0.75,0,0,0.75,35.683502,-19.765685)"><tspan
         sodipodi:role="line"
         id="tspan3199"
         x="5.1909881"
         y="400.10538">-0.4</tspan></text>
    <text
       xml:space="preserve"
       style="font-weight:500;font-size:18.6667px;font-family:'CMU Serif';-inkscape-font-specification:'CMU Serif Medium';opacity:1;fill:#000000;fill-opacity:1;stroke:none;stroke-width:1.45733;stroke-dasharray:8, 8;stroke-dashoffset:0"
       x="9.9826689"
       y="236.3896"
       id="text3205"
       transform="matrix(0.75,0,0,0.75,36.90225,-18.021578)"><tspan
         sodipodi:role="line"
         id="tspan3203"
         x="9.9826689"
         y="236.3896">0.0</tspan></text>
    <text
       xml:space="preserve"
       style="font-weight:500;font-size:18.6667px;font-family:'CMU Serif';-inkscape-font-specification:'CMU Serif Medium';opacity:1;fill:#000000;fill-opacity:1;stroke:none;stroke-width:1.45733;stroke-dasharray:8, 8;stroke-dashoffset:0"
       x="16.371576"
       y="75.069672"
       id="text3209"
       transform="matrix(0.75,0,0,0.75,31.953343,-19.765685)"><tspan
         sodipodi:role="line"
         id="tspan3207"
         x="16.371576"
         y="75.069672">0.4</tspan></text>
    <g
       inkscape:label=""
       transform="translate(224.161,241.98)"
       id="g5684">
      <g
         clip-path="url(#clipPath2506)"
         id="g17"
         transform="translate(18.403192,72.385473)">
        <g
           fill="#000000"
           fill-opacity="1"
           id="g15">
          <g
             id="use13"
             transform="translate(0,8.8959999)">
            <path
               d="M 9.8125,-5.71875 C 9.921875,-6.140625 9.984375,-6.375 9.984375,-6.9375 c 0,-1.25 -0.734375,-2.171875 -2.296875,-2.171875 -1.84375,0 -2.8125,1.296875 -3.1875,1.8125 -0.0625,-1.171875 -0.90625,-1.8125 -1.8125,-1.8125 -0.59375,0 -1.078125,0.296875 -1.46875,1.078125 -0.375,0.734375 -0.65625,2 -0.65625,2.078125 0,0.09375 0.078125,0.1875 0.21875,0.1875 0.171875,0 0.1875,-0.015625 0.3125,-0.5 0.3125,-1.21875 0.703125,-2.4375 1.53125,-2.4375 0.46875,0 0.640625,0.34375 0.640625,0.953125 0,0.453125 -0.203125,1.265625 -0.359375,1.90625 l -0.578125,2.234375 c -0.078125,0.390625 -0.296875,1.3125 -0.40625,1.6875 -0.140625,0.53125 -0.375,1.515625 -0.375,1.609375 0,0.296875 0.234375,0.515625 0.546875,0.515625 0.234375,0 0.53125,-0.125 0.6875,-0.4375 0.046875,-0.09375 0.234375,-0.8125 0.34375,-1.234375 L 3.578125,-3.328125 4.25,-6.046875 C 4.296875,-6.171875 4.8125,-7.203125 5.578125,-7.875 6.109375,-8.359375 6.8125,-8.703125 7.625,-8.703125 c 0.828125,0 1.109375,0.625 1.109375,1.453125 0,0.59375 -0.078125,0.921875 -0.1875,1.328125 l -2.390625,9.5 c -0.015625,0.09375 -0.0625,0.21875 -0.0625,0.34375 0,0.3125 0.25,0.515625 0.5625,0.515625 0.1875,0 0.609375,-0.078125 0.78125,-0.703125 z m 0,0"
               id="path23" />
          </g>
        </g>
      </g>
    </g>
    <g
       inkscape:label=""
       transform="matrix(1.4403037,0,0,1.4403037,22.778533,150.09714)"
       id="g822">
      <g
         clip-path="url(#clipPath6249)"
         id="g820"
         transform="translate(-0.390625,0.151125)">
        <g
           fill="#000000"
           fill-opacity="1"
           id="g818">
          <g
             id="g816"
             transform="translate(0,6.177)">
            <path
               d="m 4.890625,-0.828125 c 0.1875,0.796875 0.875,0.96875 1.21875,0.96875 0.453125,0 0.796875,-0.296875 1.03125,-0.78125 0.25,-0.515625 0.4375,-1.375 0.4375,-1.40625 0,-0.078125 -0.0625,-0.140625 -0.140625,-0.140625 -0.140625,0 -0.15625,0.078125 -0.203125,0.296875 -0.265625,0.984375 -0.515625,1.75 -1.09375,1.75 -0.4375,0 -0.4375,-0.46875 -0.4375,-0.65625 0,-0.34375 0.046875,-0.484375 0.1875,-1.078125 C 6,-2.265625 6.09375,-2.65625 6.1875,-3.0625 L 6.765625,-5.390625 C 6.875,-5.75 6.875,-5.78125 6.875,-5.828125 6.875,-6.03125 6.703125,-6.1875 6.484375,-6.1875 6.0625,-6.1875 5.96875,-5.828125 5.875,-5.46875 c -0.140625,0.5625 -0.90625,3.640625 -1.015625,4.15625 -0.015625,0 -0.578125,1.171875 -1.625,1.171875 -0.734375,0 -0.875,-0.640625 -0.875,-1.171875 0,-0.828125 0.390625,-1.96875 0.765625,-2.9375 0.171875,-0.453125 0.25,-0.640625 0.25,-0.921875 0,-0.625 -0.453125,-1.15625 -1.140625,-1.15625 -1.3125,0 -1.84375,2.078125 -1.84375,2.203125 0,0.046875 0.046875,0.125 0.15625,0.125 C 0.671875,-4 0.6875,-4.0625 0.75,-4.265625 1.09375,-5.5 1.65625,-6.03125 2.1875,-6.03125 c 0.15625,0 0.375,0 0.375,0.46875 0,0.375 -0.15625,0.78125 -0.375,1.328125 -0.625,1.703125 -0.703125,2.25 -0.703125,2.6875 0,1.453125 1.109375,1.6875 1.703125,1.6875 0.921875,0 1.421875,-0.625 1.703125,-0.96875 z m 0,0"
               id="path814" />
          </g>
        </g>
      </g>
    </g>
  </g>
</svg>
