<?xml version="1.0" encoding="UTF-8" standalone="no"?>
<svg
   width="460.8pt"
   height="345.6pt"
   viewBox="0 0 460.8 345.6"
   version="1.1"
   id="svg400"
   sodipodi:docname="palc_she.svg"
   inkscape:version="1.2.2 (732a01da63, 2022-12-09)"
   inkscape:export-filename="palc_she.png"
   inkscape:export-xdpi="300"
   inkscape:export-ydpi="300"
   xmlns:inkscape="http://www.inkscape.org/namespaces/inkscape"
   xmlns:sodipodi="http://sodipodi.sourceforge.net/DTD/sodipodi-0.dtd"
   xmlns="http://www.w3.org/2000/svg"
   xmlns:svg="http://www.w3.org/2000/svg"
   xmlns:rdf="http://www.w3.org/1999/02/22-rdf-syntax-ns#"
   xmlns:cc="http://creativecommons.org/ns#"
   xmlns:dc="http://purl.org/dc/elements/1.1/">
  <sodipodi:namedview
     id="namedview402"
     pagecolor="#ffffff"
     bordercolor="#000000"
     borderopacity="0.25"
     inkscape:showpageshadow="2"
     inkscape:pageopacity="0.0"
     inkscape:pagecheckerboard="0"
     inkscape:deskcolor="#d1d1d1"
     inkscape:document-units="pt"
     showgrid="false"
     inkscape:zoom="1.770836"
     inkscape:cx="369.59945"
     inkscape:cy="212.8938"
     inkscape:window-width="2560"
     inkscape:window-height="1334"
     inkscape:window-x="-11"
     inkscape:window-y="-11"
     inkscape:window-maximized="1"
     inkscape:current-layer="layer4" />
  <metadata
     id="metadata2">
    <rdf:RDF>
      <cc:Work>
        <dc:type
           rdf:resource="http://purl.org/dc/dcmitype/StillImage" />
        <dc:date />
        <dc:format />
        <dc:creator>
          <cc:Agent>
            <dc:title />
          </cc:Agent>
        </dc:creator>
      </cc:Work>
    </rdf:RDF>
  </metadata>
  <defs
     id="defs6">
    <rect
       x="-299.85838"
       y="-62.68226"
       width="76.799886"
       height="94.305742"
       id="rect2108" />
    <style
       type="text/css"
       id="style4">*{stroke-linejoin: round; stroke-linecap: butt}</style>
    <defs
       id="defs15">
      <path
         id="ma38be763d8"
         d="M 0 0  L 0 3.5  "
         style="stroke: #000000; stroke-width: 0.8" />
    </defs>
    <defs
       id="defs26">
      <path
         id="DejaVuSans-2212"
         d="M 678 2272  L 4684 2272  L 4684 1741  L 678 1741  L 678 2272  z "
         transform="scale(0.015625)" />
      <path
         id="DejaVuSans-30"
         d="M 2034 4250  Q 1547 4250 1301 3770  Q 1056 3291 1056 2328  Q 1056 1369 1301 889  Q 1547 409 2034 409  Q 2525 409 2770 889  Q 3016 1369 3016 2328  Q 3016 3291 2770 3770  Q 2525 4250 2034 4250  z M 2034 4750  Q 2819 4750 3233 4129  Q 3647 3509 3647 2328  Q 3647 1150 3233 529  Q 2819 -91 2034 -91  Q 1250 -91 836 529  Q 422 1150 422 2328  Q 422 3509 836 4129  Q 1250 4750 2034 4750  z "
         transform="scale(0.015625)" />
      <path
         id="DejaVuSans-2e"
         d="M 684 794  L 1344 794  L 1344 0  L 684 0  L 684 794  z "
         transform="scale(0.015625)" />
      <path
         id="DejaVuSans-32"
         d="M 1228 531  L 3431 531  L 3431 0  L 469 0  L 469 531  Q 828 903 1448 1529  Q 2069 2156 2228 2338  Q 2531 2678 2651 2914  Q 2772 3150 2772 3378  Q 2772 3750 2511 3984  Q 2250 4219 1831 4219  Q 1534 4219 1204 4116  Q 875 4013 500 3803  L 500 4441  Q 881 4594 1212 4672  Q 1544 4750 1819 4750  Q 2544 4750 2975 4387  Q 3406 4025 3406 3419  Q 3406 3131 3298 2873  Q 3191 2616 2906 2266  Q 2828 2175 2409 1742  Q 1991 1309 1228 531  z "
         transform="scale(0.015625)" />
    </defs>
    <defs
       id="defs48">
      <path
         id="DejaVuSans-31"
         d="M 794 531  L 1825 531  L 1825 4091  L 703 3866  L 703 4441  L 1819 4666  L 2450 4666  L 2450 531  L 3481 531  L 3481 0  L 794 0  L 794 531  z "
         transform="scale(0.015625)" />
    </defs>
    <defs
       id="defs117">
      <path
         id="m21c81d7cb6"
         d="M 0 0  L -3.5 0  "
         style="stroke: #000000; stroke-width: 0.8" />
    </defs>
    <defs
       id="defs125">
      <path
         id="DejaVuSans-34"
         d="M 2419 4116  L 825 1625  L 2419 1625  L 2419 4116  z M 2253 4666  L 3047 4666  L 3047 1625  L 3713 1625  L 3713 1100  L 3047 1100  L 3047 0  L 2419 0  L 2419 1100  L 313 1100  L 313 1709  L 2253 4666  z "
         transform="scale(0.015625)" />
    </defs>
    <defs
       id="defs206">
      <path
         id="mbd9ba144c0"
         d="M 0 1.5  C 0.397805 1.5 0.77937 1.341951 1.06066 1.06066  C 1.341951 0.77937 1.5 0.397805 1.5 0  C 1.5 -0.397805 1.341951 -0.77937 1.06066 -1.06066  C 0.77937 -1.341951 0.397805 -1.5 0 -1.5  C -0.397805 -1.5 -0.77937 -1.341951 -1.06066 -1.06066  C -1.341951 -0.77937 -1.5 -0.397805 -1.5 0  C -1.5 0.397805 -1.341951 0.77937 -1.06066 1.06066  C -0.77937 1.341951 -0.397805 1.5 0 1.5  z "
         style="stroke: #ff7f0e" />
    </defs>
    <defs
       id="defs324">
      <path
         id="DejaVuSans-65"
         d="M 3597 1894  L 3597 1613  L 953 1613  Q 991 1019 1311 708  Q 1631 397 2203 397  Q 2534 397 2845 478  Q 3156 559 3463 722  L 3463 178  Q 3153 47 2828 -22  Q 2503 -91 2169 -91  Q 1331 -91 842 396  Q 353 884 353 1716  Q 353 2575 817 3079  Q 1281 3584 2069 3584  Q 2775 3584 3186 3129  Q 3597 2675 3597 1894  z M 3022 2063  Q 3016 2534 2758 2815  Q 2500 3097 2075 3097  Q 1594 3097 1305 2825  Q 1016 2553 972 2059  L 3022 2063  z "
         transform="scale(0.015625)" />
      <path
         id="DejaVuSans-78"
         d="M 3513 3500  L 2247 1797  L 3578 0  L 2900 0  L 1881 1375  L 863 0  L 184 0  L 1544 1831  L 300 3500  L 978 3500  L 1906 2253  L 2834 3500  L 3513 3500  z "
         transform="scale(0.015625)" />
      <path
         id="DejaVuSans-61"
         d="M 2194 1759  Q 1497 1759 1228 1600  Q 959 1441 959 1056  Q 959 750 1161 570  Q 1363 391 1709 391  Q 2188 391 2477 730  Q 2766 1069 2766 1631  L 2766 1759  L 2194 1759  z M 3341 1997  L 3341 0  L 2766 0  L 2766 531  Q 2569 213 2275 61  Q 1981 -91 1556 -91  Q 1019 -91 701 211  Q 384 513 384 1019  Q 384 1609 779 1909  Q 1175 2209 1959 2209  L 2766 2209  L 2766 2266  Q 2766 2663 2505 2880  Q 2244 3097 1772 3097  Q 1472 3097 1187 3025  Q 903 2953 641 2809  L 641 3341  Q 956 3463 1253 3523  Q 1550 3584 1831 3584  Q 2591 3584 2966 3190  Q 3341 2797 3341 1997  z "
         transform="scale(0.015625)" />
      <path
         id="DejaVuSans-63"
         d="M 3122 3366  L 3122 2828  Q 2878 2963 2633 3030  Q 2388 3097 2138 3097  Q 1578 3097 1268 2742  Q 959 2388 959 1747  Q 959 1106 1268 751  Q 1578 397 2138 397  Q 2388 397 2633 464  Q 2878 531 3122 666  L 3122 134  Q 2881 22 2623 -34  Q 2366 -91 2075 -91  Q 1284 -91 818 406  Q 353 903 353 1747  Q 353 2603 823 3093  Q 1294 3584 2113 3584  Q 2378 3584 2631 3529  Q 2884 3475 3122 3366  z "
         transform="scale(0.015625)" />
      <path
         id="DejaVuSans-74"
         d="M 1172 4494  L 1172 3500  L 2356 3500  L 2356 3053  L 1172 3053  L 1172 1153  Q 1172 725 1289 603  Q 1406 481 1766 481  L 2356 481  L 2356 0  L 1766 0  Q 1100 0 847 248  Q 594 497 594 1153  L 594 3053  L 172 3053  L 172 3500  L 594 3500  L 594 4494  L 1172 4494  z "
         transform="scale(0.015625)" />
    </defs>
    <defs
       id="defs355">
      <path
         id="DejaVuSans-70"
         d="M 1159 525  L 1159 -1331  L 581 -1331  L 581 3500  L 1159 3500  L 1159 2969  Q 1341 3281 1617 3432  Q 1894 3584 2278 3584  Q 2916 3584 3314 3078  Q 3713 2572 3713 1747  Q 3713 922 3314 415  Q 2916 -91 2278 -91  Q 1894 -91 1617 61  Q 1341 213 1159 525  z M 3116 1747  Q 3116 2381 2855 2742  Q 2594 3103 2138 3103  Q 1681 3103 1420 2742  Q 1159 2381 1159 1747  Q 1159 1113 1420 752  Q 1681 391 2138 391  Q 2594 391 2855 752  Q 3116 1113 3116 1747  z "
         transform="scale(0.015625)" />
      <path
         id="DejaVuSans-73"
         d="M 2834 3397  L 2834 2853  Q 2591 2978 2328 3040  Q 2066 3103 1784 3103  Q 1356 3103 1142 2972  Q 928 2841 928 2578  Q 928 2378 1081 2264  Q 1234 2150 1697 2047  L 1894 2003  Q 2506 1872 2764 1633  Q 3022 1394 3022 966  Q 3022 478 2636 193  Q 2250 -91 1575 -91  Q 1294 -91 989 -36  Q 684 19 347 128  L 347 722  Q 666 556 975 473  Q 1284 391 1588 391  Q 1994 391 2212 530  Q 2431 669 2431 922  Q 2431 1156 2273 1281  Q 2116 1406 1581 1522  L 1381 1569  Q 847 1681 609 1914  Q 372 2147 372 2553  Q 372 3047 722 3315  Q 1072 3584 1716 3584  Q 2034 3584 2315 3537  Q 2597 3491 2834 3397  z "
         transform="scale(0.015625)" />
      <path
         id="DejaVuSans-75"
         d="M 544 1381  L 544 3500  L 1119 3500  L 1119 1403  Q 1119 906 1312 657  Q 1506 409 1894 409  Q 2359 409 2629 706  Q 2900 1003 2900 1516  L 2900 3500  L 3475 3500  L 3475 0  L 2900 0  L 2900 538  Q 2691 219 2414 64  Q 2138 -91 1772 -91  Q 1169 -91 856 284  Q 544 659 544 1381  z M 1991 3584  L 1991 3584  z "
         transform="scale(0.015625)" />
      <path
         id="DejaVuSans-64"
         d="M 2906 2969  L 2906 4863  L 3481 4863  L 3481 0  L 2906 0  L 2906 525  Q 2725 213 2448 61  Q 2172 -91 1784 -91  Q 1150 -91 751 415  Q 353 922 353 1747  Q 353 2572 751 3078  Q 1150 3584 1784 3584  Q 2172 3584 2448 3432  Q 2725 3281 2906 2969  z M 947 1747  Q 947 1113 1208 752  Q 1469 391 1925 391  Q 2381 391 2643 752  Q 2906 1113 2906 1747  Q 2906 2381 2643 2742  Q 2381 3103 1925 3103  Q 1469 3103 1208 2742  Q 947 2381 947 1747  z "
         transform="scale(0.015625)" />
      <path
         id="DejaVuSans-6f"
         d="M 1959 3097  Q 1497 3097 1228 2736  Q 959 2375 959 1747  Q 959 1119 1226 758  Q 1494 397 1959 397  Q 2419 397 2687 759  Q 2956 1122 2956 1747  Q 2956 2369 2687 2733  Q 2419 3097 1959 3097  z M 1959 3584  Q 2709 3584 3137 3096  Q 3566 2609 3566 1747  Q 3566 888 3137 398  Q 2709 -91 1959 -91  Q 1206 -91 779 398  Q 353 888 353 1747  Q 353 2609 779 3096  Q 1206 3584 1959 3584  z "
         transform="scale(0.015625)" />
      <path
         id="DejaVuSans-2d"
         d="M 313 2009  L 1997 2009  L 1997 1497  L 313 1497  L 313 2009  z "
         transform="scale(0.015625)" />
      <path
         id="DejaVuSans-72"
         d="M 2631 2963  Q 2534 3019 2420 3045  Q 2306 3072 2169 3072  Q 1681 3072 1420 2755  Q 1159 2438 1159 1844  L 1159 0  L 581 0  L 581 3500  L 1159 3500  L 1159 2956  Q 1341 3275 1631 3429  Q 1922 3584 2338 3584  Q 2397 3584 2469 3576  Q 2541 3569 2628 3553  L 2631 2963  z "
         transform="scale(0.015625)" />
      <path
         id="DejaVuSans-6c"
         d="M 603 4863  L 1178 4863  L 1178 0  L 603 0  L 603 4863  z "
         transform="scale(0.015625)" />
      <path
         id="DejaVuSans-6e"
         d="M 3513 2113  L 3513 0  L 2938 0  L 2938 2094  Q 2938 2591 2744 2837  Q 2550 3084 2163 3084  Q 1697 3084 1428 2787  Q 1159 2491 1159 1978  L 1159 0  L 581 0  L 581 3500  L 1159 3500  L 1159 2956  Q 1366 3272 1645 3428  Q 1925 3584 2291 3584  Q 2894 3584 3203 3211  Q 3513 2838 3513 2113  z "
         transform="scale(0.015625)" />
      <path
         id="DejaVuSans-67"
         d="M 2906 1791  Q 2906 2416 2648 2759  Q 2391 3103 1925 3103  Q 1463 3103 1205 2759  Q 947 2416 947 1791  Q 947 1169 1205 825  Q 1463 481 1925 481  Q 2391 481 2648 825  Q 2906 1169 2906 1791  z M 3481 434  Q 3481 -459 3084 -895  Q 2688 -1331 1869 -1331  Q 1566 -1331 1297 -1286  Q 1028 -1241 775 -1147  L 775 -588  Q 1028 -725 1275 -790  Q 1522 -856 1778 -856  Q 2344 -856 2625 -561  Q 2906 -266 2906 331  L 2906 616  Q 2728 306 2450 153  Q 2172 0 1784 0  Q 1141 0 747 490  Q 353 981 353 1791  Q 353 2603 747 3093  Q 1141 3584 1784 3584  Q 2172 3584 2450 3431  Q 2728 3278 2906 2969  L 2906 3500  L 3481 3500  L 3481 434  z "
         transform="scale(0.015625)" />
      <path
         id="DejaVuSans-68"
         d="M 3513 2113  L 3513 0  L 2938 0  L 2938 2094  Q 2938 2591 2744 2837  Q 2550 3084 2163 3084  Q 1697 3084 1428 2787  Q 1159 2491 1159 1978  L 1159 0  L 581 0  L 581 4863  L 1159 4863  L 1159 2956  Q 1366 3272 1645 3428  Q 1925 3584 2291 3584  Q 2894 3584 3203 3211  Q 3513 2838 3513 2113  z "
         transform="scale(0.015625)" />
    </defs>
    <clipPath
       id="clipPath7556">
      <rect
         x="57.6"
         y="41.472"
         width="357.12"
         height="266.112"
         id="rect2496"
         transform="translate(-656.215, -53.568)" />
    </clipPath>
    <clipPath
       id="clipPath1095">
      <rect
         x="57.6"
         y="41.472"
         width="357.12"
         height="266.112"
         id="rect6248"
         transform="translate(-587.554, -58.3176)" />
    </clipPath>
    <clipPath
       id="clipPath3444">
      <rect
         x="57.6"
         y="41.472"
         width="357.12"
         height="266.112"
         id="rect696"
         transform="translate(-523.705, -63.1628)" />
    </clipPath>
    <clipPath
       id="clipPath1597">
      <rect
         x="57.6"
         y="41.472"
         width="357.12"
         height="266.112"
         id="rect5274"
         transform="translate(-464.849, -68.098)" />
    </clipPath>
    <clipPath
       id="clipPath1682">
      <rect
         x="57.6"
         y="41.472"
         width="357.12"
         height="266.112"
         id="rect2729"
         transform="translate(-411.126, -73.1167)" />
    </clipPath>
    <clipPath
       id="clipPath7116">
      <rect
         x="57.6"
         y="41.472"
         width="357.12"
         height="266.112"
         id="rect4547"
         transform="translate(-362.633, -78.2113)" />
    </clipPath>
    <clipPath
       id="clipPath3220">
      <rect
         x="57.6"
         y="41.472"
         width="357.12"
         height="266.112"
         id="rect4738"
         transform="translate(-319.413, -83.3737)" />
    </clipPath>
    <clipPath
       id="clipPath237">
      <rect
         x="57.6"
         y="41.472"
         width="357.12"
         height="266.112"
         id="rect3866"
         transform="translate(-281.456, -88.5951)" />
    </clipPath>
    <clipPath
       id="clipPath4209">
      <rect
         x="57.6"
         y="41.472"
         width="357.12"
         height="266.112"
         id="rect1881"
         transform="translate(-248.698, -93.8668)" />
    </clipPath>
    <clipPath
       id="clipPath1088">
      <rect
         x="57.6"
         y="41.472"
         width="357.12"
         height="266.112"
         id="rect8998"
         transform="translate(-221.017, -99.1802)" />
    </clipPath>
    <clipPath
       id="clipPath5101">
      <rect
         x="57.6"
         y="41.472"
         width="357.12"
         height="266.112"
         id="rect2091"
         transform="translate(-198.243, -104.527)" />
    </clipPath>
    <clipPath
       id="clipPath6056">
      <rect
         x="57.6"
         y="41.472"
         width="357.12"
         height="266.112"
         id="rect8170"
         transform="translate(-180.162, -109.899)" />
    </clipPath>
    <clipPath
       id="clipPath209">
      <rect
         x="57.6"
         y="41.472"
         width="357.12"
         height="266.112"
         id="rect179"
         transform="translate(-166.519, -115.29)" />
    </clipPath>
    <clipPath
       id="clipPath1465">
      <rect
         x="57.6"
         y="41.472"
         width="357.12"
         height="266.112"
         id="rect7188"
         transform="translate(-157.03, -120.694)" />
    </clipPath>
    <clipPath
       id="clipPath1603">
      <rect
         x="57.6"
         y="41.472"
         width="357.12"
         height="266.112"
         id="rect7046"
         transform="translate(-151.386, -126.105)" />
    </clipPath>
    <clipPath
       id="clipPath6782">
      <rect
         x="57.6"
         y="41.472"
         width="357.12"
         height="266.112"
         id="rect5447"
         transform="translate(-149.261, -131.52)" />
    </clipPath>
    <clipPath
       id="clipPath2206">
      <rect
         x="57.6"
         y="41.472"
         width="357.12"
         height="266.112"
         id="rect9755"
         transform="translate(-150.318, -136.935)" />
    </clipPath>
    <clipPath
       id="clipPath7978">
      <rect
         x="57.6"
         y="41.472"
         width="357.12"
         height="266.112"
         id="rect5166"
         transform="translate(-154.212, -142.348)" />
    </clipPath>
    <clipPath
       id="clipPath2232">
      <rect
         x="57.6"
         y="41.472"
         width="357.12"
         height="266.112"
         id="rect6485"
         transform="translate(-160.595, -147.758)" />
    </clipPath>
    <clipPath
       id="clipPath3949">
      <rect
         x="57.6"
         y="41.472"
         width="357.12"
         height="266.112"
         id="rect5758"
         transform="translate(-169.119, -153.164)" />
    </clipPath>
    <clipPath
       id="clipPath3213">
      <rect
         x="57.6"
         y="41.472"
         width="357.12"
         height="266.112"
         id="rect6309"
         transform="translate(-179.44, -158.565)" />
    </clipPath>
    <clipPath
       id="clipPath588">
      <rect
         x="57.6"
         y="41.472"
         width="357.12"
         height="266.112"
         id="rect2986"
         transform="translate(-191.212, -163.961)" />
    </clipPath>
    <clipPath
       id="clipPath9679">
      <rect
         x="57.6"
         y="41.472"
         width="357.12"
         height="266.112"
         id="rect8755"
         transform="translate(-204.094, -169.354)" />
    </clipPath>
    <clipPath
       id="clipPath3064">
      <rect
         x="57.6"
         y="41.472"
         width="357.12"
         height="266.112"
         id="rect8585"
         transform="translate(-217.75, -174.745)" />
    </clipPath>
    <clipPath
       id="clipPath3104">
      <rect
         x="57.6"
         y="41.472"
         width="357.12"
         height="266.112"
         id="rect9392"
         transform="translate(-231.842, -180.133)" />
    </clipPath>
    <clipPath
       id="clipPath7438">
      <rect
         x="57.6"
         y="41.472"
         width="357.12"
         height="266.112"
         id="rect4162"
         transform="translate(-246.035, -185.522)" />
    </clipPath>
    <clipPath
       id="clipPath2524">
      <rect
         x="57.6"
         y="41.472"
         width="357.12"
         height="266.112"
         id="rect85"
         transform="translate(-259.996, -190.911)" />
    </clipPath>
    <clipPath
       id="clipPath8787">
      <rect
         x="57.6"
         y="41.472"
         width="357.12"
         height="266.112"
         id="rect380"
         transform="translate(-273.388, -196.302)" />
    </clipPath>
    <clipPath
       id="clipPath8194">
      <rect
         x="57.6"
         y="41.472"
         width="357.12"
         height="266.112"
         id="rect9622"
         transform="translate(-285.876, -201.697)" />
    </clipPath>
    <clipPath
       id="clipPath5703">
      <rect
         x="57.6"
         y="41.472"
         width="357.12"
         height="266.112"
         id="rect1715"
         transform="translate(-297.119, -207.095)" />
    </clipPath>
    <clipPath
       id="clipPath8677">
      <rect
         x="57.6"
         y="41.472"
         width="357.12"
         height="266.112"
         id="rect9737"
         transform="translate(-306.777, -212.498)" />
    </clipPath>
    <clipPath
       id="clipPath7040">
      <rect
         x="57.6"
         y="41.472"
         width="357.12"
         height="266.112"
         id="rect5089"
         transform="translate(-314.503, -217.905)" />
    </clipPath>
    <clipPath
       id="clipPath3780">
      <rect
         x="57.6"
         y="41.472"
         width="357.12"
         height="266.112"
         id="rect3469"
         transform="translate(-319.951, -223.316)" />
    </clipPath>
    <clipPath
       id="clipPath2058">
      <rect
         x="57.6"
         y="41.472"
         width="357.12"
         height="266.112"
         id="rect6741"
         transform="translate(-322.774, -228.731)" />
    </clipPath>
    <clipPath
       id="clipPath4330">
      <rect
         x="57.6"
         y="41.472"
         width="357.12"
         height="266.112"
         id="rect1941"
         transform="translate(-322.623, -234.146)" />
    </clipPath>
    <clipPath
       id="clipPath1045">
      <rect
         x="57.6"
         y="41.472"
         width="357.12"
         height="266.112"
         id="rect6659"
         transform="translate(-319.158, -239.56)" />
    </clipPath>
    <clipPath
       id="clipPath2961">
      <rect
         x="57.6"
         y="41.472"
         width="357.12"
         height="266.112"
         id="rect4998"
         transform="translate(-312.045, -244.969)" />
    </clipPath>
    <clipPath
       id="clipPath3254">
      <rect
         x="57.6"
         y="41.472"
         width="357.12"
         height="266.112"
         id="rect8716"
         transform="translate(-300.962, -250.368)" />
    </clipPath>
    <clipPath
       id="clipPath8996">
      <rect
         x="57.6"
         y="41.472"
         width="357.12"
         height="266.112"
         id="rect181"
         transform="translate(-285.611, -255.753)" />
    </clipPath>
    <clipPath
       id="clipPath2009">
      <rect
         x="57.6"
         y="41.472"
         width="357.12"
         height="266.112"
         id="rect3278"
         transform="translate(-265.717, -261.116)" />
    </clipPath>
    <clipPath
       id="clipPath9870">
      <rect
         x="57.6"
         y="41.472"
         width="357.12"
         height="266.112"
         id="rect7827"
         transform="translate(-241.042, -266.45)" />
    </clipPath>
    <clipPath
       id="clipPath3391">
      <rect
         x="57.6"
         y="41.472"
         width="357.12"
         height="266.112"
         id="rect2131"
         transform="translate(-211.387, -271.748)" />
    </clipPath>
    <clipPath
       id="clipPath6744">
      <rect
         x="57.6"
         y="41.472"
         width="357.12"
         height="266.112"
         id="rect8377"
         transform="translate(-176.601, -277.001)" />
    </clipPath>
    <clipPath
       id="clipPath9321">
      <rect
         x="57.6"
         y="41.472"
         width="357.12"
         height="266.112"
         id="rect3439"
         transform="translate(-136.585, -282.201)" />
    </clipPath>
    <clipPath
       id="clipPath8824">
      <rect
         x="57.6"
         y="41.472"
         width="357.12"
         height="266.112"
         id="rect6871"
         transform="translate(-91.2947, -287.338)" />
    </clipPath>
    <clipPath
       id="clipPath8737">
      <path
         clip-rule="nonzero"
         d="M 0,0 H 8.933594 V 10.761719 H 0 Z m 0,0"
         id="path1689" />
    </clipPath>
    <clipPath
       id="clipPath4295">
      <path
         clip-rule="nonzero"
         d="M 0,0 H 9.59375 V 7.410156 H 0 Z m 0,0"
         id="path157" />
    </clipPath>
    <clipPath
       id="clipPath9707">
      <path
         clip-rule="nonzero"
         d="M 0,0 H 9.59375 V 7.410156 H 0 Z m 0,0"
         id="path2209" />
    </clipPath>
    <clipPath
       id="clipPath1806">
      <path
         clip-rule="nonzero"
         d="M 0,0 H 9.59375 V 7.410156 H 0 Z m 0,0"
         id="path6182" />
    </clipPath>
  </defs>
  <path
     d="M 0 1.5  C 0.397805 1.5 0.77937 1.341951 1.06066 1.06066  C 1.341951 0.77937 1.5 0.397805 1.5 0  C 1.5 -0.397805 1.341951 -0.77937 1.06066 -1.06066  C 0.77937 -1.341951 0.397805 -1.5 0 -1.5  C -0.397805 -1.5 -0.77937 -1.341951 -1.06066 -1.06066  C -1.341951 -0.77937 -1.5 -0.397805 -1.5 0  C -1.5 0.397805 -1.341951 0.77937 -1.06066 1.06066  C -0.77937 1.341951 -0.397805 1.5 0 1.5  z "
     style="stroke-linejoin:round;stroke-linecap:butt;fill:#ff7f0e;stroke:#ff7f0e;opacity:1.0"
     id="use290"
     transform="translate(464.849, 68.098)"
     unlinked_clone="True"
     clip-path="url(#clipPath1597)" />
  <path
     d="M 0 1.5  C 0.397805 1.5 0.77937 1.341951 1.06066 1.06066  C 1.341951 0.77937 1.5 0.397805 1.5 0  C 1.5 -0.397805 1.341951 -0.77937 1.06066 -1.06066  C 0.77937 -1.341951 0.397805 -1.5 0 -1.5  C -0.397805 -1.5 -0.77937 -1.341951 -1.06066 -1.06066  C -1.341951 -0.77937 -1.5 -0.397805 -1.5 0  C -1.5 0.397805 -1.341951 0.77937 -1.06066 1.06066  C -0.77937 1.341951 -0.397805 1.5 0 1.5  z "
     style="stroke-linejoin:round;stroke-linecap:butt;fill:#ff7f0e;stroke:#ff7f0e;opacity:1.0"
     id="use292"
     transform="translate(523.705, 63.1628)"
     unlinked_clone="True"
     clip-path="url(#clipPath3444)" />
  <path
     d="M 0 1.5  C 0.397805 1.5 0.77937 1.341951 1.06066 1.06066  C 1.341951 0.77937 1.5 0.397805 1.5 0  C 1.5 -0.397805 1.341951 -0.77937 1.06066 -1.06066  C 0.77937 -1.341951 0.397805 -1.5 0 -1.5  C -0.397805 -1.5 -0.77937 -1.341951 -1.06066 -1.06066  C -1.341951 -0.77937 -1.5 -0.397805 -1.5 0  C -1.5 0.397805 -1.341951 0.77937 -1.06066 1.06066  C -0.77937 1.341951 -0.397805 1.5 0 1.5  z "
     style="stroke-linejoin:round;stroke-linecap:butt;fill:#ff7f0e;stroke:#ff7f0e;opacity:1.0"
     id="use294"
     transform="translate(587.554, 58.3176)"
     unlinked_clone="True"
     clip-path="url(#clipPath1095)" />
  <path
     d="M 0 1.5  C 0.397805 1.5 0.77937 1.341951 1.06066 1.06066  C 1.341951 0.77937 1.5 0.397805 1.5 0  C 1.5 -0.397805 1.341951 -0.77937 1.06066 -1.06066  C 0.77937 -1.341951 0.397805 -1.5 0 -1.5  C -0.397805 -1.5 -0.77937 -1.341951 -1.06066 -1.06066  C -1.341951 -0.77937 -1.5 -0.397805 -1.5 0  C -1.5 0.397805 -1.341951 0.77937 -1.06066 1.06066  C -0.77937 1.341951 -0.397805 1.5 0 1.5  z "
     style="stroke-linejoin:round;stroke-linecap:butt;fill:#ff7f0e;stroke:#ff7f0e;opacity:1.0"
     id="use296"
     transform="translate(656.215, 53.568)"
     unlinked_clone="True"
     clip-path="url(#clipPath7556)" />
  <defs
     id="defs398">
    <clipPath
       id="p8e67402090">
      <rect
         x="57.6"
         y="41.472"
         width="357.12"
         height="266.112"
         id="rect395" />
    </clipPath>
  </defs>
  <text
     xml:space="preserve"
     transform="scale(0.75)"
     id="text2106"
     style="font-size:18.6667px;font-family:'CMU Serif';-inkscape-font-specification:'CMU Serif';white-space:pre;shape-inside:url(#rect2108);display:inline;fill:#000000;stroke-width:2.56252" />
  <g
     inkscape:label=""
     transform="translate(260.988, 318.917)"
     id="g7402">
    <g
       inkscape:label=""
       transform="translate(-63.8352, -135.106)"
       id="g8229">
      <g
         clip-path="url(#clipPath4295)"
         id="g8227"
         transform="translate(-0.46875, 0.18175)">
        <g
           inkscape:label=""
           transform="translate(162.257, 73.0893)"
           id="g8705">
          <g
             clip-path="url(#clipPath9707)"
             id="g8703"
             transform="translate(-0.46875, 0.18175)">
            <g
               fill="#000000"
               fill-opacity="1"
               id="g8701">
              <g
                 id="g8699"
                 transform="translate(0,7.4120002)">
                <path
                   d="m 5.875,-1 c 0.21875,0.96875 1.046875,1.171875 1.453125,1.171875 0.5625,0 0.96875,-0.359375 1.25,-0.953125 0.296875,-0.609375 0.515625,-1.625 0.515625,-1.6875 0,-0.078125 -0.078125,-0.15625 -0.171875,-0.15625 -0.15625,0 -0.171875,0.09375 -0.25,0.359375 -0.296875,1.1875 -0.609375,2.09375 -1.296875,2.09375 -0.515625,0 -0.515625,-0.5625 -0.515625,-0.796875 0,-0.390625 0.046875,-0.5625 0.21875,-1.28125 0.125,-0.46875 0.234375,-0.9375 0.34375,-1.421875 L 8.125,-6.46875 C 8.25,-6.90625 8.25,-6.9375 8.25,-6.984375 c 0,-0.265625 -0.203125,-0.4375 -0.46875,-0.4375 -0.5,0 -0.625,0.4375 -0.71875,0.859375 -0.171875,0.671875 -1.109375,4.375 -1.21875,4.984375 -0.03125,0 -0.703125,1.40625 -1.953125,1.40625 -0.890625,0 -1.0625,-0.78125 -1.0625,-1.40625 0,-0.984375 0.484375,-2.359375 0.921875,-3.515625 0.203125,-0.546875 0.296875,-0.78125 0.296875,-1.125 0,-0.734375 -0.53125,-1.375 -1.359375,-1.375 -1.578125,0 -2.21875,2.5 -2.21875,2.640625 0,0.0625 0.0625,0.15625 0.1875,0.15625 0.15625,0 0.171875,-0.078125 0.234375,-0.3125 C 1.3125,-6.59375 1.984375,-7.25 2.640625,-7.25 c 0.171875,0 0.4375,0.015625 0.4375,0.5625 0,0.453125 -0.1875,0.953125 -0.4375,1.609375 -0.765625,2.046875 -0.84375,2.703125 -0.84375,3.21875 0,1.75 1.3125,2.03125 2.03125,2.03125 1.09375,0 1.703125,-0.75 2.046875,-1.171875 z m 0,0"
                   id="path8697" />
              </g>
            </g>
          </g>
        </g>
      </g>
    </g>
  </g>
  <g
     inkscape:groupmode="layer"
     id="layer4"
     inkscape:label="bg">
    <rect
       style="fill:#ffffff;stroke:none;stroke-width:0.949437;stroke-linecap:butt;stroke-linejoin:round;stroke-dasharray:5.8367, 5.8367;stroke-dashoffset:0"
       id="rect10022"
       width="557.36389"
       height="416.18762"
       x="43.482288"
       y="15.811741"
       transform="matrix(0.79255319,0,0,0.75,-18.367933,0)" />
  </g>
  <g
     inkscape:groupmode="layer"
     id="layer3"
     inkscape:label="Layer 1">
    <g
       id="g10356"
       transform="translate(-20.329382)">
      <path
         d="M 0,0 V 3.5"
         style="stroke:#000000;stroke-width:0.8;stroke-linecap:butt;stroke-linejoin:round"
         id="use17"
         transform="translate(122.06209,281.22975)"
         unlinked_clone="True" />
      <path
         d="M 0,0 V 3.5"
         style="stroke:#000000;stroke-width:0.8;stroke-linecap:butt;stroke-linejoin:round"
         id="use42"
         transform="translate(193.48609,281.22975)"
         unlinked_clone="True" />
      <path
         d="M 0,0 V 3.5"
         style="stroke:#000000;stroke-width:0.8;stroke-linecap:butt;stroke-linejoin:round"
         id="use64"
         transform="translate(264.91009,281.22975)"
         unlinked_clone="True" />
      <path
         d="M 0,0 V 3.5"
         style="stroke:#000000;stroke-width:0.8;stroke-linecap:butt;stroke-linejoin:round"
         id="use81"
         transform="translate(336.33409,281.22975)"
         unlinked_clone="True" />
      <path
         d="M 0,0 V 3.5"
         style="stroke:#000000;stroke-width:0.8;stroke-linecap:butt;stroke-linejoin:round"
         id="use98"
         transform="translate(407.75809,281.22975)"
         unlinked_clone="True" />
      <path
         d="M 0,0 H -3.5"
         style="stroke:#000000;stroke-width:0.8;stroke-linecap:butt;stroke-linejoin:round"
         id="use119"
         transform="translate(86.350088,263.71875)"
         unlinked_clone="True" />
      <path
         d="M 0,0 H -3.5"
         style="stroke:#000000;stroke-width:0.8;stroke-linecap:butt;stroke-linejoin:round"
         id="use139"
         transform="translate(86.350088,209.56775)"
         unlinked_clone="True" />
      <path
         d="M 0,0 H -3.5"
         style="stroke:#000000;stroke-width:0.8;stroke-linecap:butt;stroke-linejoin:round"
         id="use156"
         transform="translate(86.350088,155.41675)"
         unlinked_clone="True" />
      <path
         d="M 0,0 H -3.5"
         style="stroke:#000000;stroke-width:0.8;stroke-linecap:butt;stroke-linejoin:round"
         id="use171"
         transform="translate(86.350088,101.26575)"
         unlinked_clone="True" />
      <path
         d="M 0,0 H -3.5"
         style="stroke:#000000;stroke-width:0.8;stroke-linecap:butt;stroke-linejoin:round"
         id="use186"
         transform="translate(86.350088,47.115053)"
         unlinked_clone="True" />
      <path
         style="fill:none;stroke:#1f77b4;stroke-width:1.5;stroke-linecap:square;stroke-linejoin:round"
         d="m 149.26249,131.50822 0.22387,-1.3646 0.43143,-1.3646 0.64449,-1.3646 0.86303,-1.36461 1.2904,-1.59203 1.60405,-1.59204 1.92639,-1.59204 2.25745,-1.59203 2.99651,-1.81947 3.4533,-1.81947 3.9231,-1.81948 4.99123,-2.0469 5.6208,-2.0469 6.26888,-2.04691 7.74803,-2.27434 8.5964,-2.27433 9.47015,-2.27434 10.36931,-2.27434 12.47509,-2.501772 13.62761,-2.501772 14.81395,-2.501771 17.55339,-2.729206 19.04935,-2.729206 20.58921,-2.729206 24.09354,-2.956639 26.00805,-2.95664 27.97835,-2.956639 16.07644,-1.584173"
         id="path5267"
         transform="translate(28.750087,-26.354247)" />
      <path
         style="fill:none;stroke:#1f77b4;stroke-width:1.5;stroke-linecap:square;stroke-linejoin:round"
         d="m 149.24069,132.87283 0.0218,-1.36461"
         id="path5265"
         transform="translate(28.750087,-26.354247)" />
      <path
         style="fill:none;stroke:#1f77b4;stroke-width:1.5;stroke-linecap:square;stroke-linejoin:round;stroke-dasharray:4.5, 4.5;stroke-dashoffset:0"
         d="m 323.07935,230.66936 -0.17481,-1.3646 -0.4451,-1.59204 -0.69651,-1.59203 -0.93921,-1.59204 -1.35939,-1.81947 -1.65199,-1.81947 -2.19206,-2.0469 -2.52741,-2.04691 -3.17903,-2.27434 -3.91841,-2.50177 -4.32718,-2.50177 -5.14702,-2.72921 -6.51027,-3.18407 -7.50382,-3.41151 -9.05932,-3.86637 -11.2501,-4.54868 -15.26308,-5.91328 -40.24353,-15.46549 -11.07637,-4.54868 -8.86372,-3.86638 -7.29464,-3.4115 -6.28412,-3.18408 -4.92939,-2.7292 -4.1084,-2.50177 -3.6812,-2.50178 -2.94739,-2.27433 -2.3059,-2.04691 -1.9582,-2.0469 -1.43376,-1.81947 -1.13139,-1.81947 -0.73172,-1.59204 -0.48155,-1.59204 -0.22267,-1.59203"
         id="path5263"
         transform="translate(28.750087,-26.354247)" />
      <path
         style="fill:none;stroke:#1f77b4;stroke-width:1.5;stroke-linecap:square;stroke-linejoin:round"
         d="m 323.05755,232.03397 0.0218,-1.36461"
         id="path5261"
         transform="translate(28.750087,-26.354247)" />
      <path
         style="fill:none;stroke:#1f77b4;stroke-width:1.5;stroke-linecap:square;stroke-linejoin:round"
         d="m 58.259002,290.68557 15.931187,-1.56572 30.048211,-3.18407 25.85879,-2.95664 23.94859,-2.95664 22.0942,-2.95664 18.79697,-2.7292 17.30834,-2.72921 15.86359,-2.72921 13.30993,-2.50177 12.16663,-2.50177 11.05714,-2.50177 9.1176,-2.27434 8.254,-2.27434 7.41581,-2.27434 5.97855,-2.0469 5.33871,-2.0469 4.71737,-2.04691 3.68657,-1.81947 3.22328,-1.81947 2.77299,-1.81947 2.3357,-1.81947 1.69525,-1.59204 1.37913,-1.59203 1.0717,-1.59204 0.77301,-1.59204 0.43143,-1.3646 0.22387,-1.3646"
         id="path6222"
         transform="translate(28.750087,-26.354247)" />
      <path
         d="M 0,1.5 C 0.397805,1.5 0.77937,1.341951 1.06066,1.06066 1.341951,0.77937 1.5,0.397805 1.5,0 1.5,-0.397805 1.341951,-0.77937 1.06066,-1.06066 0.77937,-1.341951 0.397805,-1.5 0,-1.5 c -0.397805,0 -0.77937,0.158049 -1.06066,0.43934 C -1.341951,-0.77937 -1.5,-0.397805 -1.5,0 c 0,0.397805 0.158049,0.77937 0.43934,1.06066 C -0.77937,1.341951 -0.397805,1.5 0,1.5 Z"
         style="fill:#ff7f0e;stroke:#ff7f0e;stroke-linecap:butt;stroke-linejoin:round"
         id="use208"
         transform="translate(120.04479,260.98375)"
         unlinked_clone="True"
         clip-path="url(#clipPath8824)" />
      <path
         d="M 0,1.5 C 0.397805,1.5 0.77937,1.341951 1.06066,1.06066 1.341951,0.77937 1.5,0.397805 1.5,0 1.5,-0.397805 1.341951,-0.77937 1.06066,-1.06066 0.77937,-1.341951 0.397805,-1.5 0,-1.5 c -0.397805,0 -0.77937,0.158049 -1.06066,0.43934 C -1.341951,-0.77937 -1.5,-0.397805 -1.5,0 c 0,0.397805 0.158049,0.77937 0.43934,1.06066 C -0.77937,1.341951 -0.397805,1.5 0,1.5 Z"
         style="fill:#ff7f0e;stroke:#ff7f0e;stroke-linecap:butt;stroke-linejoin:round"
         id="use210"
         transform="translate(165.33509,255.84675)"
         unlinked_clone="True"
         clip-path="url(#clipPath9321)" />
      <path
         d="M 0,1.5 C 0.397805,1.5 0.77937,1.341951 1.06066,1.06066 1.341951,0.77937 1.5,0.397805 1.5,0 1.5,-0.397805 1.341951,-0.77937 1.06066,-1.06066 0.77937,-1.341951 0.397805,-1.5 0,-1.5 c -0.397805,0 -0.77937,0.158049 -1.06066,0.43934 C -1.341951,-0.77937 -1.5,-0.397805 -1.5,0 c 0,0.397805 0.158049,0.77937 0.43934,1.06066 C -0.77937,1.341951 -0.397805,1.5 0,1.5 Z"
         style="fill:#ff7f0e;stroke:#ff7f0e;stroke-linecap:butt;stroke-linejoin:round"
         id="use212"
         transform="translate(205.35109,250.64675)"
         unlinked_clone="True"
         clip-path="url(#clipPath6744)" />
      <path
         d="M 0,1.5 C 0.397805,1.5 0.77937,1.341951 1.06066,1.06066 1.341951,0.77937 1.5,0.397805 1.5,0 1.5,-0.397805 1.341951,-0.77937 1.06066,-1.06066 0.77937,-1.341951 0.397805,-1.5 0,-1.5 c -0.397805,0 -0.77937,0.158049 -1.06066,0.43934 C -1.341951,-0.77937 -1.5,-0.397805 -1.5,0 c 0,0.397805 0.158049,0.77937 0.43934,1.06066 C -0.77937,1.341951 -0.397805,1.5 0,1.5 Z"
         style="fill:#ff7f0e;stroke:#ff7f0e;stroke-linecap:butt;stroke-linejoin:round"
         id="use214"
         transform="translate(240.13709,245.39375)"
         unlinked_clone="True"
         clip-path="url(#clipPath3391)" />
      <path
         d="M 0,1.5 C 0.397805,1.5 0.77937,1.341951 1.06066,1.06066 1.341951,0.77937 1.5,0.397805 1.5,0 1.5,-0.397805 1.341951,-0.77937 1.06066,-1.06066 0.77937,-1.341951 0.397805,-1.5 0,-1.5 c -0.397805,0 -0.77937,0.158049 -1.06066,0.43934 C -1.341951,-0.77937 -1.5,-0.397805 -1.5,0 c 0,0.397805 0.158049,0.77937 0.43934,1.06066 C -0.77937,1.341951 -0.397805,1.5 0,1.5 Z"
         style="fill:#ff7f0e;stroke:#ff7f0e;stroke-linecap:butt;stroke-linejoin:round"
         id="use216"
         transform="translate(269.79209,240.09575)"
         unlinked_clone="True"
         clip-path="url(#clipPath9870)" />
      <path
         d="M 0,1.5 C 0.397805,1.5 0.77937,1.341951 1.06066,1.06066 1.341951,0.77937 1.5,0.397805 1.5,0 1.5,-0.397805 1.341951,-0.77937 1.06066,-1.06066 0.77937,-1.341951 0.397805,-1.5 0,-1.5 c -0.397805,0 -0.77937,0.158049 -1.06066,0.43934 C -1.341951,-0.77937 -1.5,-0.397805 -1.5,0 c 0,0.397805 0.158049,0.77937 0.43934,1.06066 C -0.77937,1.341951 -0.397805,1.5 0,1.5 Z"
         style="fill:#ff7f0e;stroke:#ff7f0e;stroke-linecap:butt;stroke-linejoin:round"
         id="use218"
         transform="translate(294.46709,234.76175)"
         unlinked_clone="True"
         clip-path="url(#clipPath2009)" />
      <path
         d="M 0,1.5 C 0.397805,1.5 0.77937,1.341951 1.06066,1.06066 1.341951,0.77937 1.5,0.397805 1.5,0 1.5,-0.397805 1.341951,-0.77937 1.06066,-1.06066 0.77937,-1.341951 0.397805,-1.5 0,-1.5 c -0.397805,0 -0.77937,0.158049 -1.06066,0.43934 C -1.341951,-0.77937 -1.5,-0.397805 -1.5,0 c 0,0.397805 0.158049,0.77937 0.43934,1.06066 C -0.77937,1.341951 -0.397805,1.5 0,1.5 Z"
         style="fill:#ff7f0e;stroke:#ff7f0e;stroke-linecap:butt;stroke-linejoin:round"
         id="use220"
         transform="translate(314.36109,229.39875)"
         unlinked_clone="True"
         clip-path="url(#clipPath8996)" />
      <path
         d="M 0,1.5 C 0.397805,1.5 0.77937,1.341951 1.06066,1.06066 1.341951,0.77937 1.5,0.397805 1.5,0 1.5,-0.397805 1.341951,-0.77937 1.06066,-1.06066 0.77937,-1.341951 0.397805,-1.5 0,-1.5 c -0.397805,0 -0.77937,0.158049 -1.06066,0.43934 C -1.341951,-0.77937 -1.5,-0.397805 -1.5,0 c 0,0.397805 0.158049,0.77937 0.43934,1.06066 C -0.77937,1.341951 -0.397805,1.5 0,1.5 Z"
         style="fill:#ff7f0e;stroke:#ff7f0e;stroke-linecap:butt;stroke-linejoin:round"
         id="use222"
         transform="translate(329.71209,224.01375)"
         unlinked_clone="True"
         clip-path="url(#clipPath3254)" />
      <path
         d="M 0,1.5 C 0.397805,1.5 0.77937,1.341951 1.06066,1.06066 1.341951,0.77937 1.5,0.397805 1.5,0 1.5,-0.397805 1.341951,-0.77937 1.06066,-1.06066 0.77937,-1.341951 0.397805,-1.5 0,-1.5 c -0.397805,0 -0.77937,0.158049 -1.06066,0.43934 C -1.341951,-0.77937 -1.5,-0.397805 -1.5,0 c 0,0.397805 0.158049,0.77937 0.43934,1.06066 C -0.77937,1.341951 -0.397805,1.5 0,1.5 Z"
         style="fill:#ff7f0e;stroke:#ff7f0e;stroke-linecap:butt;stroke-linejoin:round"
         id="use224"
         transform="translate(340.79509,218.61475)"
         unlinked_clone="True"
         clip-path="url(#clipPath2961)" />
      <path
         d="M 0,1.5 C 0.397805,1.5 0.77937,1.341951 1.06066,1.06066 1.341951,0.77937 1.5,0.397805 1.5,0 1.5,-0.397805 1.341951,-0.77937 1.06066,-1.06066 0.77937,-1.341951 0.397805,-1.5 0,-1.5 c -0.397805,0 -0.77937,0.158049 -1.06066,0.43934 C -1.341951,-0.77937 -1.5,-0.397805 -1.5,0 c 0,0.397805 0.158049,0.77937 0.43934,1.06066 C -0.77937,1.341951 -0.397805,1.5 0,1.5 Z"
         style="fill:#ff7f0e;stroke:#ff7f0e;stroke-linecap:butt;stroke-linejoin:round"
         id="use226"
         transform="translate(347.90809,213.20575)"
         unlinked_clone="True"
         clip-path="url(#clipPath1045)" />
      <path
         d="M 0,1.5 C 0.397805,1.5 0.77937,1.341951 1.06066,1.06066 1.341951,0.77937 1.5,0.397805 1.5,0 1.5,-0.397805 1.341951,-0.77937 1.06066,-1.06066 0.77937,-1.341951 0.397805,-1.5 0,-1.5 c -0.397805,0 -0.77937,0.158049 -1.06066,0.43934 C -1.341951,-0.77937 -1.5,-0.397805 -1.5,0 c 0,0.397805 0.158049,0.77937 0.43934,1.06066 C -0.77937,1.341951 -0.397805,1.5 0,1.5 Z"
         style="fill:#ff7f0e;stroke:#ff7f0e;stroke-linecap:butt;stroke-linejoin:round"
         id="use228"
         transform="translate(351.37309,207.79175)"
         unlinked_clone="True"
         clip-path="url(#clipPath4330)" />
      <path
         d="M 0,1.5 C 0.397805,1.5 0.77937,1.341951 1.06066,1.06066 1.341951,0.77937 1.5,0.397805 1.5,0 1.5,-0.397805 1.341951,-0.77937 1.06066,-1.06066 0.77937,-1.341951 0.397805,-1.5 0,-1.5 c -0.397805,0 -0.77937,0.158049 -1.06066,0.43934 C -1.341951,-0.77937 -1.5,-0.397805 -1.5,0 c 0,0.397805 0.158049,0.77937 0.43934,1.06066 C -0.77937,1.341951 -0.397805,1.5 0,1.5 Z"
         style="fill:#ff7f0e;stroke:#ff7f0e;stroke-linecap:butt;stroke-linejoin:round"
         id="use230"
         transform="translate(351.52409,202.37675)"
         unlinked_clone="True"
         clip-path="url(#clipPath2058)" />
      <path
         d="M 0,1.5 C 0.397805,1.5 0.77937,1.341951 1.06066,1.06066 1.341951,0.77937 1.5,0.397805 1.5,0 1.5,-0.397805 1.341951,-0.77937 1.06066,-1.06066 0.77937,-1.341951 0.397805,-1.5 0,-1.5 c -0.397805,0 -0.77937,0.158049 -1.06066,0.43934 C -1.341951,-0.77937 -1.5,-0.397805 -1.5,0 c 0,0.397805 0.158049,0.77937 0.43934,1.06066 C -0.77937,1.341951 -0.397805,1.5 0,1.5 Z"
         style="fill:#ff7f0e;stroke:#ff7f0e;stroke-linecap:butt;stroke-linejoin:round"
         id="use232"
         transform="translate(348.70109,196.96175)"
         unlinked_clone="True"
         clip-path="url(#clipPath3780)" />
      <path
         d="M 0,1.5 C 0.397805,1.5 0.77937,1.341951 1.06066,1.06066 1.341951,0.77937 1.5,0.397805 1.5,0 1.5,-0.397805 1.341951,-0.77937 1.06066,-1.06066 0.77937,-1.341951 0.397805,-1.5 0,-1.5 c -0.397805,0 -0.77937,0.158049 -1.06066,0.43934 C -1.341951,-0.77937 -1.5,-0.397805 -1.5,0 c 0,0.397805 0.158049,0.77937 0.43934,1.06066 C -0.77937,1.341951 -0.397805,1.5 0,1.5 Z"
         style="fill:#ff7f0e;stroke:#ff7f0e;stroke-linecap:butt;stroke-linejoin:round"
         id="use234"
         transform="translate(343.25309,191.55075)"
         unlinked_clone="True"
         clip-path="url(#clipPath7040)" />
      <path
         d="M 0,1.5 C 0.397805,1.5 0.77937,1.341951 1.06066,1.06066 1.341951,0.77937 1.5,0.397805 1.5,0 1.5,-0.397805 1.341951,-0.77937 1.06066,-1.06066 0.77937,-1.341951 0.397805,-1.5 0,-1.5 c -0.397805,0 -0.77937,0.158049 -1.06066,0.43934 C -1.341951,-0.77937 -1.5,-0.397805 -1.5,0 c 0,0.397805 0.158049,0.77937 0.43934,1.06066 C -0.77937,1.341951 -0.397805,1.5 0,1.5 Z"
         style="fill:#ff7f0e;stroke:#ff7f0e;stroke-linecap:butt;stroke-linejoin:round"
         id="use236"
         transform="translate(335.52709,186.14375)"
         unlinked_clone="True"
         clip-path="url(#clipPath8677)" />
      <path
         d="M 0,1.5 C 0.397805,1.5 0.77937,1.341951 1.06066,1.06066 1.341951,0.77937 1.5,0.397805 1.5,0 1.5,-0.397805 1.341951,-0.77937 1.06066,-1.06066 0.77937,-1.341951 0.397805,-1.5 0,-1.5 c -0.397805,0 -0.77937,0.158049 -1.06066,0.43934 C -1.341951,-0.77937 -1.5,-0.397805 -1.5,0 c 0,0.397805 0.158049,0.77937 0.43934,1.06066 C -0.77937,1.341951 -0.397805,1.5 0,1.5 Z"
         style="fill:#ff7f0e;stroke:#ff7f0e;stroke-linecap:butt;stroke-linejoin:round"
         id="use238"
         transform="translate(325.86909,180.74075)"
         unlinked_clone="True"
         clip-path="url(#clipPath5703)" />
      <path
         d="M 0,1.5 C 0.397805,1.5 0.77937,1.341951 1.06066,1.06066 1.341951,0.77937 1.5,0.397805 1.5,0 1.5,-0.397805 1.341951,-0.77937 1.06066,-1.06066 0.77937,-1.341951 0.397805,-1.5 0,-1.5 c -0.397805,0 -0.77937,0.158049 -1.06066,0.43934 C -1.341951,-0.77937 -1.5,-0.397805 -1.5,0 c 0,0.397805 0.158049,0.77937 0.43934,1.06066 C -0.77937,1.341951 -0.397805,1.5 0,1.5 Z"
         style="fill:#ff7f0e;stroke:#ff7f0e;stroke-linecap:butt;stroke-linejoin:round"
         id="use240"
         transform="translate(314.62609,175.34275)"
         unlinked_clone="True"
         clip-path="url(#clipPath8194)" />
      <path
         d="M 0,1.5 C 0.397805,1.5 0.77937,1.341951 1.06066,1.06066 1.341951,0.77937 1.5,0.397805 1.5,0 1.5,-0.397805 1.341951,-0.77937 1.06066,-1.06066 0.77937,-1.341951 0.397805,-1.5 0,-1.5 c -0.397805,0 -0.77937,0.158049 -1.06066,0.43934 C -1.341951,-0.77937 -1.5,-0.397805 -1.5,0 c 0,0.397805 0.158049,0.77937 0.43934,1.06066 C -0.77937,1.341951 -0.397805,1.5 0,1.5 Z"
         style="fill:#ff7f0e;stroke:#ff7f0e;stroke-linecap:butt;stroke-linejoin:round"
         id="use242"
         transform="translate(302.13809,169.94775)"
         unlinked_clone="True"
         clip-path="url(#clipPath8787)" />
      <path
         d="M 0,1.5 C 0.397805,1.5 0.77937,1.341951 1.06066,1.06066 1.341951,0.77937 1.5,0.397805 1.5,0 1.5,-0.397805 1.341951,-0.77937 1.06066,-1.06066 0.77937,-1.341951 0.397805,-1.5 0,-1.5 c -0.397805,0 -0.77937,0.158049 -1.06066,0.43934 C -1.341951,-0.77937 -1.5,-0.397805 -1.5,0 c 0,0.397805 0.158049,0.77937 0.43934,1.06066 C -0.77937,1.341951 -0.397805,1.5 0,1.5 Z"
         style="fill:#ff7f0e;stroke:#ff7f0e;stroke-linecap:butt;stroke-linejoin:round"
         id="use244"
         transform="translate(288.74609,164.55675)"
         unlinked_clone="True"
         clip-path="url(#clipPath2524)" />
      <path
         d="M 0,1.5 C 0.397805,1.5 0.77937,1.341951 1.06066,1.06066 1.341951,0.77937 1.5,0.397805 1.5,0 1.5,-0.397805 1.341951,-0.77937 1.06066,-1.06066 0.77937,-1.341951 0.397805,-1.5 0,-1.5 c -0.397805,0 -0.77937,0.158049 -1.06066,0.43934 C -1.341951,-0.77937 -1.5,-0.397805 -1.5,0 c 0,0.397805 0.158049,0.77937 0.43934,1.06066 C -0.77937,1.341951 -0.397805,1.5 0,1.5 Z"
         style="fill:#ff7f0e;stroke:#ff7f0e;stroke-linecap:butt;stroke-linejoin:round"
         id="use246"
         transform="translate(274.78509,159.16775)"
         unlinked_clone="True"
         clip-path="url(#clipPath7438)" />
      <path
         d="M 0,1.5 C 0.397805,1.5 0.77937,1.341951 1.06066,1.06066 1.341951,0.77937 1.5,0.397805 1.5,0 1.5,-0.397805 1.341951,-0.77937 1.06066,-1.06066 0.77937,-1.341951 0.397805,-1.5 0,-1.5 c -0.397805,0 -0.77937,0.158049 -1.06066,0.43934 C -1.341951,-0.77937 -1.5,-0.397805 -1.5,0 c 0,0.397805 0.158049,0.77937 0.43934,1.06066 C -0.77937,1.341951 -0.397805,1.5 0,1.5 Z"
         style="fill:#ff7f0e;stroke:#ff7f0e;stroke-linecap:butt;stroke-linejoin:round"
         id="use248"
         transform="translate(260.59209,153.77875)"
         unlinked_clone="True"
         clip-path="url(#clipPath3104)" />
      <path
         d="M 0,1.5 C 0.397805,1.5 0.77937,1.341951 1.06066,1.06066 1.341951,0.77937 1.5,0.397805 1.5,0 1.5,-0.397805 1.341951,-0.77937 1.06066,-1.06066 0.77937,-1.341951 0.397805,-1.5 0,-1.5 c -0.397805,0 -0.77937,0.158049 -1.06066,0.43934 C -1.341951,-0.77937 -1.5,-0.397805 -1.5,0 c 0,0.397805 0.158049,0.77937 0.43934,1.06066 C -0.77937,1.341951 -0.397805,1.5 0,1.5 Z"
         style="fill:#ff7f0e;stroke:#ff7f0e;stroke-linecap:butt;stroke-linejoin:round"
         id="use250"
         transform="translate(246.50009,148.39075)"
         unlinked_clone="True"
         clip-path="url(#clipPath3064)" />
      <path
         d="M 0,1.5 C 0.397805,1.5 0.77937,1.341951 1.06066,1.06066 1.341951,0.77937 1.5,0.397805 1.5,0 1.5,-0.397805 1.341951,-0.77937 1.06066,-1.06066 0.77937,-1.341951 0.397805,-1.5 0,-1.5 c -0.397805,0 -0.77937,0.158049 -1.06066,0.43934 C -1.341951,-0.77937 -1.5,-0.397805 -1.5,0 c 0,0.397805 0.158049,0.77937 0.43934,1.06066 C -0.77937,1.341951 -0.397805,1.5 0,1.5 Z"
         style="fill:#ff7f0e;stroke:#ff7f0e;stroke-linecap:butt;stroke-linejoin:round"
         id="use252"
         transform="translate(232.84409,142.99975)"
         unlinked_clone="True"
         clip-path="url(#clipPath9679)" />
      <path
         d="M 0,1.5 C 0.397805,1.5 0.77937,1.341951 1.06066,1.06066 1.341951,0.77937 1.5,0.397805 1.5,0 1.5,-0.397805 1.341951,-0.77937 1.06066,-1.06066 0.77937,-1.341951 0.397805,-1.5 0,-1.5 c -0.397805,0 -0.77937,0.158049 -1.06066,0.43934 C -1.341951,-0.77937 -1.5,-0.397805 -1.5,0 c 0,0.397805 0.158049,0.77937 0.43934,1.06066 C -0.77937,1.341951 -0.397805,1.5 0,1.5 Z"
         style="fill:#ff7f0e;stroke:#ff7f0e;stroke-linecap:butt;stroke-linejoin:round"
         id="use254"
         transform="translate(219.96209,137.60675)"
         unlinked_clone="True"
         clip-path="url(#clipPath588)" />
      <path
         d="M 0,1.5 C 0.397805,1.5 0.77937,1.341951 1.06066,1.06066 1.341951,0.77937 1.5,0.397805 1.5,0 1.5,-0.397805 1.341951,-0.77937 1.06066,-1.06066 0.77937,-1.341951 0.397805,-1.5 0,-1.5 c -0.397805,0 -0.77937,0.158049 -1.06066,0.43934 C -1.341951,-0.77937 -1.5,-0.397805 -1.5,0 c 0,0.397805 0.158049,0.77937 0.43934,1.06066 C -0.77937,1.341951 -0.397805,1.5 0,1.5 Z"
         style="fill:#ff7f0e;stroke:#ff7f0e;stroke-linecap:butt;stroke-linejoin:round"
         id="use256"
         transform="translate(208.19009,132.21075)"
         unlinked_clone="True"
         clip-path="url(#clipPath3213)" />
      <path
         d="M 0,1.5 C 0.397805,1.5 0.77937,1.341951 1.06066,1.06066 1.341951,0.77937 1.5,0.397805 1.5,0 1.5,-0.397805 1.341951,-0.77937 1.06066,-1.06066 0.77937,-1.341951 0.397805,-1.5 0,-1.5 c -0.397805,0 -0.77937,0.158049 -1.06066,0.43934 C -1.341951,-0.77937 -1.5,-0.397805 -1.5,0 c 0,0.397805 0.158049,0.77937 0.43934,1.06066 C -0.77937,1.341951 -0.397805,1.5 0,1.5 Z"
         style="fill:#ff7f0e;stroke:#ff7f0e;stroke-linecap:butt;stroke-linejoin:round"
         id="use258"
         transform="translate(197.86909,126.80975)"
         unlinked_clone="True"
         clip-path="url(#clipPath3949)" />
      <path
         d="M 0,1.5 C 0.397805,1.5 0.77937,1.341951 1.06066,1.06066 1.341951,0.77937 1.5,0.397805 1.5,0 1.5,-0.397805 1.341951,-0.77937 1.06066,-1.06066 0.77937,-1.341951 0.397805,-1.5 0,-1.5 c -0.397805,0 -0.77937,0.158049 -1.06066,0.43934 C -1.341951,-0.77937 -1.5,-0.397805 -1.5,0 c 0,0.397805 0.158049,0.77937 0.43934,1.06066 C -0.77937,1.341951 -0.397805,1.5 0,1.5 Z"
         style="fill:#ff7f0e;stroke:#ff7f0e;stroke-linecap:butt;stroke-linejoin:round"
         id="use260"
         transform="translate(189.34509,121.40375)"
         unlinked_clone="True"
         clip-path="url(#clipPath2232)" />
      <path
         d="M 0,1.5 C 0.397805,1.5 0.77937,1.341951 1.06066,1.06066 1.341951,0.77937 1.5,0.397805 1.5,0 1.5,-0.397805 1.341951,-0.77937 1.06066,-1.06066 0.77937,-1.341951 0.397805,-1.5 0,-1.5 c -0.397805,0 -0.77937,0.158049 -1.06066,0.43934 C -1.341951,-0.77937 -1.5,-0.397805 -1.5,0 c 0,0.397805 0.158049,0.77937 0.43934,1.06066 C -0.77937,1.341951 -0.397805,1.5 0,1.5 Z"
         style="fill:#ff7f0e;stroke:#ff7f0e;stroke-linecap:butt;stroke-linejoin:round"
         id="use262"
         transform="translate(182.96209,115.99375)"
         unlinked_clone="True"
         clip-path="url(#clipPath7978)" />
      <path
         d="M 0,1.5 C 0.397805,1.5 0.77937,1.341951 1.06066,1.06066 1.341951,0.77937 1.5,0.397805 1.5,0 1.5,-0.397805 1.341951,-0.77937 1.06066,-1.06066 0.77937,-1.341951 0.397805,-1.5 0,-1.5 c -0.397805,0 -0.77937,0.158049 -1.06066,0.43934 C -1.341951,-0.77937 -1.5,-0.397805 -1.5,0 c 0,0.397805 0.158049,0.77937 0.43934,1.06066 C -0.77937,1.341951 -0.397805,1.5 0,1.5 Z"
         style="fill:#ff7f0e;stroke:#ff7f0e;stroke-linecap:butt;stroke-linejoin:round"
         id="use264"
         transform="translate(179.06809,110.58075)"
         unlinked_clone="True"
         clip-path="url(#clipPath2206)" />
      <path
         d="M 0,1.5 C 0.397805,1.5 0.77937,1.341951 1.06066,1.06066 1.341951,0.77937 1.5,0.397805 1.5,0 1.5,-0.397805 1.341951,-0.77937 1.06066,-1.06066 0.77937,-1.341951 0.397805,-1.5 0,-1.5 c -0.397805,0 -0.77937,0.158049 -1.06066,0.43934 C -1.341951,-0.77937 -1.5,-0.397805 -1.5,0 c 0,0.397805 0.158049,0.77937 0.43934,1.06066 C -0.77937,1.341951 -0.397805,1.5 0,1.5 Z"
         style="fill:#ff7f0e;stroke:#ff7f0e;stroke-linecap:butt;stroke-linejoin:round"
         id="use266"
         transform="translate(178.01109,105.16575)"
         unlinked_clone="True"
         clip-path="url(#clipPath6782)" />
      <path
         d="M 0,1.5 C 0.397805,1.5 0.77937,1.341951 1.06066,1.06066 1.341951,0.77937 1.5,0.397805 1.5,0 1.5,-0.397805 1.341951,-0.77937 1.06066,-1.06066 0.77937,-1.341951 0.397805,-1.5 0,-1.5 c -0.397805,0 -0.77937,0.158049 -1.06066,0.43934 C -1.341951,-0.77937 -1.5,-0.397805 -1.5,0 c 0,0.397805 0.158049,0.77937 0.43934,1.06066 C -0.77937,1.341951 -0.397805,1.5 0,1.5 Z"
         style="fill:#ff7f0e;stroke:#ff7f0e;stroke-linecap:butt;stroke-linejoin:round"
         id="use268"
         transform="translate(180.13609,99.75075)"
         unlinked_clone="True"
         clip-path="url(#clipPath1603)" />
      <path
         d="M 0,1.5 C 0.397805,1.5 0.77937,1.341951 1.06066,1.06066 1.341951,0.77937 1.5,0.397805 1.5,0 1.5,-0.397805 1.341951,-0.77937 1.06066,-1.06066 0.77937,-1.341951 0.397805,-1.5 0,-1.5 c -0.397805,0 -0.77937,0.158049 -1.06066,0.43934 C -1.341951,-0.77937 -1.5,-0.397805 -1.5,0 c 0,0.397805 0.158049,0.77937 0.43934,1.06066 C -0.77937,1.341951 -0.397805,1.5 0,1.5 Z"
         style="fill:#ff7f0e;stroke:#ff7f0e;stroke-linecap:butt;stroke-linejoin:round"
         id="use270"
         transform="translate(185.78009,94.339755)"
         unlinked_clone="True"
         clip-path="url(#clipPath1465)" />
      <path
         d="M 0,1.5 C 0.397805,1.5 0.77937,1.341951 1.06066,1.06066 1.341951,0.77937 1.5,0.397805 1.5,0 1.5,-0.397805 1.341951,-0.77937 1.06066,-1.06066 0.77937,-1.341951 0.397805,-1.5 0,-1.5 c -0.397805,0 -0.77937,0.158049 -1.06066,0.43934 C -1.341951,-0.77937 -1.5,-0.397805 -1.5,0 c 0,0.397805 0.158049,0.77937 0.43934,1.06066 C -0.77937,1.341951 -0.397805,1.5 0,1.5 Z"
         style="fill:#ff7f0e;stroke:#ff7f0e;stroke-linecap:butt;stroke-linejoin:round"
         id="use272"
         transform="translate(195.26909,88.93575)"
         unlinked_clone="True"
         clip-path="url(#clipPath209)" />
      <path
         d="M 0,1.5 C 0.397805,1.5 0.77937,1.341951 1.06066,1.06066 1.341951,0.77937 1.5,0.397805 1.5,0 1.5,-0.397805 1.341951,-0.77937 1.06066,-1.06066 0.77937,-1.341951 0.397805,-1.5 0,-1.5 c -0.397805,0 -0.77937,0.158049 -1.06066,0.43934 C -1.341951,-0.77937 -1.5,-0.397805 -1.5,0 c 0,0.397805 0.158049,0.77937 0.43934,1.06066 C -0.77937,1.341951 -0.397805,1.5 0,1.5 Z"
         style="fill:#ff7f0e;stroke:#ff7f0e;stroke-linecap:butt;stroke-linejoin:round"
         id="use274"
         transform="translate(208.91209,83.54475)"
         unlinked_clone="True"
         clip-path="url(#clipPath6056)" />
      <path
         d="M 0,1.5 C 0.397805,1.5 0.77937,1.341951 1.06066,1.06066 1.341951,0.77937 1.5,0.397805 1.5,0 1.5,-0.397805 1.341951,-0.77937 1.06066,-1.06066 0.77937,-1.341951 0.397805,-1.5 0,-1.5 c -0.397805,0 -0.77937,0.158049 -1.06066,0.43934 C -1.341951,-0.77937 -1.5,-0.397805 -1.5,0 c 0,0.397805 0.158049,0.77937 0.43934,1.06066 C -0.77937,1.341951 -0.397805,1.5 0,1.5 Z"
         style="fill:#ff7f0e;stroke:#ff7f0e;stroke-linecap:butt;stroke-linejoin:round"
         id="use276"
         transform="translate(226.99309,78.172755)"
         unlinked_clone="True"
         clip-path="url(#clipPath5101)" />
      <path
         d="M 0,1.5 C 0.397805,1.5 0.77937,1.341951 1.06066,1.06066 1.341951,0.77937 1.5,0.397805 1.5,0 1.5,-0.397805 1.341951,-0.77937 1.06066,-1.06066 0.77937,-1.341951 0.397805,-1.5 0,-1.5 c -0.397805,0 -0.77937,0.158049 -1.06066,0.43934 C -1.341951,-0.77937 -1.5,-0.397805 -1.5,0 c 0,0.397805 0.158049,0.77937 0.43934,1.06066 C -0.77937,1.341951 -0.397805,1.5 0,1.5 Z"
         style="fill:#ff7f0e;stroke:#ff7f0e;stroke-linecap:butt;stroke-linejoin:round"
         id="use278"
         transform="translate(249.76709,72.825953)"
         unlinked_clone="True"
         clip-path="url(#clipPath1088)" />
      <path
         d="M 0,1.5 C 0.397805,1.5 0.77937,1.341951 1.06066,1.06066 1.341951,0.77937 1.5,0.397805 1.5,0 1.5,-0.397805 1.341951,-0.77937 1.06066,-1.06066 0.77937,-1.341951 0.397805,-1.5 0,-1.5 c -0.397805,0 -0.77937,0.158049 -1.06066,0.43934 C -1.341951,-0.77937 -1.5,-0.397805 -1.5,0 c 0,0.397805 0.158049,0.77937 0.43934,1.06066 C -0.77937,1.341951 -0.397805,1.5 0,1.5 Z"
         style="fill:#ff7f0e;stroke:#ff7f0e;stroke-linecap:butt;stroke-linejoin:round"
         id="use280"
         transform="translate(277.44809,67.512553)"
         unlinked_clone="True"
         clip-path="url(#clipPath4209)" />
      <path
         d="M 0,1.5 C 0.397805,1.5 0.77937,1.341951 1.06066,1.06066 1.341951,0.77937 1.5,0.397805 1.5,0 1.5,-0.397805 1.341951,-0.77937 1.06066,-1.06066 0.77937,-1.341951 0.397805,-1.5 0,-1.5 c -0.397805,0 -0.77937,0.158049 -1.06066,0.43934 C -1.341951,-0.77937 -1.5,-0.397805 -1.5,0 c 0,0.397805 0.158049,0.77937 0.43934,1.06066 C -0.77937,1.341951 -0.397805,1.5 0,1.5 Z"
         style="fill:#ff7f0e;stroke:#ff7f0e;stroke-linecap:butt;stroke-linejoin:round"
         id="use282"
         transform="translate(310.20609,62.240853)"
         unlinked_clone="True"
         clip-path="url(#clipPath237)" />
      <path
         d="M 0,1.5 C 0.397805,1.5 0.77937,1.341951 1.06066,1.06066 1.341951,0.77937 1.5,0.397805 1.5,0 1.5,-0.397805 1.341951,-0.77937 1.06066,-1.06066 0.77937,-1.341951 0.397805,-1.5 0,-1.5 c -0.397805,0 -0.77937,0.158049 -1.06066,0.43934 C -1.341951,-0.77937 -1.5,-0.397805 -1.5,0 c 0,0.397805 0.158049,0.77937 0.43934,1.06066 C -0.77937,1.341951 -0.397805,1.5 0,1.5 Z"
         style="fill:#ff7f0e;stroke:#ff7f0e;stroke-linecap:butt;stroke-linejoin:round"
         id="use284"
         transform="translate(348.16309,57.019453)"
         unlinked_clone="True"
         clip-path="url(#clipPath3220)" />
      <path
         d="M 0,1.5 C 0.397805,1.5 0.77937,1.341951 1.06066,1.06066 1.341951,0.77937 1.5,0.397805 1.5,0 1.5,-0.397805 1.341951,-0.77937 1.06066,-1.06066 0.77937,-1.341951 0.397805,-1.5 0,-1.5 c -0.397805,0 -0.77937,0.158049 -1.06066,0.43934 C -1.341951,-0.77937 -1.5,-0.397805 -1.5,0 c 0,0.397805 0.158049,0.77937 0.43934,1.06066 C -0.77937,1.341951 -0.397805,1.5 0,1.5 Z"
         style="fill:#ff7f0e;stroke:#ff7f0e;stroke-linecap:butt;stroke-linejoin:round"
         id="use286"
         transform="translate(391.38309,51.857053)"
         unlinked_clone="True"
         clip-path="url(#clipPath7116)" />
      <path
         d="M 0,1.5 C 0.397805,1.5 0.77937,1.341951 1.06066,1.06066 1.341951,0.77937 1.5,0.397805 1.5,0 1.5,-0.397805 1.341951,-0.77937 1.06066,-1.06066 0.77937,-1.341951 0.397805,-1.5 0,-1.5 c -0.397805,0 -0.77937,0.158049 -1.06066,0.43934 C -1.341951,-0.77937 -1.5,-0.397805 -1.5,0 c 0,0.397805 0.158049,0.77937 0.43934,1.06066 C -0.77937,1.341951 -0.397805,1.5 0,1.5 Z"
         style="fill:#ff7f0e;stroke:#ff7f0e;stroke-linecap:butt;stroke-linejoin:round"
         id="use288"
         transform="translate(439.87609,46.762453)"
         unlinked_clone="True"
         clip-path="url(#clipPath1682)" />
      <path
         d="M 57.6,307.584 V 41.472"
         style="fill:none;stroke:#000000;stroke-width:0.8;stroke-linecap:square;stroke-linejoin:miter"
         id="path301"
         transform="translate(28.750087,-26.354247)" />
      <path
         d="M 414.72,307.584 V 41.472"
         style="fill:none;stroke:#000000;stroke-width:0.8;stroke-linecap:square;stroke-linejoin:miter"
         id="path304"
         transform="translate(28.750087,-26.354247)" />
      <path
         d="M 57.6,307.584 H 414.72"
         style="fill:none;stroke:#000000;stroke-width:0.8;stroke-linecap:square;stroke-linejoin:miter"
         id="path307"
         transform="translate(28.750087,-26.354247)" />
      <path
         d="M 57.6,41.472 H 414.72"
         style="fill:none;stroke:#000000;stroke-width:0.8;stroke-linecap:square;stroke-linejoin:miter"
         id="path310"
         transform="translate(28.750087,-26.354247)" />
      <path
         d="m 64.6,78.82825 h 119.69844 q 2,0 2,-2 V 48.472 q 0,-2 -2,-2 H 64.6 q -2,0 -2,2 v 28.35625 q 0,2 2,2 z"
         style="opacity:0.8;fill:#ffffff;stroke:#cccccc;stroke-width:0.93373;stroke-linecap:butt;stroke-linejoin:miter"
         id="path313"
         transform="matrix(1.1447064,0,0,1.0019907,19.725888,-26.478965)" />
      <path
         d="m 66.6,54.570437 h 10 10"
         style="fill:none;stroke:#1f77b4;stroke-width:1.5;stroke-linecap:square;stroke-linejoin:round"
         id="path316"
         transform="translate(28.750087,-26.354247)" />
      <path
         d="M 0,1.5 C 0.397805,1.5 0.77937,1.341951 1.06066,1.06066 1.341951,0.77937 1.5,0.397805 1.5,0 1.5,-0.397805 1.341951,-0.77937 1.06066,-1.06066 0.77937,-1.341951 0.397805,-1.5 0,-1.5 c -0.397805,0 -0.77937,0.158049 -1.06066,0.43934 C -1.341951,-0.77937 -1.5,-0.397805 -1.5,0 c 0,0.397805 0.158049,0.77937 0.43934,1.06066 C -0.77937,1.341951 -0.397805,1.5 0,1.5 Z"
         style="fill:#ff7f0e;stroke:#ff7f0e;stroke-linecap:butt;stroke-linejoin:round"
         id="use339"
         transform="translate(105.35009,42.894353)"
         unlinked_clone="True" />
      <text
         xml:space="preserve"
         style="font-size:18.6667px;font-family:'CMU Serif';-inkscape-font-specification:'CMU Serif';fill:#000000;stroke-width:2.56252"
         x="28.35078"
         y="211.63258"
         id="text1797"
         transform="matrix(0.75,0,0,0.75,41.580891,1.200616)"><tspan
           sodipodi:role="line"
           id="tspan1795"
           x="28.35078"
           y="211.63258">0.0</tspan></text>
      <text
         xml:space="preserve"
         style="font-size:18.6667px;font-family:'CMU Serif';-inkscape-font-specification:'CMU Serif';fill:#000000;stroke-width:2.56252"
         x="25.156326"
         y="126.18094"
         id="text1851"
         transform="matrix(0.75,0,0,0.75,43.797044,-42.937024)"><tspan
           sodipodi:role="line"
           id="tspan1849"
           x="25.156326"
           y="126.18094">0.4</tspan></text>
      <text
         xml:space="preserve"
         style="font-size:18.6667px;font-family:'CMU Serif';-inkscape-font-specification:'CMU Serif';fill:#000000;stroke-width:2.56252"
         x="31.545235"
         y="354.18509"
         id="text1855"
         transform="matrix(0.75,0,0,0.75,33.685018,2.663564)"><tspan
           sodipodi:role="line"
           id="tspan1853"
           x="31.545235"
           y="354.18509">-0.4</tspan></text>
      <text
         xml:space="preserve"
         style="font-size:18.6667px;font-family:'CMU Serif';-inkscape-font-specification:'CMU Serif';fill:#000000;stroke-width:2.56252"
         x="99.427383"
         y="450.81735"
         id="text1859"
         transform="matrix(0.75,0,0,0.75,33.006199,-40.28009)"><tspan
           sodipodi:role="line"
           id="tspan1857"
           x="99.427383"
           y="450.81735">-0.02</tspan></text>
      <text
         xml:space="preserve"
         style="font-size:18.6667px;font-family:'CMU Serif';-inkscape-font-specification:'CMU Serif';fill:#000000;stroke-width:2.56252"
         x="298.28214"
         y="443.62982"
         id="text1863"
         transform="matrix(0.75,0,0,0.75,28.760498,-34.889442)"><tspan
           sodipodi:role="line"
           id="tspan1861"
           x="298.28214"
           y="443.62982">0.00</tspan></text>
      <text
         xml:space="preserve"
         style="font-size:18.6667px;font-family:'CMU Serif';-inkscape-font-specification:'CMU Serif';fill:#000000;stroke-width:2.56252"
         x="491.54663"
         y="441.63327"
         id="text1867"
         transform="matrix(0.75,0,0,0.75,26.735322,-33.392029)"><tspan
           sodipodi:role="line"
           id="tspan1865"
           x="491.54663"
           y="441.63327">0.02</tspan></text>
      <text
         xml:space="preserve"
         style="font-size:18.6667px;font-family:'CMU Serif';-inkscape-font-specification:'CMU Serif';fill:#000000;stroke-width:2.56252"
         x="193.26447"
         y="76.866554"
         id="text2100"
         transform="matrix(0.75,0,0,0.75,-22.540191,-24.655405)"><tspan
           sodipodi:role="line"
           id="tspan2098"
           x="193.26447"
           y="76.866554">exact solution</tspan></text>
      <text
         xml:space="preserve"
         style="font-size:18.6667px;font-family:'CMU Serif';-inkscape-font-specification:'CMU Serif';fill:#000000;stroke-width:2.56252"
         x="186.07695"
         y="141.75391"
         id="text2104"
         transform="matrix(0.75,0,0,0.75,-16.793305,-60.006526)"><tspan
           sodipodi:role="line"
           id="tspan2102"
           x="186.07695"
           y="141.75391">pseudo-arclength</tspan></text>
      <g
         clip-path="url(#clipPath8737)"
         id="g17"
         transform="matrix(1.2079855,0,0,1.2079855,259.6063,308.93306)"
         style="stroke-width:0.827825">
        <g
           fill="#000000"
           fill-opacity="1"
           id="g15"
           style="stroke-width:0.685293">
          <g
             id="use13"
             transform="translate(0,7.4130001)"
             style="stroke-width:0.827825">
            <path
               d="m 8.171875,-4.765625 c 0.09375,-0.34375 0.140625,-0.5625 0.140625,-1.015625 0,-1.03125 -0.59375,-1.8125 -1.90625,-1.8125 C 4.875,-7.59375 4.0625,-6.515625 3.75,-6.078125 3.703125,-7.0625 3,-7.59375 2.234375,-7.59375 c -0.5,0 -0.890625,0.234375 -1.21875,0.890625 -0.3125,0.625 -0.546875,1.671875 -0.546875,1.75 0,0.0625 0.0625,0.15625 0.1875,0.15625 0.140625,0 0.15625,-0.03125 0.25,-0.421875 C 1.171875,-6.234375 1.5,-7.25 2.1875,-7.25 c 0.390625,0 0.53125,0.28125 0.53125,0.796875 0,0.375 -0.171875,1.046875 -0.296875,1.578125 l -0.46875,1.859375 C 1.875,-2.6875 1.6875,-1.90625 1.59375,-1.59375 c -0.109375,0.4375 -0.296875,1.25 -0.296875,1.328125 0,0.25 0.1875,0.4375 0.4375,0.4375 0.21875,0 0.453125,-0.109375 0.59375,-0.359375 0.03125,-0.09375 0.1875,-0.6875 0.265625,-1.03125 l 0.390625,-1.546875 0.5625,-2.28125 C 3.578125,-5.140625 4.015625,-6.015625 4.65625,-6.5625 5.09375,-6.96875 5.6875,-7.25 6.359375,-7.25 c 0.6875,0 0.921875,0.515625 0.921875,1.203125 0,0.5 -0.0625,0.78125 -0.15625,1.109375 l -2,7.921875 c -0.015625,0.078125 -0.046875,0.1875 -0.046875,0.28125 0,0.265625 0.203125,0.4375 0.46875,0.4375 0.15625,0 0.515625,-0.0625 0.65625,-0.59375 z m 0,0"
               id="path23"
               style="stroke-width:0.827825" />
          </g>
        </g>
      </g>
      <g
         inkscape:label=""
         transform="matrix(1.2145493,0,0,1.2145493,41.40036,150.696)"
         id="g9194"
         style="stroke-width:0.823351">
        <g
           clip-path="url(#clipPath1806)"
           id="g9192"
           transform="translate(-0.46875,0.18175)"
           style="stroke-width:0.823351">
          <g
             fill="#000000"
             fill-opacity="1"
             id="g9190"
             style="stroke-width:0.677906">
            <g
               id="g9188"
               transform="translate(0,7.4120002)"
               style="stroke-width:0.823351">
              <path
                 d="m 5.875,-1 c 0.21875,0.96875 1.046875,1.171875 1.453125,1.171875 0.5625,0 0.96875,-0.359375 1.25,-0.953125 0.296875,-0.609375 0.515625,-1.625 0.515625,-1.6875 0,-0.078125 -0.078125,-0.15625 -0.171875,-0.15625 -0.15625,0 -0.171875,0.09375 -0.25,0.359375 -0.296875,1.1875 -0.609375,2.09375 -1.296875,2.09375 -0.515625,0 -0.515625,-0.5625 -0.515625,-0.796875 0,-0.390625 0.046875,-0.5625 0.21875,-1.28125 0.125,-0.46875 0.234375,-0.9375 0.34375,-1.421875 L 8.125,-6.46875 C 8.25,-6.90625 8.25,-6.9375 8.25,-6.984375 c 0,-0.265625 -0.203125,-0.4375 -0.46875,-0.4375 -0.5,0 -0.625,0.4375 -0.71875,0.859375 -0.171875,0.671875 -1.109375,4.375 -1.21875,4.984375 -0.03125,0 -0.703125,1.40625 -1.953125,1.40625 -0.890625,0 -1.0625,-0.78125 -1.0625,-1.40625 0,-0.984375 0.484375,-2.359375 0.921875,-3.515625 0.203125,-0.546875 0.296875,-0.78125 0.296875,-1.125 0,-0.734375 -0.53125,-1.375 -1.359375,-1.375 -1.578125,0 -2.21875,2.5 -2.21875,2.640625 0,0.0625 0.0625,0.15625 0.1875,0.15625 0.15625,0 0.171875,-0.078125 0.234375,-0.3125 C 1.3125,-6.59375 1.984375,-7.25 2.640625,-7.25 c 0.171875,0 0.4375,0.015625 0.4375,0.5625 0,0.453125 -0.1875,0.953125 -0.4375,1.609375 -0.765625,2.046875 -0.84375,2.703125 -0.84375,3.21875 0,1.75 1.3125,2.03125 2.03125,2.03125 1.09375,0 1.703125,-0.75 2.046875,-1.171875 z m 0,0"
                 id="path9186"
                 style="stroke-width:0.823351" />
            </g>
          </g>
        </g>
      </g>
    </g>
  </g>
</svg>
