<?xml version="1.0" encoding="utf-8" standalone="no"?>
<!DOCTYPE svg PUBLIC "-//W3C//DTD SVG 1.1//EN"
  "http://www.w3.org/Graphics/SVG/1.1/DTD/svg11.dtd">
<svg xmlns:xlink="http://www.w3.org/1999/xlink" width="243.36pt" height="332.64pt" viewBox="0 0 243.36 332.64" xmlns="http://www.w3.org/2000/svg" version="1.1">
 <metadata>
  <rdf:RDF xmlns:dc="http://purl.org/dc/elements/1.1/" xmlns:cc="http://creativecommons.org/ns#" xmlns:rdf="http://www.w3.org/1999/02/22-rdf-syntax-ns#">
   <cc:Work>
    <dc:type rdf:resource="http://purl.org/dc/dcmitype/StillImage"/>
    <dc:date>2024-08-06T11:35:10.750852</dc:date>
    <dc:format>image/svg+xml</dc:format>
    <dc:creator>
     <cc:Agent>
      <dc:title>Matplotlib v3.7.0, https://matplotlib.org/</dc:title>
     </cc:Agent>
    </dc:creator>
   </cc:Work>
  </rdf:RDF>
 </metadata>
 <defs>
  <style type="text/css">*{stroke-linejoin: round; stroke-linecap: butt}</style>
 </defs>
 <g id="figure_1">
  <g id="patch_1">
   <path d="M 0 332.64 
L 243.36 332.64 
L 243.36 0 
L 0 0 
z
" style="fill: #ffffff"/>
  </g>
  <g id="axes_1">
   <g id="patch_2">
    <path d="M 30.42 296.0496 
L 219.024 296.0496 
L 219.024 39.9168 
L 30.42 39.9168 
z
" style="fill: #ffffff"/>
   </g>
   <g id="matplotlib.axis_1">
    <g id="xtick_1">
     <g id="line2d_1">
      <defs>
       <path id="mc099e164eb" d="M 0 0 
L 0 3.5 
" style="stroke: #000000; stroke-width: 0.8"/>
      </defs>
      <g>
       <use xlink:href="#mc099e164eb" x="40.022516" y="296.0496" style="stroke: #000000; stroke-width: 0.8"/>
      </g>
     </g>
     <g id="text_1">
      <!-- −0.44 -->
      <g transform="translate(24.69986 310.648037) scale(0.1 -0.1)">
       <defs>
        <path id="DejaVuSans-2212" d="M 678 2272 
L 4684 2272 
L 4684 1741 
L 678 1741 
L 678 2272 
z
" transform="scale(0.015625)"/>
        <path id="DejaVuSans-30" d="M 2034 4250 
Q 1547 4250 1301 3770 
Q 1056 3291 1056 2328 
Q 1056 1369 1301 889 
Q 1547 409 2034 409 
Q 2525 409 2770 889 
Q 3016 1369 3016 2328 
Q 3016 3291 2770 3770 
Q 2525 4250 2034 4250 
z
M 2034 4750 
Q 2819 4750 3233 4129 
Q 3647 3509 3647 2328 
Q 3647 1150 3233 529 
Q 2819 -91 2034 -91 
Q 1250 -91 836 529 
Q 422 1150 422 2328 
Q 422 3509 836 4129 
Q 1250 4750 2034 4750 
z
" transform="scale(0.015625)"/>
        <path id="DejaVuSans-2e" d="M 684 794 
L 1344 794 
L 1344 0 
L 684 0 
L 684 794 
z
" transform="scale(0.015625)"/>
        <path id="DejaVuSans-34" d="M 2419 4116 
L 825 1625 
L 2419 1625 
L 2419 4116 
z
M 2253 4666 
L 3047 4666 
L 3047 1625 
L 3713 1625 
L 3713 1100 
L 3047 1100 
L 3047 0 
L 2419 0 
L 2419 1100 
L 313 1100 
L 313 1709 
L 2253 4666 
z
" transform="scale(0.015625)"/>
       </defs>
       <use xlink:href="#DejaVuSans-2212"/>
       <use xlink:href="#DejaVuSans-30" x="83.789062"/>
       <use xlink:href="#DejaVuSans-2e" x="147.412109"/>
       <use xlink:href="#DejaVuSans-34" x="179.199219"/>
       <use xlink:href="#DejaVuSans-34" x="242.822266"/>
      </g>
     </g>
    </g>
    <g id="xtick_2">
     <g id="line2d_2">
      <g>
       <use xlink:href="#mc099e164eb" x="72.57487" y="296.0496" style="stroke: #000000; stroke-width: 0.8"/>
      </g>
     </g>
     <g id="text_2">
      <!-- −0.43 -->
      <g transform="translate(57.252214 310.648037) scale(0.1 -0.1)">
       <defs>
        <path id="DejaVuSans-33" d="M 2597 2516 
Q 3050 2419 3304 2112 
Q 3559 1806 3559 1356 
Q 3559 666 3084 287 
Q 2609 -91 1734 -91 
Q 1441 -91 1130 -33 
Q 819 25 488 141 
L 488 750 
Q 750 597 1062 519 
Q 1375 441 1716 441 
Q 2309 441 2620 675 
Q 2931 909 2931 1356 
Q 2931 1769 2642 2001 
Q 2353 2234 1838 2234 
L 1294 2234 
L 1294 2753 
L 1863 2753 
Q 2328 2753 2575 2939 
Q 2822 3125 2822 3475 
Q 2822 3834 2567 4026 
Q 2313 4219 1838 4219 
Q 1578 4219 1281 4162 
Q 984 4106 628 3988 
L 628 4550 
Q 988 4650 1302 4700 
Q 1616 4750 1894 4750 
Q 2613 4750 3031 4423 
Q 3450 4097 3450 3541 
Q 3450 3153 3228 2886 
Q 3006 2619 2597 2516 
z
" transform="scale(0.015625)"/>
       </defs>
       <use xlink:href="#DejaVuSans-2212"/>
       <use xlink:href="#DejaVuSans-30" x="83.789062"/>
       <use xlink:href="#DejaVuSans-2e" x="147.412109"/>
       <use xlink:href="#DejaVuSans-34" x="179.199219"/>
       <use xlink:href="#DejaVuSans-33" x="242.822266"/>
      </g>
     </g>
    </g>
    <g id="xtick_3">
     <g id="line2d_3">
      <g>
       <use xlink:href="#mc099e164eb" x="105.127225" y="296.0496" style="stroke: #000000; stroke-width: 0.8"/>
      </g>
     </g>
     <g id="text_3">
      <!-- −0.42 -->
      <g transform="translate(89.804568 310.648037) scale(0.1 -0.1)">
       <defs>
        <path id="DejaVuSans-32" d="M 1228 531 
L 3431 531 
L 3431 0 
L 469 0 
L 469 531 
Q 828 903 1448 1529 
Q 2069 2156 2228 2338 
Q 2531 2678 2651 2914 
Q 2772 3150 2772 3378 
Q 2772 3750 2511 3984 
Q 2250 4219 1831 4219 
Q 1534 4219 1204 4116 
Q 875 4013 500 3803 
L 500 4441 
Q 881 4594 1212 4672 
Q 1544 4750 1819 4750 
Q 2544 4750 2975 4387 
Q 3406 4025 3406 3419 
Q 3406 3131 3298 2873 
Q 3191 2616 2906 2266 
Q 2828 2175 2409 1742 
Q 1991 1309 1228 531 
z
" transform="scale(0.015625)"/>
       </defs>
       <use xlink:href="#DejaVuSans-2212"/>
       <use xlink:href="#DejaVuSans-30" x="83.789062"/>
       <use xlink:href="#DejaVuSans-2e" x="147.412109"/>
       <use xlink:href="#DejaVuSans-34" x="179.199219"/>
       <use xlink:href="#DejaVuSans-32" x="242.822266"/>
      </g>
     </g>
    </g>
    <g id="xtick_4">
     <g id="line2d_4">
      <g>
       <use xlink:href="#mc099e164eb" x="137.679579" y="296.0496" style="stroke: #000000; stroke-width: 0.8"/>
      </g>
     </g>
     <g id="text_4">
      <!-- −0.41 -->
      <g transform="translate(122.356923 310.648037) scale(0.1 -0.1)">
       <defs>
        <path id="DejaVuSans-31" d="M 794 531 
L 1825 531 
L 1825 4091 
L 703 3866 
L 703 4441 
L 1819 4666 
L 2450 4666 
L 2450 531 
L 3481 531 
L 3481 0 
L 794 0 
L 794 531 
z
" transform="scale(0.015625)"/>
       </defs>
       <use xlink:href="#DejaVuSans-2212"/>
       <use xlink:href="#DejaVuSans-30" x="83.789062"/>
       <use xlink:href="#DejaVuSans-2e" x="147.412109"/>
       <use xlink:href="#DejaVuSans-34" x="179.199219"/>
       <use xlink:href="#DejaVuSans-31" x="242.822266"/>
      </g>
     </g>
    </g>
    <g id="xtick_5">
     <g id="line2d_5">
      <g>
       <use xlink:href="#mc099e164eb" x="170.231933" y="296.0496" style="stroke: #000000; stroke-width: 0.8"/>
      </g>
     </g>
     <g id="text_5">
      <!-- −0.40 -->
      <g transform="translate(154.909277 310.648037) scale(0.1 -0.1)">
       <use xlink:href="#DejaVuSans-2212"/>
       <use xlink:href="#DejaVuSans-30" x="83.789062"/>
       <use xlink:href="#DejaVuSans-2e" x="147.412109"/>
       <use xlink:href="#DejaVuSans-34" x="179.199219"/>
       <use xlink:href="#DejaVuSans-30" x="242.822266"/>
      </g>
     </g>
    </g>
    <g id="xtick_6">
     <g id="line2d_6">
      <g>
       <use xlink:href="#mc099e164eb" x="202.784288" y="296.0496" style="stroke: #000000; stroke-width: 0.8"/>
      </g>
     </g>
     <g id="text_6">
      <!-- −0.39 -->
      <g transform="translate(187.461631 310.648037) scale(0.1 -0.1)">
       <defs>
        <path id="DejaVuSans-39" d="M 703 97 
L 703 672 
Q 941 559 1184 500 
Q 1428 441 1663 441 
Q 2288 441 2617 861 
Q 2947 1281 2994 2138 
Q 2813 1869 2534 1725 
Q 2256 1581 1919 1581 
Q 1219 1581 811 2004 
Q 403 2428 403 3163 
Q 403 3881 828 4315 
Q 1253 4750 1959 4750 
Q 2769 4750 3195 4129 
Q 3622 3509 3622 2328 
Q 3622 1225 3098 567 
Q 2575 -91 1691 -91 
Q 1453 -91 1209 -44 
Q 966 3 703 97 
z
M 1959 2075 
Q 2384 2075 2632 2365 
Q 2881 2656 2881 3163 
Q 2881 3666 2632 3958 
Q 2384 4250 1959 4250 
Q 1534 4250 1286 3958 
Q 1038 3666 1038 3163 
Q 1038 2656 1286 2365 
Q 1534 2075 1959 2075 
z
" transform="scale(0.015625)"/>
       </defs>
       <use xlink:href="#DejaVuSans-2212"/>
       <use xlink:href="#DejaVuSans-30" x="83.789062"/>
       <use xlink:href="#DejaVuSans-2e" x="147.412109"/>
       <use xlink:href="#DejaVuSans-33" x="179.199219"/>
       <use xlink:href="#DejaVuSans-39" x="242.822266"/>
      </g>
     </g>
    </g>
   </g>
   <g id="matplotlib.axis_2">
    <g id="ytick_1">
     <g id="line2d_7">
      <defs>
       <path id="me49a8a7b98" d="M 0 0 
L -3.5 0 
" style="stroke: #000000; stroke-width: 0.8"/>
      </defs>
      <g>
       <use xlink:href="#me49a8a7b98" x="30.42" y="282.321376" style="stroke: #000000; stroke-width: 0.8"/>
      </g>
     </g>
     <g id="text_7">
      <!-- 0.00 -->
      <g transform="translate(1.154375 286.120594) scale(0.1 -0.1)">
       <use xlink:href="#DejaVuSans-30"/>
       <use xlink:href="#DejaVuSans-2e" x="63.623047"/>
       <use xlink:href="#DejaVuSans-30" x="95.410156"/>
       <use xlink:href="#DejaVuSans-30" x="159.033203"/>
      </g>
     </g>
    </g>
    <g id="ytick_2">
     <g id="line2d_8">
      <g>
       <use xlink:href="#me49a8a7b98" x="30.42" y="225.767736" style="stroke: #000000; stroke-width: 0.8"/>
      </g>
     </g>
     <g id="text_8">
      <!-- 0.02 -->
      <g transform="translate(1.154375 229.566955) scale(0.1 -0.1)">
       <use xlink:href="#DejaVuSans-30"/>
       <use xlink:href="#DejaVuSans-2e" x="63.623047"/>
       <use xlink:href="#DejaVuSans-30" x="95.410156"/>
       <use xlink:href="#DejaVuSans-32" x="159.033203"/>
      </g>
     </g>
    </g>
    <g id="ytick_3">
     <g id="line2d_9">
      <g>
       <use xlink:href="#me49a8a7b98" x="30.42" y="169.214097" style="stroke: #000000; stroke-width: 0.8"/>
      </g>
     </g>
     <g id="text_9">
      <!-- 0.04 -->
      <g transform="translate(1.154375 173.013316) scale(0.1 -0.1)">
       <use xlink:href="#DejaVuSans-30"/>
       <use xlink:href="#DejaVuSans-2e" x="63.623047"/>
       <use xlink:href="#DejaVuSans-30" x="95.410156"/>
       <use xlink:href="#DejaVuSans-34" x="159.033203"/>
      </g>
     </g>
    </g>
    <g id="ytick_4">
     <g id="line2d_10">
      <g>
       <use xlink:href="#me49a8a7b98" x="30.42" y="112.660458" style="stroke: #000000; stroke-width: 0.8"/>
      </g>
     </g>
     <g id="text_10">
      <!-- 0.06 -->
      <g transform="translate(1.154375 116.459677) scale(0.1 -0.1)">
       <defs>
        <path id="DejaVuSans-36" d="M 2113 2584 
Q 1688 2584 1439 2293 
Q 1191 2003 1191 1497 
Q 1191 994 1439 701 
Q 1688 409 2113 409 
Q 2538 409 2786 701 
Q 3034 994 3034 1497 
Q 3034 2003 2786 2293 
Q 2538 2584 2113 2584 
z
M 3366 4563 
L 3366 3988 
Q 3128 4100 2886 4159 
Q 2644 4219 2406 4219 
Q 1781 4219 1451 3797 
Q 1122 3375 1075 2522 
Q 1259 2794 1537 2939 
Q 1816 3084 2150 3084 
Q 2853 3084 3261 2657 
Q 3669 2231 3669 1497 
Q 3669 778 3244 343 
Q 2819 -91 2113 -91 
Q 1303 -91 875 529 
Q 447 1150 447 2328 
Q 447 3434 972 4092 
Q 1497 4750 2381 4750 
Q 2619 4750 2861 4703 
Q 3103 4656 3366 4563 
z
" transform="scale(0.015625)"/>
       </defs>
       <use xlink:href="#DejaVuSans-30"/>
       <use xlink:href="#DejaVuSans-2e" x="63.623047"/>
       <use xlink:href="#DejaVuSans-30" x="95.410156"/>
       <use xlink:href="#DejaVuSans-36" x="159.033203"/>
      </g>
     </g>
    </g>
    <g id="ytick_5">
     <g id="line2d_11">
      <g>
       <use xlink:href="#me49a8a7b98" x="30.42" y="56.106819" style="stroke: #000000; stroke-width: 0.8"/>
      </g>
     </g>
     <g id="text_11">
      <!-- 0.08 -->
      <g transform="translate(1.154375 59.906037) scale(0.1 -0.1)">
       <defs>
        <path id="DejaVuSans-38" d="M 2034 2216 
Q 1584 2216 1326 1975 
Q 1069 1734 1069 1313 
Q 1069 891 1326 650 
Q 1584 409 2034 409 
Q 2484 409 2743 651 
Q 3003 894 3003 1313 
Q 3003 1734 2745 1975 
Q 2488 2216 2034 2216 
z
M 1403 2484 
Q 997 2584 770 2862 
Q 544 3141 544 3541 
Q 544 4100 942 4425 
Q 1341 4750 2034 4750 
Q 2731 4750 3128 4425 
Q 3525 4100 3525 3541 
Q 3525 3141 3298 2862 
Q 3072 2584 2669 2484 
Q 3125 2378 3379 2068 
Q 3634 1759 3634 1313 
Q 3634 634 3220 271 
Q 2806 -91 2034 -91 
Q 1263 -91 848 271 
Q 434 634 434 1313 
Q 434 1759 690 2068 
Q 947 2378 1403 2484 
z
M 1172 3481 
Q 1172 3119 1398 2916 
Q 1625 2713 2034 2713 
Q 2441 2713 2670 2916 
Q 2900 3119 2900 3481 
Q 2900 3844 2670 4047 
Q 2441 4250 2034 4250 
Q 1625 4250 1398 4047 
Q 1172 3844 1172 3481 
z
" transform="scale(0.015625)"/>
       </defs>
       <use xlink:href="#DejaVuSans-30"/>
       <use xlink:href="#DejaVuSans-2e" x="63.623047"/>
       <use xlink:href="#DejaVuSans-30" x="95.410156"/>
       <use xlink:href="#DejaVuSans-38" x="159.033203"/>
      </g>
     </g>
    </g>
   </g>
   <g id="line2d_12">
    <path d="M 105.127225 116.988306 
L 104.284739 117.464272 
L 103.449993 117.940699 
L 102.623511 118.417517 
L 101.805792 118.894658 
L 100.997317 119.372059 
L 100.198561 119.849656 
L 99.409993 120.327383 
L 98.632073 120.805175 
L 97.865243 121.282968 
L 97.109947 121.760696 
L 96.36661 122.238295 
L 95.635655 122.715699 
L 94.917486 123.192845 
L 94.212502 123.669668 
L 93.521095 124.146102 
L 92.843642 124.62208 
L 92.180507 125.097541 
L 91.532048 125.572419 
L 90.898608 126.046649 
L 90.280527 126.520164 
L 89.678126 126.992899 
L 89.091712 127.464793 
L 88.521587 127.93578 
L 87.96804 128.405794 
L 87.431348 128.874769 
L 86.911774 129.342642 
L 86.409569 129.809349 
L 85.924972 130.274826 
L 85.458209 130.73901 
L 85.009493 131.201837 
L 84.579025 131.663246 
L 84.166992 132.123172 
L 83.773569 132.581555 
L 83.398914 133.038335 
L 83.043176 133.493451 
L 82.706489 133.946843 
L 82.388972 134.398454 
L 82.090733 134.848223 
L 81.811862 135.296096 
L 81.552442 135.742016 
L 81.312535 136.185927 
L 81.092195 136.627777 
L 80.89146 137.067514 
L 80.710353 137.505086 
L 80.548888 137.940442 
L 80.40706 138.373537 
L 80.284855 138.804321 
L 80.182246 139.232749 
L 80.099189 139.658779 
L 80.035632 140.082366 
L 79.991508 140.503473 
L 79.966738 140.922059 
L 79.961232 141.338087 
" clip-path="url(#pb3df90d8cd)" style="fill: none; stroke: #1f77b4; stroke-width: 1.5; stroke-linecap: square"/>
   </g>
   <g id="line2d_13">
    <path d="M 79.974886 141.751524 
L 80.129621 142.975964 
L 80.452051 144.176002 
L 81.134962 145.737035 
L 82.095332 147.252562 
L 83.318621 148.722066 
L 84.788767 150.14553 
L 86.488559 151.523401 
L 88.908806 153.183015 
L 91.623636 154.775327 
L 95.218856 156.601943 
L 99.12291 158.343238 
L 103.985688 160.277239 
L 110.577345 162.629649 
L 118.871058 165.336028 
L 138.320332 171.570887 
L 143.245108 173.399669 
L 147.024788 175.025817 
L 149.787645 176.451926 
L 151.702998 177.671082 
L 153.226497 178.924638 
L 154.139438 179.956267 
L 154.762883 181.016689 
L 155.032131 181.832591 
L 155.126195 182.66736 
L 155.126195 182.66736 
" clip-path="url(#pb3df90d8cd)" style="fill: none; stroke: #1f77b4; stroke-width: 1.5; stroke-linecap: square"/>
   </g>
   <g id="line2d_14">
    <path d="M 155.118013 182.949986 
L 155.089907 183.234854 
L 155.041812 183.521998 
L 154.973686 183.811448 
L 154.88551 184.103235 
L 154.777288 184.397384 
L 154.64905 184.693922 
L 154.500851 184.992873 
L 154.332773 185.294256 
L 154.144928 185.59809 
L 153.937455 185.904394 
L 153.710523 186.213179 
L 153.46434 186.524452 
L 153.19913 186.838232 
L 152.915435 187.154223 
L 152.613121 187.47292 
L 152.292579 187.794237 
L 151.954278 188.118061 
L 151.598615 188.44439 
L 151.226025 188.773218 
L 150.83698 189.104533 
L 150.431986 189.43832 
L 150.011585 189.774561 
L 149.576354 190.113236 
L 149.126903 190.454321 
L 148.663878 190.797789 
L 148.187955 191.14361 
L 147.699845 191.491753 
L 147.200291 191.842181 
L 146.690063 192.194856 
L 146.169963 192.549738 
L 145.64082 192.906783 
L 145.10349 193.265945 
L 144.558852 193.627175 
L 144.00781 193.990423 
L 143.451289 194.355635 
L 142.890233 194.722757 
L 142.325602 195.091732 
L 141.758375 195.4625 
L 141.189543 195.835003 
L 140.620106 196.209178 
L 140.051078 196.584962 
L 139.483476 196.962291 
L 138.918325 197.3411 
L 138.356652 197.721324 
L 137.799485 198.102895 
L 137.24785 198.485747 
L 136.702773 198.869813 
L 136.165272 199.255023 
L 135.63636 199.641312 
L 135.117039 200.028611 
L 134.608304 200.416852 
L 134.111136 200.805969 
L 133.626503 201.195894 
L 133.155358 201.586562 
L 132.698637 201.977906 
L 132.25726 202.369862 
L 131.832126 202.762364 
L 131.424116 203.155351 
L 131.034089 203.548759 
L 130.662882 203.942527 
L 130.311311 204.336595 
L 129.980167 204.730903 
L 129.670219 205.125394 
L 129.382209 205.52001 
L 129.116856 205.914696 
L 128.874853 206.309397 
L 128.656867 206.704062 
L 128.463542 207.098636 
L 128.295492 207.493071 
L 128.153309 207.887316 
L 128.037556 208.281322 
L 127.94877 208.675046 
L 127.887464 209.068442 
L 127.854125 209.461465 
L 127.849213 209.854072 
" clip-path="url(#pb3df90d8cd)" style="fill: none; stroke: #1f77b4; stroke-width: 1.5; stroke-linecap: square"/>
   </g>
   <g id="line2d_15">
    <path d="M 127.873163 210.246219 
L 128.122166 211.419529 
L 128.644225 212.587355 
L 129.447163 213.748775 
L 130.536968 214.902954 
L 131.91789 216.049132 
L 133.592162 217.186383 
L 136.28064 218.68698 
L 139.325661 220.099356 
L 143.017014 221.560167 
L 147.22953 223.006281 
L 153.199803 224.78662 
L 159.925839 226.534645 
L 167.375454 228.249258 
L 177.216593 230.261161 
L 187.976643 232.222627 
L 201.591826 234.446385 
L 216.228955 236.599574 
L 234.04552 238.973985 
L 244.36 240.250848 
L 244.36 240.250848 
" clip-path="url(#pb3df90d8cd)" style="fill: none; stroke: #1f77b4; stroke-width: 1.5; stroke-linecap: square"/>
   </g>
   <g id="line2d_16">
    <path clip-path="url(#pb3df90d8cd)" style="fill: none; stroke: #1f77b4; stroke-width: 1.5; stroke-linecap: square"/>
   </g>
   <g id="line2d_17">
    <path clip-path="url(#pb3df90d8cd)" style="fill: none; stroke: #1f77b4; stroke-width: 1.5; stroke-linecap: square"/>
   </g>
   <g id="line2d_18">
    <path clip-path="url(#pb3df90d8cd)" style="fill: none; stroke: #1f77b4; stroke-width: 1.5; stroke-linecap: square"/>
   </g>
   <g id="line2d_19">
    <path clip-path="url(#pb3df90d8cd)" style="fill: none; stroke: #1f77b4; stroke-width: 1.5; stroke-linecap: square"/>
   </g>
   <g id="line2d_20">
    <path clip-path="url(#pb3df90d8cd)" style="fill: none; stroke: #1f77b4; stroke-width: 1.5; stroke-linecap: square"/>
   </g>
   <g id="line2d_21">
    <path clip-path="url(#pb3df90d8cd)" style="fill: none; stroke: #1f77b4; stroke-width: 1.5; stroke-linecap: square"/>
   </g>
   <g id="line2d_22">
    <path d="M 244.36 240.250842 
L 227.149553 238.082526 
L 209.757619 235.673559 
L 195.547546 233.489541 
L 182.416238 231.235473 
L 172.111359 229.248104 
L 162.762495 227.21097 
L 155.748218 225.475817 
L 149.477474 223.707793 
L 143.981548 221.908926 
L 140.15677 220.448321 
L 136.850995 218.97034 
L 134.163056 217.532366 
L 131.876168 216.017855 
L 130.503395 214.871574 
L 129.421534 213.717255 
L 128.626348 212.555685 
L 128.111828 211.387705 
L 127.870119 210.214263 
L 127.848538 209.822078 
L 127.848538 209.822078 
" clip-path="url(#pb3df90d8cd)" style="fill: none; stroke: #1f77b4; stroke-width: 1.5; stroke-linecap: square"/>
   </g>
   <g id="line2d_23">
    <path d="M 127.855785 209.429436 
L 127.891421 209.036385 
L 127.954986 208.642962 
L 128.045989 208.249213 
L 128.163918 207.855184 
L 128.308231 207.460924 
L 128.478363 207.066476 
L 128.673722 206.671892 
L 128.893689 206.277225 
L 129.13762 205.882523 
L 129.404847 205.48784 
L 129.694673 205.093232 
L 130.006377 204.698754 
L 130.339215 204.304464 
L 130.692416 203.910418 
L 131.065188 203.516677 
L 131.456713 203.123301 
L 131.866151 202.730351 
L 132.292642 202.33789 
L 132.735304 201.945982 
L 133.193236 201.554691 
L 133.665515 201.164082 
L 134.151206 200.77422 
L 134.649353 200.385172 
L 135.158987 199.997005 
L 135.679127 199.609786 
L 136.208777 199.223583 
L 136.746933 198.838463 
L 137.292583 198.454494 
L 137.844707 198.071744 
L 138.40228 197.69028 
L 138.964275 197.310169 
L 139.529664 196.931478 
L 140.09742 196.554272 
L 140.66652 196.178617 
L 141.235945 195.804576 
L 141.804684 195.432213 
L 142.371736 195.061588 
L 142.936112 194.692762 
L 143.496835 194.325794 
L 144.052944 193.96074 
L 144.603498 193.597655 
L 145.147574 193.236591 
L 145.684269 192.8776 
L 146.212707 192.52073 
L 146.732033 192.166026 
L 147.24142 191.813532 
L 147.740071 191.463289 
L 148.227215 191.115334 
L 148.702112 190.769703 
L 149.164056 190.426428 
L 149.612372 190.085539 
L 150.046417 189.747062 
L 150.465583 189.411019 
L 150.869297 189.077433 
L 151.257021 188.746319 
L 151.62825 188.417692 
L 151.982516 188.091565 
L 152.319386 187.767943 
L 152.638461 187.446833 
L 152.939377 187.128238 
L 153.221797 186.812165 
L 153.485409 186.498635 
L 153.729873 186.187748 
L 153.953948 185.880971 
L 154.159629 185.575327 
L 154.345919 185.27182 
L 154.512525 184.970619 
L 154.659245 184.671853 
L 154.786 184.375494 
L 154.892736 184.081521 
L 154.979425 183.789909 
L 155.046065 183.500631 
L 155.092676 183.213657 
L 155.119303 182.928957 
L 155.126011 182.646497 
" clip-path="url(#pb3df90d8cd)" style="fill: none; stroke: #1f77b4; stroke-width: 1.5; stroke-linecap: square"/>
   </g>
   <g id="line2d_24">
    <path d="M 155.112885 182.366242 
L 154.955649 181.538349 
L 154.624728 180.728942 
L 153.922082 179.676533 
L 152.93407 178.652139 
L 151.677375 177.652772 
L 149.756491 176.434082 
L 147.48177 175.243642 
L 144.339177 173.843884 
L 140.18737 172.237468 
L 134.239596 170.189585 
L 124.087643 166.970982 
L 111.276804 162.866413 
L 104.655037 160.528101 
L 99.078783 158.324637 
L 94.556028 156.283988 
L 91.022192 154.441472 
L 88.367082 152.83507 
L 86.014307 151.160755 
L 83.999808 149.416193 
L 82.655053 147.968981 
L 81.565615 146.47568 
L 80.746821 144.936557 
L 80.212263 143.352395 
L 80.004862 142.135478 
L 79.961005 141.310883 
L 79.961005 141.310883 
" clip-path="url(#pb3df90d8cd)" style="fill: none; stroke: #1f77b4; stroke-width: 1.5; stroke-linecap: square"/>
   </g>
   <g id="line2d_25">
    <path d="M 79.967772 140.894684 
L 79.993808 140.475932 
L 80.039204 140.054661 
L 80.104038 139.630911 
L 80.188376 139.204723 
L 80.292269 138.776139 
L 80.41576 138.345202 
L 80.558876 137.911958 
L 80.72163 137.476454 
L 80.904024 137.038738 
L 81.106046 136.598862 
L 81.327669 136.156878 
L 81.568857 135.712834 
L 81.829555 135.266784 
L 82.109699 134.818785 
L 82.409204 134.368894 
L 82.727982 133.917166 
L 83.065923 133.463657 
L 83.422906 133.00843 
L 83.798796 132.551543 
L 84.193445 132.093057 
L 84.606692 131.633031 
L 85.038363 131.171528 
L 85.488266 130.708612 
L 85.956204 130.244343 
L 86.441962 129.778784 
L 86.945313 129.311999 
L 87.466018 128.844051 
L 88.003821 128.375008 
L 88.558461 127.90493 
L 89.129662 127.433883 
L 89.717132 126.961933 
L 90.320574 126.489142 
L 90.939673 126.015578 
L 91.574105 125.541304 
L 92.22354 125.066385 
L 92.887625 124.590888 
L 93.566005 124.114876 
L 94.258316 123.638414 
L 94.964176 123.161568 
L 95.683195 122.684403 
L 96.414977 122.206984 
L 97.159109 121.729375 
L 97.915174 121.251641 
L 98.682742 120.773848 
L 99.461376 120.296058 
L 100.250619 119.818341 
L 101.050026 119.340755 
L 101.859123 118.863368 
L 102.677434 118.386245 
L 103.504469 117.909453 
L 104.339739 117.433055 
L 105.182734 116.957117 
L 106.03295 116.481701 
L 106.889856 116.006879 
L 107.752929 115.532712 
L 108.621627 115.059268 
L 109.495401 114.586614 
L 110.373698 114.114817 
L 111.255949 113.643946 
L 112.14159 113.174065 
L 113.030033 112.705246 
L 113.920694 112.237557 
L 114.812973 111.771068 
L 115.706271 111.305848 
L 116.599975 110.841969 
L 117.493465 110.379502 
L 118.386117 109.918522 
L 119.277297 109.459101 
L 120.166369 109.001312 
L 121.052688 108.545231 
L 121.935602 108.090934 
L 122.814458 107.638498 
L 123.688593 107.188 
L 124.557343 106.73952 
L 125.420042 106.293136 
L 126.276017 105.848929 
L 127.124597 105.406979 
L 127.965105 104.967369 
L 128.796867 104.53018 
L 129.619208 104.095497 
L 130.431454 103.663402 
L 131.232935 103.233979 
L 132.022981 102.807314 
L 132.800931 102.38349 
L 133.566128 101.962592 
L 134.317922 101.544704 
L 135.055672 101.12991 
L 135.778747 100.718295 
L 136.486526 100.309942 
L 137.178408 99.90493 
L 137.853798 99.503343 
L 138.512123 99.105259 
L 139.152826 98.710756 
L 139.775366 98.319912 
L 140.379229 97.932799 
L 140.96392 97.549488 
L 141.528965 97.170052 
L 142.073921 96.794556 
L 142.598353 96.423073 
L 143.101874 96.055663 
L 143.584078 95.692415 
L 144.044519 95.333479 
L 144.48228 94.979427 
L 144.888831 94.637483 
L 145.282876 94.291752 
L 145.65249 93.95216 
L 146.001109 93.615449 
L 146.327268 93.282795 
L 146.631327 92.953635 
L 146.912307 92.628883 
L 147.170238 92.308455 
L 147.405025 91.992447 
L 147.616703 91.680837 
L 147.805312 91.373628 
L 147.970931 91.07081 
L 148.113671 90.772355 
L 148.233663 90.478244 
L 148.331066 90.188451 
L 148.406062 89.902943 
L 148.458859 89.621685 
L 148.489685 89.344638 
L 148.498788 89.071755 
" clip-path="url(#pb3df90d8cd)" style="fill: none; stroke: #1f77b4; stroke-width: 1.5; stroke-linecap: square"/>
   </g>
   <g id="line2d_26">
    <path d="M 148.486434 88.802988 
L 148.323552 88.020846 
L 147.97866 87.273698 
L 147.251991 86.328831 
L 146.242353 85.438343 
L 144.974474 84.597269 
L 143.064142 83.607636 
L 140.356112 82.497428 
L 136.719443 81.287617 
L 132.068063 79.986712 
L 125.072637 78.279957 
L 104.628598 73.429769 
L 98.765311 71.745825 
L 94.465918 70.304278 
L 91.029971 68.956146 
L 87.883423 67.487279 
L 85.525912 66.159406 
L 83.448672 64.727722 
L 82.014656 63.502262 
L 80.804768 62.201877 
L 79.838563 60.82403 
L 79.134436 59.367278 
L 78.708762 57.831487 
L 78.580465 56.628535 
L 78.574986 56.218019 
L 78.574986 56.218019 
" clip-path="url(#pb3df90d8cd)" style="fill: none; stroke: #1f77b4; stroke-width: 1.5; stroke-linecap: square"/>
   </g>
   <g id="line2d_27">
    <path d="M 78.588373 55.802823 
L 78.742724 54.5298 
L 79.217041 52.771291 
L 79.997982 50.948329 
L 81.080478 49.067844 
L 82.454595 47.13751 
L 84.106121 45.165358 
L 86.533402 42.65357 
L 89.326196 40.103917 
L 93.09803 37.013369 
L 97.253849 33.90806 
L 102.481743 30.288753 
L 108.804905 26.183035 
L 117.781229 20.636335 
L 133.387762 11.040993 
L 138.712771 7.477068 
L 142.10688 4.95525 
L 144.443565 2.977663 
L 146.253356 1.150302 
L 147.32844 -0.229376 
L 147.791362 -1 
L 147.791362 -1 
" clip-path="url(#pb3df90d8cd)" style="fill: none; stroke: #1f77b4; stroke-width: 1.5; stroke-linecap: square"/>
   </g>
   <g id="line2d_28">
    <path d="M 0 0 
" clip-path="url(#pb3df90d8cd)" style="fill: none; stroke: #1f77b4; stroke-width: 1.5; stroke-linecap: square"/>
   </g>
   <g id="line2d_29">
    <path d="M 0 0 
" clip-path="url(#pb3df90d8cd)" style="fill: none; stroke: #1f77b4; stroke-width: 1.5; stroke-linecap: square"/>
   </g>
   <g id="line2d_30">
    <path d="M 0 0 
" clip-path="url(#pb3df90d8cd)" style="fill: none; stroke: #1f77b4; stroke-width: 1.5; stroke-linecap: square"/>
   </g>
   <g id="line2d_31">
    <path d="M 0 0 
" clip-path="url(#pb3df90d8cd)" style="fill: none; stroke: #1f77b4; stroke-width: 1.5; stroke-linecap: square"/>
   </g>
   <g id="line2d_32">
    <path d="M 0 0 
" clip-path="url(#pb3df90d8cd)" style="fill: none; stroke: #1f77b4; stroke-width: 1.5; stroke-linecap: square"/>
   </g>
   <g id="line2d_33">
    <path d="M 0 0 
" clip-path="url(#pb3df90d8cd)" style="fill: none; stroke: #1f77b4; stroke-width: 1.5; stroke-linecap: square"/>
   </g>
   <g id="line2d_34">
    <path d="M 0 0 
" clip-path="url(#pb3df90d8cd)" style="fill: none; stroke: #1f77b4; stroke-width: 1.5; stroke-linecap: square"/>
   </g>
   <g id="line2d_35">
    <path d="M 0 0 
" clip-path="url(#pb3df90d8cd)" style="fill: none; stroke: #1f77b4; stroke-width: 1.5; stroke-linecap: square"/>
   </g>
   <g id="line2d_36">
    <path d="M 0 0 
" clip-path="url(#pb3df90d8cd)" style="fill: none; stroke: #1f77b4; stroke-width: 1.5; stroke-linecap: square"/>
   </g>
   <g id="line2d_37">
    <path d="M 0 0 
" clip-path="url(#pb3df90d8cd)" style="fill: none; stroke: #1f77b4; stroke-width: 1.5; stroke-linecap: square"/>
   </g>
   <g id="line2d_38">
    <path d="M 0 0 
" clip-path="url(#pb3df90d8cd)" style="fill: none; stroke: #1f77b4; stroke-width: 1.5; stroke-linecap: square"/>
   </g>
   <g id="line2d_39">
    <path d="M 0 0 
" clip-path="url(#pb3df90d8cd)" style="fill: none; stroke: #1f77b4; stroke-width: 1.5; stroke-linecap: square"/>
   </g>
   <g id="line2d_40">
    <path d="M 0 0 
" clip-path="url(#pb3df90d8cd)" style="fill: none; stroke: #1f77b4; stroke-width: 1.5; stroke-linecap: square"/>
   </g>
   <g id="line2d_41">
    <path d="M 0 0 
" clip-path="url(#pb3df90d8cd)" style="fill: none; stroke: #1f77b4; stroke-width: 1.5; stroke-linecap: square"/>
   </g>
   <g id="line2d_42">
    <path d="M 0 0 
" clip-path="url(#pb3df90d8cd)" style="fill: none; stroke: #1f77b4; stroke-width: 1.5; stroke-linecap: square"/>
   </g>
   <g id="line2d_43">
    <path d="M 0 0 
" clip-path="url(#pb3df90d8cd)" style="fill: none; stroke: #1f77b4; stroke-width: 1.5; stroke-linecap: square"/>
   </g>
   <g id="line2d_44">
    <path d="M 0 0 
" clip-path="url(#pb3df90d8cd)" style="fill: none; stroke: #1f77b4; stroke-width: 1.5; stroke-linecap: square"/>
   </g>
   <g id="line2d_45">
    <path d="M 0 0 
" clip-path="url(#pb3df90d8cd)" style="fill: none; stroke: #1f77b4; stroke-width: 1.5; stroke-linecap: square"/>
   </g>
   <g id="line2d_46">
    <path d="M 0 0 
" clip-path="url(#pb3df90d8cd)" style="fill: none; stroke: #1f77b4; stroke-width: 1.5; stroke-linecap: square"/>
   </g>
   <g id="line2d_47">
    <path d="M 0 0 
" clip-path="url(#pb3df90d8cd)" style="fill: none; stroke: #1f77b4; stroke-width: 1.5; stroke-linecap: square"/>
   </g>
   <g id="line2d_48">
    <path d="M 0 0 
" clip-path="url(#pb3df90d8cd)" style="fill: none; stroke: #1f77b4; stroke-width: 1.5; stroke-linecap: square"/>
   </g>
   <g id="line2d_49">
    <path clip-path="url(#pb3df90d8cd)" style="fill: none; stroke: #1f77b4; stroke-width: 1.5; stroke-linecap: square"/>
   </g>
   <g id="line2d_50">
    <path clip-path="url(#pb3df90d8cd)" style="fill: none; stroke: #1f77b4; stroke-width: 1.5; stroke-linecap: square"/>
   </g>
   <g id="line2d_51">
    <path clip-path="url(#pb3df90d8cd)" style="fill: none; stroke: #1f77b4; stroke-width: 1.5; stroke-linecap: square"/>
   </g>
   <g id="line2d_52">
    <path clip-path="url(#pb3df90d8cd)" style="fill: none; stroke: #1f77b4; stroke-width: 1.5; stroke-linecap: square"/>
   </g>
   <g id="line2d_53">
    <path clip-path="url(#pb3df90d8cd)" style="fill: none; stroke: #1f77b4; stroke-width: 1.5; stroke-linecap: square"/>
   </g>
   <g id="line2d_54">
    <path clip-path="url(#pb3df90d8cd)" style="fill: none; stroke: #1f77b4; stroke-width: 1.5; stroke-linecap: square"/>
   </g>
   <g id="line2d_55">
    <path clip-path="url(#pb3df90d8cd)" style="fill: none; stroke: #1f77b4; stroke-width: 1.5; stroke-linecap: square"/>
   </g>
   <g id="line2d_56">
    <path clip-path="url(#pb3df90d8cd)" style="fill: none; stroke: #ff7f0e; stroke-width: 1.5; stroke-linecap: square"/>
   </g>
   <g id="line2d_57">
    <path clip-path="url(#pb3df90d8cd)" style="fill: none; stroke: #ff7f0e; stroke-width: 1.5; stroke-linecap: square"/>
   </g>
   <g id="line2d_58">
    <path clip-path="url(#pb3df90d8cd)" style="fill: none; stroke: #ff7f0e; stroke-width: 1.5; stroke-linecap: square"/>
   </g>
   <g id="line2d_59">
    <path clip-path="url(#pb3df90d8cd)" style="fill: none; stroke: #ff7f0e; stroke-width: 1.5; stroke-linecap: square"/>
   </g>
   <g id="line2d_60">
    <path clip-path="url(#pb3df90d8cd)" style="fill: none; stroke: #ff7f0e; stroke-width: 1.5; stroke-linecap: square"/>
   </g>
   <g id="line2d_61">
    <path clip-path="url(#pb3df90d8cd)" style="fill: none; stroke: #ff7f0e; stroke-width: 1.5; stroke-linecap: square"/>
   </g>
   <g id="line2d_62">
    <path clip-path="url(#pb3df90d8cd)" style="fill: none; stroke: #ff7f0e; stroke-width: 1.5; stroke-linecap: square"/>
   </g>
   <g id="line2d_63">
    <path clip-path="url(#pb3df90d8cd)" style="fill: none; stroke: #ff7f0e; stroke-width: 1.5; stroke-linecap: square"/>
   </g>
   <g id="line2d_64">
    <path clip-path="url(#pb3df90d8cd)" style="fill: none; stroke: #ff7f0e; stroke-width: 1.5; stroke-linecap: square"/>
   </g>
   <g id="line2d_65">
    <path clip-path="url(#pb3df90d8cd)" style="fill: none; stroke: #ff7f0e; stroke-width: 1.5; stroke-linecap: square"/>
   </g>
   <g id="line2d_66">
    <path clip-path="url(#pb3df90d8cd)" style="fill: none; stroke: #ff7f0e; stroke-width: 1.5; stroke-linecap: square"/>
   </g>
   <g id="line2d_67">
    <path clip-path="url(#pb3df90d8cd)" style="fill: none; stroke: #ff7f0e; stroke-width: 1.5; stroke-linecap: square"/>
   </g>
   <g id="line2d_68">
    <path clip-path="url(#pb3df90d8cd)" style="fill: none; stroke: #ff7f0e; stroke-width: 1.5; stroke-linecap: square"/>
   </g>
   <g id="line2d_69">
    <path clip-path="url(#pb3df90d8cd)" style="fill: none; stroke: #ff7f0e; stroke-width: 1.5; stroke-linecap: square"/>
   </g>
   <g id="line2d_70">
    <path clip-path="url(#pb3df90d8cd)" style="fill: none; stroke: #ff7f0e; stroke-width: 1.5; stroke-linecap: square"/>
   </g>
   <g id="line2d_71">
    <path clip-path="url(#pb3df90d8cd)" style="fill: none; stroke: #ff7f0e; stroke-width: 1.5; stroke-linecap: square"/>
   </g>
   <g id="line2d_72">
    <path d="M 244.36 238.557302 
L 239.677537 237.256997 
L 233.72906 235.418894 
L 226.664291 232.997552 
L 208.734243 226.64289 
L 200.086051 223.893463 
L 190.807611 221.19514 
L 178.863792 217.97811 
L 134.878463 206.431252 
L 125.554609 203.636189 
L 117.801454 201.067894 
L 112.37211 199.073412 
L 107.34531 197.017499 
L 102.785876 194.898357 
L 98.757255 192.71503 
L 96.396485 191.22376 
L 94.315532 189.704146 
L 92.530125 188.156604 
L 91.054571 186.581749 
L 89.901491 184.980397 
L 89.081538 183.353562 
L 88.603131 181.70246 
L 88.472187 180.028506 
L 88.472187 180.028506 
" clip-path="url(#pb3df90d8cd)" style="fill: none; stroke: #ff7f0e; stroke-width: 1.5; stroke-linecap: square"/>
   </g>
   <g id="line2d_73">
    <path d="M 88.538113 179.183455 
L 88.691859 178.333311 
L 88.933346 177.478304 
L 89.262297 176.618678 
L 89.678222 175.754689 
L 90.180421 174.886605 
L 90.767968 174.014704 
L 91.439715 173.139278 
L 92.194279 172.260629 
L 93.030044 171.379073 
L 93.945152 170.494935 
L 94.9375 169.608556 
L 96.004739 168.720285 
L 97.14427 167.830486 
L 98.353242 166.939535 
L 99.628551 166.047819 
L 100.966836 165.155739 
L 102.364487 164.26371 
L 103.817637 163.37216 
L 105.322171 162.481528 
L 106.873727 161.59227 
L 108.467701 160.704854 
L 110.099253 159.819763 
L 111.763316 158.937493 
L 113.454606 158.058553 
L 115.167637 157.183468 
L 116.896732 156.312774 
L 118.636045 155.447017 
L 120.379583 154.586759 
L 122.121226 153.732566 
L 123.854759 152.885016 
L 125.573906 152.044688 
L 127.272358 151.212168 
L 128.943822 150.388038 
L 130.582054 149.572876 
L 132.180911 148.767253 
L 133.734393 147.971725 
L 135.236694 147.186831 
L 136.682251 146.413086 
L 138.065791 145.650975 
L 139.382376 144.900952 
L 140.627447 144.163429 
L 141.796862 143.438775 
L 142.886926 142.727311 
L 143.894421 142.029303 
L 144.816619 141.344965 
L 145.651294 140.674452 
L 146.396715 140.017873 
L 147.051667 139.375265 
L 147.615459 138.746563 
L 148.0878 138.131711 
L 148.468866 137.530578 
L 148.759246 136.942978 
L 148.959907 136.368675 
L 149.072163 135.80739 
L 149.097628 135.258803 
" clip-path="url(#pb3df90d8cd)" style="fill: none; stroke: #ff7f0e; stroke-width: 1.5; stroke-linecap: square"/>
   </g>
   <g id="line2d_74">
    <path d="M 149.038187 134.722556 
L 148.895956 134.198262 
L 148.673242 133.685506 
L 148.372517 133.183849 
L 147.996379 132.692834 
L 147.547527 132.211988 
L 147.028734 131.740825 
L 146.442822 131.278853 
L 145.792646 130.825571 
L 145.081068 130.380475 
L 144.310951 129.94306 
L 143.485139 129.51282 
L 142.60645 129.08925 
L 141.677668 128.67185 
L 140.701532 128.26012 
L 139.680736 127.853568 
L 138.617923 127.451703 
L 137.51568 127.054043 
L 136.376542 126.660107 
L 135.202987 126.269422 
L 133.997439 125.881521 
L 132.762266 125.495939 
L 131.499785 125.112218 
L 130.21226 124.729904 
L 128.90191 124.348548 
L 127.570909 123.967704 
L 126.221381 123.586928 
L 124.855417 123.20578 
L 123.475071 122.823824 
L 122.082365 122.440625 
L 120.679298 122.05575 
L 119.267854 121.668772 
L 117.850044 121.279277 
L 116.428288 120.886969 
L 115.021414 120.496139 
L 113.627247 120.105356 
L 112.203305 119.701705 
L 110.784029 119.293848 
L 109.409715 118.892682 
L 108.14683 118.517785 
L 107.112192 118.205592 
L 105.814469 117.8068 
L 104.493752 117.391715 
L 103.144391 116.956802 
L 101.788936 116.507515 
L 100.449448 116.049755 
L 99.129218 115.583489 
L 97.830303 115.108272 
L 96.554757 114.623647 
L 95.304667 114.129158 
L 94.082152 113.624351 
L 92.889364 113.108773 
L 91.728494 112.581978 
L 90.601764 112.043524 
L 89.511429 111.492978 
L 88.459777 110.929918 
L 87.449123 110.353933 
L 86.481806 109.764629 
L 85.560185 109.161631 
L 84.686629 108.544583 
L 83.86351 107.913158 
L 83.093197 107.267057 
L 82.378037 106.606011 
L 81.720351 105.929792 
L 81.122414 105.238209 
L 80.586439 104.531117 
L 80.114563 103.808419 
L 79.708829 103.07007 
L 79.371164 102.316077 
L 79.103362 101.546506 
L 78.907064 100.761482 
L 78.783741 99.961188 
L 78.734671 99.145868 
" clip-path="url(#pb3df90d8cd)" style="fill: none; stroke: #ff7f0e; stroke-width: 1.5; stroke-linecap: square"/>
   </g>
   <g id="line2d_75">
    <path d="M 78.760927 98.315826 
L 78.86336 97.471427 
L 79.042586 96.61309 
L 79.298975 95.741287 
L 79.632645 94.856542 
L 80.043457 93.959423 
L 80.531012 93.050541 
L 81.094653 92.130537 
L 81.733475 91.200086 
L 82.446322 90.259883 
L 83.231807 89.310642 
L 84.088318 88.353087 
L 85.014033 87.387949 
L 86.006935 86.415959 
L 87.064826 85.437844 
L 88.185345 84.454322 
L 89.365979 83.466101 
L 90.604083 82.473874 
L 91.89689 81.478317 
L 93.241528 80.480086 
L 94.635026 79.479819 
L 96.074329 78.478134 
L 97.556305 77.475628 
L 99.077752 76.472879 
L 100.635404 75.470445 
L 102.225934 74.468868 
L 103.845956 73.468675 
L 105.492028 72.470378 
L 107.160648 71.474479 
L 108.848256 70.481471 
L 110.551229 69.49184 
L 112.265877 68.506072 
L 113.988438 67.524651 
L 115.715074 66.548067 
L 117.441867 65.576816 
L 119.164808 64.611405 
L 120.879799 63.652355 
L 122.582643 62.700208 
L 124.269044 61.755524 
L 125.934606 60.818889 
L 127.574835 59.890917 
L 129.185141 58.972252 
L 130.76085 58.063567 
L 132.297219 57.165571 
L 133.789449 56.279003 
L 135.232718 55.404632 
L 136.622213 54.543255 
L 137.953164 53.695691 
L 139.220899 52.862775 
L 140.420893 52.045345 
L 141.548829 51.244237 
L 142.600662 50.460268 
L 143.57268 49.694225 
L 144.461573 48.946847 
L 145.264478 48.218815 
L 145.978989 47.510796 
L 146.603019 46.823666 
L 147.136065 46.157069 
L 147.577333 45.5114 
L 147.926637 44.886973 
L 148.18446 44.283885 
L 148.351859 43.702061 
L 148.430382 43.141309 
" clip-path="url(#pb3df90d8cd)" style="fill: none; stroke: #ff7f0e; stroke-width: 1.5; stroke-linecap: square"/>
   </g>
   <g id="line2d_76">
    <path d="M 148.422014 42.601323 
L 148.329116 42.081697 
L 148.154367 41.581936 
L 147.900697 41.101463 
L 147.571229 40.639638 
L 147.169223 40.195766 
L 146.698026 39.76911 
L 146.161025 39.358902 
L 145.56161 38.964353 
L 144.903143 38.584661 
L 144.188931 38.219022 
L 143.422206 37.866629 
L 142.606108 37.526684 
L 141.74368 37.1984 
L 140.83785 36.881001 
L 139.89144 36.573731 
L 138.907152 36.275847 
L 137.887577 35.986628 
L 136.835192 35.70537 
L 135.752369 35.431388 
L 134.641372 35.164018 
L 133.504367 34.902609 
L 132.343423 34.646533 
L 131.160524 34.395175 
L 129.957566 34.147934 
L 128.73638 33.904228 
L 127.498727 33.663486 
L 126.246339 33.425155 
L 124.980951 33.188704 
L 123.705906 32.953914 
L 122.41972 32.719695 
L 121.12384 32.48552 
L 119.82104 32.251108 
L 118.512871 32.015963 
L 117.200298 31.779493 
L 115.884875 31.541216 
L 114.567914 31.300609 
L 113.250861 31.057176 
L 111.935035 30.810396 
L 110.624316 30.560239 
L 109.313618 30.30495 
L 108.010581 30.045216 
L 106.711478 29.779486 
L 105.422125 29.508119 
L 104.14096 29.229947 
L 102.869927 28.944504 
L 101.608643 28.650769 
L 100.360453 28.348549 
L 99.126975 28.037249 
L 97.909773 27.716238 
L 96.710437 27.384865 
L 95.530612 27.042461 
L 94.372 26.688341 
L 93.236373 26.321804 
L 92.125568 25.942133 
L 91.041499 25.548597 
L 89.986154 25.140448 
L 88.961606 24.716932 
L 87.970011 24.27728 
L 87.013609 23.82072 
L 86.094725 23.346479 
L 85.215768 22.853786 
L 84.379227 22.341879 
L 83.587662 21.810017 
L 82.843698 21.257481 
L 82.150008 20.68359 
L 81.509301 20.087709 
L 80.924298 19.469266 
L 80.397698 18.827752 
L 79.932165 18.162755 
L 79.530282 17.473957 
L 79.194512 16.761157 
L 78.927161 16.02428 
L 78.73033 15.263391 
L 78.605874 14.478698 
L 78.555359 13.670566 
" clip-path="url(#pb3df90d8cd)" style="fill: none; stroke: #ff7f0e; stroke-width: 1.5; stroke-linecap: square"/>
   </g>
   <g id="line2d_77">
    <path d="M 78.58002 12.839512 
L 78.680734 11.986208 
L 78.857987 11.11147 
L 79.111862 10.216251 
L 79.442031 9.301623 
L 79.847759 8.368764 
L 80.32792 7.418929 
L 80.881019 6.453438 
L 81.505227 5.473644 
L 82.198418 4.480918 
L 82.958211 3.476626 
L 83.782017 2.462108 
L 84.66708 1.438666 
L 85.610525 0.407551 
L 86.609393 -0.630052 
L 86.982289 -1 
" clip-path="url(#pb3df90d8cd)" style="fill: none; stroke: #ff7f0e; stroke-width: 1.5; stroke-linecap: square"/>
   </g>
   <g id="line2d_78">
    <path clip-path="url(#pb3df90d8cd)" style="fill: none; stroke: #ff7f0e; stroke-width: 1.5; stroke-linecap: square"/>
   </g>
   <g id="line2d_79">
    <path clip-path="url(#pb3df90d8cd)" style="fill: none; stroke: #ff7f0e; stroke-width: 1.5; stroke-linecap: square"/>
   </g>
   <g id="line2d_80">
    <path clip-path="url(#pb3df90d8cd)" style="fill: none; stroke: #ff7f0e; stroke-width: 1.5; stroke-linecap: square"/>
   </g>
   <g id="line2d_81">
    <path clip-path="url(#pb3df90d8cd)" style="fill: none; stroke: #ff7f0e; stroke-width: 1.5; stroke-linecap: square"/>
   </g>
   <g id="line2d_82">
    <path clip-path="url(#pb3df90d8cd)" style="fill: none; stroke: #ff7f0e; stroke-width: 1.5; stroke-linecap: square"/>
   </g>
   <g id="line2d_83">
    <path clip-path="url(#pb3df90d8cd)" style="fill: none; stroke: #ff7f0e; stroke-width: 1.5; stroke-linecap: square"/>
   </g>
   <g id="line2d_84">
    <path clip-path="url(#pb3df90d8cd)" style="fill: none; stroke: #ff7f0e; stroke-width: 1.5; stroke-linecap: square"/>
   </g>
   <g id="line2d_85">
    <path clip-path="url(#pb3df90d8cd)" style="fill: none; stroke: #ff7f0e; stroke-width: 1.5; stroke-linecap: square"/>
   </g>
   <g id="line2d_86">
    <path d="M 0 0 
" clip-path="url(#pb3df90d8cd)" style="fill: none; stroke: #ff7f0e; stroke-width: 1.5; stroke-linecap: square"/>
   </g>
   <g id="line2d_87">
    <path clip-path="url(#pb3df90d8cd)" style="fill: none; stroke: #ff7f0e; stroke-width: 1.5; stroke-linecap: square"/>
   </g>
   <g id="line2d_88">
    <path clip-path="url(#pb3df90d8cd)" style="fill: none; stroke: #ff7f0e; stroke-width: 1.5; stroke-linecap: square"/>
   </g>
   <g id="line2d_89">
    <path clip-path="url(#pb3df90d8cd)" style="fill: none; stroke: #ff7f0e; stroke-width: 1.5; stroke-linecap: square"/>
   </g>
   <g id="line2d_90">
    <path clip-path="url(#pb3df90d8cd)" style="fill: none; stroke: #ff7f0e; stroke-width: 1.5; stroke-linecap: square"/>
   </g>
   <g id="line2d_91">
    <path d="M 0 0 
" clip-path="url(#pb3df90d8cd)" style="fill: none; stroke: #ff7f0e; stroke-width: 1.5; stroke-linecap: square"/>
   </g>
   <g id="line2d_92">
    <path clip-path="url(#pb3df90d8cd)" style="fill: none; stroke: #ff7f0e; stroke-width: 1.5; stroke-linecap: square"/>
   </g>
   <g id="line2d_93">
    <path clip-path="url(#pb3df90d8cd)" style="fill: none; stroke: #ff7f0e; stroke-width: 1.5; stroke-linecap: square"/>
   </g>
   <g id="line2d_94">
    <path d="M 0 0 
" clip-path="url(#pb3df90d8cd)" style="fill: none; stroke: #ff7f0e; stroke-width: 1.5; stroke-linecap: square"/>
   </g>
   <g id="line2d_95">
    <path clip-path="url(#pb3df90d8cd)" style="fill: none; stroke: #ff7f0e; stroke-width: 1.5; stroke-linecap: square"/>
   </g>
   <g id="line2d_96">
    <path clip-path="url(#pb3df90d8cd)" style="fill: none; stroke: #ff7f0e; stroke-width: 1.5; stroke-linecap: square"/>
   </g>
   <g id="line2d_97">
    <path d="M 0 0 
" clip-path="url(#pb3df90d8cd)" style="fill: none; stroke: #ff7f0e; stroke-width: 1.5; stroke-linecap: square"/>
   </g>
   <g id="line2d_98">
    <path clip-path="url(#pb3df90d8cd)" style="fill: none; stroke: #ff7f0e; stroke-width: 1.5; stroke-linecap: square"/>
   </g>
   <g id="line2d_99">
    <path clip-path="url(#pb3df90d8cd)" style="fill: none; stroke: #ff7f0e; stroke-width: 1.5; stroke-linecap: square"/>
   </g>
   <g id="line2d_100">
    <path d="M 0 0 
" clip-path="url(#pb3df90d8cd)" style="fill: none; stroke: #ff7f0e; stroke-width: 1.5; stroke-linecap: square"/>
   </g>
   <g id="line2d_101">
    <path d="M 0 0 
" clip-path="url(#pb3df90d8cd)" style="fill: none; stroke: #ff7f0e; stroke-width: 1.5; stroke-linecap: square"/>
   </g>
   <g id="line2d_102">
    <path d="M 0 0 
" clip-path="url(#pb3df90d8cd)" style="fill: none; stroke: #ff7f0e; stroke-width: 1.5; stroke-linecap: square"/>
   </g>
   <g id="line2d_103">
    <path d="M 0 0 
" clip-path="url(#pb3df90d8cd)" style="fill: none; stroke: #ff7f0e; stroke-width: 1.5; stroke-linecap: square"/>
   </g>
   <g id="line2d_104">
    <path d="M 0 0 
" clip-path="url(#pb3df90d8cd)" style="fill: none; stroke: #ff7f0e; stroke-width: 1.5; stroke-linecap: square"/>
   </g>
   <g id="line2d_105">
    <path d="M 0 0 
" clip-path="url(#pb3df90d8cd)" style="fill: none; stroke: #ff7f0e; stroke-width: 1.5; stroke-linecap: square"/>
   </g>
   <g id="line2d_106">
    <path d="M 0 0 
" clip-path="url(#pb3df90d8cd)" style="fill: none; stroke: #ff7f0e; stroke-width: 1.5; stroke-linecap: square"/>
   </g>
   <g id="line2d_107">
    <path d="M 0 0 
" clip-path="url(#pb3df90d8cd)" style="fill: none; stroke: #ff7f0e; stroke-width: 1.5; stroke-linecap: square"/>
   </g>
   <g id="line2d_108">
    <path d="M 0 0 
" clip-path="url(#pb3df90d8cd)" style="fill: none; stroke: #ff7f0e; stroke-width: 1.5; stroke-linecap: square"/>
   </g>
   <g id="line2d_109">
    <path d="M 0 0 
" clip-path="url(#pb3df90d8cd)" style="fill: none; stroke: #ff7f0e; stroke-width: 1.5; stroke-linecap: square"/>
   </g>
   <g id="line2d_110">
    <path d="M 0 0 
" clip-path="url(#pb3df90d8cd)" style="fill: none; stroke: #ff7f0e; stroke-width: 1.5; stroke-linecap: square"/>
   </g>
   <g id="line2d_111">
    <path d="M 0 0 
" clip-path="url(#pb3df90d8cd)" style="fill: none; stroke: #2ca02c; stroke-width: 1.5; stroke-linecap: square"/>
   </g>
   <g id="line2d_112">
    <path d="M 0 0 
" clip-path="url(#pb3df90d8cd)" style="fill: none; stroke: #2ca02c; stroke-width: 1.5; stroke-linecap: square"/>
   </g>
   <g id="line2d_113">
    <path d="M -1 282.321376 
L 244.36 282.321376 
" clip-path="url(#pb3df90d8cd)" style="fill: none; stroke: #000000; stroke-width: 1.5; stroke-linecap: square"/>
   </g>
   <g id="line2d_114">
    <path clip-path="url(#pb3df90d8cd)" style="fill: none; stroke-dasharray: 5.55,2.4; stroke-dashoffset: 0; stroke: #000000; stroke-width: 1.5"/>
   </g>
   <g id="patch_3">
    <path d="M 30.42 296.0496 
L 30.42 39.9168 
" style="fill: none; stroke: #000000; stroke-width: 0.8; stroke-linejoin: miter; stroke-linecap: square"/>
   </g>
   <g id="patch_4">
    <path d="M 219.024 296.0496 
L 219.024 39.9168 
" style="fill: none; stroke: #000000; stroke-width: 0.8; stroke-linejoin: miter; stroke-linecap: square"/>
   </g>
   <g id="patch_5">
    <path d="M 30.42 296.0496 
L 219.024 296.0496 
" style="fill: none; stroke: #000000; stroke-width: 0.8; stroke-linejoin: miter; stroke-linecap: square"/>
   </g>
   <g id="patch_6">
    <path d="M 30.42 39.9168 
L 219.024 39.9168 
" style="fill: none; stroke: #000000; stroke-width: 0.8; stroke-linejoin: miter; stroke-linecap: square"/>
   </g>
  </g>
 </g>
 <defs>
  <clipPath id="pb3df90d8cd">
   <rect x="30.42" y="39.9168" width="188.604" height="256.1328"/>
  </clipPath>
 </defs>
</svg>
