<?xml version="1.0" encoding="UTF-8" standalone="no"?>
<svg
   width="460.8pt"
   height="345.6pt"
   viewBox="0 0 460.8 345.6"
   version="1.1"
   id="svg716"
   sodipodi:docname="subcritical_hopf.svg"
   inkscape:version="1.2.2 (732a01da63, 2022-12-09)"
   xmlns:inkscape="http://www.inkscape.org/namespaces/inkscape"
   xmlns:sodipodi="http://sodipodi.sourceforge.net/DTD/sodipodi-0.dtd"
   xmlns="http://www.w3.org/2000/svg"
   xmlns:svg="http://www.w3.org/2000/svg"
   xmlns:rdf="http://www.w3.org/1999/02/22-rdf-syntax-ns#"
   xmlns:cc="http://creativecommons.org/ns#"
   xmlns:dc="http://purl.org/dc/elements/1.1/">
  <sodipodi:namedview
     id="namedview718"
     pagecolor="#ffffff"
     bordercolor="#000000"
     borderopacity="0.25"
     inkscape:showpageshadow="2"
     inkscape:pageopacity="0.0"
     inkscape:pagecheckerboard="0"
     inkscape:deskcolor="#d1d1d1"
     inkscape:document-units="pt"
     showgrid="false"
     inkscape:zoom="1.1960039"
     inkscape:cx="336.95542"
     inkscape:cy="185.61812"
     inkscape:window-width="2560"
     inkscape:window-height="1334"
     inkscape:window-x="-11"
     inkscape:window-y="-11"
     inkscape:window-maximized="1"
     inkscape:current-layer="svg716" />
  <metadata
     id="metadata426">
    <rdf:RDF>
      <cc:Work>
        <dc:type
           rdf:resource="http://purl.org/dc/dcmitype/StillImage" />
        <dc:date />
        <dc:format />
        <dc:creator>
          <cc:Agent>
            <dc:title />
          </cc:Agent>
        </dc:creator>
      </cc:Work>
    </rdf:RDF>
  </metadata>
  <defs
     id="defs430">
    <style
       type="text/css"
       id="style428">*{stroke-linejoin: round; stroke-linecap: butt}</style>
    <defs
       id="defs439">
      <path
         id="m92d093d823"
         d="M 0 0  L 0 3.5  "
         style="stroke: #000000; stroke-width: 0.8" />
    </defs>
    <defs
       id="defs450">
      <path
         id="DejaVuSans-2212"
         d="M 678 2272  L 4684 2272  L 4684 1741  L 678 1741  L 678 2272  z "
         transform="scale(0.015625)" />
      <path
         id="DejaVuSans-30"
         d="M 2034 4250  Q 1547 4250 1301 3770  Q 1056 3291 1056 2328  Q 1056 1369 1301 889  Q 1547 409 2034 409  Q 2525 409 2770 889  Q 3016 1369 3016 2328  Q 3016 3291 2770 3770  Q 2525 4250 2034 4250  z M 2034 4750  Q 2819 4750 3233 4129  Q 3647 3509 3647 2328  Q 3647 1150 3233 529  Q 2819 -91 2034 -91  Q 1250 -91 836 529  Q 422 1150 422 2328  Q 422 3509 836 4129  Q 1250 4750 2034 4750  z "
         transform="scale(0.015625)" />
      <path
         id="DejaVuSans-2e"
         d="M 684 794  L 1344 794  L 1344 0  L 684 0  L 684 794  z "
         transform="scale(0.015625)" />
      <path
         id="DejaVuSans-34"
         d="M 2419 4116  L 825 1625  L 2419 1625  L 2419 4116  z M 2253 4666  L 3047 4666  L 3047 1625  L 3713 1625  L 3713 1100  L 3047 1100  L 3047 0  L 2419 0  L 2419 1100  L 313 1100  L 313 1709  L 2253 4666  z "
         transform="scale(0.015625)" />
    </defs>
    <defs
       id="defs470">
      <path
         id="DejaVuSans-33"
         d="M 2597 2516  Q 3050 2419 3304 2112  Q 3559 1806 3559 1356  Q 3559 666 3084 287  Q 2609 -91 1734 -91  Q 1441 -91 1130 -33  Q 819 25 488 141  L 488 750  Q 750 597 1062 519  Q 1375 441 1716 441  Q 2309 441 2620 675  Q 2931 909 2931 1356  Q 2931 1769 2642 2001  Q 2353 2234 1838 2234  L 1294 2234  L 1294 2753  L 1863 2753  Q 2328 2753 2575 2939  Q 2822 3125 2822 3475  Q 2822 3834 2567 4026  Q 2313 4219 1838 4219  Q 1578 4219 1281 4162  Q 984 4106 628 3988  L 628 4550  Q 988 4650 1302 4700  Q 1616 4750 1894 4750  Q 2613 4750 3031 4423  Q 3450 4097 3450 3541  Q 3450 3153 3228 2886  Q 3006 2619 2597 2516  z "
         transform="scale(0.015625)" />
    </defs>
    <defs
       id="defs490">
      <path
         id="DejaVuSans-32"
         d="M 1228 531  L 3431 531  L 3431 0  L 469 0  L 469 531  Q 828 903 1448 1529  Q 2069 2156 2228 2338  Q 2531 2678 2651 2914  Q 2772 3150 2772 3378  Q 2772 3750 2511 3984  Q 2250 4219 1831 4219  Q 1534 4219 1204 4116  Q 875 4013 500 3803  L 500 4441  Q 881 4594 1212 4672  Q 1544 4750 1819 4750  Q 2544 4750 2975 4387  Q 3406 4025 3406 3419  Q 3406 3131 3298 2873  Q 3191 2616 2906 2266  Q 2828 2175 2409 1742  Q 1991 1309 1228 531  z "
         transform="scale(0.015625)" />
    </defs>
    <defs
       id="defs510">
      <path
         id="DejaVuSans-31"
         d="M 794 531  L 1825 531  L 1825 4091  L 703 3866  L 703 4441  L 1819 4666  L 2450 4666  L 2450 531  L 3481 531  L 3481 0  L 794 0  L 794 531  z "
         transform="scale(0.015625)" />
    </defs>
    <defs
       id="defs586">
      <path
         id="me5b854da44"
         d="M 0 0  L -3.5 0  "
         style="stroke: #000000; stroke-width: 0.8" />
    </defs>
    <defs
       id="defs639">
      <path
         id="DejaVuSans-36"
         d="M 2113 2584  Q 1688 2584 1439 2293  Q 1191 2003 1191 1497  Q 1191 994 1439 701  Q 1688 409 2113 409  Q 2538 409 2786 701  Q 3034 994 3034 1497  Q 3034 2003 2786 2293  Q 2538 2584 2113 2584  z M 3366 4563  L 3366 3988  Q 3128 4100 2886 4159  Q 2644 4219 2406 4219  Q 1781 4219 1451 3797  Q 1122 3375 1075 2522  Q 1259 2794 1537 2939  Q 1816 3084 2150 3084  Q 2853 3084 3261 2657  Q 3669 2231 3669 1497  Q 3669 778 3244 343  Q 2819 -91 2113 -91  Q 1303 -91 875 529  Q 447 1150 447 2328  Q 447 3434 972 4092  Q 1497 4750 2381 4750  Q 2619 4750 2861 4703  Q 3103 4656 3366 4563  z "
         transform="scale(0.015625)" />
    </defs>
    <defs
       id="defs657">
      <path
         id="DejaVuSans-38"
         d="M 2034 2216  Q 1584 2216 1326 1975  Q 1069 1734 1069 1313  Q 1069 891 1326 650  Q 1584 409 2034 409  Q 2484 409 2743 651  Q 3003 894 3003 1313  Q 3003 1734 2745 1975  Q 2488 2216 2034 2216  z M 1403 2484  Q 997 2584 770 2862  Q 544 3141 544 3541  Q 544 4100 942 4425  Q 1341 4750 2034 4750  Q 2731 4750 3128 4425  Q 3525 4100 3525 3541  Q 3525 3141 3298 2862  Q 3072 2584 2669 2484  Q 3125 2378 3379 2068  Q 3634 1759 3634 1313  Q 3634 634 3220 271  Q 2806 -91 2034 -91  Q 1263 -91 848 271  Q 434 634 434 1313  Q 434 1759 690 2068  Q 947 2378 1403 2484  z M 1172 3481  Q 1172 3119 1398 2916  Q 1625 2713 2034 2713  Q 2441 2713 2670 2916  Q 2900 3119 2900 3481  Q 2900 3844 2670 4047  Q 2441 4250 2034 4250  Q 1625 4250 1398 4047  Q 1172 3844 1172 3481  z "
         transform="scale(0.015625)" />
    </defs>
    <clipPath
       id="clipPath7896">
      <path
         clip-rule="nonzero"
         d="M 0,0 H 10 V 12.914063 H 0 Z m 0,0"
         id="path8911" />
    </clipPath>
    <clipPath
       id="clipPath8951">
      <path
         clip-rule="nonzero"
         d="M 0,0 H 8 V 7.410156 H 0 Z m 0,0"
         id="path6584" />
    </clipPath>
    <clipPath
       id="clipPath9120">
      <path
         clip-rule="nonzero"
         d="M 0,0 H 9 V 8.894531 H 0 Z m 0,0"
         id="path5496" />
    </clipPath>
  </defs>
  <path
     d="M 0 0  L 0 3.5  "
     style="stroke-linejoin:round;stroke-linecap:butt;stroke:#000000;stroke-width:0.8;opacity:1.0"
     id="use441"
     transform="translate(57.6, 307.584)"
     unlinked_clone="True" />
  <path
     d="M 0 0  L 0 3.5  "
     style="stroke-linejoin:round;stroke-linecap:butt;stroke:#000000;stroke-width:0.8;opacity:1.0"
     id="use464"
     transform="translate(108.617, 307.584)"
     unlinked_clone="True" />
  <path
     d="M 0 0  L 0 3.5  "
     style="stroke-linejoin:round;stroke-linecap:butt;stroke:#000000;stroke-width:0.8;opacity:1.0"
     id="use484"
     transform="translate(159.634, 307.584)"
     unlinked_clone="True" />
  <path
     d="M 0 0  L 0 3.5  "
     style="stroke-linejoin:round;stroke-linecap:butt;stroke:#000000;stroke-width:0.8;opacity:1.0"
     id="use504"
     transform="translate(210.651, 307.584)"
     unlinked_clone="True" />
  <path
     d="M 0 0  L 0 3.5  "
     style="stroke-linejoin:round;stroke-linecap:butt;stroke:#000000;stroke-width:0.8;opacity:1.0"
     id="use524"
     transform="translate(261.669, 307.584)"
     unlinked_clone="True" />
  <path
     d="M 0 0  L 0 3.5  "
     style="stroke-linejoin:round;stroke-linecap:butt;stroke:#000000;stroke-width:0.8;opacity:1.0"
     id="use539"
     transform="translate(312.686, 307.584)"
     unlinked_clone="True" />
  <path
     d="M 0 0  L 0 3.5  "
     style="stroke-linejoin:round;stroke-linecap:butt;stroke:#000000;stroke-width:0.8;opacity:1.0"
     id="use554"
     transform="translate(363.703, 307.584)"
     unlinked_clone="True" />
  <path
     d="M 0 0  L 0 3.5  "
     style="stroke-linejoin:round;stroke-linecap:butt;stroke:#000000;stroke-width:0.8;opacity:1.0"
     id="use569"
     transform="translate(414.72, 307.584)"
     unlinked_clone="True" />
  <path
     d="M 0 0  L -3.5 0  "
     style="stroke-linejoin:round;stroke-linecap:butt;stroke:#000000;stroke-width:0.8;opacity:1.0"
     id="use588"
     transform="translate(57.6, 296.014)"
     unlinked_clone="True" />
  <path
     d="M 0 0  L -3.5 0  "
     style="stroke-linejoin:round;stroke-linecap:butt;stroke:#000000;stroke-width:0.8;opacity:1.0"
     id="use603"
     transform="translate(57.6, 249.734)"
     unlinked_clone="True" />
  <path
     d="M 0 0  L -3.5 0  "
     style="stroke-linejoin:round;stroke-linecap:butt;stroke:#000000;stroke-width:0.8;opacity:1.0"
     id="use618"
     transform="translate(57.6, 203.453)"
     unlinked_clone="True" />
  <path
     d="M 0 0  L -3.5 0  "
     style="stroke-linejoin:round;stroke-linecap:butt;stroke:#000000;stroke-width:0.8;opacity:1.0"
     id="use633"
     transform="translate(57.6, 157.173)"
     unlinked_clone="True" />
  <path
     d="M 0 0  L -3.5 0  "
     style="stroke-linejoin:round;stroke-linecap:butt;stroke:#000000;stroke-width:0.8;opacity:1.0"
     id="use651"
     transform="translate(57.6, 110.893)"
     unlinked_clone="True" />
  <path
     d="M 0 0  L -3.5 0  "
     style="stroke-linejoin:round;stroke-linecap:butt;stroke:#000000;stroke-width:0.8;opacity:1.0"
     id="use669"
     transform="translate(57.6, 64.6122)"
     unlinked_clone="True" />
  <path
     d="M 134.125714 132.388174  L 134.355291 128.953203  L 134.814446 126.482747  L 135.503177 124.096043  L 136.421486 121.757181  L 137.569371 119.455996  L 138.946834 117.187956  L 140.668663 114.802929  L 142.620069 112.485216  L 144.91584 110.108804  L 147.555977 107.702111  L 150.54048 105.283016  L 153.984137 102.783873  L 157.886949 100.234856  L 162.248914 97.656977  L 167.184823 95.006044  L 172.694674 92.307485  L 178.778469 89.579924  L 185.550994 86.791655  L 193.012251 83.963219  L 201.277029 81.071515  L 210.345326 78.1368  L 220.331931 75.141506  L 231.236846 72.104637  L 243.174857 69.012339  L 256.260754 65.855225  L 270.494537 62.652328  L 285.990994 59.395479  L 302.864914 56.079355  L 321.116297 52.721302  L 340.97472 49.296947  L 362.440183 45.82453  L 385.627474 42.302005  L 410.651383 38.728531  L 414.783771 38.15884  L 414.783771 38.15884  "
     clip-path="url(#pfc463a8aa5)"
     style="stroke-linejoin:round;stroke-linecap:square;fill:none;stroke:#000000;stroke-width:1.5;opacity:1.0"
     id="path685" />
  <path
     d="M 134.125714 132.388174  L 134.3808 136.088804  L 134.890971 138.853087  L 135.656229 141.610204  L 136.676571 144.399091  L 137.952 147.231869  L 139.610057 150.33778  L 141.5232 153.446392  L 143.818971 156.757063  L 146.624914 160.396849  L 149.941029 164.311591  L 153.767314 168.472749  L 158.231314 172.994048  L 163.588114 178.092599  L 170.0928 183.961545  L 178.383086 191.123185  L 191.647543 202.241279  L 207.335314 215.458829  L 215.880686 222.95264  L 222.768 229.280805  L 228.634971 234.968917  L 233.736686 240.223065  L 238.200686 245.138985  L 242.026971 249.67072  L 245.470629 254.087612  L 248.531657 258.380292  L 251.210057 262.52982  L 253.505829 266.502674  L 255.418971 270.2421  L 257.077029 273.96084  L 258.48 277.662196  L 259.627886 281.349305  L 260.520686 285.025168  L 261.1584 288.692682  L 261.541029 292.354673  L 261.668571 296.013913  L 261.668571 296.013913  "
     clip-path="url(#pfc463a8aa5)"
     style="stroke-linejoin:round;stroke-linecap:butt;fill:none;stroke-dasharray:5.55,2.4;stroke-dashoffset:0;stroke:#000000;stroke-width:1.5;opacity:1.0"
     id="path688" />
  <path
     d="M -1 296.013913  L 261.668571 296.013913  "
     clip-path="url(#pfc463a8aa5)"
     style="stroke-linejoin:round;stroke-linecap:square;fill:none;stroke:#000000;stroke-width:1.5;opacity:1.0"
     id="path691" />
  <path
     d="M 261.668571 296.013913  L 461.8 296.013913  "
     clip-path="url(#pfc463a8aa5)"
     style="stroke-linejoin:round;stroke-linecap:butt;fill:none;stroke-dasharray:5.55,2.4;stroke-dashoffset:0;stroke:#000000;stroke-width:1.5;opacity:1.0"
     id="path694" />
  <path
     d="M 57.6 307.584  L 57.6 41.472  "
     style="stroke-linejoin:miter;stroke-linecap:square;fill:none;stroke:#000000;stroke-width:0.8;opacity:1.0"
     id="path697" />
  <path
     d="M 414.72 307.584  L 414.72 41.472  "
     style="stroke-linejoin:miter;stroke-linecap:square;fill:none;stroke:#000000;stroke-width:0.8;opacity:1.0"
     id="path700" />
  <path
     d="M 57.6 307.584  L 414.72 307.584  "
     style="stroke-linejoin:miter;stroke-linecap:square;fill:none;stroke:#000000;stroke-width:0.8;opacity:1.0"
     id="path703" />
  <path
     d="M 57.6 41.472  L 414.72 41.472  "
     style="stroke-linejoin:miter;stroke-linecap:square;fill:none;stroke:#000000;stroke-width:0.8;opacity:1.0"
     id="path706" />
  <defs
     id="defs714">
    <clipPath
       id="pfc463a8aa5">
      <rect
         x="57.6"
         y="41.472"
         width="357.12"
         height="266.112"
         id="rect711" />
    </clipPath>
  </defs>
  <text
     xml:space="preserve"
     style="font-size:21.3333px;font-family:'CMU Serif';-inkscape-font-specification:'CMU Serif';text-align:center;text-anchor:middle;fill:#000000;stroke-width:1.34404;stroke-linejoin:round"
     x="583.87872"
     y="450.15305"
     id="text1323"
     transform="matrix(0.75,0,0,0.75,-23.157792,-12.198426)"><tspan
       sodipodi:role="line"
       id="tspan1321"
       x="583.87872"
       y="450.15305">0.3</tspan></text>
  <text
     xml:space="preserve"
     style="font-size:21.3333px;font-family:'CMU Serif';-inkscape-font-specification:'CMU Serif';text-align:center;text-anchor:middle;fill:#000000;stroke-width:1.34404;stroke-linejoin:round"
     x="333.03659"
     y="456.9671"
     id="text1379"
     transform="matrix(0.75,0,0,0.75,11.89937,-17.308968)"><tspan
       sodipodi:role="line"
       id="tspan1377"
       x="333.03659"
       y="456.9671">0.0</tspan></text>
  <text
     xml:space="preserve"
     style="font-size:21.3333px;font-family:'CMU Serif';-inkscape-font-specification:'CMU Serif';text-align:center;text-anchor:middle;fill:#000000;stroke-width:1.34404;stroke-linejoin:round"
     x="188.95543"
     y="455.51755"
     id="text1433"
     transform="matrix(0.75,0,0,0.75,-35.937876,-16.221802)"><tspan
       sodipodi:role="line"
       id="tspan1431"
       x="188.95543"
       y="455.51755">-0.3</tspan></text>
  <text
     xml:space="preserve"
     style="font-size:21.3333px;font-family:'CMU Serif';-inkscape-font-specification:'CMU Serif';text-align:center;text-anchor:middle;fill:#000000;stroke-width:1.34404;stroke-linejoin:round"
     x="0"
     y="404.15469"
     id="text1441"
     transform="matrix(0.75,0,0,0.75,46.576968,-1.9497716)"><tspan
       sodipodi:role="line"
       id="tspan1439"
       x="0"
       y="404.15469">0</tspan></text>
  <text
     xml:space="preserve"
     style="font-size:21.3333px;font-family:'CMU Serif';-inkscape-font-specification:'CMU Serif';text-align:center;text-anchor:middle;fill:#000000;stroke-width:1.34404;stroke-linejoin:round"
     x="10.122612"
     y="89.228951"
     id="text1445"
     transform="matrix(0.75,0,0,0.75,39.641258,3.0186037)"><tspan
       sodipodi:role="line"
       id="tspan1443"
       x="10.122612"
       y="89.228951">1</tspan></text>
  <path
     id="path1143"
     style="fill:#008000;stroke:#008000;stroke-width:1.05;stroke-linecap:butt;stroke-linejoin:miter;stroke-miterlimit:4;stroke-dasharray:1.05, 3.15;stroke-dashoffset:0;stroke-opacity:1"
     d="M 139.82959,41.507813 V 306.90527 Z"
     transform="translate(-5.726617,-0.435813)" />
  <g
     inkscape:label=""
     transform="matrix(1.8025505,0,0,1.8025505,-43.420015,184.04833)"
     id="g1405"
     style="fill:#008000;fill-opacity:1;stroke-width:1.00025;stroke-linecap:butt;stroke-linejoin:round;stroke-miterlimit:4;stroke-dasharray:none">
    <g
       id="g1445"
       style="fill:#008000;fill-opacity:1;stroke-width:1.00025;stroke-linecap:butt;stroke-linejoin:round;stroke-miterlimit:4;stroke-dasharray:none">
      <g
         style="fill:#008000;fill-opacity:1;stroke-width:1.00025;stroke-linecap:butt;stroke-linejoin:round;stroke-miterlimit:4;stroke-dasharray:none"
         id="g6538">
        <g
           id="use3885"
           style="fill:#008000;fill-opacity:1;stroke-width:1.00025;stroke-miterlimit:4;stroke-dasharray:none"
           transform="translate(91.925003,81.962997)">
          <path
             style="stroke:none;stroke-linecap:butt;stroke-linejoin:round"
             d="M 4.859375,-2.765625 C 4.921875,-2.9375 4.9375,-3.078125 4.9375,-3.34375 c 0,-0.640625 -0.390625,-1.0625 -1.140625,-1.0625 -0.78125,0 -1.296875,0.515625 -1.546875,0.875 -0.046875,-0.578125 -0.46875,-0.875 -0.921875,-0.875 -0.453125,0 -0.640625,0.390625 -0.734375,0.5625 C 0.421875,-3.5 0.296875,-2.90625 0.296875,-2.875 c 0,0.109375 0.09375,0.109375 0.109375,0.109375 0.109375,0 0.109375,-0.015625 0.171875,-0.234375 0.171875,-0.703125 0.375,-1.1875 0.734375,-1.1875 0.15625,0 0.296875,0.078125 0.296875,0.453125 0,0.21875 -0.03125,0.328125 -0.15625,0.84375 L 0.875,-0.59375 c -0.03125,0.15625 -0.09375,0.390625 -0.09375,0.4375 0,0.171875 0.140625,0.265625 0.296875,0.265625 0.125,0 0.296875,-0.078125 0.375,-0.28125 0,-0.015625 0.125,-0.484375 0.1875,-0.734375 l 0.21875,-0.890625 C 1.90625,-2.03125 1.96875,-2.25 2.03125,-2.46875 2.046875,-2.53125 2.125,-2.859375 2.140625,-2.921875 2.15625,-3.015625 2.46875,-3.5625 2.8125,-3.84375 3.03125,-4 3.34375,-4.1875 3.765625,-4.1875 c 0.4375,0 0.546875,0.34375 0.546875,0.703125 0,0.046875 0,0.21875 -0.109375,0.625 l -1.125,4.578125 c -0.03125,0.125 -0.03125,0.140625 -0.03125,0.171875 0,0.140625 0.109375,0.265625 0.265625,0.265625 0.3125,0 0.390625,-0.296875 0.421875,-0.40625 z m 0,0"
             id="path1940" />
        </g>
      </g>
      <g
         style="fill:#008000;fill-opacity:1;stroke-width:1.00025;stroke-linecap:butt;stroke-linejoin:round;stroke-miterlimit:4;stroke-dasharray:none"
         id="g3662">
        <g
           id="use5487"
           style="fill:#008000;fill-opacity:1;stroke-width:1.00025;stroke-miterlimit:4;stroke-dasharray:none"
           transform="translate(96.872002,83.457001)">
          <path
             style="stroke:none;stroke-linecap:butt;stroke-linejoin:round"
             d="m 3,-2.625 c -0.171875,0.046875 -0.296875,0.1875 -0.296875,0.328125 0,0.171875 0.140625,0.234375 0.234375,0.234375 0.078125,0 0.34375,-0.046875 0.34375,-0.40625 0,-0.453125 -0.5,-0.609375 -0.9375,-0.609375 -1.078125,0 -1.28125,0.8125 -1.28125,1.015625 0,0.265625 0.15625,0.4375 0.25,0.515625 0.171875,0.140625 0.296875,0.171875 0.78125,0.25 0.15625,0.03125 0.59375,0.109375 0.59375,0.453125 0,0.125 -0.078125,0.390625 -0.359375,0.5625 C 2.046875,-0.125 1.703125,-0.125 1.625,-0.125 1.34375,-0.125 0.953125,-0.1875 0.78125,-0.421875 1.015625,-0.453125 1.171875,-0.625 1.171875,-0.8125 c 0,-0.171875 -0.125,-0.265625 -0.265625,-0.265625 -0.203125,0 -0.40625,0.171875 -0.40625,0.46875 0,0.421875 0.4375,0.671875 1.109375,0.671875 1.296875,0 1.53125,-0.875 1.53125,-1.140625 0,-0.640625 -0.703125,-0.765625 -0.96875,-0.8125 -0.0625,-0.015625 -0.234375,-0.046875 -0.28125,-0.0625 -0.25,-0.046875 -0.375,-0.1875 -0.375,-0.34375 0,-0.15625 0.125,-0.34375 0.28125,-0.453125 0.1875,-0.109375 0.421875,-0.125 0.546875,-0.125 0.140625,0 0.5,0.015625 0.65625,0.25 z m 0,0"
             id="path1944" />
        </g>
        <g
           id="use9925"
           style="fill:#008000;fill-opacity:1;stroke-width:1.00025;stroke-miterlimit:4;stroke-dasharray:none"
           transform="translate(100.63227,83.457001)">
          <path
             style="stroke:none;stroke-linecap:butt;stroke-linejoin:round"
             d="m 0.84375,-0.4375 c -0.015625,0.09375 -0.0625,0.265625 -0.0625,0.28125 0,0.15625 0.125,0.21875 0.234375,0.21875 0.125,0 0.234375,-0.078125 0.28125,-0.140625 0.03125,-0.0625 0.078125,-0.296875 0.125,-0.4375 0.03125,-0.125 0.109375,-0.453125 0.140625,-0.625 0.046875,-0.15625 0.09375,-0.3125 0.125,-0.46875 0.078125,-0.28125 0.09375,-0.34375 0.296875,-0.625 C 2.171875,-2.515625 2.5,-2.875 3.03125,-2.875 c 0.390625,0 0.40625,0.359375 0.40625,0.484375 0,0.421875 -0.296875,1.1875 -0.40625,1.484375 -0.078125,0.203125 -0.109375,0.265625 -0.109375,0.375 0,0.375 0.296875,0.59375 0.65625,0.59375 0.703125,0 1,-0.953125 1,-1.0625 0,-0.09375 -0.078125,-0.09375 -0.109375,-0.09375 -0.09375,0 -0.09375,0.046875 -0.125,0.125 C 4.1875,-0.40625 3.875,-0.125 3.609375,-0.125 c -0.15625,0 -0.1875,-0.09375 -0.1875,-0.25 0,-0.15625 0.046875,-0.25 0.171875,-0.5625 0.078125,-0.21875 0.359375,-0.953125 0.359375,-1.34375 0,-0.671875 -0.53125,-0.796875 -0.90625,-0.796875 -0.578125,0 -0.96875,0.359375 -1.171875,0.640625 -0.046875,-0.484375 -0.453125,-0.640625 -0.75,-0.640625 -0.296875,0 -0.453125,0.21875 -0.546875,0.375 -0.15625,0.265625 -0.25,0.65625 -0.25,0.703125 0,0.078125 0.09375,0.078125 0.125,0.078125 0.09375,0 0.09375,-0.015625 0.140625,-0.203125 0.109375,-0.40625 0.25,-0.75 0.515625,-0.75 0.1875,0 0.234375,0.15625 0.234375,0.34375 0,0.125 -0.0625,0.390625 -0.125,0.578125 -0.046875,0.1875 -0.109375,0.46875 -0.140625,0.625 z m 0,0"
             id="path1948" />
        </g>
      </g>
    </g>
  </g>
  <g
     inkscape:label=""
     transform="translate(231.44906,330.32754)"
     id="g2569"
     style="display:inline;stroke-linecap:butt;stroke-linejoin:round">
    <g
       clip-path="url(#clipPath7896)"
       id="g2567"
       transform="translate(-0.5625,0.213375)"
       style="stroke-linecap:butt;stroke-linejoin:round">
      <g
         fill="#000000"
         fill-opacity="1"
         id="g2565"
         style="stroke-linecap:butt;stroke-linejoin:round">
        <g
           id="g2563"
           transform="translate(0,8.8959999)"
           style="stroke-linecap:butt;stroke-linejoin:round">
          <path
             d="M 9.8125,-5.71875 C 9.921875,-6.140625 9.984375,-6.375 9.984375,-6.9375 c 0,-1.25 -0.734375,-2.171875 -2.296875,-2.171875 -1.84375,0 -2.8125,1.296875 -3.1875,1.8125 -0.0625,-1.171875 -0.90625,-1.8125 -1.8125,-1.8125 -0.59375,0 -1.078125,0.296875 -1.46875,1.078125 -0.375,0.734375 -0.65625,2 -0.65625,2.078125 0,0.09375 0.078125,0.1875 0.21875,0.1875 0.171875,0 0.1875,-0.015625 0.3125,-0.5 0.3125,-1.21875 0.703125,-2.4375 1.53125,-2.4375 0.46875,0 0.640625,0.34375 0.640625,0.953125 0,0.453125 -0.203125,1.265625 -0.359375,1.90625 l -0.578125,2.234375 c -0.078125,0.390625 -0.296875,1.3125 -0.40625,1.6875 -0.140625,0.53125 -0.375,1.515625 -0.375,1.609375 0,0.296875 0.234375,0.515625 0.546875,0.515625 0.234375,0 0.53125,-0.125 0.6875,-0.4375 0.046875,-0.09375 0.234375,-0.8125 0.34375,-1.234375 L 3.578125,-3.328125 4.25,-6.046875 C 4.296875,-6.171875 4.8125,-7.203125 5.578125,-7.875 6.109375,-8.359375 6.8125,-8.703125 7.625,-8.703125 c 0.828125,0 1.109375,0.625 1.109375,1.453125 0,0.59375 -0.078125,0.921875 -0.1875,1.328125 l -2.390625,9.5 c -0.015625,0.09375 -0.0625,0.21875 -0.0625,0.34375 0,0.3125 0.25,0.515625 0.5625,0.515625 0.1875,0 0.609375,-0.078125 0.78125,-0.703125 z m 0,0"
             id="path2561"
             style="stroke-linecap:butt;stroke-linejoin:round" />
        </g>
      </g>
    </g>
  </g>
  <g
     inkscape:label=""
     transform="translate(26.804768,169.86736)"
     id="g2513">
    <g
       clip-path="url(#clipPath9120)"
       id="g2511"
       transform="translate(-0.5625,0.213375)">
      <g
         fill="#000000"
         fill-opacity="1"
         id="g2509">
        <g
           id="g2507"
           transform="translate(0,8.8959999)">
          <path
             d="m 8.03125,-8.453125 c -0.640625,0.125 -0.96875,0.578125 -0.96875,1.03125 0,0.5 0.390625,0.671875 0.6875,0.671875 0.578125,0 1.046875,-0.5 1.046875,-1.125 0,-0.65625 -0.640625,-1.234375 -1.671875,-1.234375 -0.828125,0 -1.78125,0.375 -2.640625,1.625 -0.140625,-1.09375 -0.96875,-1.625 -1.796875,-1.625 -0.8125,0 -1.21875,0.625 -1.46875,1.078125 -0.34375,0.734375 -0.65625,1.984375 -0.65625,2.078125 0,0.09375 0.078125,0.1875 0.21875,0.1875 0.171875,0 0.1875,-0.015625 0.3125,-0.5 0.3125,-1.234375 0.703125,-2.4375 1.53125,-2.4375 0.5,0 0.640625,0.359375 0.640625,0.953125 0,0.453125 -0.203125,1.265625 -0.359375,1.90625 l -0.578125,2.234375 c -0.078125,0.390625 -0.296875,1.3125 -0.40625,1.6875 -0.140625,0.53125 -0.375,1.515625 -0.375,1.609375 0,0.296875 0.234375,0.515625 0.546875,0.515625 0.21875,0 0.609375,-0.140625 0.734375,-0.546875 C 2.890625,-0.515625 3.65625,-3.640625 3.78125,-4.109375 3.890625,-4.5625 4,-5 4.109375,-5.453125 4.1875,-5.75 4.28125,-6.078125 4.34375,-6.34375 4.40625,-6.53125 4.953125,-7.546875 5.46875,-8 c 0.25,-0.21875 0.796875,-0.703125 1.640625,-0.703125 0.328125,0 0.65625,0.0625 0.921875,0.25 z m 0,0"
             id="path2505" />
        </g>
      </g>
    </g>
  </g>
</svg>
