<?xml version="1.0" encoding="UTF-8" standalone="no"?>
<svg
   width="460.8pt"
   height="345.6pt"
   viewBox="0 0 460.8 345.6"
   version="1.1"
   id="svg3207"
   sodipodi:docname="supercritical_hopf.svg"
   inkscape:version="1.2.2 (732a01da63, 2022-12-09)"
   xmlns:inkscape="http://www.inkscape.org/namespaces/inkscape"
   xmlns:sodipodi="http://sodipodi.sourceforge.net/DTD/sodipodi-0.dtd"
   xmlns="http://www.w3.org/2000/svg"
   xmlns:svg="http://www.w3.org/2000/svg"
   xmlns:rdf="http://www.w3.org/1999/02/22-rdf-syntax-ns#"
   xmlns:cc="http://creativecommons.org/ns#"
   xmlns:dc="http://purl.org/dc/elements/1.1/">
  <sodipodi:namedview
     id="namedview3209"
     pagecolor="#ffffff"
     bordercolor="#000000"
     borderopacity="0.25"
     inkscape:showpageshadow="2"
     inkscape:pageopacity="0.0"
     inkscape:pagecheckerboard="0"
     inkscape:deskcolor="#d1d1d1"
     inkscape:document-units="pt"
     showgrid="false"
     inkscape:zoom="1.4142136"
     inkscape:cx="173.94827"
     inkscape:cy="230.51681"
     inkscape:window-width="2560"
     inkscape:window-height="1334"
     inkscape:window-x="-11"
     inkscape:window-y="-11"
     inkscape:window-maximized="1"
     inkscape:current-layer="svg3207" />
  <metadata
     id="metadata2910">
    <rdf:RDF>
      <cc:Work>
        <dc:type
           rdf:resource="http://purl.org/dc/dcmitype/StillImage" />
        <dc:date />
        <dc:format />
        <dc:creator>
          <cc:Agent>
            <dc:title />
          </cc:Agent>
        </dc:creator>
      </cc:Work>
    </rdf:RDF>
  </metadata>
  <defs
     id="defs2914">
    <style
       type="text/css"
       id="style2912">*{stroke-linejoin: round; stroke-linecap: butt}</style>
    <defs
       id="defs2923">
      <path
         id="m3c582f0ac2"
         d="M 0 0  L 0 3.5  "
         style="stroke: #000000; stroke-width: 0.8" />
    </defs>
    <defs
       id="defs2934">
      <path
         id="DejaVuSans-2212"
         d="M 678 2272  L 4684 2272  L 4684 1741  L 678 1741  L 678 2272  z "
         transform="scale(0.015625)" />
      <path
         id="DejaVuSans-30"
         d="M 2034 4250  Q 1547 4250 1301 3770  Q 1056 3291 1056 2328  Q 1056 1369 1301 889  Q 1547 409 2034 409  Q 2525 409 2770 889  Q 3016 1369 3016 2328  Q 3016 3291 2770 3770  Q 2525 4250 2034 4250  z M 2034 4750  Q 2819 4750 3233 4129  Q 3647 3509 3647 2328  Q 3647 1150 3233 529  Q 2819 -91 2034 -91  Q 1250 -91 836 529  Q 422 1150 422 2328  Q 422 3509 836 4129  Q 1250 4750 2034 4750  z "
         transform="scale(0.015625)" />
      <path
         id="DejaVuSans-2e"
         d="M 684 794  L 1344 794  L 1344 0  L 684 0  L 684 794  z "
         transform="scale(0.015625)" />
      <path
         id="DejaVuSans-36"
         d="M 2113 2584  Q 1688 2584 1439 2293  Q 1191 2003 1191 1497  Q 1191 994 1439 701  Q 1688 409 2113 409  Q 2538 409 2786 701  Q 3034 994 3034 1497  Q 3034 2003 2786 2293  Q 2538 2584 2113 2584  z M 3366 4563  L 3366 3988  Q 3128 4100 2886 4159  Q 2644 4219 2406 4219  Q 1781 4219 1451 3797  Q 1122 3375 1075 2522  Q 1259 2794 1537 2939  Q 1816 3084 2150 3084  Q 2853 3084 3261 2657  Q 3669 2231 3669 1497  Q 3669 778 3244 343  Q 2819 -91 2113 -91  Q 1303 -91 875 529  Q 447 1150 447 2328  Q 447 3434 972 4092  Q 1497 4750 2381 4750  Q 2619 4750 2861 4703  Q 3103 4656 3366 4563  z "
         transform="scale(0.015625)" />
    </defs>
    <defs
       id="defs2954">
      <path
         id="DejaVuSans-34"
         d="M 2419 4116  L 825 1625  L 2419 1625  L 2419 4116  z M 2253 4666  L 3047 4666  L 3047 1625  L 3713 1625  L 3713 1100  L 3047 1100  L 3047 0  L 2419 0  L 2419 1100  L 313 1100  L 313 1709  L 2253 4666  z "
         transform="scale(0.015625)" />
    </defs>
    <defs
       id="defs2974">
      <path
         id="DejaVuSans-32"
         d="M 1228 531  L 3431 531  L 3431 0  L 469 0  L 469 531  Q 828 903 1448 1529  Q 2069 2156 2228 2338  Q 2531 2678 2651 2914  Q 2772 3150 2772 3378  Q 2772 3750 2511 3984  Q 2250 4219 1831 4219  Q 1534 4219 1204 4116  Q 875 4013 500 3803  L 500 4441  Q 881 4594 1212 4672  Q 1544 4750 1819 4750  Q 2544 4750 2975 4387  Q 3406 4025 3406 3419  Q 3406 3131 3298 2873  Q 3191 2616 2906 2266  Q 2828 2175 2409 1742  Q 1991 1309 1228 531  z "
         transform="scale(0.015625)" />
    </defs>
    <defs
       id="defs3054">
      <path
         id="DejaVuSans-38"
         d="M 2034 2216  Q 1584 2216 1326 1975  Q 1069 1734 1069 1313  Q 1069 891 1326 650  Q 1584 409 2034 409  Q 2484 409 2743 651  Q 3003 894 3003 1313  Q 3003 1734 2745 1975  Q 2488 2216 2034 2216  z M 1403 2484  Q 997 2584 770 2862  Q 544 3141 544 3541  Q 544 4100 942 4425  Q 1341 4750 2034 4750  Q 2731 4750 3128 4425  Q 3525 4100 3525 3541  Q 3525 3141 3298 2862  Q 3072 2584 2669 2484  Q 3125 2378 3379 2068  Q 3634 1759 3634 1313  Q 3634 634 3220 271  Q 2806 -91 2034 -91  Q 1263 -91 848 271  Q 434 634 434 1313  Q 434 1759 690 2068  Q 947 2378 1403 2484  z M 1172 3481  Q 1172 3119 1398 2916  Q 1625 2713 2034 2713  Q 2441 2713 2670 2916  Q 2900 3119 2900 3481  Q 2900 3844 2670 4047  Q 2441 4250 2034 4250  Q 1625 4250 1398 4047  Q 1172 3844 1172 3481  z "
         transform="scale(0.015625)" />
    </defs>
    <defs
       id="defs3072">
      <path
         id="DejaVuSans-31"
         d="M 794 531  L 1825 531  L 1825 4091  L 703 3866  L 703 4441  L 1819 4666  L 2450 4666  L 2450 531  L 3481 531  L 3481 0  L 794 0  L 794 531  z "
         transform="scale(0.015625)" />
    </defs>
    <defs
       id="defs3086">
      <path
         id="m4115afa87a"
         d="M 0 0  L -3.5 0  "
         style="stroke: #000000; stroke-width: 0.8" />
    </defs>
    <clipPath
       id="clipPath7896">
      <path
         clip-rule="nonzero"
         d="M 0,0 H 10 V 12.914063 H 0 Z m 0,0"
         id="path8911" />
    </clipPath>
    <clipPath
       id="clipPath9120">
      <path
         clip-rule="nonzero"
         d="M 0,0 H 9 V 8.894531 H 0 Z m 0,0"
         id="path5496" />
    </clipPath>
  </defs>
  <path
     d="M 0 0  L 0 3.5  "
     style="stroke-linejoin:round;stroke-linecap:butt;stroke:#000000;stroke-width:0.8;opacity:1.0"
     id="use2925"
     transform="translate(57.6, 307.584)"
     unlinked_clone="True" />
  <path
     d="M 0 0  L 0 3.5  "
     style="stroke-linejoin:round;stroke-linecap:butt;stroke:#000000;stroke-width:0.8;opacity:1.0"
     id="use2948"
     transform="translate(102.24, 307.584)"
     unlinked_clone="True" />
  <path
     d="M 0 0  L 0 3.5  "
     style="stroke-linejoin:round;stroke-linecap:butt;stroke:#000000;stroke-width:0.8;opacity:1.0"
     id="use2968"
     transform="translate(146.88, 307.584)"
     unlinked_clone="True" />
  <path
     d="M 0 0  L 0 3.5  "
     style="stroke-linejoin:round;stroke-linecap:butt;stroke:#000000;stroke-width:0.8;opacity:1.0"
     id="use2988"
     transform="translate(191.52, 307.584)"
     unlinked_clone="True" />
  <path
     d="M 0 0  L 0 3.5  "
     style="stroke-linejoin:round;stroke-linecap:butt;stroke:#000000;stroke-width:0.8;opacity:1.0"
     id="use3003"
     transform="translate(236.16, 307.584)"
     unlinked_clone="True" />
  <path
     d="M 0 0  L 0 3.5  "
     style="stroke-linejoin:round;stroke-linecap:butt;stroke:#000000;stroke-width:0.8;opacity:1.0"
     id="use3018"
     transform="translate(280.8, 307.584)"
     unlinked_clone="True" />
  <path
     d="M 0 0  L 0 3.5  "
     style="stroke-linejoin:round;stroke-linecap:butt;stroke:#000000;stroke-width:0.8;opacity:1.0"
     id="use3033"
     transform="translate(325.44, 307.584)"
     unlinked_clone="True" />
  <path
     d="M 0 0  L 0 3.5  "
     style="stroke-linejoin:round;stroke-linecap:butt;stroke:#000000;stroke-width:0.8;opacity:1.0"
     id="use3048"
     transform="translate(370.08, 307.584)"
     unlinked_clone="True" />
  <path
     d="M 0 0  L 0 3.5  "
     style="stroke-linejoin:round;stroke-linecap:butt;stroke:#000000;stroke-width:0.8;opacity:1.0"
     id="use3066"
     transform="translate(414.72, 307.584)"
     unlinked_clone="True" />
  <path
     d="M 0 0  L -3.5 0  "
     style="stroke-linejoin:round;stroke-linecap:butt;stroke:#000000;stroke-width:0.8;opacity:1.0"
     id="use3088"
     transform="translate(57.6, 296.014)"
     unlinked_clone="True" />
  <path
     d="M 0 0  L -3.5 0  "
     style="stroke-linejoin:round;stroke-linecap:butt;stroke:#000000;stroke-width:0.8;opacity:1.0"
     id="use3103"
     transform="translate(57.6, 249.734)"
     unlinked_clone="True" />
  <path
     d="M 0 0  L -3.5 0  "
     style="stroke-linejoin:round;stroke-linecap:butt;stroke:#000000;stroke-width:0.8;opacity:1.0"
     id="use3118"
     transform="translate(57.6, 203.453)"
     unlinked_clone="True" />
  <path
     d="M 0 0  L -3.5 0  "
     style="stroke-linejoin:round;stroke-linecap:butt;stroke:#000000;stroke-width:0.8;opacity:1.0"
     id="use3133"
     transform="translate(57.6, 157.173)"
     unlinked_clone="True" />
  <path
     d="M 0 0  L -3.5 0  "
     style="stroke-linejoin:round;stroke-linecap:butt;stroke:#000000;stroke-width:0.8;opacity:1.0"
     id="use3148"
     transform="translate(57.6, 110.893)"
     unlinked_clone="True" />
  <path
     d="M 0 0  L -3.5 0  "
     style="stroke-linejoin:round;stroke-linecap:butt;stroke:#000000;stroke-width:0.8;opacity:1.0"
     id="use3163"
     transform="translate(57.6, 64.6122)"
     unlinked_clone="True" />
  <path
     d="M 191.52 296.013913  L 191.7432 288.696348  L 192.1896 283.339518  L 192.8592 278.089611  L 193.752 272.873739  L 194.868 267.673104  L 196.2072 262.480615  L 197.7696 257.292996  L 199.5552 252.10852  L 201.564 246.926191  L 203.796 241.745395  L 206.4744 236.117058  L 209.376 230.563617  L 212.5008 225.067483  L 215.8488 219.616286  L 219.6432 213.874444  L 223.6608 208.203127  L 228.1248 202.303351  L 232.812 196.484262  L 237.9456 190.478483  L 243.3024 184.556076  L 249.1056 178.476407  L 255.3552 172.262651  L 261.828 166.140009  L 268.7472 159.899327  L 276.1128 153.556116  L 283.9248 147.123481  L 292.1832 140.612526  L 300.888 134.032696  L 310.0392 127.392052  L 319.86 120.544857  L 330.1272 113.66112  L 340.8408 106.74483  L 352.224 99.663026  L 364.0536 92.564535  L 376.5528 85.323932  L 389.7216 77.955372  L 403.56 70.471397  L 414.72 64.612174  L 414.72 64.612174  "
     clip-path="url(#p6ee57a7dcf)"
     style="stroke-linejoin:round;stroke-linecap:square;fill:none;stroke:#000000;stroke-width:1.5;opacity:1.0"
     id="path3179" />
  <path
     d="M -1 296.013913  L 191.52 296.013913  "
     clip-path="url(#p6ee57a7dcf)"
     style="stroke-linejoin:round;stroke-linecap:square;fill:none;stroke:#000000;stroke-width:1.5;opacity:1.0"
     id="path3182" />
  <path
     d="M 191.52 296.013913  L 414.72 296.013913  "
     clip-path="url(#p6ee57a7dcf)"
     style="stroke-linejoin:round;stroke-linecap:butt;fill:none;stroke-dasharray:5.55,2.4;stroke-dashoffset:0;stroke:#000000;stroke-width:1.5;opacity:1.0"
     id="path3185" />
  <path
     d="M 57.6 307.584  L 57.6 41.472  "
     style="stroke-linejoin:miter;stroke-linecap:square;fill:none;stroke:#000000;stroke-width:0.8;opacity:1.0"
     id="path3188" />
  <path
     d="M 414.72 307.584  L 414.72 41.472  "
     style="stroke-linejoin:miter;stroke-linecap:square;fill:none;stroke:#000000;stroke-width:0.8;opacity:1.0"
     id="path3191" />
  <path
     d="M 57.6 307.584  L 414.72 307.584  "
     style="stroke-linejoin:miter;stroke-linecap:square;fill:none;stroke:#000000;stroke-width:0.8;opacity:1.0"
     id="path3194" />
  <path
     d="M 57.6 41.472  L 414.72 41.472  "
     style="stroke-linejoin:miter;stroke-linecap:square;fill:none;stroke:#000000;stroke-width:0.8;opacity:1.0"
     id="path3197" />
  <defs
     id="defs3205">
    <clipPath
       id="p6ee57a7dcf">
      <rect
         x="57.6"
         y="41.472"
         width="357.12"
         height="266.112"
         id="rect3202" />
    </clipPath>
  </defs>
  <text
     xml:space="preserve"
     style="font-size:21.3333px;font-family:'CMU Serif';-inkscape-font-specification:'CMU Serif';text-align:center;text-anchor:middle;fill:#000000;stroke-width:1.34404;stroke-linejoin:round"
     x="568.25"
     y="450.5"
     id="text3727"
     transform="matrix(0.75,0,0,0.75,-11.53,-12.458642)"><tspan
       sodipodi:role="line"
       id="tspan3725"
       x="568.25"
       y="450.5">1</tspan></text>
  <text
     xml:space="preserve"
     style="font-size:21.3333px;font-family:'CMU Serif';-inkscape-font-specification:'CMU Serif';text-align:center;text-anchor:middle;fill:#000000;stroke-width:1.34404;stroke-linejoin:round"
     x="255.5"
     y="452.25"
     id="text3731"
     transform="matrix(0.75,0,0,0.75,-0.09718751,-13.771142)"><tspan
       sodipodi:role="line"
       id="tspan3729"
       x="255.5"
       y="452.25">0</tspan></text>
  <text
     xml:space="preserve"
     style="font-size:21.3333px;font-family:'CMU Serif';-inkscape-font-specification:'CMU Serif';text-align:center;text-anchor:middle;fill:#000000;stroke-width:1.34404;stroke-linejoin:round"
     x="43.487068"
     y="436.992"
     id="text3735"
     transform="matrix(0.75,0,0,0.75,13.961667,-26.577668)"><tspan
       sodipodi:role="line"
       id="tspan3733"
       x="43.487068"
       y="436.992">0</tspan></text>
  <text
     xml:space="preserve"
     style="font-size:21.3333px;font-family:'CMU Serif';-inkscape-font-specification:'CMU Serif';text-align:center;text-anchor:middle;fill:#000000;stroke-width:1.34404;stroke-linejoin:round"
     x="47.72971"
     y="92.277435"
     id="text3739"
     transform="matrix(0.75,0,0,0.75,11.435935,0.73224011)"><tspan
       sodipodi:role="line"
       id="tspan3737"
       x="47.72971"
       y="92.277435">1</tspan></text>
  <g
     inkscape:label=""
     transform="translate(231.44906,324.93615)"
     id="g2569"
     style="display:inline;stroke-linecap:butt;stroke-linejoin:round">
    <g
       clip-path="url(#clipPath7896)"
       id="g2567"
       transform="translate(-0.5625,0.213375)"
       style="stroke-linecap:butt;stroke-linejoin:round">
      <g
         fill="#000000"
         fill-opacity="1"
         id="g2565"
         style="stroke-linecap:butt;stroke-linejoin:round">
        <g
           id="g2563"
           transform="translate(0,8.8959999)"
           style="stroke-linecap:butt;stroke-linejoin:round">
          <path
             d="M 9.8125,-5.71875 C 9.921875,-6.140625 9.984375,-6.375 9.984375,-6.9375 c 0,-1.25 -0.734375,-2.171875 -2.296875,-2.171875 -1.84375,0 -2.8125,1.296875 -3.1875,1.8125 -0.0625,-1.171875 -0.90625,-1.8125 -1.8125,-1.8125 -0.59375,0 -1.078125,0.296875 -1.46875,1.078125 -0.375,0.734375 -0.65625,2 -0.65625,2.078125 0,0.09375 0.078125,0.1875 0.21875,0.1875 0.171875,0 0.1875,-0.015625 0.3125,-0.5 0.3125,-1.21875 0.703125,-2.4375 1.53125,-2.4375 0.46875,0 0.640625,0.34375 0.640625,0.953125 0,0.453125 -0.203125,1.265625 -0.359375,1.90625 l -0.578125,2.234375 c -0.078125,0.390625 -0.296875,1.3125 -0.40625,1.6875 -0.140625,0.53125 -0.375,1.515625 -0.375,1.609375 0,0.296875 0.234375,0.515625 0.546875,0.515625 0.234375,0 0.53125,-0.125 0.6875,-0.4375 0.046875,-0.09375 0.234375,-0.8125 0.34375,-1.234375 L 3.578125,-3.328125 4.25,-6.046875 C 4.296875,-6.171875 4.8125,-7.203125 5.578125,-7.875 6.109375,-8.359375 6.8125,-8.703125 7.625,-8.703125 c 0.828125,0 1.109375,0.625 1.109375,1.453125 0,0.59375 -0.078125,0.921875 -0.1875,1.328125 l -2.390625,9.5 c -0.015625,0.09375 -0.0625,0.21875 -0.0625,0.34375 0,0.3125 0.25,0.515625 0.5625,0.515625 0.1875,0 0.609375,-0.078125 0.78125,-0.703125 z m 0,0"
             id="path2561"
             style="stroke-linecap:butt;stroke-linejoin:round" />
        </g>
      </g>
    </g>
  </g>
  <g
     inkscape:label=""
     transform="translate(26.610104,164.47597)"
     id="g2513"
     style="stroke-linecap:butt;stroke-linejoin:round">
    <g
       clip-path="url(#clipPath9120)"
       id="g2511"
       transform="translate(-0.5625,0.213375)"
       style="stroke-linecap:butt;stroke-linejoin:round">
      <g
         fill="#000000"
         fill-opacity="1"
         id="g2509"
         style="stroke-linecap:butt;stroke-linejoin:round">
        <g
           id="g2507"
           transform="translate(0,8.8959999)"
           style="stroke-linecap:butt;stroke-linejoin:round">
          <path
             d="m 8.03125,-8.453125 c -0.640625,0.125 -0.96875,0.578125 -0.96875,1.03125 0,0.5 0.390625,0.671875 0.6875,0.671875 0.578125,0 1.046875,-0.5 1.046875,-1.125 0,-0.65625 -0.640625,-1.234375 -1.671875,-1.234375 -0.828125,0 -1.78125,0.375 -2.640625,1.625 -0.140625,-1.09375 -0.96875,-1.625 -1.796875,-1.625 -0.8125,0 -1.21875,0.625 -1.46875,1.078125 -0.34375,0.734375 -0.65625,1.984375 -0.65625,2.078125 0,0.09375 0.078125,0.1875 0.21875,0.1875 0.171875,0 0.1875,-0.015625 0.3125,-0.5 0.3125,-1.234375 0.703125,-2.4375 1.53125,-2.4375 0.5,0 0.640625,0.359375 0.640625,0.953125 0,0.453125 -0.203125,1.265625 -0.359375,1.90625 l -0.578125,2.234375 c -0.078125,0.390625 -0.296875,1.3125 -0.40625,1.6875 -0.140625,0.53125 -0.375,1.515625 -0.375,1.609375 0,0.296875 0.234375,0.515625 0.546875,0.515625 0.21875,0 0.609375,-0.140625 0.734375,-0.546875 C 2.890625,-0.515625 3.65625,-3.640625 3.78125,-4.109375 3.890625,-4.5625 4,-5 4.109375,-5.453125 4.1875,-5.75 4.28125,-6.078125 4.34375,-6.34375 4.40625,-6.53125 4.953125,-7.546875 5.46875,-8 c 0.25,-0.21875 0.796875,-0.703125 1.640625,-0.703125 0.328125,0 0.65625,0.0625 0.921875,0.25 z m 0,0"
             id="path2505"
             style="stroke-linecap:butt;stroke-linejoin:round" />
        </g>
      </g>
    </g>
  </g>
</svg>
